%TF.GenerationSoftware,Altium Limited,CircuitMaker,2.0.2 (2.0.2.40)*%
G04 Layer_Color=8150272*
%FSLAX25Y25*%
%MOIN*%
%TF.SameCoordinates,264C472C-E0F2-4512-9315-FB6CEB45B93E*%
%TF.FilePolarity,Negative*%
%TF.FileFunction,Soldermask,Bot*%
%TF.Part,Single*%
G01*
G75*
%TA.AperFunction,ComponentPad*%
%ADD75C,0.06800*%
%ADD76R,0.06800X0.06800*%
%ADD77C,0.07493*%
%ADD78O,0.08674X0.07099*%
%ADD79R,0.08674X0.07099*%
G04:AMPARAMS|DCode=80|XSize=53.15mil|YSize=41.34mil|CornerRadius=20.67mil|HoleSize=0mil|Usage=FLASHONLY|Rotation=270.000|XOffset=0mil|YOffset=0mil|HoleType=Round|Shape=RoundedRectangle|*
%AMROUNDEDRECTD80*
21,1,0.05315,0.00000,0,0,270.0*
21,1,0.01181,0.04134,0,0,270.0*
1,1,0.04134,0.00000,-0.00591*
1,1,0.04134,0.00000,0.00591*
1,1,0.04134,0.00000,0.00591*
1,1,0.04134,0.00000,-0.00591*
%
%ADD80ROUNDEDRECTD80*%
G04:AMPARAMS|DCode=81|XSize=64.96mil|YSize=41.34mil|CornerRadius=20.67mil|HoleSize=0mil|Usage=FLASHONLY|Rotation=0.000|XOffset=0mil|YOffset=0mil|HoleType=Round|Shape=RoundedRectangle|*
%AMROUNDEDRECTD81*
21,1,0.06496,0.00000,0,0,0.0*
21,1,0.02362,0.04134,0,0,0.0*
1,1,0.04134,0.01181,0.00000*
1,1,0.04134,-0.01181,0.00000*
1,1,0.04134,-0.01181,0.00000*
1,1,0.04134,0.01181,0.00000*
%
%ADD81ROUNDEDRECTD81*%
%TA.AperFunction,ViaPad*%
%ADD82C,0.04000*%
%ADD83C,0.05800*%
%ADD84C,0.15800*%
D75*
X475000Y354134D02*
D03*
X485000D02*
D03*
X495000D02*
D03*
X505000D02*
D03*
X515000D02*
D03*
X525000D02*
D03*
X535000D02*
D03*
X545000D02*
D03*
X555000D02*
D03*
X565000D02*
D03*
X575000D02*
D03*
X585000D02*
D03*
X595000D02*
D03*
X605000D02*
D03*
X615000D02*
D03*
X625000D02*
D03*
X545000Y245866D02*
D03*
X495000D02*
D03*
X525000D02*
D03*
X575000D02*
D03*
X605000D02*
D03*
X625000D02*
D03*
X411358Y437500D02*
D03*
X393642D02*
D03*
X541791Y209850D02*
D03*
X531949Y200000D02*
D03*
X541791Y190164D02*
D03*
X377619Y189134D02*
D03*
X367776Y198970D02*
D03*
X377619Y208819D02*
D03*
X607500Y437500D02*
D03*
X625217D02*
D03*
X537500D02*
D03*
X555217D02*
D03*
X467500D02*
D03*
X485217D02*
D03*
X285000Y240000D02*
D03*
X304213D02*
D03*
D76*
X475000Y245866D02*
D03*
D77*
X416280Y427658D02*
D03*
X388720D02*
D03*
X602579Y427657D02*
D03*
X630138D02*
D03*
X532579D02*
D03*
X560138D02*
D03*
X462579D02*
D03*
X490138D02*
D03*
D78*
X330000Y275000D02*
D03*
Y285000D02*
D03*
Y295000D02*
D03*
Y305000D02*
D03*
Y315000D02*
D03*
Y325000D02*
D03*
Y335000D02*
D03*
Y345000D02*
D03*
Y355000D02*
D03*
Y365000D02*
D03*
Y375000D02*
D03*
Y385000D02*
D03*
Y395000D02*
D03*
Y405000D02*
D03*
X300000Y275000D02*
D03*
Y285000D02*
D03*
Y295000D02*
D03*
Y305000D02*
D03*
Y315000D02*
D03*
Y325000D02*
D03*
Y335000D02*
D03*
Y345000D02*
D03*
Y355000D02*
D03*
Y365000D02*
D03*
Y375000D02*
D03*
Y385000D02*
D03*
Y395000D02*
D03*
D79*
Y405000D02*
D03*
D80*
X118032Y357618D02*
D03*
Y337933D02*
D03*
D81*
X107500Y333996D02*
D03*
Y361555D02*
D03*
D82*
X450000Y220000D02*
D03*
X490000Y395000D02*
D03*
X617500Y412500D02*
D03*
X587500Y395000D02*
D03*
X532500D02*
D03*
X452500Y407500D02*
D03*
X505000Y290000D02*
D03*
Y307500D02*
D03*
Y327500D02*
D03*
X540000Y270000D02*
D03*
X545000Y322500D02*
D03*
X595000Y280000D02*
D03*
Y302500D02*
D03*
X420000Y212500D02*
D03*
Y257500D02*
D03*
X660000Y287500D02*
D03*
X685000Y270000D02*
D03*
X671004Y250077D02*
D03*
X657500Y265000D02*
D03*
X677500Y222500D02*
D03*
X670000Y202500D02*
D03*
X630000Y220000D02*
D03*
X565000Y207500D02*
D03*
X562500Y185000D02*
D03*
X550000Y162500D02*
D03*
X457500Y202500D02*
D03*
X480000D02*
D03*
X505000Y197500D02*
D03*
X427500D02*
D03*
X412500Y185000D02*
D03*
X457500Y172500D02*
D03*
X432500D02*
D03*
X367500Y180000D02*
D03*
X345000Y202500D02*
D03*
X340000Y180000D02*
D03*
X350000Y237500D02*
D03*
X390000Y332500D02*
D03*
X375000Y345000D02*
D03*
X402500Y382500D02*
D03*
X382500D02*
D03*
Y370000D02*
D03*
X402500D02*
D03*
X530000Y362500D02*
D03*
X455000Y357500D02*
D03*
X445000Y305000D02*
D03*
X417500D02*
D03*
X450000Y327500D02*
D03*
X460000Y337500D02*
D03*
X605000Y375000D02*
D03*
X682500Y317500D02*
D03*
X660000Y320000D02*
D03*
X682500Y335000D02*
D03*
Y350000D02*
D03*
X660000Y335000D02*
D03*
Y350000D02*
D03*
X567500Y415000D02*
D03*
X507500Y420000D02*
D03*
X342500Y305000D02*
D03*
X347500Y272500D02*
D03*
X350000Y325000D02*
D03*
X342500Y350000D02*
D03*
X317500D02*
D03*
X315000Y300000D02*
D03*
Y315000D02*
D03*
X322500Y222500D02*
D03*
X262500Y175000D02*
D03*
X242500Y190000D02*
D03*
X272500Y220000D02*
D03*
X295000Y222500D02*
D03*
Y255000D02*
D03*
X262500Y257500D02*
D03*
X242500D02*
D03*
X147500Y187500D02*
D03*
Y232500D02*
D03*
X135000Y210000D02*
D03*
X182268Y399013D02*
D03*
X200000Y375000D02*
D03*
X187500Y342500D02*
D03*
X160000Y337500D02*
D03*
X150000Y360000D02*
D03*
X157500Y412500D02*
D03*
X117500Y395000D02*
D03*
X125000Y407500D02*
D03*
X177081Y270904D02*
D03*
X162500Y285000D02*
D03*
X147500Y300000D02*
D03*
X172500Y315000D02*
D03*
X197500Y325000D02*
D03*
X232500Y322500D02*
D03*
X220000Y317500D02*
D03*
X280000Y320000D02*
D03*
X257500Y340000D02*
D03*
X235000Y345000D02*
D03*
X240000Y375000D02*
D03*
X265000D02*
D03*
X245000Y402500D02*
D03*
X220000Y390000D02*
D03*
X217500Y407500D02*
D03*
X355000Y435000D02*
D03*
X335000D02*
D03*
X315000D02*
D03*
X295000D02*
D03*
X275000D02*
D03*
X255000D02*
D03*
X235000D02*
D03*
X215000D02*
D03*
X195558D02*
D03*
X175000D02*
D03*
X537500Y285000D02*
D03*
X560000Y287500D02*
D03*
X580000Y317500D02*
D03*
X422500Y335000D02*
D03*
X415000Y327500D02*
D03*
X430000D02*
D03*
X390000Y317500D02*
D03*
X447500Y245000D02*
D03*
X480900Y171552D02*
D03*
X260000Y277500D02*
D03*
X245000Y320000D02*
D03*
X237500Y410000D02*
D03*
X157500Y402500D02*
D03*
Y347500D02*
D03*
X165000Y375000D02*
D03*
D83*
X344494Y292826D02*
D03*
X400000Y195000D02*
D03*
X427500Y392500D02*
D03*
X277500Y185000D02*
D03*
X145000Y415000D02*
D03*
D84*
X120000Y430000D02*
D03*
X680000Y170000D02*
D03*
Y430000D02*
D03*
X120000Y170000D02*
D03*
%TF.MD5,d2c7a8d69d6559cec97edeab66babac4*%
M02*
