%TF.GenerationSoftware,Altium Limited,CircuitMaker,2.0.2 (2.0.2.40)*%
G04 Layer_Color=15132400*
%FSLAX25Y25*%
%MOIN*%
%TF.SameCoordinates,264C472C-E0F2-4512-9315-FB6CEB45B93E*%
%TF.FilePolarity,Positive*%
%TF.FileFunction,Legend,Top*%
%TF.Part,Single*%
G01*
G75*
%TA.AperFunction,NonConductor*%
%ADD85C,0.00984*%
%ADD86C,0.00787*%
%ADD87C,0.01000*%
%ADD88C,0.02362*%
%ADD89C,0.00591*%
%ADD90C,0.00394*%
%ADD91C,0.00600*%
%ADD92C,0.00500*%
%ADD93C,0.00591*%
%ADD94C,0.00800*%
%ADD95C,0.00300*%
%ADD96R,0.00500X0.03000*%
%ADD97R,0.01500X0.00794*%
G36*
X361693Y405913D02*
X361057D01*
X361212Y406630D01*
X361841D01*
X361693Y405913D01*
D02*
G37*
G36*
X427376Y405291D02*
X427479Y405276D01*
X427598Y405247D01*
X427716Y405202D01*
X427834Y405136D01*
X427938Y405054D01*
X427953Y405047D01*
X427982Y405010D01*
X428019Y404958D01*
X428071Y404884D01*
X428116Y404788D01*
X428160Y404677D01*
X428190Y404544D01*
X428197Y404396D01*
Y404388D01*
Y404359D01*
X428190Y404307D01*
X428182Y404240D01*
X428175Y404144D01*
X428160Y404033D01*
X428130Y403900D01*
X428101Y403744D01*
X427598Y401510D01*
X426969D01*
X427487Y403863D01*
Y403870D01*
Y403878D01*
X427501Y403922D01*
X427509Y403981D01*
X427524Y404055D01*
X427538Y404137D01*
X427546Y404218D01*
X427561Y404299D01*
Y404366D01*
Y404373D01*
Y404396D01*
X427553Y404433D01*
X427546Y404477D01*
X427531Y404521D01*
X427501Y404573D01*
X427472Y404625D01*
X427427Y404669D01*
X427420Y404677D01*
X427405Y404692D01*
X427376Y404706D01*
X427331Y404729D01*
X427279Y404751D01*
X427220Y404773D01*
X427146Y404780D01*
X427057Y404788D01*
X427013D01*
X426976Y404780D01*
X426932D01*
X426880Y404773D01*
X426761Y404743D01*
X426628Y404699D01*
X426480Y404640D01*
X426325Y404551D01*
X426251Y404492D01*
X426177Y404433D01*
X426169Y404425D01*
X426162Y404418D01*
X426140Y404396D01*
X426118Y404366D01*
X426081Y404329D01*
X426044Y404277D01*
X426007Y404218D01*
X425962Y404151D01*
X425918Y404077D01*
X425873Y403989D01*
X425822Y403892D01*
X425777Y403781D01*
X425733Y403663D01*
X425688Y403530D01*
X425651Y403389D01*
X425614Y403234D01*
X425252Y401510D01*
X424623D01*
X425400Y405224D01*
X425977D01*
X425844Y404573D01*
X425851Y404581D01*
X425859Y404588D01*
X425881Y404610D01*
X425910Y404632D01*
X425977Y404699D01*
X426073Y404788D01*
X426184Y404877D01*
X426303Y404965D01*
X426421Y405054D01*
X426547Y405128D01*
X426554D01*
X426562Y405136D01*
X426606Y405158D01*
X426673Y405187D01*
X426754Y405217D01*
X426858Y405247D01*
X426969Y405276D01*
X427094Y405298D01*
X427220Y405306D01*
X427294D01*
X427376Y405291D01*
D02*
G37*
G36*
X368472Y405291D02*
X368575Y405276D01*
X368694Y405247D01*
X368812Y405202D01*
X368930Y405136D01*
X369034Y405054D01*
X369049Y405047D01*
X369078Y405010D01*
X369115Y404958D01*
X369167Y404884D01*
X369212Y404788D01*
X369256Y404677D01*
X369286Y404544D01*
X369293Y404396D01*
Y404388D01*
Y404359D01*
X369286Y404307D01*
X369278Y404240D01*
X369271Y404144D01*
X369256Y404033D01*
X369226Y403900D01*
X369197Y403744D01*
X368694Y401510D01*
X368065D01*
X368583Y403863D01*
Y403870D01*
Y403878D01*
X368597Y403922D01*
X368605Y403981D01*
X368620Y404055D01*
X368634Y404137D01*
X368642Y404218D01*
X368657Y404299D01*
Y404366D01*
Y404373D01*
Y404396D01*
X368649Y404433D01*
X368642Y404477D01*
X368627Y404521D01*
X368597Y404573D01*
X368568Y404625D01*
X368523Y404669D01*
X368516Y404677D01*
X368501Y404692D01*
X368472Y404706D01*
X368427Y404729D01*
X368375Y404751D01*
X368316Y404773D01*
X368242Y404780D01*
X368153Y404788D01*
X368109D01*
X368072Y404780D01*
X368028D01*
X367976Y404773D01*
X367857Y404743D01*
X367724Y404699D01*
X367576Y404640D01*
X367421Y404551D01*
X367347Y404492D01*
X367273Y404433D01*
X367265Y404425D01*
X367258Y404418D01*
X367236Y404396D01*
X367214Y404366D01*
X367177Y404329D01*
X367140Y404277D01*
X367103Y404218D01*
X367058Y404151D01*
X367014Y404077D01*
X366969Y403989D01*
X366918Y403892D01*
X366873Y403781D01*
X366829Y403663D01*
X366784Y403530D01*
X366747Y403389D01*
X366710Y403234D01*
X366348Y401510D01*
X365719D01*
X366496Y405224D01*
X367073D01*
X366940Y404573D01*
X366947Y404581D01*
X366955Y404588D01*
X366977Y404610D01*
X367006Y404632D01*
X367073Y404699D01*
X367169Y404788D01*
X367280Y404877D01*
X367399Y404965D01*
X367517Y405054D01*
X367643Y405128D01*
X367650D01*
X367658Y405136D01*
X367702Y405158D01*
X367769Y405187D01*
X367850Y405217D01*
X367954Y405247D01*
X368065Y405276D01*
X368190Y405298D01*
X368316Y405306D01*
X368390D01*
X368472Y405291D01*
D02*
G37*
G36*
X385255Y405298D02*
X385314D01*
X385381Y405291D01*
X385536Y405269D01*
X385706Y405224D01*
X385884Y405165D01*
X386054Y405091D01*
X386128Y405039D01*
X386202Y404980D01*
X386209D01*
X386217Y404965D01*
X386261Y404921D01*
X386320Y404847D01*
X386387Y404751D01*
X386461Y404632D01*
X386520Y404484D01*
X386565Y404314D01*
X386579Y404225D01*
X386587Y404129D01*
X385965Y404085D01*
Y404092D01*
Y404100D01*
X385958Y404137D01*
X385950Y404203D01*
X385928Y404277D01*
X385899Y404359D01*
X385854Y404447D01*
X385795Y404536D01*
X385721Y404618D01*
X385714Y404625D01*
X385684Y404647D01*
X385632Y404684D01*
X385558Y404721D01*
X385469Y404751D01*
X385366Y404788D01*
X385240Y404810D01*
X385099Y404817D01*
X385048D01*
X384988Y404810D01*
X384914Y404795D01*
X384826Y404780D01*
X384744Y404751D01*
X384663Y404714D01*
X384589Y404662D01*
X384581Y404655D01*
X384559Y404640D01*
X384530Y404603D01*
X384500Y404566D01*
X384470Y404521D01*
X384441Y404462D01*
X384419Y404403D01*
X384411Y404336D01*
Y404329D01*
Y404307D01*
X384419Y404270D01*
X384433Y404233D01*
X384448Y404181D01*
X384478Y404129D01*
X384515Y404077D01*
X384567Y404026D01*
X384574Y404018D01*
X384589Y404011D01*
X384626Y403989D01*
X384670Y403959D01*
X384744Y403915D01*
X384833Y403870D01*
X384951Y403811D01*
X385025Y403781D01*
X385099Y403744D01*
X385107D01*
X385129Y403730D01*
X385166Y403715D01*
X385218Y403693D01*
X385277Y403670D01*
X385336Y403633D01*
X385484Y403567D01*
X385640Y403485D01*
X385795Y403404D01*
X385862Y403367D01*
X385921Y403330D01*
X385973Y403293D01*
X386017Y403256D01*
X386032Y403241D01*
X386061Y403204D01*
X386113Y403138D01*
X386172Y403056D01*
X386224Y402953D01*
X386276Y402834D01*
X386306Y402694D01*
X386320Y402546D01*
Y402531D01*
Y402501D01*
X386313Y402442D01*
X386298Y402375D01*
X386276Y402294D01*
X386246Y402205D01*
X386209Y402109D01*
X386150Y402005D01*
X386143Y401991D01*
X386121Y401961D01*
X386076Y401917D01*
X386024Y401850D01*
X385950Y401783D01*
X385862Y401717D01*
X385758Y401650D01*
X385632Y401584D01*
X385625D01*
X385617Y401576D01*
X385595Y401569D01*
X385573Y401561D01*
X385499Y401532D01*
X385403Y401510D01*
X385284Y401480D01*
X385144Y401450D01*
X384988Y401436D01*
X384818Y401428D01*
X384759D01*
X384707Y401436D01*
X384655D01*
X384589Y401443D01*
X384522Y401458D01*
X384441Y401465D01*
X384271Y401510D01*
X384086Y401561D01*
X383901Y401643D01*
X383812Y401687D01*
X383723Y401746D01*
X383716Y401754D01*
X383701Y401761D01*
X383686Y401783D01*
X383656Y401806D01*
X383619Y401843D01*
X383582Y401887D01*
X383545Y401939D01*
X383501Y401998D01*
X383464Y402065D01*
X383427Y402139D01*
X383390Y402227D01*
X383360Y402316D01*
X383331Y402420D01*
X383316Y402531D01*
X383301Y402649D01*
Y402782D01*
X383938Y402819D01*
Y402805D01*
Y402775D01*
X383945Y402723D01*
Y402657D01*
X383960Y402583D01*
X383975Y402509D01*
X383989Y402427D01*
X384019Y402353D01*
X384026Y402346D01*
X384034Y402324D01*
X384056Y402287D01*
X384086Y402242D01*
X384130Y402190D01*
X384182Y402139D01*
X384248Y402087D01*
X384322Y402035D01*
X384330Y402028D01*
X384367Y402020D01*
X384411Y401998D01*
X384478Y401976D01*
X384552Y401954D01*
X384641Y401939D01*
X384737Y401924D01*
X384848Y401917D01*
X384914D01*
X384988Y401924D01*
X385085Y401939D01*
X385181Y401954D01*
X385284Y401983D01*
X385381Y402028D01*
X385469Y402079D01*
X385477Y402087D01*
X385506Y402109D01*
X385536Y402146D01*
X385580Y402190D01*
X385617Y402250D01*
X385654Y402324D01*
X385677Y402398D01*
X385684Y402479D01*
Y402486D01*
Y402509D01*
X385677Y402538D01*
X385669Y402583D01*
X385654Y402627D01*
X385632Y402679D01*
X385603Y402731D01*
X385558Y402790D01*
X385551Y402797D01*
X385529Y402812D01*
X385492Y402849D01*
X385432Y402886D01*
X385344Y402938D01*
X385233Y402997D01*
X385166Y403034D01*
X385092Y403071D01*
X385011Y403108D01*
X384922Y403145D01*
X384914D01*
X384900Y403152D01*
X384877Y403167D01*
X384840Y403182D01*
X384759Y403219D01*
X384655Y403263D01*
X384552Y403315D01*
X384441Y403367D01*
X384352Y403411D01*
X384315Y403434D01*
X384285Y403448D01*
X384278Y403456D01*
X384248Y403471D01*
X384204Y403500D01*
X384160Y403545D01*
X384100Y403589D01*
X384041Y403648D01*
X383989Y403715D01*
X383938Y403781D01*
X383930Y403789D01*
X383923Y403818D01*
X383901Y403855D01*
X383878Y403915D01*
X383856Y403981D01*
X383841Y404055D01*
X383827Y404144D01*
X383819Y404233D01*
Y404240D01*
Y404255D01*
Y404277D01*
X383827Y404307D01*
X383841Y404388D01*
X383864Y404492D01*
X383908Y404610D01*
X383967Y404736D01*
X384056Y404862D01*
X384108Y404928D01*
X384167Y404988D01*
X384174Y404995D01*
X384182Y405002D01*
X384204Y405017D01*
X384234Y405039D01*
X384271Y405062D01*
X384308Y405091D01*
X384359Y405121D01*
X384419Y405150D01*
X384559Y405202D01*
X384729Y405254D01*
X384922Y405291D01*
X385033Y405306D01*
X385210D01*
X385255Y405298D01*
D02*
G37*
G36*
X358585Y405298D02*
X358644D01*
X358711Y405291D01*
X358866Y405269D01*
X359037Y405224D01*
X359214Y405165D01*
X359384Y405091D01*
X359458Y405039D01*
X359532Y404980D01*
X359540D01*
X359547Y404965D01*
X359592Y404921D01*
X359651Y404847D01*
X359717Y404751D01*
X359791Y404632D01*
X359851Y404484D01*
X359895Y404314D01*
X359910Y404225D01*
X359917Y404129D01*
X359296Y404085D01*
Y404092D01*
Y404100D01*
X359288Y404137D01*
X359281Y404203D01*
X359259Y404277D01*
X359229Y404359D01*
X359185Y404447D01*
X359125Y404536D01*
X359051Y404618D01*
X359044Y404625D01*
X359014Y404647D01*
X358963Y404684D01*
X358889Y404721D01*
X358800Y404751D01*
X358696Y404788D01*
X358570Y404810D01*
X358430Y404817D01*
X358378D01*
X358319Y404810D01*
X358245Y404795D01*
X358156Y404780D01*
X358075Y404751D01*
X357993Y404714D01*
X357919Y404662D01*
X357912Y404655D01*
X357890Y404640D01*
X357860Y404603D01*
X357830Y404566D01*
X357801Y404521D01*
X357771Y404462D01*
X357749Y404403D01*
X357742Y404336D01*
Y404329D01*
Y404307D01*
X357749Y404270D01*
X357764Y404233D01*
X357779Y404181D01*
X357808Y404129D01*
X357845Y404077D01*
X357897Y404026D01*
X357904Y404018D01*
X357919Y404011D01*
X357956Y403989D01*
X358001Y403959D01*
X358075Y403915D01*
X358163Y403870D01*
X358282Y403811D01*
X358356Y403781D01*
X358430Y403744D01*
X358437D01*
X358459Y403730D01*
X358496Y403715D01*
X358548Y403693D01*
X358607Y403670D01*
X358667Y403633D01*
X358815Y403567D01*
X358970Y403485D01*
X359125Y403404D01*
X359192Y403367D01*
X359251Y403330D01*
X359303Y403293D01*
X359347Y403256D01*
X359362Y403241D01*
X359392Y403204D01*
X359444Y403138D01*
X359503Y403056D01*
X359555Y402953D01*
X359606Y402834D01*
X359636Y402694D01*
X359651Y402546D01*
Y402531D01*
Y402501D01*
X359643Y402442D01*
X359629Y402375D01*
X359606Y402294D01*
X359577Y402205D01*
X359540Y402109D01*
X359481Y402005D01*
X359473Y401991D01*
X359451Y401961D01*
X359407Y401917D01*
X359355Y401850D01*
X359281Y401783D01*
X359192Y401717D01*
X359088Y401650D01*
X358963Y401584D01*
X358955D01*
X358948Y401576D01*
X358926Y401569D01*
X358903Y401561D01*
X358829Y401532D01*
X358733Y401510D01*
X358615Y401480D01*
X358474Y401450D01*
X358319Y401436D01*
X358149Y401428D01*
X358089D01*
X358038Y401436D01*
X357986D01*
X357919Y401443D01*
X357853Y401458D01*
X357771Y401465D01*
X357601Y401510D01*
X357416Y401561D01*
X357231Y401643D01*
X357142Y401687D01*
X357053Y401746D01*
X357046Y401754D01*
X357031Y401761D01*
X357016Y401783D01*
X356987Y401806D01*
X356950Y401843D01*
X356913Y401887D01*
X356876Y401939D01*
X356831Y401998D01*
X356794Y402065D01*
X356757Y402139D01*
X356720Y402227D01*
X356691Y402316D01*
X356661Y402420D01*
X356646Y402531D01*
X356632Y402649D01*
Y402782D01*
X357268Y402819D01*
Y402805D01*
Y402775D01*
X357275Y402723D01*
Y402657D01*
X357290Y402583D01*
X357305Y402509D01*
X357320Y402427D01*
X357349Y402353D01*
X357357Y402346D01*
X357364Y402324D01*
X357386Y402287D01*
X357416Y402242D01*
X357460Y402190D01*
X357512Y402139D01*
X357579Y402087D01*
X357653Y402035D01*
X357660Y402028D01*
X357697Y402020D01*
X357742Y401998D01*
X357808Y401976D01*
X357882Y401954D01*
X357971Y401939D01*
X358067Y401924D01*
X358178Y401917D01*
X358245D01*
X358319Y401924D01*
X358415Y401939D01*
X358511Y401954D01*
X358615Y401983D01*
X358711Y402028D01*
X358800Y402079D01*
X358807Y402087D01*
X358837Y402109D01*
X358866Y402146D01*
X358911Y402190D01*
X358948Y402250D01*
X358985Y402324D01*
X359007Y402398D01*
X359014Y402479D01*
Y402486D01*
Y402509D01*
X359007Y402538D01*
X359000Y402583D01*
X358985Y402627D01*
X358963Y402679D01*
X358933Y402731D01*
X358889Y402790D01*
X358881Y402797D01*
X358859Y402812D01*
X358822Y402849D01*
X358763Y402886D01*
X358674Y402938D01*
X358563Y402997D01*
X358496Y403034D01*
X358422Y403071D01*
X358341Y403108D01*
X358252Y403145D01*
X358245D01*
X358230Y403152D01*
X358208Y403167D01*
X358171Y403182D01*
X358089Y403219D01*
X357986Y403263D01*
X357882Y403315D01*
X357771Y403367D01*
X357682Y403411D01*
X357645Y403434D01*
X357616Y403448D01*
X357608Y403456D01*
X357579Y403471D01*
X357534Y403500D01*
X357490Y403545D01*
X357431Y403589D01*
X357372Y403648D01*
X357320Y403715D01*
X357268Y403781D01*
X357261Y403789D01*
X357253Y403818D01*
X357231Y403855D01*
X357209Y403915D01*
X357187Y403981D01*
X357172Y404055D01*
X357157Y404144D01*
X357150Y404233D01*
Y404240D01*
Y404255D01*
Y404277D01*
X357157Y404307D01*
X357172Y404388D01*
X357194Y404492D01*
X357238Y404610D01*
X357298Y404736D01*
X357386Y404862D01*
X357438Y404928D01*
X357497Y404988D01*
X357505Y404995D01*
X357512Y405002D01*
X357534Y405017D01*
X357564Y405039D01*
X357601Y405062D01*
X357638Y405091D01*
X357690Y405121D01*
X357749Y405150D01*
X357890Y405202D01*
X358060Y405254D01*
X358252Y405291D01*
X358363Y405306D01*
X358541D01*
X358585Y405298D01*
D02*
G37*
G36*
X396991Y405298D02*
X397043D01*
X397102Y405291D01*
X397235Y405261D01*
X397391Y405224D01*
X397546Y405165D01*
X397702Y405076D01*
X397776Y405025D01*
X397842Y404965D01*
X397850Y404958D01*
X397857Y404951D01*
X397872Y404928D01*
X397901Y404906D01*
X397953Y404832D01*
X398020Y404729D01*
X398086Y404603D01*
X398146Y404447D01*
X398183Y404270D01*
X398190Y404181D01*
X398197Y404077D01*
X397576Y404033D01*
Y404040D01*
Y404048D01*
X397568Y404092D01*
X397561Y404151D01*
X397546Y404233D01*
X397524Y404322D01*
X397487Y404410D01*
X397435Y404499D01*
X397369Y404581D01*
X397361Y404588D01*
X397332Y404610D01*
X397287Y404647D01*
X397228Y404684D01*
X397154Y404721D01*
X397058Y404758D01*
X396954Y404780D01*
X396836Y404788D01*
X396769D01*
X396703Y404773D01*
X396606Y404758D01*
X396503Y404729D01*
X396392Y404684D01*
X396281Y404625D01*
X396170Y404544D01*
X396155Y404529D01*
X396125Y404499D01*
X396074Y404440D01*
X396014Y404359D01*
X395940Y404255D01*
X395874Y404129D01*
X395800Y403981D01*
X395733Y403804D01*
Y403796D01*
X395726Y403781D01*
X395718Y403759D01*
X395711Y403722D01*
X395696Y403678D01*
X395681Y403626D01*
X395659Y403500D01*
X395630Y403360D01*
X395600Y403204D01*
X395585Y403034D01*
X395578Y402864D01*
Y402856D01*
Y402842D01*
Y402819D01*
Y402790D01*
X395593Y402701D01*
X395607Y402597D01*
X395630Y402479D01*
X395667Y402368D01*
X395718Y402250D01*
X395785Y402153D01*
X395792Y402146D01*
X395822Y402116D01*
X395866Y402079D01*
X395926Y402035D01*
X396000Y401991D01*
X396088Y401954D01*
X396192Y401924D01*
X396303Y401917D01*
X396318D01*
X396355Y401924D01*
X396414Y401931D01*
X396495Y401946D01*
X396584Y401976D01*
X396688Y402013D01*
X396791Y402072D01*
X396895Y402146D01*
X396910Y402161D01*
X396939Y402190D01*
X396991Y402250D01*
X397058Y402324D01*
X397124Y402427D01*
X397198Y402546D01*
X397272Y402694D01*
X397339Y402864D01*
X397975Y402797D01*
Y402790D01*
X397961Y402768D01*
X397953Y402731D01*
X397931Y402686D01*
X397909Y402627D01*
X397872Y402560D01*
X397798Y402405D01*
X397702Y402242D01*
X397583Y402065D01*
X397450Y401902D01*
X397376Y401828D01*
X397295Y401761D01*
X397287D01*
X397272Y401746D01*
X397250Y401732D01*
X397221Y401709D01*
X397176Y401687D01*
X397124Y401658D01*
X397073Y401628D01*
X397006Y401598D01*
X396858Y401532D01*
X396688Y401480D01*
X396503Y401443D01*
X396399Y401436D01*
X396296Y401428D01*
X396236D01*
X396192Y401436D01*
X396140Y401443D01*
X396081Y401450D01*
X395948Y401480D01*
X395792Y401524D01*
X395622Y401591D01*
X395541Y401635D01*
X395459Y401687D01*
X395385Y401746D01*
X395311Y401813D01*
X395304Y401820D01*
X395297Y401828D01*
X395274Y401857D01*
X395252Y401887D01*
X395223Y401924D01*
X395193Y401976D01*
X395163Y402035D01*
X395126Y402094D01*
X395089Y402168D01*
X395060Y402250D01*
X395030Y402346D01*
X395001Y402442D01*
X394978Y402546D01*
X394956Y402657D01*
X394949Y402782D01*
X394941Y402908D01*
Y402916D01*
Y402938D01*
Y402967D01*
X394949Y403012D01*
Y403064D01*
X394956Y403130D01*
X394964Y403204D01*
X394971Y403286D01*
X395001Y403463D01*
X395045Y403670D01*
X395097Y403878D01*
X395178Y404100D01*
Y404107D01*
X395193Y404129D01*
X395200Y404159D01*
X395223Y404196D01*
X395252Y404248D01*
X395282Y404307D01*
X395356Y404433D01*
X395452Y404581D01*
X395570Y404729D01*
X395711Y404869D01*
X395866Y404995D01*
X395874Y405002D01*
X395889Y405010D01*
X395911Y405025D01*
X395948Y405047D01*
X395992Y405069D01*
X396037Y405091D01*
X396096Y405121D01*
X396162Y405150D01*
X396318Y405210D01*
X396488Y405254D01*
X396688Y405291D01*
X396895Y405306D01*
X396954D01*
X396991Y405298D01*
D02*
G37*
G36*
X377078Y401029D02*
Y401021D01*
X377063Y400999D01*
X377048Y400969D01*
X377019Y400925D01*
X376989Y400881D01*
X376959Y400821D01*
X376878Y400696D01*
X376782Y400555D01*
X376678Y400422D01*
X376575Y400303D01*
X376523Y400252D01*
X376471Y400207D01*
X376456Y400200D01*
X376427Y400178D01*
X376367Y400141D01*
X376293Y400104D01*
X376205Y400067D01*
X376101Y400030D01*
X375983Y400007D01*
X375857Y400000D01*
X375820D01*
X375775Y400007D01*
X375724D01*
X375657Y400022D01*
X375590Y400037D01*
X375516Y400052D01*
X375435Y400081D01*
X375472Y400681D01*
X375479D01*
X375502Y400673D01*
X375546Y400666D01*
X375590Y400651D01*
X375650Y400644D01*
X375716Y400629D01*
X375849Y400622D01*
X375879D01*
X375916Y400629D01*
X375960Y400636D01*
X376064Y400659D01*
X376116Y400681D01*
X376160Y400710D01*
X376168Y400718D01*
X376190Y400733D01*
X376219Y400762D01*
X376264Y400807D01*
X376308Y400866D01*
X376367Y400947D01*
X376434Y401036D01*
X376501Y401147D01*
X376700Y401502D01*
X376086Y405224D01*
X376708Y405224D01*
X376982Y403352D01*
Y403345D01*
X376989Y403330D01*
Y403300D01*
X376996Y403256D01*
X377004Y403204D01*
X377011Y403145D01*
X377026Y403078D01*
X377033Y403004D01*
X377056Y402834D01*
X377085Y402649D01*
X377107Y402449D01*
X377130Y402242D01*
X378787Y405224D01*
X379438D01*
X377078Y401029D01*
D02*
G37*
G36*
X419606Y401510D02*
X418932D01*
X419472Y403996D01*
Y404003D01*
X419480Y404033D01*
X419495Y404085D01*
X419509Y404151D01*
X419524Y404233D01*
X419546Y404329D01*
X419576Y404440D01*
X419606Y404566D01*
X419643Y404699D01*
X419680Y404847D01*
X419724Y405010D01*
X419776Y405180D01*
X419820Y405358D01*
X419879Y405543D01*
X419992Y405916D01*
X419998Y405927D01*
Y405935D01*
X419992Y405916D01*
X419990Y405913D01*
X419976Y405883D01*
X419961Y405846D01*
X419939Y405802D01*
X419909Y405750D01*
X419879Y405683D01*
X419842Y405617D01*
X419761Y405454D01*
X419672Y405269D01*
X419569Y405069D01*
X419450Y404854D01*
X417548Y401510D01*
X416882D01*
X416409Y404795D01*
Y404803D01*
Y404817D01*
X416401Y404840D01*
Y404877D01*
X416394Y404921D01*
X416387Y404973D01*
X416379Y405032D01*
X416372Y405099D01*
X416357Y405254D01*
X416342Y405432D01*
X416327Y405631D01*
X416320Y405846D01*
Y405839D01*
X416313Y405816D01*
Y405779D01*
X416305Y405735D01*
X416298Y405676D01*
X416290Y405609D01*
X416276Y405535D01*
X416268Y405454D01*
X416239Y405284D01*
X416209Y405099D01*
X416179Y404928D01*
X416142Y404766D01*
X415469Y401510D01*
X414796D01*
X415869Y406630D01*
X416720D01*
X417201Y403308D01*
Y403300D01*
X417208Y403278D01*
Y403241D01*
X417215Y403197D01*
X417223Y403138D01*
X417230Y403071D01*
X417238Y402990D01*
X417252Y402908D01*
X417267Y402716D01*
X417289Y402501D01*
X417304Y402279D01*
X417319Y402057D01*
Y402065D01*
X417326Y402079D01*
X417341Y402109D01*
X417356Y402153D01*
X417386Y402198D01*
X417408Y402264D01*
X417445Y402338D01*
X417489Y402420D01*
X417534Y402516D01*
X417585Y402620D01*
X417645Y402738D01*
X417704Y402856D01*
X417778Y402997D01*
X417852Y403138D01*
X417941Y403293D01*
X418029Y403456D01*
X419828Y406630D01*
X420679D01*
X419606Y401510D01*
D02*
G37*
G36*
X422884Y405298D02*
X422943D01*
X423010Y405291D01*
X423084Y405276D01*
X423165Y405261D01*
X423343Y405224D01*
X423520Y405165D01*
X423698Y405084D01*
X423779Y405032D01*
X423861Y404973D01*
X423875Y404965D01*
X423912Y404928D01*
X423957Y404877D01*
X424016Y404803D01*
X424075Y404714D01*
X424120Y404603D01*
X424157Y404477D01*
X424171Y404336D01*
Y404322D01*
Y404285D01*
X424164Y404225D01*
Y404137D01*
X424149Y404040D01*
X424134Y403922D01*
X424112Y403789D01*
X424083Y403648D01*
X423875Y402723D01*
Y402716D01*
X423868Y402701D01*
Y402679D01*
X423861Y402649D01*
X423846Y402568D01*
X423831Y402472D01*
X423809Y402361D01*
X423794Y402242D01*
X423787Y402124D01*
X423779Y402013D01*
Y402005D01*
Y401983D01*
X423787Y401939D01*
Y401887D01*
X423794Y401813D01*
X423809Y401724D01*
X423831Y401628D01*
X423853Y401510D01*
X423217D01*
Y401517D01*
X423209Y401539D01*
X423195Y401584D01*
X423187Y401635D01*
X423172Y401702D01*
X423158Y401776D01*
X423150Y401865D01*
X423143Y401968D01*
X423128Y401954D01*
X423084Y401924D01*
X423024Y401872D01*
X422936Y401813D01*
X422839Y401746D01*
X422736Y401672D01*
X422617Y401613D01*
X422506Y401554D01*
X422492Y401547D01*
X422455Y401532D01*
X422395Y401517D01*
X422314Y401495D01*
X422218Y401465D01*
X422107Y401450D01*
X421988Y401436D01*
X421863Y401428D01*
X421811D01*
X421774Y401436D01*
X421737D01*
X421685Y401443D01*
X421567Y401465D01*
X421433Y401502D01*
X421293Y401554D01*
X421160Y401628D01*
X421034Y401724D01*
X421019Y401739D01*
X420982Y401776D01*
X420938Y401843D01*
X420878Y401939D01*
X420819Y402050D01*
X420775Y402183D01*
X420738Y402331D01*
X420723Y402501D01*
Y402516D01*
Y402553D01*
X420730Y402612D01*
X420738Y402686D01*
X420760Y402775D01*
X420782Y402864D01*
X420819Y402960D01*
X420864Y403049D01*
X420871Y403056D01*
X420886Y403086D01*
X420923Y403130D01*
X420960Y403189D01*
X421019Y403249D01*
X421078Y403315D01*
X421152Y403374D01*
X421234Y403434D01*
X421241Y403441D01*
X421278Y403456D01*
X421330Y403485D01*
X421396Y403515D01*
X421478Y403552D01*
X421574Y403582D01*
X421685Y403619D01*
X421803Y403641D01*
X421811D01*
X421848Y403648D01*
X421900Y403656D01*
X421988Y403663D01*
X422033Y403670D01*
X422092Y403678D01*
X422159Y403685D01*
X422233D01*
X422314Y403693D01*
X422403Y403700D01*
X422506D01*
X422610Y403707D01*
X422669D01*
X422706Y403715D01*
X422758D01*
X422817Y403722D01*
X422943Y403737D01*
X423084Y403752D01*
X423224Y403774D01*
X423357Y403804D01*
X423417Y403818D01*
X423468Y403833D01*
X423476Y403848D01*
X423483Y403878D01*
X423498Y403922D01*
X423513Y403981D01*
X423528Y404055D01*
X423535Y404122D01*
X423550Y404196D01*
Y404262D01*
Y404270D01*
Y404299D01*
X423542Y404336D01*
X423528Y404388D01*
X423513Y404447D01*
X423483Y404507D01*
X423439Y404558D01*
X423387Y404610D01*
X423380Y404618D01*
X423343Y404640D01*
X423298Y404669D01*
X423224Y404699D01*
X423135Y404729D01*
X423024Y404758D01*
X422891Y404780D01*
X422743Y404788D01*
X422677D01*
X422603Y404780D01*
X422514Y404766D01*
X422410Y404743D01*
X422299Y404714D01*
X422196Y404669D01*
X422092Y404610D01*
X422085Y404603D01*
X422048Y404581D01*
X422003Y404536D01*
X421951Y404484D01*
X421892Y404410D01*
X421833Y404322D01*
X421774Y404225D01*
X421729Y404107D01*
X421093Y404166D01*
Y404174D01*
X421100Y404188D01*
X421115Y404218D01*
X421130Y404255D01*
X421152Y404299D01*
X421174Y404359D01*
X421241Y404477D01*
X421330Y404610D01*
X421433Y404751D01*
X421559Y404891D01*
X421707Y405010D01*
X421715D01*
X421729Y405025D01*
X421752Y405039D01*
X421781Y405054D01*
X421826Y405076D01*
X421877Y405106D01*
X421937Y405128D01*
X421996Y405158D01*
X422070Y405187D01*
X422151Y405210D01*
X422336Y405261D01*
X422543Y405291D01*
X422773Y405306D01*
X422839D01*
X422884Y405298D01*
D02*
G37*
G36*
X406027Y404662D02*
X406034Y404669D01*
X406041Y404677D01*
X406086Y404721D01*
X406152Y404780D01*
X406241Y404854D01*
X406337Y404928D01*
X406448Y405010D01*
X406559Y405084D01*
X406670Y405150D01*
X406685Y405158D01*
X406722Y405173D01*
X406781Y405202D01*
X406855Y405232D01*
X406952Y405254D01*
X407055Y405284D01*
X407166Y405298D01*
X407285Y405306D01*
X407359D01*
X407440Y405291D01*
X407544Y405276D01*
X407662Y405247D01*
X407780Y405202D01*
X407891Y405143D01*
X407995Y405062D01*
X408002Y405054D01*
X408032Y405017D01*
X408076Y404965D01*
X408121Y404891D01*
X408165Y404795D01*
X408210Y404684D01*
X408239Y404558D01*
X408247Y404410D01*
Y404403D01*
Y404373D01*
X408239Y404322D01*
X408232Y404248D01*
X408217Y404151D01*
X408195Y404026D01*
X408165Y403878D01*
X408150Y403789D01*
X408128Y403693D01*
X407640Y401510D01*
X407011D01*
X407499Y403759D01*
Y403767D01*
X407507Y403781D01*
Y403804D01*
X407514Y403841D01*
X407536Y403922D01*
X407558Y404018D01*
X407573Y404122D01*
X407595Y404225D01*
X407603Y404314D01*
X407610Y404344D01*
Y404373D01*
Y404381D01*
Y404403D01*
X407603Y404433D01*
X407595Y404477D01*
X407581Y404521D01*
X407558Y404573D01*
X407529Y404625D01*
X407484Y404669D01*
X407477Y404677D01*
X407462Y404692D01*
X407433Y404706D01*
X407396Y404729D01*
X407344Y404751D01*
X407285Y404773D01*
X407211Y404780D01*
X407129Y404788D01*
X407070D01*
X407011Y404780D01*
X406922Y404766D01*
X406826Y404743D01*
X406715Y404706D01*
X406604Y404662D01*
X406485Y404603D01*
X406471Y404595D01*
X406434Y404573D01*
X406382Y404529D01*
X406315Y404477D01*
X406234Y404403D01*
X406160Y404322D01*
X406078Y404218D01*
X406012Y404107D01*
X406004Y404092D01*
X405997Y404077D01*
X405982Y404048D01*
X405967Y404011D01*
X405953Y403974D01*
X405930Y403922D01*
X405908Y403863D01*
X405886Y403796D01*
X405856Y403722D01*
X405834Y403641D01*
X405805Y403552D01*
X405775Y403448D01*
X405753Y403345D01*
X405723Y403226D01*
X405694Y403101D01*
X405361Y401510D01*
X404732D01*
X405805Y406630D01*
X406434D01*
X406027Y404662D01*
D02*
G37*
G36*
X405065Y406053D02*
X403400D01*
X402445Y401510D01*
X401772D01*
X402719Y406053D01*
X401002D01*
X401128Y406630D01*
X405183D01*
X405065Y406053D01*
D02*
G37*
G36*
X393040Y405298D02*
X393099D01*
X393165Y405291D01*
X393239Y405276D01*
X393321Y405261D01*
X393498Y405224D01*
X393676Y405165D01*
X393854Y405084D01*
X393935Y405032D01*
X394016Y404973D01*
X394031Y404965D01*
X394068Y404928D01*
X394113Y404877D01*
X394172Y404803D01*
X394231Y404714D01*
X394275Y404603D01*
X394312Y404477D01*
X394327Y404336D01*
Y404322D01*
Y404285D01*
X394320Y404225D01*
Y404137D01*
X394305Y404040D01*
X394290Y403922D01*
X394268Y403789D01*
X394238Y403648D01*
X394031Y402723D01*
Y402716D01*
X394024Y402701D01*
Y402679D01*
X394016Y402649D01*
X394002Y402568D01*
X393987Y402472D01*
X393965Y402361D01*
X393950Y402242D01*
X393942Y402124D01*
X393935Y402013D01*
Y402005D01*
Y401983D01*
X393942Y401939D01*
Y401887D01*
X393950Y401813D01*
X393965Y401724D01*
X393987Y401628D01*
X394009Y401510D01*
X393373D01*
Y401517D01*
X393365Y401539D01*
X393350Y401584D01*
X393343Y401635D01*
X393328Y401702D01*
X393313Y401776D01*
X393306Y401865D01*
X393299Y401968D01*
X393284Y401954D01*
X393239Y401924D01*
X393180Y401872D01*
X393091Y401813D01*
X392995Y401746D01*
X392892Y401672D01*
X392773Y401613D01*
X392662Y401554D01*
X392647Y401547D01*
X392610Y401532D01*
X392551Y401517D01*
X392470Y401495D01*
X392374Y401465D01*
X392263Y401450D01*
X392144Y401436D01*
X392018Y401428D01*
X391967D01*
X391930Y401436D01*
X391893D01*
X391841Y401443D01*
X391722Y401465D01*
X391589Y401502D01*
X391449Y401554D01*
X391315Y401628D01*
X391190Y401724D01*
X391175Y401739D01*
X391138Y401776D01*
X391093Y401843D01*
X391034Y401939D01*
X390975Y402050D01*
X390931Y402183D01*
X390894Y402331D01*
X390879Y402501D01*
Y402516D01*
Y402553D01*
X390886Y402612D01*
X390894Y402686D01*
X390916Y402775D01*
X390938Y402864D01*
X390975Y402960D01*
X391019Y403049D01*
X391027Y403056D01*
X391042Y403086D01*
X391079Y403130D01*
X391116Y403189D01*
X391175Y403249D01*
X391234Y403315D01*
X391308Y403374D01*
X391389Y403434D01*
X391397Y403441D01*
X391434Y403456D01*
X391486Y403485D01*
X391552Y403515D01*
X391634Y403552D01*
X391730Y403582D01*
X391841Y403619D01*
X391959Y403641D01*
X391967D01*
X392004Y403648D01*
X392055Y403656D01*
X392144Y403663D01*
X392189Y403670D01*
X392248Y403678D01*
X392314Y403685D01*
X392388D01*
X392470Y403693D01*
X392559Y403700D01*
X392662D01*
X392766Y403707D01*
X392825D01*
X392862Y403715D01*
X392914D01*
X392973Y403722D01*
X393099Y403737D01*
X393239Y403752D01*
X393380Y403774D01*
X393513Y403804D01*
X393572Y403818D01*
X393624Y403833D01*
X393632Y403848D01*
X393639Y403878D01*
X393654Y403922D01*
X393669Y403981D01*
X393683Y404055D01*
X393691Y404122D01*
X393706Y404196D01*
Y404262D01*
Y404270D01*
Y404299D01*
X393698Y404336D01*
X393683Y404388D01*
X393669Y404447D01*
X393639Y404507D01*
X393595Y404558D01*
X393543Y404610D01*
X393535Y404618D01*
X393498Y404640D01*
X393454Y404669D01*
X393380Y404699D01*
X393291Y404729D01*
X393180Y404758D01*
X393047Y404780D01*
X392899Y404788D01*
X392832D01*
X392758Y404780D01*
X392670Y404766D01*
X392566Y404743D01*
X392455Y404714D01*
X392351Y404669D01*
X392248Y404610D01*
X392240Y404603D01*
X392203Y404581D01*
X392159Y404536D01*
X392107Y404484D01*
X392048Y404410D01*
X391989Y404322D01*
X391930Y404225D01*
X391885Y404107D01*
X391249Y404166D01*
Y404174D01*
X391256Y404188D01*
X391271Y404218D01*
X391286Y404255D01*
X391308Y404299D01*
X391330Y404359D01*
X391397Y404477D01*
X391486Y404610D01*
X391589Y404751D01*
X391715Y404891D01*
X391863Y405010D01*
X391870D01*
X391885Y405025D01*
X391907Y405039D01*
X391937Y405054D01*
X391981Y405076D01*
X392033Y405106D01*
X392092Y405128D01*
X392152Y405158D01*
X392226Y405187D01*
X392307Y405210D01*
X392492Y405261D01*
X392699Y405291D01*
X392929Y405306D01*
X392995D01*
X393040Y405298D01*
D02*
G37*
G36*
X389058D02*
X389118D01*
X389184Y405291D01*
X389258Y405276D01*
X389340Y405261D01*
X389517Y405224D01*
X389695Y405165D01*
X389872Y405084D01*
X389954Y405032D01*
X390035Y404973D01*
X390050Y404965D01*
X390087Y404928D01*
X390131Y404877D01*
X390191Y404803D01*
X390250Y404714D01*
X390294Y404603D01*
X390331Y404477D01*
X390346Y404336D01*
Y404322D01*
Y404285D01*
X390339Y404225D01*
Y404137D01*
X390324Y404040D01*
X390309Y403922D01*
X390287Y403789D01*
X390257Y403648D01*
X390050Y402723D01*
Y402716D01*
X390043Y402701D01*
Y402679D01*
X390035Y402649D01*
X390020Y402568D01*
X390006Y402472D01*
X389983Y402361D01*
X389969Y402242D01*
X389961Y402124D01*
X389954Y402013D01*
Y402005D01*
Y401983D01*
X389961Y401939D01*
Y401887D01*
X389969Y401813D01*
X389983Y401724D01*
X390006Y401628D01*
X390028Y401510D01*
X389391D01*
Y401517D01*
X389384Y401539D01*
X389369Y401584D01*
X389362Y401635D01*
X389347Y401702D01*
X389332Y401776D01*
X389325Y401865D01*
X389317Y401968D01*
X389303Y401954D01*
X389258Y401924D01*
X389199Y401872D01*
X389110Y401813D01*
X389014Y401746D01*
X388910Y401672D01*
X388792Y401613D01*
X388681Y401554D01*
X388666Y401547D01*
X388629Y401532D01*
X388570Y401517D01*
X388489Y401495D01*
X388392Y401465D01*
X388281Y401450D01*
X388163Y401436D01*
X388037Y401428D01*
X387985D01*
X387948Y401436D01*
X387911D01*
X387860Y401443D01*
X387741Y401465D01*
X387608Y401502D01*
X387467Y401554D01*
X387334Y401628D01*
X387208Y401724D01*
X387194Y401739D01*
X387157Y401776D01*
X387112Y401843D01*
X387053Y401939D01*
X386994Y402050D01*
X386949Y402183D01*
X386912Y402331D01*
X386898Y402501D01*
Y402516D01*
Y402553D01*
X386905Y402612D01*
X386912Y402686D01*
X386935Y402775D01*
X386957Y402864D01*
X386994Y402960D01*
X387038Y403049D01*
X387046Y403056D01*
X387060Y403086D01*
X387097Y403130D01*
X387134Y403189D01*
X387194Y403249D01*
X387253Y403315D01*
X387327Y403374D01*
X387408Y403434D01*
X387416Y403441D01*
X387453Y403456D01*
X387504Y403485D01*
X387571Y403515D01*
X387652Y403552D01*
X387749Y403582D01*
X387860Y403619D01*
X387978Y403641D01*
X387985D01*
X388022Y403648D01*
X388074Y403656D01*
X388163Y403663D01*
X388207Y403670D01*
X388267Y403678D01*
X388333Y403685D01*
X388407D01*
X388489Y403693D01*
X388577Y403700D01*
X388681D01*
X388785Y403707D01*
X388844D01*
X388881Y403715D01*
X388933D01*
X388992Y403722D01*
X389118Y403737D01*
X389258Y403752D01*
X389399Y403774D01*
X389532Y403804D01*
X389591Y403818D01*
X389643Y403833D01*
X389650Y403848D01*
X389658Y403878D01*
X389673Y403922D01*
X389687Y403981D01*
X389702Y404055D01*
X389710Y404122D01*
X389724Y404196D01*
Y404262D01*
Y404270D01*
Y404299D01*
X389717Y404336D01*
X389702Y404388D01*
X389687Y404447D01*
X389658Y404507D01*
X389613Y404558D01*
X389562Y404610D01*
X389554Y404618D01*
X389517Y404640D01*
X389473Y404669D01*
X389399Y404699D01*
X389310Y404729D01*
X389199Y404758D01*
X389066Y404780D01*
X388918Y404788D01*
X388851D01*
X388777Y404780D01*
X388688Y404766D01*
X388585Y404743D01*
X388474Y404714D01*
X388370Y404669D01*
X388267Y404610D01*
X388259Y404603D01*
X388222Y404581D01*
X388178Y404536D01*
X388126Y404484D01*
X388067Y404410D01*
X388008Y404322D01*
X387948Y404225D01*
X387904Y404107D01*
X387268Y404166D01*
Y404174D01*
X387275Y404188D01*
X387290Y404218D01*
X387305Y404255D01*
X387327Y404299D01*
X387349Y404359D01*
X387416Y404477D01*
X387504Y404610D01*
X387608Y404751D01*
X387734Y404891D01*
X387882Y405010D01*
X387889D01*
X387904Y405025D01*
X387926Y405039D01*
X387956Y405054D01*
X388000Y405076D01*
X388052Y405106D01*
X388111Y405128D01*
X388170Y405158D01*
X388244Y405187D01*
X388326Y405210D01*
X388511Y405261D01*
X388718Y405291D01*
X388947Y405306D01*
X389014D01*
X389058Y405298D01*
D02*
G37*
G36*
X382095Y401510D02*
X381422D01*
X382495Y406630D01*
X383168D01*
X382095Y401510D01*
D02*
G37*
G36*
X360768Y401510D02*
X360139D01*
X360916Y405224D01*
X361545D01*
X360768Y401510D01*
D02*
G37*
G36*
X350305Y406623D02*
X350423D01*
X350564Y406608D01*
X350704Y406593D01*
X350837Y406579D01*
X350956Y406549D01*
X350963D01*
X350978Y406542D01*
X351000Y406534D01*
X351030Y406527D01*
X351104Y406497D01*
X351207Y406460D01*
X351318Y406408D01*
X351437Y406334D01*
X351555Y406253D01*
X351674Y406157D01*
X351688Y406142D01*
X351725Y406105D01*
X351777Y406046D01*
X351844Y405972D01*
X351910Y405868D01*
X351984Y405750D01*
X352058Y405617D01*
X352118Y405469D01*
Y405461D01*
X352125Y405446D01*
X352132Y405424D01*
X352140Y405395D01*
X352155Y405358D01*
X352169Y405313D01*
X352199Y405195D01*
X352221Y405062D01*
X352251Y404899D01*
X352266Y404729D01*
X352273Y404536D01*
Y404529D01*
Y404507D01*
Y404477D01*
Y404433D01*
X352266Y404373D01*
Y404314D01*
X352258Y404240D01*
X352251Y404159D01*
X352229Y403989D01*
X352192Y403796D01*
X352147Y403596D01*
X352081Y403404D01*
Y403397D01*
X352073Y403382D01*
X352058Y403352D01*
X352044Y403323D01*
X352029Y403278D01*
X352007Y403226D01*
X351947Y403108D01*
X351881Y402967D01*
X351799Y402819D01*
X351703Y402664D01*
X351592Y402516D01*
Y402509D01*
X351577Y402501D01*
X351563Y402479D01*
X351540Y402449D01*
X351481Y402383D01*
X351400Y402294D01*
X351304Y402198D01*
X351193Y402102D01*
X351082Y401998D01*
X350956Y401909D01*
X350941Y401902D01*
X350897Y401872D01*
X350830Y401835D01*
X350734Y401791D01*
X350623Y401739D01*
X350490Y401680D01*
X350342Y401628D01*
X350179Y401584D01*
X350164D01*
X350142Y401576D01*
X350120Y401569D01*
X350046Y401561D01*
X349949Y401547D01*
X349824Y401532D01*
X349683Y401524D01*
X349520Y401510D01*
X347500D01*
X348566Y406630D01*
X350253D01*
X350305Y406623D01*
D02*
G37*
G36*
X410925Y405298D02*
X410985Y405291D01*
X411044Y405284D01*
X411118Y405269D01*
X411199Y405254D01*
X411369Y405202D01*
X411547Y405128D01*
X411636Y405084D01*
X411717Y405032D01*
X411806Y404965D01*
X411880Y404891D01*
X411887Y404884D01*
X411895Y404869D01*
X411917Y404847D01*
X411939Y404817D01*
X411976Y404773D01*
X412006Y404721D01*
X412043Y404662D01*
X412080Y404595D01*
X412117Y404521D01*
X412154Y404433D01*
X412191Y404344D01*
X412220Y404240D01*
X412243Y404137D01*
X412265Y404018D01*
X412272Y403900D01*
X412280Y403767D01*
Y403752D01*
Y403722D01*
Y403663D01*
X412272Y403596D01*
X412265Y403508D01*
X412257Y403419D01*
X412228Y403212D01*
X409490D01*
Y403204D01*
Y403197D01*
X409482Y403145D01*
X409475Y403078D01*
Y403012D01*
Y403004D01*
Y402990D01*
Y402960D01*
X409482Y402930D01*
Y402886D01*
X409490Y402834D01*
X409505Y402716D01*
X409534Y402590D01*
X409579Y402457D01*
X409630Y402331D01*
X409712Y402220D01*
X409727Y402205D01*
X409756Y402176D01*
X409808Y402131D01*
X409875Y402087D01*
X409963Y402035D01*
X410067Y401991D01*
X410178Y401961D01*
X410304Y401946D01*
X410363D01*
X410422Y401961D01*
X410504Y401976D01*
X410600Y401998D01*
X410711Y402035D01*
X410822Y402087D01*
X410940Y402153D01*
X410948D01*
X410955Y402161D01*
X410992Y402190D01*
X411051Y402242D01*
X411125Y402309D01*
X411199Y402398D01*
X411281Y402501D01*
X411362Y402627D01*
X411436Y402768D01*
X412050Y402708D01*
Y402701D01*
X412043Y402686D01*
X412035Y402664D01*
X412021Y402627D01*
X412006Y402590D01*
X411984Y402538D01*
X411924Y402427D01*
X411843Y402294D01*
X411732Y402146D01*
X411673Y402072D01*
X411599Y401991D01*
X411525Y401917D01*
X411436Y401835D01*
X411429Y401828D01*
X411414Y401820D01*
X411392Y401798D01*
X411355Y401769D01*
X411303Y401739D01*
X411251Y401709D01*
X411184Y401672D01*
X411118Y401635D01*
X411036Y401591D01*
X410948Y401554D01*
X410755Y401495D01*
X410533Y401443D01*
X410422Y401436D01*
X410296Y401428D01*
X410230D01*
X410148Y401436D01*
X410045Y401450D01*
X409926Y401473D01*
X409801Y401510D01*
X409667Y401554D01*
X409534Y401613D01*
X409519Y401621D01*
X409475Y401650D01*
X409416Y401695D01*
X409342Y401754D01*
X409260Y401835D01*
X409172Y401931D01*
X409090Y402042D01*
X409016Y402168D01*
Y402176D01*
X409009Y402183D01*
X409001Y402205D01*
X408987Y402235D01*
X408957Y402309D01*
X408927Y402405D01*
X408898Y402531D01*
X408868Y402671D01*
X408846Y402827D01*
X408839Y402997D01*
Y403004D01*
Y403027D01*
Y403056D01*
X408846Y403101D01*
Y403152D01*
X408853Y403219D01*
X408861Y403293D01*
X408876Y403374D01*
X408905Y403552D01*
X408957Y403752D01*
X409024Y403959D01*
X409120Y404174D01*
Y404181D01*
X409135Y404196D01*
X409149Y404225D01*
X409172Y404270D01*
X409201Y404314D01*
X409231Y404366D01*
X409320Y404492D01*
X409423Y404632D01*
X409542Y404773D01*
X409690Y404906D01*
X409845Y405025D01*
X409852D01*
X409867Y405039D01*
X409889Y405054D01*
X409926Y405069D01*
X409963Y405091D01*
X410015Y405113D01*
X410134Y405165D01*
X410282Y405217D01*
X410444Y405261D01*
X410622Y405291D01*
X410814Y405306D01*
X410881D01*
X410925Y405298D01*
D02*
G37*
G36*
X373015Y404795D02*
X373030Y404810D01*
X373067Y404840D01*
X373119Y404891D01*
X373193Y404951D01*
X373274Y405017D01*
X373363Y405076D01*
X373459Y405136D01*
X373548Y405187D01*
X373555Y405195D01*
X373592Y405210D01*
X373637Y405224D01*
X373696Y405247D01*
X373770Y405269D01*
X373859Y405291D01*
X373948Y405298D01*
X374044Y405306D01*
X374096D01*
X374125Y405298D01*
X374170Y405291D01*
X374221Y405284D01*
X374340Y405254D01*
X374473Y405210D01*
X374614Y405143D01*
X374680Y405099D01*
X374754Y405047D01*
X374821Y404980D01*
X374887Y404914D01*
X374895Y404906D01*
X374902Y404899D01*
X374917Y404877D01*
X374939Y404840D01*
X374969Y404803D01*
X374998Y404751D01*
X375028Y404699D01*
X375058Y404632D01*
X375087Y404551D01*
X375117Y404470D01*
X375146Y404381D01*
X375176Y404277D01*
X375198Y404166D01*
X375213Y404048D01*
X375228Y403922D01*
Y403789D01*
Y403781D01*
Y403767D01*
Y403737D01*
Y403707D01*
X375220Y403663D01*
Y403611D01*
X375213Y403493D01*
X375191Y403352D01*
X375169Y403197D01*
X375132Y403041D01*
X375087Y402886D01*
Y402879D01*
X375080Y402871D01*
X375072Y402849D01*
X375065Y402819D01*
X375035Y402745D01*
X374998Y402649D01*
X374947Y402538D01*
X374887Y402427D01*
X374821Y402309D01*
X374747Y402198D01*
X374739Y402183D01*
X374710Y402153D01*
X374673Y402102D01*
X374621Y402042D01*
X374554Y401968D01*
X374488Y401894D01*
X374414Y401820D01*
X374332Y401754D01*
X374325Y401746D01*
X374295Y401724D01*
X374251Y401695D01*
X374199Y401665D01*
X374133Y401621D01*
X374059Y401584D01*
X373977Y401547D01*
X373896Y401510D01*
X373888D01*
X373859Y401495D01*
X373814Y401487D01*
X373763Y401473D01*
X373696Y401458D01*
X373622Y401443D01*
X373548Y401436D01*
X373467Y401428D01*
X373407D01*
X373341Y401436D01*
X373252Y401450D01*
X373156Y401473D01*
X373045Y401510D01*
X372934Y401554D01*
X372830Y401613D01*
X372815Y401621D01*
X372786Y401650D01*
X372741Y401695D01*
X372675Y401761D01*
X372608Y401843D01*
X372542Y401939D01*
X372475Y402057D01*
X372408Y402198D01*
X372260Y401510D01*
X371698D01*
X372771Y406630D01*
X373400D01*
X373015Y404795D01*
D02*
G37*
G36*
X354804Y405298D02*
X354863Y405291D01*
X354922Y405284D01*
X354996Y405269D01*
X355078Y405254D01*
X355248Y405202D01*
X355425Y405128D01*
X355514Y405084D01*
X355596Y405032D01*
X355684Y404965D01*
X355758Y404891D01*
X355766Y404884D01*
X355773Y404869D01*
X355795Y404847D01*
X355818Y404817D01*
X355855Y404773D01*
X355884Y404721D01*
X355921Y404662D01*
X355958Y404595D01*
X355995Y404521D01*
X356032Y404433D01*
X356069Y404344D01*
X356099Y404240D01*
X356121Y404137D01*
X356143Y404018D01*
X356151Y403900D01*
X356158Y403767D01*
Y403752D01*
Y403722D01*
Y403663D01*
X356151Y403596D01*
X356143Y403508D01*
X356136Y403419D01*
X356106Y403212D01*
X353368D01*
Y403204D01*
Y403197D01*
X353361Y403145D01*
X353353Y403078D01*
Y403012D01*
Y403004D01*
Y402990D01*
Y402960D01*
X353361Y402930D01*
Y402886D01*
X353368Y402834D01*
X353383Y402716D01*
X353413Y402590D01*
X353457Y402457D01*
X353509Y402331D01*
X353590Y402220D01*
X353605Y402205D01*
X353635Y402176D01*
X353686Y402131D01*
X353753Y402087D01*
X353842Y402035D01*
X353945Y401991D01*
X354056Y401961D01*
X354182Y401946D01*
X354241D01*
X354301Y401961D01*
X354382Y401976D01*
X354478Y401998D01*
X354589Y402035D01*
X354700Y402087D01*
X354819Y402153D01*
X354826D01*
X354833Y402161D01*
X354870Y402190D01*
X354930Y402242D01*
X355004Y402309D01*
X355078Y402398D01*
X355159Y402501D01*
X355240Y402627D01*
X355314Y402768D01*
X355929Y402708D01*
Y402701D01*
X355921Y402686D01*
X355914Y402664D01*
X355899Y402627D01*
X355884Y402590D01*
X355862Y402538D01*
X355803Y402427D01*
X355721Y402294D01*
X355610Y402146D01*
X355551Y402072D01*
X355477Y401991D01*
X355403Y401917D01*
X355314Y401835D01*
X355307Y401828D01*
X355292Y401820D01*
X355270Y401798D01*
X355233Y401769D01*
X355181Y401739D01*
X355129Y401709D01*
X355063Y401672D01*
X354996Y401635D01*
X354915Y401591D01*
X354826Y401554D01*
X354634Y401495D01*
X354412Y401443D01*
X354301Y401436D01*
X354175Y401428D01*
X354108D01*
X354027Y401436D01*
X353923Y401450D01*
X353805Y401473D01*
X353679Y401510D01*
X353546Y401554D01*
X353413Y401613D01*
X353398Y401621D01*
X353353Y401650D01*
X353294Y401695D01*
X353220Y401754D01*
X353139Y401835D01*
X353050Y401931D01*
X352969Y402042D01*
X352895Y402168D01*
Y402176D01*
X352887Y402183D01*
X352880Y402205D01*
X352865Y402235D01*
X352835Y402309D01*
X352806Y402405D01*
X352776Y402531D01*
X352747Y402671D01*
X352724Y402827D01*
X352717Y402997D01*
Y403004D01*
Y403027D01*
Y403056D01*
X352724Y403101D01*
Y403152D01*
X352732Y403219D01*
X352739Y403293D01*
X352754Y403374D01*
X352784Y403552D01*
X352835Y403752D01*
X352902Y403959D01*
X352998Y404174D01*
Y404181D01*
X353013Y404196D01*
X353028Y404225D01*
X353050Y404270D01*
X353080Y404314D01*
X353109Y404366D01*
X353198Y404492D01*
X353302Y404632D01*
X353420Y404773D01*
X353568Y404906D01*
X353723Y405025D01*
X353731D01*
X353746Y405039D01*
X353768Y405054D01*
X353805Y405069D01*
X353842Y405091D01*
X353894Y405113D01*
X354012Y405165D01*
X354160Y405217D01*
X354323Y405261D01*
X354500Y405291D01*
X354693Y405306D01*
X354759D01*
X354804Y405298D01*
D02*
G37*
G36*
X363765D02*
X363817D01*
X363876Y405284D01*
X363950Y405269D01*
X364024Y405247D01*
X364113Y405224D01*
X364202Y405187D01*
X364291Y405143D01*
X364387Y405084D01*
X364483Y405017D01*
X364572Y404943D01*
X364661Y404847D01*
X364742Y404743D01*
X364823Y404625D01*
X364949Y405224D01*
X365534D01*
X364779Y401635D01*
Y401628D01*
X364772Y401613D01*
X364764Y401576D01*
X364757Y401539D01*
X364742Y401487D01*
X364735Y401436D01*
X364698Y401302D01*
X364653Y401154D01*
X364594Y401006D01*
X364535Y400858D01*
X364461Y400725D01*
X364453Y400710D01*
X364424Y400673D01*
X364379Y400614D01*
X364320Y400540D01*
X364239Y400451D01*
X364143Y400370D01*
X364032Y400289D01*
X363906Y400215D01*
X363898D01*
X363891Y400207D01*
X363869Y400200D01*
X363847Y400185D01*
X363773Y400155D01*
X363676Y400126D01*
X363558Y400089D01*
X363417Y400059D01*
X363262Y400037D01*
X363092Y400030D01*
X363018D01*
X362936Y400037D01*
X362833Y400044D01*
X362707Y400059D01*
X362581Y400081D01*
X362448Y400111D01*
X362322Y400148D01*
X362307Y400155D01*
X362270Y400170D01*
X362211Y400200D01*
X362137Y400237D01*
X362063Y400281D01*
X361982Y400340D01*
X361908Y400407D01*
X361841Y400488D01*
X361834Y400496D01*
X361819Y400525D01*
X361789Y400570D01*
X361767Y400629D01*
X361738Y400703D01*
X361708Y400792D01*
X361693Y400888D01*
X361686Y400992D01*
Y400999D01*
Y401006D01*
Y401051D01*
X361693Y401110D01*
X361701Y401177D01*
X362337Y401117D01*
Y401110D01*
Y401080D01*
Y401043D01*
X362344Y400999D01*
X362359Y400895D01*
X362374Y400844D01*
X362389Y400799D01*
Y400792D01*
X362404Y400784D01*
X362433Y400740D01*
X362492Y400681D01*
X362581Y400629D01*
X362589D01*
X362611Y400614D01*
X362648Y400607D01*
X362700Y400592D01*
X362766Y400577D01*
X362840Y400562D01*
X362929Y400555D01*
X363025Y400548D01*
X363077D01*
X363121Y400555D01*
X363166D01*
X363218Y400562D01*
X363343Y400585D01*
X363477Y400622D01*
X363610Y400673D01*
X363743Y400747D01*
X363795Y400799D01*
X363847Y400851D01*
X363854Y400858D01*
X363876Y400888D01*
X363906Y400947D01*
X363928Y400984D01*
X363943Y401029D01*
X363965Y401080D01*
X363995Y401147D01*
X364017Y401214D01*
X364046Y401295D01*
X364069Y401376D01*
X364098Y401480D01*
X364120Y401584D01*
X364150Y401702D01*
X364209Y402005D01*
X364202Y401998D01*
X364187Y401983D01*
X364157Y401961D01*
X364128Y401931D01*
X364076Y401887D01*
X364024Y401850D01*
X363965Y401806D01*
X363898Y401761D01*
X363743Y401665D01*
X363565Y401591D01*
X363469Y401554D01*
X363373Y401532D01*
X363269Y401517D01*
X363166Y401510D01*
X363114D01*
X363070Y401517D01*
X363025Y401524D01*
X362966Y401532D01*
X362840Y401561D01*
X362692Y401606D01*
X362529Y401680D01*
X362455Y401732D01*
X362374Y401783D01*
X362300Y401843D01*
X362226Y401917D01*
X362219Y401924D01*
X362211Y401939D01*
X362189Y401961D01*
X362167Y401991D01*
X362137Y402035D01*
X362108Y402087D01*
X362071Y402146D01*
X362041Y402220D01*
X362004Y402301D01*
X361967Y402383D01*
X361937Y402486D01*
X361908Y402590D01*
X361886Y402701D01*
X361863Y402827D01*
X361856Y402953D01*
X361849Y403093D01*
Y403101D01*
Y403123D01*
Y403152D01*
X361856Y403197D01*
Y403256D01*
X361863Y403323D01*
X361871Y403389D01*
X361886Y403471D01*
X361923Y403648D01*
X361974Y403841D01*
X362048Y404040D01*
X362145Y404240D01*
Y404248D01*
X362159Y404262D01*
X362174Y404292D01*
X362196Y404329D01*
X362226Y404373D01*
X362263Y404418D01*
X362344Y404536D01*
X362448Y404662D01*
X362566Y404795D01*
X362700Y404921D01*
X362848Y405032D01*
X362855D01*
X362870Y405047D01*
X362892Y405054D01*
X362922Y405076D01*
X362959Y405099D01*
X363003Y405121D01*
X363107Y405173D01*
X363240Y405217D01*
X363380Y405261D01*
X363536Y405291D01*
X363699Y405306D01*
X363728D01*
X363765Y405298D01*
D02*
G37*
G36*
X123750Y199631D02*
X111250D01*
Y305369D01*
X123750D01*
Y199631D01*
D02*
G37*
G36*
X586250Y368750D02*
X478750D01*
Y381250D01*
X586250D01*
Y368750D01*
D02*
G37*
%LPC*%
G36*
X423380Y403389D02*
X423372D01*
X423357Y403382D01*
X423328Y403374D01*
X423291Y403360D01*
X423202Y403330D01*
X423091Y403308D01*
X423084D01*
X423061Y403300D01*
X423024D01*
X422973Y403293D01*
X422899Y403278D01*
X422810Y403271D01*
X422706Y403263D01*
X422580Y403249D01*
X422558D01*
X422529Y403241D01*
X422492D01*
X422447Y403234D01*
X422395Y403226D01*
X422277Y403212D01*
X422151Y403197D01*
X422025Y403175D01*
X421900Y403152D01*
X421848Y403138D01*
X421803Y403123D01*
X421796D01*
X421766Y403108D01*
X421729Y403093D01*
X421678Y403064D01*
X421626Y403034D01*
X421567Y402990D01*
X421515Y402945D01*
X421463Y402886D01*
X421456Y402879D01*
X421448Y402856D01*
X421426Y402827D01*
X421411Y402782D01*
X421389Y402723D01*
X421367Y402664D01*
X421359Y402597D01*
X421352Y402523D01*
Y402509D01*
Y402479D01*
X421359Y402427D01*
X421374Y402368D01*
X421396Y402301D01*
X421426Y402227D01*
X421470Y402153D01*
X421530Y402087D01*
X421537Y402079D01*
X421567Y402057D01*
X421604Y402035D01*
X421663Y402005D01*
X421737Y401968D01*
X421833Y401946D01*
X421937Y401924D01*
X422055Y401917D01*
X422107D01*
X422166Y401924D01*
X422247Y401939D01*
X422336Y401954D01*
X422440Y401983D01*
X422543Y402028D01*
X422654Y402079D01*
X422669Y402087D01*
X422699Y402109D01*
X422758Y402146D01*
X422817Y402198D01*
X422891Y402264D01*
X422973Y402338D01*
X423047Y402435D01*
X423113Y402538D01*
X423121Y402553D01*
X423143Y402597D01*
X423172Y402664D01*
X423209Y402760D01*
X423254Y402879D01*
X423298Y403027D01*
X423343Y403197D01*
X423380Y403389D01*
D02*
G37*
G36*
X393535D02*
X393528D01*
X393513Y403382D01*
X393484Y403374D01*
X393447Y403360D01*
X393358Y403330D01*
X393247Y403308D01*
X393239D01*
X393217Y403300D01*
X393180D01*
X393128Y403293D01*
X393054Y403278D01*
X392966Y403271D01*
X392862Y403263D01*
X392736Y403249D01*
X392714D01*
X392684Y403241D01*
X392647D01*
X392603Y403234D01*
X392551Y403226D01*
X392433Y403212D01*
X392307Y403197D01*
X392181Y403175D01*
X392055Y403152D01*
X392004Y403138D01*
X391959Y403123D01*
X391952D01*
X391922Y403108D01*
X391885Y403093D01*
X391833Y403064D01*
X391782Y403034D01*
X391722Y402990D01*
X391671Y402945D01*
X391619Y402886D01*
X391611Y402879D01*
X391604Y402856D01*
X391582Y402827D01*
X391567Y402782D01*
X391545Y402723D01*
X391523Y402664D01*
X391515Y402597D01*
X391508Y402523D01*
Y402509D01*
Y402479D01*
X391515Y402427D01*
X391530Y402368D01*
X391552Y402301D01*
X391582Y402227D01*
X391626Y402153D01*
X391685Y402087D01*
X391693Y402079D01*
X391722Y402057D01*
X391759Y402035D01*
X391819Y402005D01*
X391893Y401968D01*
X391989Y401946D01*
X392092Y401924D01*
X392211Y401917D01*
X392263D01*
X392322Y401924D01*
X392403Y401939D01*
X392492Y401954D01*
X392596Y401983D01*
X392699Y402028D01*
X392810Y402079D01*
X392825Y402087D01*
X392855Y402109D01*
X392914Y402146D01*
X392973Y402198D01*
X393047Y402264D01*
X393128Y402338D01*
X393202Y402435D01*
X393269Y402538D01*
X393276Y402553D01*
X393299Y402597D01*
X393328Y402664D01*
X393365Y402760D01*
X393410Y402879D01*
X393454Y403027D01*
X393498Y403197D01*
X393535Y403389D01*
D02*
G37*
G36*
X389554D02*
X389547D01*
X389532Y403382D01*
X389502Y403374D01*
X389465Y403360D01*
X389377Y403330D01*
X389266Y403308D01*
X389258D01*
X389236Y403300D01*
X389199D01*
X389147Y403293D01*
X389073Y403278D01*
X388984Y403271D01*
X388881Y403263D01*
X388755Y403249D01*
X388733D01*
X388703Y403241D01*
X388666D01*
X388622Y403234D01*
X388570Y403226D01*
X388452Y403212D01*
X388326Y403197D01*
X388200Y403175D01*
X388074Y403152D01*
X388022Y403138D01*
X387978Y403123D01*
X387971D01*
X387941Y403108D01*
X387904Y403093D01*
X387852Y403064D01*
X387800Y403034D01*
X387741Y402990D01*
X387689Y402945D01*
X387638Y402886D01*
X387630Y402879D01*
X387623Y402856D01*
X387601Y402827D01*
X387586Y402782D01*
X387564Y402723D01*
X387541Y402664D01*
X387534Y402597D01*
X387527Y402523D01*
Y402509D01*
Y402479D01*
X387534Y402427D01*
X387549Y402368D01*
X387571Y402301D01*
X387601Y402227D01*
X387645Y402153D01*
X387704Y402087D01*
X387712Y402079D01*
X387741Y402057D01*
X387778Y402035D01*
X387837Y402005D01*
X387911Y401968D01*
X388008Y401946D01*
X388111Y401924D01*
X388230Y401917D01*
X388281D01*
X388341Y401924D01*
X388422Y401939D01*
X388511Y401954D01*
X388614Y401983D01*
X388718Y402028D01*
X388829Y402079D01*
X388844Y402087D01*
X388873Y402109D01*
X388933Y402146D01*
X388992Y402198D01*
X389066Y402264D01*
X389147Y402338D01*
X389221Y402435D01*
X389288Y402538D01*
X389295Y402553D01*
X389317Y402597D01*
X389347Y402664D01*
X389384Y402760D01*
X389428Y402879D01*
X389473Y403027D01*
X389517Y403197D01*
X389554Y403389D01*
D02*
G37*
G36*
X350216Y406053D02*
X349128D01*
X348299Y402087D01*
X349246D01*
X349306Y402094D01*
X349439Y402102D01*
X349587Y402109D01*
X349750Y402131D01*
X349920Y402153D01*
X350083Y402190D01*
X350097D01*
X350127Y402205D01*
X350179Y402213D01*
X350238Y402235D01*
X350312Y402264D01*
X350386Y402294D01*
X350541Y402375D01*
X350556Y402383D01*
X350586Y402405D01*
X350630Y402442D01*
X350689Y402486D01*
X350756Y402546D01*
X350837Y402620D01*
X350911Y402701D01*
X350993Y402790D01*
Y402797D01*
X351008Y402805D01*
X351037Y402849D01*
X351089Y402923D01*
X351148Y403012D01*
X351215Y403130D01*
X351281Y403263D01*
X351355Y403411D01*
X351415Y403567D01*
Y403574D01*
X351422Y403589D01*
X351429Y403611D01*
X351437Y403648D01*
X351452Y403685D01*
X351466Y403737D01*
X351481Y403796D01*
X351496Y403863D01*
X351526Y404011D01*
X351555Y404181D01*
X351570Y404366D01*
X351577Y404573D01*
Y404581D01*
Y404603D01*
Y404632D01*
Y404677D01*
X351570Y404729D01*
X351563Y404788D01*
X351548Y404928D01*
X351526Y405076D01*
X351481Y405239D01*
X351429Y405395D01*
X351355Y405528D01*
Y405535D01*
X351348Y405543D01*
X351318Y405580D01*
X351267Y405639D01*
X351207Y405705D01*
X351126Y405779D01*
X351037Y405853D01*
X350926Y405920D01*
X350808Y405972D01*
X350793Y405979D01*
X350763Y405987D01*
X350704Y406001D01*
X350615Y406016D01*
X350504Y406031D01*
X350371Y406038D01*
X350216Y406053D01*
D02*
G37*
G36*
X410829Y404817D02*
X410792D01*
X410763Y404810D01*
X410681Y404803D01*
X410585Y404780D01*
X410467Y404751D01*
X410348Y404699D01*
X410215Y404632D01*
X410089Y404536D01*
X410074Y404521D01*
X410037Y404484D01*
X409978Y404418D01*
X409904Y404329D01*
X409823Y404211D01*
X409734Y404063D01*
X409660Y403892D01*
X409586Y403700D01*
X411680D01*
Y403707D01*
Y403715D01*
X411688Y403752D01*
Y403796D01*
Y403833D01*
Y403841D01*
Y403855D01*
Y403878D01*
Y403915D01*
X411673Y403996D01*
X411658Y404100D01*
X411628Y404218D01*
X411584Y404336D01*
X411525Y404455D01*
X411443Y404558D01*
X411436Y404573D01*
X411399Y404603D01*
X411347Y404640D01*
X411281Y404692D01*
X411192Y404736D01*
X411088Y404780D01*
X410962Y404810D01*
X410829Y404817D01*
D02*
G37*
G36*
X373844Y404795D02*
X373829D01*
X373792Y404788D01*
X373726Y404780D01*
X373644Y404766D01*
X373555Y404729D01*
X373452Y404684D01*
X373341Y404618D01*
X373237Y404529D01*
X373222Y404514D01*
X373193Y404477D01*
X373141Y404418D01*
X373074Y404329D01*
X373008Y404211D01*
X372926Y404070D01*
X372852Y403907D01*
X372778Y403715D01*
Y403707D01*
X372771Y403700D01*
X372764Y403678D01*
X372756Y403648D01*
X372734Y403567D01*
X372712Y403471D01*
X372682Y403360D01*
X372660Y403249D01*
X372645Y403130D01*
X372638Y403019D01*
X372630Y402901D01*
Y402893D01*
Y402879D01*
Y402856D01*
X372638Y402827D01*
X372645Y402738D01*
X372660Y402634D01*
X372682Y402523D01*
X372727Y402405D01*
X372778Y402294D01*
X372852Y402190D01*
X372860Y402183D01*
X372889Y402153D01*
X372941Y402116D01*
X373008Y402072D01*
X373082Y402020D01*
X373178Y401983D01*
X373282Y401954D01*
X373400Y401946D01*
X373415D01*
X373452Y401954D01*
X373518Y401961D01*
X373592Y401976D01*
X373681Y402005D01*
X373785Y402042D01*
X373881Y402102D01*
X373985Y402176D01*
X373999Y402183D01*
X374029Y402220D01*
X374081Y402272D01*
X374140Y402353D01*
X374214Y402449D01*
X374288Y402575D01*
X374362Y402723D01*
X374429Y402893D01*
Y402901D01*
X374436Y402916D01*
X374443Y402945D01*
X374458Y402975D01*
X374473Y403019D01*
X374488Y403071D01*
X374517Y403197D01*
X374547Y403337D01*
X374577Y403485D01*
X374599Y403648D01*
X374606Y403804D01*
Y403811D01*
Y403826D01*
Y403848D01*
Y403885D01*
X374591Y403966D01*
X374577Y404070D01*
X374554Y404188D01*
X374510Y404314D01*
X374458Y404433D01*
X374384Y404536D01*
X374377Y404551D01*
X374347Y404581D01*
X374303Y404618D01*
X374236Y404669D01*
X374155Y404714D01*
X374066Y404758D01*
X373962Y404788D01*
X373844Y404795D01*
D02*
G37*
G36*
X354708Y404817D02*
X354671D01*
X354641Y404810D01*
X354560Y404803D01*
X354463Y404780D01*
X354345Y404751D01*
X354227Y404699D01*
X354093Y404632D01*
X353968Y404536D01*
X353953Y404521D01*
X353916Y404484D01*
X353857Y404418D01*
X353783Y404329D01*
X353701Y404211D01*
X353612Y404063D01*
X353538Y403892D01*
X353464Y403700D01*
X355559D01*
Y403707D01*
Y403715D01*
X355566Y403752D01*
Y403796D01*
Y403833D01*
Y403841D01*
Y403855D01*
Y403878D01*
Y403915D01*
X355551Y403996D01*
X355536Y404100D01*
X355507Y404218D01*
X355462Y404336D01*
X355403Y404455D01*
X355322Y404558D01*
X355314Y404573D01*
X355277Y404603D01*
X355226Y404640D01*
X355159Y404692D01*
X355070Y404736D01*
X354967Y404780D01*
X354841Y404810D01*
X354708Y404817D01*
D02*
G37*
G36*
X363721Y404795D02*
X363684D01*
X363639Y404788D01*
X363580Y404780D01*
X363514Y404766D01*
X363432Y404743D01*
X363351Y404714D01*
X363269Y404669D01*
X363262Y404662D01*
X363232Y404647D01*
X363188Y404618D01*
X363136Y404573D01*
X363077Y404521D01*
X363010Y404455D01*
X362936Y404381D01*
X362862Y404292D01*
X362855Y404277D01*
X362833Y404248D01*
X362796Y404196D01*
X362759Y404122D01*
X362714Y404033D01*
X362663Y403929D01*
X362618Y403811D01*
X362581Y403685D01*
Y403678D01*
Y403670D01*
X362566Y403626D01*
X362552Y403567D01*
X362537Y403485D01*
X362522Y403397D01*
X362507Y403308D01*
X362500Y403226D01*
X362492Y403152D01*
Y403145D01*
Y403138D01*
Y403093D01*
X362500Y403019D01*
Y402938D01*
X362507Y402842D01*
X362522Y402745D01*
X362537Y402657D01*
X362559Y402575D01*
X362566Y402560D01*
X362581Y402531D01*
X362603Y402486D01*
X362640Y402427D01*
X362685Y402361D01*
X362737Y402294D01*
X362796Y402227D01*
X362862Y402168D01*
X362870Y402161D01*
X362899Y402146D01*
X362936Y402124D01*
X362988Y402102D01*
X363055Y402072D01*
X363121Y402050D01*
X363203Y402035D01*
X363292Y402028D01*
X363343D01*
X363403Y402042D01*
X363484Y402057D01*
X363580Y402079D01*
X363684Y402116D01*
X363795Y402168D01*
X363906Y402242D01*
X363921Y402250D01*
X363958Y402287D01*
X364017Y402331D01*
X364083Y402405D01*
X364165Y402501D01*
X364246Y402620D01*
X364335Y402753D01*
X364409Y402916D01*
Y402923D01*
X364416Y402938D01*
X364424Y402960D01*
X364439Y402997D01*
X364453Y403034D01*
X364468Y403086D01*
X364505Y403197D01*
X364542Y403330D01*
X364572Y403478D01*
X364594Y403633D01*
X364601Y403789D01*
Y403796D01*
Y403811D01*
Y403833D01*
X364594Y403863D01*
X364587Y403952D01*
X364572Y404055D01*
X364535Y404166D01*
X364490Y404292D01*
X364431Y404410D01*
X364342Y404521D01*
X364328Y404536D01*
X364298Y404566D01*
X364246Y404610D01*
X364172Y404662D01*
X364083Y404706D01*
X363972Y404751D01*
X363854Y404780D01*
X363721Y404795D01*
D02*
G37*
G36*
X120060Y299246D02*
X119343D01*
Y298528D01*
X120060D01*
Y299246D01*
D02*
G37*
G36*
X116079Y299275D02*
X114940D01*
Y298498D01*
X120060D01*
X116079D01*
X118788Y298691D01*
Y299090D01*
X116079Y299275D01*
D02*
G37*
G36*
X120060Y297499D02*
X119454D01*
Y294354D01*
X117715D01*
Y297189D01*
X117108D01*
Y294354D01*
X115546D01*
Y297381D01*
X114940D01*
Y293674D01*
X120060D01*
Y297499D01*
D02*
G37*
G36*
X119350Y292667D02*
X114851D01*
Y287924D01*
Y290344D01*
X114866Y290210D01*
X114903Y289951D01*
X114925Y289833D01*
X114954Y289722D01*
X114977Y289618D01*
X115006Y289522D01*
X115036Y289433D01*
X115065Y289359D01*
X115095Y289293D01*
X115117Y289234D01*
X115139Y289189D01*
X115154Y289160D01*
X115162Y289137D01*
X115169Y289130D01*
X115236Y289026D01*
X115302Y288923D01*
X115458Y288745D01*
X115613Y288590D01*
X115776Y288464D01*
X115916Y288360D01*
X115976Y288323D01*
X116035Y288294D01*
X116079Y288264D01*
X116109Y288249D01*
X116131Y288242D01*
X116138Y288235D01*
X116383Y288131D01*
X116627Y288057D01*
X116864Y287998D01*
X116975Y287983D01*
X117078Y287961D01*
X117174Y287953D01*
X117256Y287939D01*
X117337Y287931D01*
X117404D01*
X117456Y287924D01*
X120149D01*
X117530D01*
X117803Y287939D01*
X118062Y287976D01*
X118181Y287998D01*
X118292Y288020D01*
X118403Y288050D01*
X118499Y288079D01*
X118588Y288109D01*
X118662Y288138D01*
X118736Y288161D01*
X118788Y288183D01*
X118839Y288205D01*
X118869Y288220D01*
X118891Y288235D01*
X118899D01*
X119113Y288368D01*
X119298Y288516D01*
X119461Y288671D01*
X119594Y288819D01*
X119698Y288960D01*
X119735Y289012D01*
X119772Y289063D01*
X119794Y289108D01*
X119816Y289137D01*
X119824Y289160D01*
X119831Y289167D01*
X119890Y289285D01*
X119935Y289404D01*
X120016Y289641D01*
X120068Y289870D01*
X120112Y290085D01*
X120120Y290181D01*
X120134Y290270D01*
X120142Y290351D01*
Y290418D01*
X120149Y290469D01*
Y290543D01*
X120142Y290751D01*
X120120Y290950D01*
X120083Y291135D01*
X120046Y291298D01*
X120031Y291365D01*
X120016Y291431D01*
X119994Y291491D01*
X119979Y291542D01*
X119964Y291579D01*
X119957Y291609D01*
X119949Y291624D01*
Y291631D01*
X119868Y291831D01*
X119772Y292016D01*
X119668Y292194D01*
X119572Y292349D01*
X119528Y292416D01*
X119483Y292482D01*
X119446Y292534D01*
X119417Y292578D01*
X119387Y292615D01*
X119365Y292645D01*
X119357Y292660D01*
X119350Y292667D01*
D02*
G37*
G36*
X120060Y287554D02*
X114940Y285460D01*
Y287554D01*
X120060D01*
X114940D01*
Y282766D01*
D01*
Y284720D01*
X120060Y282766D01*
Y283484D01*
X118506Y284039D01*
Y286185D01*
X120060Y286784D01*
Y287554D01*
D02*
G37*
G36*
Y282625D02*
Y280938D01*
X115546D01*
Y282625D01*
X120060D01*
X114940D01*
Y278570D01*
X115546D01*
Y280257D01*
X120060D01*
Y282625D01*
D02*
G37*
G36*
Y278148D02*
X119454D01*
Y275625D01*
X114940D01*
Y278148D01*
D01*
D01*
Y274944D01*
X120060D01*
Y278148D01*
D02*
G37*
G36*
X120149Y274101D02*
X117515D01*
X117234Y274086D01*
X116975Y274056D01*
X116856Y274034D01*
X116738Y274004D01*
X116634Y273975D01*
X116538Y273953D01*
X116449Y273923D01*
X116368Y273893D01*
X116301Y273871D01*
X116242Y273842D01*
X116198Y273827D01*
X116168Y273812D01*
X116146Y273797D01*
X116138D01*
X115924Y273679D01*
X115731Y273538D01*
X115569Y273390D01*
X115435Y273257D01*
X115332Y273131D01*
X115287Y273072D01*
X115250Y273028D01*
X115228Y272983D01*
X115206Y272954D01*
X115199Y272939D01*
X115191Y272931D01*
X115132Y272820D01*
X115080Y272709D01*
X114991Y272495D01*
X114932Y272273D01*
X114895Y272080D01*
X114880Y271992D01*
X114866Y271903D01*
X114858Y271836D01*
Y271770D01*
X114851Y271718D01*
Y274101D01*
Y269202D01*
D01*
Y271651D01*
X114858Y271451D01*
X114880Y271266D01*
X114917Y271089D01*
X114962Y270919D01*
X115021Y270763D01*
X115080Y270615D01*
X115147Y270482D01*
X115213Y270364D01*
X115280Y270253D01*
X115347Y270156D01*
X115406Y270075D01*
X115465Y270008D01*
X115509Y269957D01*
X115546Y269912D01*
X115569Y269890D01*
X115576Y269883D01*
X115717Y269764D01*
X115865Y269661D01*
X116027Y269564D01*
X116190Y269490D01*
X116360Y269424D01*
X116523Y269365D01*
X116686Y269320D01*
X116841Y269291D01*
X116989Y269261D01*
X117130Y269239D01*
X117256Y269224D01*
X117359Y269209D01*
X117448D01*
X117515Y269202D01*
X114851D01*
X117574D01*
X117826Y269217D01*
X118055Y269246D01*
X118277Y269291D01*
X118373Y269320D01*
X118469Y269350D01*
X118551Y269372D01*
X118625Y269402D01*
X118691Y269424D01*
X118751Y269446D01*
X118795Y269461D01*
X118825Y269476D01*
X118847Y269490D01*
X118854D01*
X119069Y269616D01*
X119254Y269749D01*
X119417Y269897D01*
X119550Y270038D01*
X119661Y270164D01*
X119705Y270216D01*
X119735Y270260D01*
X119764Y270304D01*
X119787Y270334D01*
X119794Y270349D01*
X119801Y270356D01*
X119861Y270467D01*
X119912Y270578D01*
X120001Y270800D01*
X120060Y271015D01*
X120105Y271215D01*
X120120Y271311D01*
X120127Y271392D01*
X120142Y271466D01*
Y271533D01*
X120149Y271577D01*
Y271651D01*
X120134Y271895D01*
X120097Y272125D01*
X120053Y272339D01*
X120023Y272436D01*
X119994Y272524D01*
X119964Y272606D01*
X119935Y272680D01*
X119912Y272739D01*
X119890Y272791D01*
X119868Y272835D01*
X119853Y272872D01*
X119838Y272887D01*
Y272894D01*
X119705Y273102D01*
X119557Y273279D01*
X119402Y273427D01*
X119254Y273553D01*
X119113Y273657D01*
X119061Y273694D01*
X119010Y273723D01*
X118965Y273753D01*
X118936Y273768D01*
X118913Y273782D01*
X118906D01*
X118788Y273842D01*
X118669Y273886D01*
X118432Y273967D01*
X118196Y274027D01*
X117981Y274064D01*
X117885Y274071D01*
X117796Y274086D01*
X117715Y274093D01*
X117648D01*
X117589Y274101D01*
X120149D01*
D02*
G37*
G36*
X120060Y268795D02*
X114940D01*
Y264103D01*
D01*
X120060Y266086D01*
Y266797D01*
X114940Y268795D01*
X120060D01*
D02*
G37*
G36*
Y261513D02*
X114940D01*
Y260832D01*
X117041D01*
Y258183D01*
X114940D01*
D01*
Y257502D01*
X120060D01*
Y258183D01*
X117648D01*
Y260832D01*
X120060D01*
Y261513D01*
D02*
G37*
G36*
X119350Y256481D02*
X114851D01*
Y251738D01*
D01*
Y254158D01*
X114866Y254024D01*
X114903Y253765D01*
X114925Y253647D01*
X114954Y253536D01*
X114977Y253432D01*
X115006Y253336D01*
X115036Y253247D01*
X115065Y253173D01*
X115095Y253107D01*
X115117Y253048D01*
X115139Y253003D01*
X115154Y252974D01*
X115162Y252951D01*
X115169Y252944D01*
X115236Y252840D01*
X115302Y252737D01*
X115458Y252559D01*
X115613Y252404D01*
X115776Y252278D01*
X115916Y252174D01*
X115976Y252137D01*
X116035Y252108D01*
X116079Y252078D01*
X116109Y252063D01*
X116131Y252056D01*
X116138Y252049D01*
X116383Y251945D01*
X116627Y251871D01*
X116864Y251812D01*
X116975Y251797D01*
X117078Y251775D01*
X117174Y251767D01*
X117256Y251753D01*
X117337Y251745D01*
X117404D01*
X117456Y251738D01*
X120149D01*
X117530D01*
X117803Y251753D01*
X118062Y251790D01*
X118181Y251812D01*
X118292Y251834D01*
X118403Y251864D01*
X118499Y251893D01*
X118588Y251923D01*
X118662Y251952D01*
X118736Y251975D01*
X118788Y251997D01*
X118839Y252019D01*
X118869Y252034D01*
X118891Y252049D01*
X118899D01*
X119113Y252182D01*
X119298Y252330D01*
X119461Y252485D01*
X119594Y252633D01*
X119698Y252774D01*
X119735Y252826D01*
X119772Y252877D01*
X119794Y252922D01*
X119816Y252951D01*
X119824Y252974D01*
X119831Y252981D01*
X119890Y253099D01*
X119935Y253218D01*
X120016Y253455D01*
X120068Y253684D01*
X120112Y253899D01*
X120120Y253995D01*
X120134Y254084D01*
X120142Y254165D01*
Y254232D01*
X120149Y254283D01*
Y254357D01*
X120142Y254565D01*
X120120Y254764D01*
X120083Y254949D01*
X120046Y255112D01*
X120031Y255179D01*
X120016Y255245D01*
X119994Y255305D01*
X119979Y255356D01*
X119964Y255393D01*
X119957Y255423D01*
X119949Y255438D01*
Y255445D01*
X119868Y255645D01*
X119772Y255830D01*
X119668Y256008D01*
X119572Y256163D01*
X119528Y256230D01*
X119483Y256296D01*
X119446Y256348D01*
X119417Y256392D01*
X119387Y256429D01*
X119365Y256459D01*
X119357Y256474D01*
X119350Y256481D01*
D02*
G37*
G36*
X120060Y250717D02*
X114940D01*
Y250036D01*
X120060D01*
Y250717D01*
D02*
G37*
G36*
Y248793D02*
X114940D01*
Y248112D01*
X117041D01*
Y245463D01*
X114940D01*
D01*
Y244782D01*
X120060D01*
Y245463D01*
X117648D01*
Y248112D01*
X120060D01*
Y248793D01*
D02*
G37*
G36*
X116079Y241615D02*
X114940D01*
Y240838D01*
X120060D01*
Y241585D01*
X119343D01*
Y240867D01*
X120060D01*
Y240838D01*
X116079D01*
X118788Y241030D01*
Y241430D01*
X116079Y241615D01*
D02*
G37*
G36*
X119350Y239779D02*
X114851D01*
X117448D01*
Y237604D01*
X118055D01*
Y239113D01*
X119017D01*
X119091Y239025D01*
X119158Y238921D01*
X119217Y238810D01*
X119269Y238706D01*
X119313Y238618D01*
X119350Y238536D01*
X119365Y238507D01*
X119372Y238492D01*
X119380Y238477D01*
Y238470D01*
X119431Y238314D01*
X119476Y238159D01*
X119505Y238018D01*
X119520Y237885D01*
X119535Y237774D01*
Y237730D01*
X119542Y237685D01*
Y237611D01*
X119535Y237426D01*
X119505Y237249D01*
X119468Y237086D01*
X119431Y236938D01*
X119387Y236819D01*
X119372Y236768D01*
X119357Y236731D01*
X119343Y236694D01*
X119328Y236671D01*
X119320Y236657D01*
Y236649D01*
X119224Y236494D01*
X119121Y236353D01*
X119010Y236235D01*
X118899Y236139D01*
X118795Y236057D01*
X118714Y236005D01*
X118684Y235983D01*
X118662Y235976D01*
X118647Y235961D01*
X118640D01*
X118455Y235887D01*
X118262Y235828D01*
X118070Y235791D01*
X117885Y235761D01*
X117803Y235754D01*
X117729Y235746D01*
X117655Y235739D01*
X117596D01*
X117552Y235732D01*
X117515D01*
X117493D01*
X117485D01*
X117278Y235739D01*
X117093Y235761D01*
X116915Y235791D01*
X116760Y235828D01*
X116693Y235843D01*
X116634Y235865D01*
X116582Y235880D01*
X116538Y235894D01*
X116501Y235909D01*
X116479Y235917D01*
X116464Y235924D01*
X116457D01*
X116353Y235976D01*
X116257Y236028D01*
X116168Y236079D01*
X116094Y236131D01*
X116035Y236176D01*
X115983Y236213D01*
X115953Y236242D01*
X115946Y236250D01*
X115865Y236331D01*
X115791Y236420D01*
X115731Y236516D01*
X115672Y236605D01*
X115635Y236679D01*
X115598Y236738D01*
X115583Y236782D01*
X115576Y236797D01*
X115524Y236930D01*
X115487Y237064D01*
X115465Y237204D01*
X115443Y237330D01*
X115435Y237441D01*
Y237485D01*
X115428Y237522D01*
Y237604D01*
X115435Y237744D01*
X115450Y237878D01*
X115472Y237996D01*
X115495Y238100D01*
X115524Y238188D01*
X115546Y238255D01*
X115561Y238292D01*
X115569Y238307D01*
X115620Y238418D01*
X115680Y238514D01*
X115739Y238603D01*
X115798Y238669D01*
X115850Y238721D01*
X115887Y238766D01*
X115916Y238788D01*
X115924Y238795D01*
X116013Y238862D01*
X116116Y238914D01*
X116212Y238965D01*
X116316Y239010D01*
X116405Y239039D01*
X116471Y239062D01*
X116501Y239069D01*
X116523Y239076D01*
X116531Y239084D01*
X116538D01*
X116375Y239698D01*
X116190Y239646D01*
X116027Y239580D01*
X115879Y239513D01*
X115761Y239454D01*
X115665Y239395D01*
X115598Y239350D01*
X115554Y239321D01*
X115539Y239306D01*
X115421Y239202D01*
X115324Y239091D01*
X115236Y238973D01*
X115162Y238862D01*
X115110Y238758D01*
X115065Y238677D01*
X115051Y238647D01*
X115043Y238625D01*
X115036Y238610D01*
Y238603D01*
X114977Y238433D01*
X114932Y238255D01*
X114895Y238092D01*
X114873Y237937D01*
X114858Y237796D01*
Y237737D01*
X114851Y237693D01*
Y237863D01*
Y237693D01*
Y237456D01*
X114866Y237323D01*
X114903Y237064D01*
X114925Y236945D01*
X114954Y236834D01*
X114977Y236731D01*
X115006Y236634D01*
X115036Y236546D01*
X115065Y236472D01*
X115095Y236405D01*
X115117Y236346D01*
X115139Y236301D01*
X115154Y236272D01*
X115162Y236250D01*
X115169Y236242D01*
X115236Y236139D01*
X115302Y236035D01*
X115458Y235857D01*
X115613Y235702D01*
X115776Y235576D01*
X115916Y235473D01*
X115976Y235436D01*
X116035Y235406D01*
X116079Y235376D01*
X116109Y235362D01*
X116131Y235354D01*
X116138Y235347D01*
X116383Y235243D01*
X116627Y235169D01*
X116864Y235110D01*
X116975Y235095D01*
X117078Y235073D01*
X117174Y235066D01*
X117256Y235051D01*
X117337Y235043D01*
X117404D01*
X117456Y235036D01*
X120149D01*
X117530D01*
X117803Y235051D01*
X118062Y235088D01*
X118181Y235110D01*
X118292Y235132D01*
X118403Y235162D01*
X118499Y235191D01*
X118588Y235221D01*
X118662Y235251D01*
X118736Y235273D01*
X118788Y235295D01*
X118839Y235317D01*
X118869Y235332D01*
X118891Y235347D01*
X118899D01*
X119113Y235480D01*
X119298Y235628D01*
X119461Y235783D01*
X119594Y235931D01*
X119698Y236072D01*
X119735Y236124D01*
X119772Y236176D01*
X119794Y236220D01*
X119816Y236250D01*
X119824Y236272D01*
X119831Y236279D01*
X119890Y236398D01*
X119935Y236516D01*
X120016Y236753D01*
X120068Y236982D01*
X120112Y237197D01*
X120120Y237293D01*
X120134Y237382D01*
X120142Y237463D01*
Y237530D01*
X120149Y237582D01*
Y237656D01*
X120142Y237863D01*
X120120Y238063D01*
X120083Y238248D01*
X120046Y238410D01*
X120031Y238477D01*
X120016Y238544D01*
X119994Y238603D01*
X119979Y238655D01*
X119964Y238692D01*
X119957Y238721D01*
X119949Y238736D01*
Y238743D01*
X119868Y238943D01*
X119772Y239128D01*
X119668Y239306D01*
X119572Y239461D01*
X119528Y239528D01*
X119483Y239594D01*
X119446Y239646D01*
X119417Y239691D01*
X119387Y239728D01*
X119365Y239757D01*
X119357Y239772D01*
X119350Y239779D01*
D02*
G37*
G36*
X120060Y234074D02*
X114940D01*
Y230041D01*
X120060D01*
Y230737D01*
Y230692D01*
X116042D01*
X120060Y233371D01*
Y234074D01*
D02*
G37*
G36*
Y228850D02*
X114940D01*
Y228169D01*
X120060D01*
Y228850D01*
D02*
G37*
G36*
Y226918D02*
X114940D01*
Y226267D01*
X118965D01*
X114940Y223581D01*
Y222885D01*
X120060D01*
Y226918D01*
D02*
G37*
G36*
Y222234D02*
X118669Y221353D01*
X118521Y221250D01*
X118388Y221154D01*
X118277Y221057D01*
X118173Y220976D01*
X118099Y220902D01*
X118040Y220843D01*
X118003Y220806D01*
X117988Y220791D01*
X117944Y220732D01*
X117892Y220665D01*
X117811Y220532D01*
X117781Y220473D01*
X117752Y220428D01*
X117737Y220399D01*
X117729Y220384D01*
X117707Y220517D01*
X117685Y220643D01*
X117648Y220754D01*
X117618Y220865D01*
X117581Y220961D01*
X117537Y221050D01*
X117500Y221131D01*
X117463Y221205D01*
X117419Y221265D01*
X117382Y221324D01*
X117352Y221368D01*
X117322Y221405D01*
X117300Y221435D01*
X117278Y221457D01*
X117271Y221464D01*
X117263Y221472D01*
X117189Y221531D01*
X117115Y221590D01*
X116960Y221679D01*
X116804Y221738D01*
X116656Y221783D01*
X116531Y221812D01*
X116479Y221820D01*
X116427D01*
X116390Y221827D01*
X116360D01*
X116346D01*
X116338D01*
X116183Y221820D01*
X116042Y221797D01*
X115909Y221760D01*
X115798Y221723D01*
X115702Y221679D01*
X115628Y221649D01*
X115583Y221620D01*
X115576Y221612D01*
X115569D01*
X115450Y221524D01*
X115347Y221435D01*
X115258Y221339D01*
X115191Y221250D01*
X115139Y221168D01*
X115110Y221102D01*
X115088Y221057D01*
X115080Y221050D01*
Y221043D01*
X115058Y220976D01*
X115036Y220895D01*
X114999Y220732D01*
X114977Y220554D01*
X114954Y220391D01*
X114947Y220236D01*
Y220169D01*
X114940Y220110D01*
Y222234D01*
X120060D01*
X114940D01*
Y217735D01*
X120060D01*
Y218416D01*
X117789D01*
Y219289D01*
X117796Y219370D01*
Y219429D01*
X117803Y219481D01*
X117811Y219518D01*
Y219548D01*
X117818Y219563D01*
Y219570D01*
X117855Y219688D01*
X117877Y219740D01*
X117900Y219785D01*
X117922Y219829D01*
X117937Y219859D01*
X117944Y219873D01*
X117951Y219881D01*
X117996Y219940D01*
X118048Y219999D01*
X118159Y220110D01*
X118210Y220162D01*
X118255Y220199D01*
X118284Y220221D01*
X118292Y220229D01*
X118395Y220303D01*
X118506Y220384D01*
X118625Y220465D01*
X118736Y220547D01*
X118839Y220613D01*
X118921Y220665D01*
X118950Y220687D01*
X118973Y220702D01*
X118987Y220717D01*
X118995D01*
X120060Y221390D01*
Y222234D01*
D02*
G37*
G36*
Y217180D02*
X114940Y215086D01*
Y217180D01*
X120060D01*
X114940D01*
Y212392D01*
D01*
Y214346D01*
X120060Y212392D01*
Y213110D01*
X118506Y213665D01*
Y215811D01*
X120060Y216410D01*
Y217180D01*
D02*
G37*
G36*
Y212318D02*
X114940D01*
Y205725D01*
D01*
X120060Y207064D01*
Y207774D01*
X116161Y208855D01*
X116064Y208884D01*
X115961Y208907D01*
X115857Y208936D01*
X115768Y208958D01*
X115687Y208981D01*
X115620Y208995D01*
X115576Y209003D01*
X115569Y209010D01*
X115561D01*
X115583Y209018D01*
X115620Y209025D01*
X115702Y209047D01*
X115798Y209077D01*
X115902Y209106D01*
X115998Y209129D01*
X116079Y209151D01*
X116116Y209158D01*
X116138Y209166D01*
X116153Y209173D01*
X116161D01*
X120060Y210246D01*
Y210912D01*
X114940Y212318D01*
X120060D01*
D02*
G37*
%LPD*%
G36*
X117448Y290492D02*
X118055D01*
Y292001D01*
X119017D01*
X119091Y291912D01*
X119158Y291809D01*
X119217Y291698D01*
X119269Y291594D01*
X119313Y291505D01*
X119350Y291424D01*
X119365Y291394D01*
X119372Y291380D01*
X119380Y291365D01*
Y291357D01*
X119431Y291202D01*
X119476Y291047D01*
X119505Y290906D01*
X119520Y290773D01*
X119535Y290662D01*
Y290617D01*
X119542Y290573D01*
Y290499D01*
X119535Y290314D01*
X119505Y290136D01*
X119468Y289974D01*
X119431Y289826D01*
X119387Y289707D01*
X119372Y289655D01*
X119357Y289618D01*
X119343Y289581D01*
X119328Y289559D01*
X119320Y289544D01*
Y289537D01*
X119224Y289382D01*
X119121Y289241D01*
X119010Y289123D01*
X118899Y289026D01*
X118795Y288945D01*
X118714Y288893D01*
X118684Y288871D01*
X118662Y288864D01*
X118647Y288849D01*
X118640D01*
X118455Y288775D01*
X118262Y288716D01*
X118070Y288679D01*
X117885Y288649D01*
X117803Y288642D01*
X117729Y288634D01*
X117655Y288627D01*
X117596D01*
X117552Y288619D01*
X117515D01*
X117493D01*
X117485D01*
X117278Y288627D01*
X117093Y288649D01*
X116915Y288679D01*
X116760Y288716D01*
X116693Y288730D01*
X116634Y288753D01*
X116582Y288767D01*
X116538Y288782D01*
X116501Y288797D01*
X116479Y288804D01*
X116464Y288812D01*
X116457D01*
X116353Y288864D01*
X116257Y288915D01*
X116168Y288967D01*
X116094Y289019D01*
X116035Y289063D01*
X115983Y289100D01*
X115953Y289130D01*
X115946Y289137D01*
X115865Y289219D01*
X115791Y289308D01*
X115731Y289404D01*
X115672Y289493D01*
X115635Y289567D01*
X115598Y289626D01*
X115583Y289670D01*
X115576Y289685D01*
X115524Y289818D01*
X115487Y289951D01*
X115465Y290092D01*
X115443Y290218D01*
X115435Y290329D01*
Y290373D01*
X115428Y290410D01*
Y290492D01*
X115435Y290632D01*
X115450Y290765D01*
X115472Y290884D01*
X115495Y290987D01*
X115524Y291076D01*
X115546Y291143D01*
X115561Y291180D01*
X115569Y291195D01*
X115620Y291306D01*
X115680Y291402D01*
X115739Y291491D01*
X115798Y291557D01*
X115850Y291609D01*
X115887Y291653D01*
X115916Y291676D01*
X115924Y291683D01*
X116013Y291750D01*
X116116Y291801D01*
X116212Y291853D01*
X116316Y291898D01*
X116405Y291927D01*
X116471Y291949D01*
X116501Y291957D01*
X116523Y291964D01*
X116531Y291972D01*
X116538D01*
X116375Y292586D01*
X116190Y292534D01*
X116027Y292467D01*
X115879Y292401D01*
X115761Y292342D01*
X115665Y292282D01*
X115598Y292238D01*
X115554Y292208D01*
X115539Y292194D01*
X115421Y292090D01*
X115324Y291979D01*
X115236Y291861D01*
X115162Y291750D01*
X115110Y291646D01*
X115065Y291565D01*
X115051Y291535D01*
X115043Y291513D01*
X115036Y291498D01*
Y291491D01*
X114977Y291320D01*
X114932Y291143D01*
X114895Y290980D01*
X114873Y290825D01*
X114858Y290684D01*
Y290625D01*
X114851Y290580D01*
Y292667D01*
X117448D01*
Y290492D01*
D02*
G37*
G36*
X117951Y284239D02*
X116457Y284794D01*
X116272Y284860D01*
X116094Y284912D01*
X115931Y284964D01*
X115783Y285001D01*
X115657Y285030D01*
X115606Y285045D01*
X115554Y285053D01*
X115524Y285067D01*
X115495D01*
X115480Y285075D01*
X115472D01*
X115643Y285127D01*
X115820Y285186D01*
X115998Y285245D01*
X116168Y285304D01*
X116242Y285334D01*
X116316Y285356D01*
X116383Y285378D01*
X116434Y285400D01*
X116479Y285415D01*
X116516Y285430D01*
X116538Y285437D01*
X116545D01*
X117951Y285970D01*
Y284239D01*
D02*
G37*
G36*
X117685Y273398D02*
X117855Y273383D01*
X118018Y273361D01*
X118166Y273331D01*
X118299Y273287D01*
X118425Y273250D01*
X118543Y273205D01*
X118647Y273161D01*
X118736Y273109D01*
X118817Y273065D01*
X118884Y273028D01*
X118936Y272991D01*
X118980Y272954D01*
X119017Y272931D01*
X119032Y272917D01*
X119039Y272909D01*
X119135Y272813D01*
X119217Y272709D01*
X119283Y272606D01*
X119350Y272502D01*
X119402Y272399D01*
X119439Y272288D01*
X119476Y272191D01*
X119505Y272088D01*
X119528Y271999D01*
X119542Y271910D01*
X119557Y271836D01*
X119565Y271770D01*
Y271718D01*
X119572Y271681D01*
Y271644D01*
X119565Y271503D01*
X119550Y271370D01*
X119520Y271252D01*
X119491Y271133D01*
X119446Y271022D01*
X119402Y270919D01*
X119357Y270822D01*
X119306Y270734D01*
X119254Y270660D01*
X119209Y270593D01*
X119165Y270534D01*
X119121Y270482D01*
X119091Y270445D01*
X119061Y270415D01*
X119047Y270401D01*
X119039Y270393D01*
X118936Y270304D01*
X118825Y270230D01*
X118706Y270164D01*
X118588Y270105D01*
X118462Y270060D01*
X118344Y270016D01*
X118107Y269957D01*
X118003Y269942D01*
X117900Y269927D01*
X117811Y269912D01*
X117737Y269905D01*
X117670Y269897D01*
X117618D01*
X117589D01*
X117581D01*
X117374Y269905D01*
X117182Y269920D01*
X116997Y269942D01*
X116834Y269979D01*
X116686Y270016D01*
X116553Y270060D01*
X116427Y270112D01*
X116323Y270156D01*
X116227Y270208D01*
X116146Y270253D01*
X116079Y270297D01*
X116027Y270334D01*
X115983Y270371D01*
X115953Y270393D01*
X115939Y270408D01*
X115931Y270415D01*
X115842Y270512D01*
X115768Y270615D01*
X115702Y270719D01*
X115643Y270830D01*
X115598Y270933D01*
X115554Y271037D01*
X115495Y271229D01*
X115480Y271318D01*
X115465Y271400D01*
X115450Y271466D01*
X115443Y271533D01*
X115435Y271585D01*
Y271651D01*
X115443Y271836D01*
X115472Y272014D01*
X115517Y272169D01*
X115561Y272302D01*
X115613Y272413D01*
X115635Y272458D01*
X115650Y272495D01*
X115672Y272532D01*
X115680Y272554D01*
X115694Y272561D01*
Y272569D01*
X115798Y272709D01*
X115916Y272835D01*
X116035Y272946D01*
X116153Y273035D01*
X116257Y273102D01*
X116346Y273153D01*
X116375Y273168D01*
X116397Y273183D01*
X116412Y273190D01*
X116420D01*
X116597Y273264D01*
X116790Y273316D01*
X116967Y273353D01*
X117137Y273375D01*
X117219Y273390D01*
X117285Y273398D01*
X117352D01*
X117404Y273405D01*
X117448D01*
X117478D01*
X117500D01*
X117507D01*
X117685Y273398D01*
D02*
G37*
G36*
X118662Y266715D02*
X118817Y266656D01*
X118965Y266604D01*
X119106Y266560D01*
X119232Y266523D01*
X119343Y266486D01*
X119424Y266464D01*
X119454Y266456D01*
X119476Y266449D01*
X119491Y266442D01*
X119498D01*
X119202Y266353D01*
X119061Y266308D01*
X118936Y266264D01*
X118825Y266227D01*
X118780Y266212D01*
X118736Y266205D01*
X118706Y266190D01*
X118684Y266183D01*
X118669Y266175D01*
X118662D01*
X114940Y264843D01*
Y268107D01*
X118662Y266715D01*
D02*
G37*
G36*
X117448Y254306D02*
X118055D01*
Y255815D01*
X119017D01*
X119091Y255726D01*
X119158Y255623D01*
X119217Y255512D01*
X119269Y255408D01*
X119313Y255319D01*
X119350Y255238D01*
X119365Y255208D01*
X119372Y255194D01*
X119380Y255179D01*
Y255171D01*
X119431Y255016D01*
X119476Y254861D01*
X119505Y254720D01*
X119520Y254587D01*
X119535Y254476D01*
Y254431D01*
X119542Y254387D01*
Y254313D01*
X119535Y254128D01*
X119505Y253950D01*
X119468Y253788D01*
X119431Y253640D01*
X119387Y253521D01*
X119372Y253469D01*
X119357Y253432D01*
X119343Y253395D01*
X119328Y253373D01*
X119320Y253358D01*
Y253351D01*
X119224Y253196D01*
X119121Y253055D01*
X119010Y252937D01*
X118899Y252840D01*
X118795Y252759D01*
X118714Y252707D01*
X118684Y252685D01*
X118662Y252678D01*
X118647Y252663D01*
X118640D01*
X118455Y252589D01*
X118262Y252530D01*
X118070Y252493D01*
X117885Y252463D01*
X117803Y252456D01*
X117729Y252448D01*
X117655Y252441D01*
X117596D01*
X117552Y252433D01*
X117515D01*
X117493D01*
X117485D01*
X117278Y252441D01*
X117093Y252463D01*
X116915Y252493D01*
X116760Y252530D01*
X116693Y252544D01*
X116634Y252567D01*
X116582Y252581D01*
X116538Y252596D01*
X116501Y252611D01*
X116479Y252618D01*
X116464Y252626D01*
X116457D01*
X116353Y252678D01*
X116257Y252729D01*
X116168Y252781D01*
X116094Y252833D01*
X116035Y252877D01*
X115983Y252914D01*
X115953Y252944D01*
X115946Y252951D01*
X115865Y253033D01*
X115791Y253122D01*
X115731Y253218D01*
X115672Y253307D01*
X115635Y253381D01*
X115598Y253440D01*
X115583Y253484D01*
X115576Y253499D01*
X115524Y253632D01*
X115487Y253765D01*
X115465Y253906D01*
X115443Y254032D01*
X115435Y254143D01*
Y254187D01*
X115428Y254224D01*
Y254306D01*
X115435Y254446D01*
X115450Y254579D01*
X115472Y254698D01*
X115495Y254801D01*
X115524Y254890D01*
X115546Y254957D01*
X115561Y254994D01*
X115569Y255009D01*
X115620Y255120D01*
X115680Y255216D01*
X115739Y255305D01*
X115798Y255371D01*
X115850Y255423D01*
X115887Y255467D01*
X115916Y255490D01*
X115924Y255497D01*
X116013Y255564D01*
X116116Y255615D01*
X116212Y255667D01*
X116316Y255712D01*
X116405Y255741D01*
X116471Y255763D01*
X116501Y255771D01*
X116523Y255778D01*
X116531Y255786D01*
X116538D01*
X116375Y256400D01*
X116190Y256348D01*
X116027Y256281D01*
X115879Y256215D01*
X115761Y256156D01*
X115665Y256096D01*
X115598Y256052D01*
X115554Y256022D01*
X115539Y256008D01*
X115421Y255904D01*
X115324Y255793D01*
X115236Y255675D01*
X115162Y255564D01*
X115110Y255460D01*
X115065Y255379D01*
X115051Y255349D01*
X115043Y255327D01*
X115036Y255312D01*
Y255305D01*
X114977Y255134D01*
X114932Y254957D01*
X114895Y254794D01*
X114873Y254639D01*
X114858Y254498D01*
Y254439D01*
X114851Y254394D01*
Y256481D01*
X117448D01*
Y254306D01*
D02*
G37*
G36*
X114940Y230737D02*
Y233423D01*
X118965D01*
X114940Y230737D01*
D02*
G37*
G36*
X120060Y223536D02*
X116042D01*
X120060Y226215D01*
Y223536D01*
D02*
G37*
G36*
X116434Y221124D02*
X116523Y221109D01*
X116597Y221087D01*
X116664Y221065D01*
X116723Y221035D01*
X116767Y221013D01*
X116797Y220998D01*
X116804Y220991D01*
X116878Y220939D01*
X116945Y220872D01*
X116997Y220806D01*
X117041Y220739D01*
X117071Y220680D01*
X117093Y220636D01*
X117108Y220606D01*
X117115Y220591D01*
X117145Y220488D01*
X117167Y220369D01*
X117182Y220251D01*
X117189Y220132D01*
X117197Y220029D01*
X117204Y219940D01*
Y218416D01*
X115509D01*
Y220029D01*
X115517Y220229D01*
X115546Y220399D01*
X115583Y220547D01*
X115628Y220658D01*
X115672Y220754D01*
X115709Y220813D01*
X115739Y220850D01*
X115746Y220865D01*
X115842Y220954D01*
X115939Y221020D01*
X116042Y221065D01*
X116131Y221102D01*
X116220Y221117D01*
X116286Y221124D01*
X116331Y221131D01*
X116338D01*
X116346D01*
X116434Y221124D01*
D02*
G37*
G36*
X117951Y213865D02*
X116457Y214420D01*
X116272Y214486D01*
X116094Y214538D01*
X115931Y214590D01*
X115783Y214627D01*
X115657Y214656D01*
X115606Y214671D01*
X115554Y214679D01*
X115524Y214693D01*
X115495D01*
X115480Y214701D01*
X115472D01*
X115643Y214753D01*
X115820Y214812D01*
X115998Y214871D01*
X116168Y214930D01*
X116242Y214960D01*
X116316Y214982D01*
X116383Y215004D01*
X116434Y215026D01*
X116479Y215041D01*
X116516Y215056D01*
X116538Y215063D01*
X116545D01*
X117951Y215596D01*
Y213865D01*
D02*
G37*
G36*
X118233Y210831D02*
X118462Y210771D01*
X118669Y210727D01*
X118862Y210683D01*
X119024Y210646D01*
X119098Y210623D01*
X119165Y210616D01*
X119217Y210601D01*
X119261Y210594D01*
X119298Y210579D01*
X119328D01*
X119343Y210572D01*
X119350D01*
X119024Y210520D01*
X118706Y210453D01*
X118403Y210387D01*
X118262Y210357D01*
X118122Y210320D01*
X117996Y210290D01*
X117885Y210261D01*
X117789Y210231D01*
X117700Y210209D01*
X117633Y210194D01*
X117581Y210179D01*
X117544Y210165D01*
X117537D01*
X114940Y209439D01*
Y211630D01*
X118233Y210831D01*
D02*
G37*
G36*
X118403Y207649D02*
X118432Y207641D01*
X118477Y207626D01*
X118536Y207612D01*
X118603Y207597D01*
X118677Y207575D01*
X118758Y207560D01*
X118921Y207515D01*
X119084Y207478D01*
X119158Y207456D01*
X119217Y207441D01*
X119276Y207434D01*
X119313Y207419D01*
X119343Y207412D01*
X119350D01*
X119158Y207375D01*
X118965Y207338D01*
X118788Y207301D01*
X118632Y207264D01*
X118558Y207249D01*
X118492Y207234D01*
X118440Y207219D01*
X118388Y207212D01*
X118351Y207205D01*
X118321Y207197D01*
X118307Y207190D01*
X118299D01*
X114940Y206428D01*
Y208618D01*
X118403Y207649D01*
D02*
G37*
%LPC*%
G36*
X549894Y377649D02*
X547407D01*
X549820D01*
X549576Y377634D01*
X549339Y377597D01*
X549131Y377553D01*
X549035Y377523D01*
X548947Y377494D01*
X548865Y377464D01*
X548791Y377435D01*
X548732Y377412D01*
X548673Y377390D01*
X548636Y377368D01*
X548606Y377353D01*
X548584Y377346D01*
X548576Y377338D01*
X548377Y377213D01*
X548207Y377065D01*
X548059Y376917D01*
X547933Y376769D01*
X547836Y376635D01*
X547799Y376576D01*
X547770Y376524D01*
X547740Y376487D01*
X547725Y376458D01*
X547718Y376436D01*
X547711Y376428D01*
X547607Y376199D01*
X547533Y375962D01*
X547481Y375725D01*
X547444Y375511D01*
X547430Y375414D01*
X547422Y375318D01*
X547415Y375244D01*
Y375170D01*
X547407Y375118D01*
Y372351D01*
Y375037D01*
X547422Y374771D01*
X547452Y374512D01*
X547489Y374282D01*
X547518Y374171D01*
X547541Y374075D01*
X547563Y373986D01*
X547592Y373905D01*
X547614Y373831D01*
X547629Y373772D01*
X547651Y373727D01*
X547659Y373690D01*
X547674Y373668D01*
Y373661D01*
X547785Y373439D01*
X547910Y373239D01*
X548044Y373069D01*
X548110Y373002D01*
X548170Y372935D01*
X548229Y372876D01*
X548288Y372824D01*
X548340Y372780D01*
X548384Y372750D01*
X548414Y372721D01*
X548443Y372699D01*
X548458Y372691D01*
X548465Y372684D01*
X548569Y372625D01*
X548673Y372573D01*
X548895Y372491D01*
X549117Y372432D01*
X549331Y372395D01*
X549435Y372380D01*
X549524Y372366D01*
X549605Y372358D01*
X549672D01*
X549731Y372351D01*
X547407D01*
X549812D01*
X549960Y372358D01*
X550101Y372373D01*
X550234Y372388D01*
X550360Y372417D01*
X550478Y372454D01*
X550589Y372491D01*
X550693Y372528D01*
X550789Y372573D01*
X550871Y372610D01*
X550952Y372647D01*
X551011Y372684D01*
X551070Y372721D01*
X551107Y372750D01*
X551144Y372765D01*
X551159Y372780D01*
X551166Y372787D01*
X551270Y372876D01*
X551359Y372965D01*
X551440Y373069D01*
X551522Y373172D01*
X551655Y373379D01*
X551758Y373587D01*
X551803Y373683D01*
X551840Y373772D01*
X551869Y373853D01*
X551892Y373920D01*
X551914Y373979D01*
X551929Y374023D01*
X551936Y374053D01*
Y374060D01*
X551255Y374230D01*
X551226Y374112D01*
X551189Y374001D01*
X551152Y373897D01*
X551115Y373801D01*
X551070Y373712D01*
X551026Y373638D01*
X550974Y373564D01*
X550930Y373498D01*
X550893Y373439D01*
X550848Y373394D01*
X550811Y373350D01*
X550782Y373313D01*
X550752Y373291D01*
X550730Y373268D01*
X550723Y373261D01*
X550715Y373254D01*
X550641Y373194D01*
X550560Y373150D01*
X550397Y373069D01*
X550242Y373009D01*
X550086Y372972D01*
X549953Y372943D01*
X549901Y372935D01*
X549849D01*
X549805Y372928D01*
X549753D01*
X549583Y372935D01*
X549420Y372965D01*
X549272Y373002D01*
X549139Y373046D01*
X549035Y373091D01*
X548991Y373113D01*
X548954Y373128D01*
X548924Y373143D01*
X548902Y373157D01*
X548887Y373165D01*
X548880D01*
X548739Y373268D01*
X548621Y373379D01*
X548517Y373505D01*
X548436Y373624D01*
X548369Y373727D01*
X548325Y373816D01*
X548310Y373853D01*
X548295Y373875D01*
X548288Y373890D01*
Y373897D01*
X548229Y374090D01*
X548184Y374282D01*
X548147Y374475D01*
X548125Y374652D01*
X548118Y374734D01*
X548110Y374808D01*
Y374874D01*
X548103Y374926D01*
Y374970D01*
Y375007D01*
Y375030D01*
Y375037D01*
X548110Y375229D01*
X548125Y375407D01*
X548155Y375570D01*
X548184Y375718D01*
X548207Y375844D01*
X548221Y375895D01*
X548236Y375940D01*
X548244Y375977D01*
X548251Y375999D01*
X548258Y376014D01*
Y376021D01*
X548332Y376191D01*
X548414Y376347D01*
X548502Y376473D01*
X548599Y376584D01*
X548680Y376672D01*
X548747Y376732D01*
X548799Y376769D01*
X548806Y376783D01*
X548813D01*
X548969Y376880D01*
X549139Y376954D01*
X549302Y377005D01*
X549457Y377035D01*
X549598Y377057D01*
X549657Y377065D01*
X549709D01*
X549746Y377072D01*
X549805D01*
X549990Y377065D01*
X550160Y377035D01*
X550301Y376991D01*
X550426Y376946D01*
X550523Y376894D01*
X550597Y376857D01*
X550641Y376828D01*
X550656Y376813D01*
X550774Y376702D01*
X550885Y376576D01*
X550974Y376443D01*
X551048Y376310D01*
X551107Y376191D01*
X551129Y376132D01*
X551144Y376088D01*
X551159Y376051D01*
X551174Y376021D01*
X551181Y376006D01*
Y375999D01*
X551847Y376154D01*
X551803Y376288D01*
X551758Y376406D01*
X551699Y376517D01*
X551648Y376628D01*
X551588Y376724D01*
X551522Y376813D01*
X551463Y376902D01*
X551403Y376976D01*
X551344Y377035D01*
X551292Y377094D01*
X551240Y377146D01*
X551203Y377183D01*
X551166Y377220D01*
X551137Y377242D01*
X551122Y377250D01*
X551115Y377257D01*
X551011Y377324D01*
X550908Y377390D01*
X550804Y377442D01*
X550693Y377486D01*
X550471Y377553D01*
X550271Y377597D01*
X550175Y377620D01*
X550094Y377627D01*
X550012Y377634D01*
X549945Y377642D01*
X549894Y377649D01*
D02*
G37*
G36*
X535183D02*
X535109D01*
X534864Y377634D01*
X534627Y377597D01*
X534420Y377553D01*
X534324Y377523D01*
X534235Y377494D01*
X534154Y377464D01*
X534080Y377435D01*
X534021Y377412D01*
X533961Y377390D01*
X533924Y377368D01*
X533895Y377353D01*
X533873Y377346D01*
X533865Y377338D01*
X533666Y377213D01*
X533495Y377065D01*
X533347Y376917D01*
X533221Y376769D01*
X533125Y376635D01*
X533088Y376576D01*
X533059Y376524D01*
X533029Y376487D01*
X533014Y376458D01*
X533007Y376436D01*
X533000Y376428D01*
X532896Y376199D01*
X532822Y375962D01*
X532770Y375725D01*
X532733Y375511D01*
X532718Y375414D01*
X532711Y375318D01*
X532703Y375244D01*
Y375170D01*
X532696Y375118D01*
Y372351D01*
X537225D01*
D01*
X535101D01*
X535249Y372358D01*
X535390Y372373D01*
X535523Y372388D01*
X535649Y372417D01*
X535767Y372454D01*
X535878Y372491D01*
X535982Y372528D01*
X536078Y372573D01*
X536159Y372610D01*
X536241Y372647D01*
X536300Y372684D01*
X536359Y372721D01*
X536396Y372750D01*
X536433Y372765D01*
X536448Y372780D01*
X536455Y372787D01*
X536559Y372876D01*
X536648Y372965D01*
X536729Y373069D01*
X536810Y373172D01*
X536944Y373379D01*
X537047Y373587D01*
X537092Y373683D01*
X537129Y373772D01*
X537158Y373853D01*
X537181Y373920D01*
X537203Y373979D01*
X537218Y374023D01*
X537225Y374053D01*
Y374060D01*
X536544Y374230D01*
X536515Y374112D01*
X536478Y374001D01*
X536441Y373897D01*
X536404Y373801D01*
X536359Y373712D01*
X536315Y373638D01*
X536263Y373564D01*
X536219Y373498D01*
X536181Y373439D01*
X536137Y373394D01*
X536100Y373350D01*
X536070Y373313D01*
X536041Y373291D01*
X536019Y373268D01*
X536011Y373261D01*
X536004Y373254D01*
X535930Y373194D01*
X535849Y373150D01*
X535686Y373069D01*
X535530Y373009D01*
X535375Y372972D01*
X535242Y372943D01*
X535190Y372935D01*
X535138D01*
X535094Y372928D01*
X535042D01*
X534872Y372935D01*
X534709Y372965D01*
X534561Y373002D01*
X534428Y373046D01*
X534324Y373091D01*
X534280Y373113D01*
X534243Y373128D01*
X534213Y373143D01*
X534191Y373157D01*
X534176Y373165D01*
X534169D01*
X534028Y373268D01*
X533910Y373379D01*
X533806Y373505D01*
X533725Y373624D01*
X533658Y373727D01*
X533614Y373816D01*
X533599Y373853D01*
X533584Y373875D01*
X533577Y373890D01*
Y373897D01*
X533518Y374090D01*
X533473Y374282D01*
X533436Y374475D01*
X533414Y374652D01*
X533406Y374734D01*
X533399Y374808D01*
Y374874D01*
X533392Y374926D01*
Y374970D01*
Y375007D01*
Y375030D01*
Y375037D01*
X533399Y375229D01*
X533414Y375407D01*
X533443Y375570D01*
X533473Y375718D01*
X533495Y375844D01*
X533510Y375895D01*
X533525Y375940D01*
X533532Y375977D01*
X533540Y375999D01*
X533547Y376014D01*
Y376021D01*
X533621Y376191D01*
X533703Y376347D01*
X533791Y376473D01*
X533887Y376584D01*
X533969Y376672D01*
X534035Y376732D01*
X534087Y376769D01*
X534095Y376783D01*
X534102D01*
X534258Y376880D01*
X534428Y376954D01*
X534590Y377005D01*
X534746Y377035D01*
X534887Y377057D01*
X534946Y377065D01*
X534998D01*
X535035Y377072D01*
X535094D01*
X535279Y377065D01*
X535449Y377035D01*
X535590Y376991D01*
X535715Y376946D01*
X535812Y376894D01*
X535885Y376857D01*
X535930Y376828D01*
X535945Y376813D01*
X536063Y376702D01*
X536174Y376576D01*
X536263Y376443D01*
X536337Y376310D01*
X536396Y376191D01*
X536418Y376132D01*
X536433Y376088D01*
X536448Y376051D01*
X536463Y376021D01*
X536470Y376006D01*
Y375999D01*
X537136Y376154D01*
X537092Y376288D01*
X537047Y376406D01*
X536988Y376517D01*
X536936Y376628D01*
X536877Y376724D01*
X536810Y376813D01*
X536751Y376902D01*
X536692Y376976D01*
X536633Y377035D01*
X536581Y377094D01*
X536529Y377146D01*
X536492Y377183D01*
X536455Y377220D01*
X536426Y377242D01*
X536411Y377250D01*
X536404Y377257D01*
X536300Y377324D01*
X536196Y377390D01*
X536093Y377442D01*
X535982Y377486D01*
X535760Y377553D01*
X535560Y377597D01*
X535464Y377620D01*
X535382Y377627D01*
X535301Y377634D01*
X535234Y377642D01*
X535183Y377649D01*
D02*
G37*
G36*
X575668Y377583D02*
X575483D01*
X575379Y377568D01*
X575179Y377531D01*
X575009Y377472D01*
X574861Y377412D01*
X574795Y377375D01*
X574743Y377346D01*
X574691Y377316D01*
X574654Y377287D01*
X574624Y377264D01*
X574602Y377250D01*
X574587Y377242D01*
X574580Y377235D01*
X574439Y377094D01*
X574329Y376939D01*
X574240Y376776D01*
X574166Y376613D01*
X574121Y376473D01*
X574099Y376413D01*
X574084Y376362D01*
X574077Y376317D01*
X574069Y376288D01*
X574062Y376265D01*
Y376258D01*
X574691Y376147D01*
X574721Y376310D01*
X574765Y376450D01*
X574817Y376569D01*
X574869Y376665D01*
X574921Y376739D01*
X574965Y376791D01*
X574995Y376828D01*
X575002Y376835D01*
X575098Y376909D01*
X575202Y376968D01*
X575298Y377005D01*
X575394Y377035D01*
X575483Y377050D01*
X575550Y377065D01*
X575609D01*
X575742Y377057D01*
X575860Y377028D01*
X575964Y376991D01*
X576053Y376954D01*
X576119Y376909D01*
X576171Y376872D01*
X576208Y376843D01*
X576216Y376835D01*
X576297Y376746D01*
X576356Y376650D01*
X576393Y376554D01*
X576423Y376465D01*
X576438Y376384D01*
X576452Y376325D01*
Y376280D01*
Y376273D01*
Y376265D01*
Y376184D01*
X576438Y376110D01*
X576401Y375984D01*
X576349Y375873D01*
X576290Y375777D01*
X576230Y375710D01*
X576179Y375659D01*
X576142Y375629D01*
X576134Y375622D01*
X576127D01*
X576001Y375555D01*
X575882Y375503D01*
X575757Y375466D01*
X575646Y375444D01*
X575550Y375429D01*
X575468Y375414D01*
X575372D01*
X575342Y375422D01*
X575305D01*
X575231Y374867D01*
X575327Y374889D01*
X575416Y374904D01*
X575490Y374919D01*
X575557Y374926D01*
X575609Y374933D01*
X575675D01*
X575831Y374919D01*
X575971Y374889D01*
X576097Y374845D01*
X576201Y374793D01*
X576282Y374741D01*
X576341Y374697D01*
X576378Y374667D01*
X576393Y374652D01*
X576489Y374541D01*
X576563Y374423D01*
X576615Y374304D01*
X576645Y374186D01*
X576667Y374090D01*
X576674Y374008D01*
X576682Y373979D01*
Y373957D01*
Y373942D01*
Y373934D01*
X576667Y373772D01*
X576630Y373624D01*
X576585Y373498D01*
X576526Y373387D01*
X576467Y373298D01*
X576423Y373231D01*
X576386Y373187D01*
X576371Y373172D01*
X576253Y373069D01*
X576127Y372995D01*
X576001Y372943D01*
X575882Y372906D01*
X575779Y372884D01*
X575698Y372876D01*
X575668Y372869D01*
X575624D01*
X575490Y372876D01*
X575364Y372906D01*
X575253Y372943D01*
X575165Y372987D01*
X575091Y373024D01*
X575032Y373061D01*
X575002Y373091D01*
X574987Y373098D01*
X574898Y373202D01*
X574824Y373320D01*
X574758Y373446D01*
X574706Y373579D01*
X574669Y373690D01*
X574654Y373742D01*
X574647Y373786D01*
X574639Y373823D01*
X574632Y373853D01*
X574624Y373868D01*
Y373875D01*
X573995Y373794D01*
X574010Y373675D01*
X574032Y373564D01*
X574099Y373357D01*
X574181Y373180D01*
X574225Y373106D01*
X574269Y373032D01*
X574314Y372965D01*
X574358Y372913D01*
X574395Y372861D01*
X574432Y372824D01*
X574454Y372795D01*
X574476Y372773D01*
X574491Y372758D01*
X574499Y372750D01*
X574587Y372684D01*
X574676Y372617D01*
X574765Y372565D01*
X574861Y372521D01*
X575046Y372447D01*
X575224Y372403D01*
X575305Y372388D01*
X575379Y372373D01*
X575446Y372366D01*
X575505Y372358D01*
X575550Y372351D01*
X573995D01*
X577348D01*
D01*
X575616D01*
X575757Y372358D01*
X575882Y372373D01*
X576008Y372395D01*
X576127Y372425D01*
X576238Y372462D01*
X576334Y372499D01*
X576430Y372543D01*
X576511Y372588D01*
X576593Y372625D01*
X576659Y372669D01*
X576719Y372706D01*
X576763Y372743D01*
X576800Y372773D01*
X576830Y372795D01*
X576845Y372810D01*
X576852Y372817D01*
X576941Y372906D01*
X577015Y373002D01*
X577081Y373098D01*
X577141Y373194D01*
X577185Y373283D01*
X577229Y373379D01*
X577288Y373557D01*
X577303Y373638D01*
X577318Y373712D01*
X577333Y373779D01*
X577340Y373838D01*
X577348Y373883D01*
Y373949D01*
X577340Y374127D01*
X577311Y374290D01*
X577266Y374430D01*
X577222Y374549D01*
X577177Y374645D01*
X577133Y374719D01*
X577104Y374763D01*
X577096Y374778D01*
X576993Y374889D01*
X576882Y374985D01*
X576763Y375059D01*
X576645Y375118D01*
X576541Y375163D01*
X576460Y375192D01*
X576430Y375200D01*
X576408Y375207D01*
X576393Y375215D01*
X576386D01*
X576511Y375281D01*
X576615Y375348D01*
X576704Y375422D01*
X576778Y375488D01*
X576837Y375548D01*
X576882Y375599D01*
X576904Y375629D01*
X576911Y375644D01*
X576970Y375747D01*
X577015Y375851D01*
X577052Y375955D01*
X577074Y376051D01*
X577089Y376132D01*
X577096Y376191D01*
Y376236D01*
Y376251D01*
X577089Y376376D01*
X577067Y376502D01*
X577037Y376613D01*
X577000Y376709D01*
X576963Y376791D01*
X576933Y376857D01*
X576911Y376894D01*
X576904Y376909D01*
X576830Y377020D01*
X576741Y377116D01*
X576652Y377198D01*
X576563Y377272D01*
X576489Y377324D01*
X576423Y377368D01*
X576378Y377390D01*
X576371Y377398D01*
X576364D01*
X576230Y377457D01*
X576097Y377501D01*
X575964Y377538D01*
X575845Y377560D01*
X575749Y377575D01*
X575668Y377583D01*
D02*
G37*
G36*
X556879Y377560D02*
X555954D01*
X553424Y375015D01*
Y377560D01*
X552743D01*
Y372440D01*
X556976D01*
D01*
X554733Y375481D01*
X556879Y377560D01*
D02*
G37*
G36*
X544351Y377649D02*
X544284D01*
X544085Y377642D01*
X543900Y377620D01*
X543722Y377583D01*
X543552Y377538D01*
X543397Y377479D01*
X543249Y377420D01*
X543115Y377353D01*
X542997Y377287D01*
X542886Y377220D01*
X542790Y377153D01*
X542708Y377094D01*
X542642Y377035D01*
X542590Y376991D01*
X542546Y376954D01*
X542523Y376931D01*
X542516Y376924D01*
X542397Y376783D01*
X542294Y376635D01*
X542198Y376473D01*
X542124Y376310D01*
X542057Y376140D01*
X541998Y375977D01*
X541954Y375814D01*
X541924Y375659D01*
X541894Y375511D01*
X541872Y375370D01*
X541857Y375244D01*
X541843Y375141D01*
Y375052D01*
X541835Y374985D01*
Y377649D01*
Y374926D01*
X541850Y374674D01*
X541880Y374445D01*
X541924Y374223D01*
X541954Y374127D01*
X541983Y374031D01*
X542005Y373949D01*
X542035Y373875D01*
X542057Y373809D01*
X542079Y373749D01*
X542094Y373705D01*
X542109Y373675D01*
X542124Y373653D01*
Y373646D01*
X542249Y373431D01*
X542383Y373246D01*
X542531Y373083D01*
X542671Y372950D01*
X542797Y372839D01*
X542849Y372795D01*
X542893Y372765D01*
X542938Y372736D01*
X542967Y372713D01*
X542982Y372706D01*
X542989Y372699D01*
X543101Y372639D01*
X543212Y372588D01*
X543434Y372499D01*
X543648Y372440D01*
X543848Y372395D01*
X543944Y372380D01*
X544026Y372373D01*
X544100Y372358D01*
X544166D01*
X544210Y372351D01*
X541835D01*
X546734D01*
D01*
X544284D01*
X544529Y372366D01*
X544758Y372403D01*
X544973Y372447D01*
X545069Y372477D01*
X545158Y372506D01*
X545239Y372536D01*
X545313Y372565D01*
X545372Y372588D01*
X545424Y372610D01*
X545469Y372632D01*
X545506Y372647D01*
X545520Y372662D01*
X545528D01*
X545735Y372795D01*
X545913Y372943D01*
X546061Y373098D01*
X546186Y373246D01*
X546290Y373387D01*
X546327Y373439D01*
X546356Y373490D01*
X546386Y373535D01*
X546401Y373564D01*
X546416Y373587D01*
Y373594D01*
X546475Y373712D01*
X546519Y373831D01*
X546601Y374068D01*
X546660Y374304D01*
X546697Y374519D01*
X546704Y374615D01*
X546719Y374704D01*
X546727Y374785D01*
Y374852D01*
X546734Y374911D01*
Y374985D01*
X546719Y375266D01*
X546690Y375525D01*
X546667Y375644D01*
X546638Y375762D01*
X546608Y375866D01*
X546586Y375962D01*
X546556Y376051D01*
X546527Y376132D01*
X546504Y376199D01*
X546475Y376258D01*
X546460Y376302D01*
X546445Y376332D01*
X546430Y376354D01*
Y376362D01*
X546312Y376576D01*
X546172Y376769D01*
X546024Y376931D01*
X545890Y377065D01*
X545764Y377168D01*
X545705Y377213D01*
X545661Y377250D01*
X545616Y377272D01*
X545587Y377294D01*
X545572Y377301D01*
X545565Y377309D01*
X545454Y377368D01*
X545343Y377420D01*
X545128Y377509D01*
X544906Y377568D01*
X544714Y377605D01*
X544625Y377620D01*
X544536Y377634D01*
X544469Y377642D01*
X544403D01*
X544351Y377649D01*
D02*
G37*
G36*
X503881Y374608D02*
X501934D01*
Y373979D01*
X503881D01*
Y374608D01*
D02*
G37*
G36*
X488999Y377560D02*
D01*
Y373439D01*
D01*
Y377560D01*
D02*
G37*
G36*
X573633Y377560D02*
X572945D01*
X571554Y373838D01*
X571494Y373683D01*
X571443Y373535D01*
X571398Y373394D01*
X571361Y373268D01*
X571324Y373157D01*
X571302Y373076D01*
X571294Y373046D01*
X571287Y373024D01*
X571280Y373009D01*
Y373002D01*
X571191Y373298D01*
X571146Y373439D01*
X571102Y373564D01*
X571065Y373675D01*
X571050Y373720D01*
X571043Y373764D01*
X571028Y373794D01*
X571021Y373816D01*
X571013Y373831D01*
Y373838D01*
X569681Y377560D01*
X568941D01*
X570925Y372440D01*
X568941D01*
Y377560D01*
D01*
Y372440D01*
X573633D01*
X571635D01*
X573633Y377560D01*
D01*
D02*
G37*
G36*
X520752Y377560D02*
X520064D01*
X518673Y373838D01*
X518614Y373683D01*
X518562Y373535D01*
X518518Y373394D01*
X518481Y373268D01*
X518444Y373157D01*
X518422Y373076D01*
X518414Y373046D01*
X518407Y373024D01*
X518399Y373009D01*
Y373002D01*
X518310Y373298D01*
X518266Y373439D01*
X518222Y373564D01*
X518185Y373675D01*
X518170Y373720D01*
X518162Y373764D01*
X518148Y373794D01*
X518140Y373816D01*
X518133Y373831D01*
Y373838D01*
X516801Y377560D01*
X516061D01*
X518044Y372440D01*
X516061D01*
Y377560D01*
D01*
Y372440D01*
X520752D01*
X518754D01*
X520752Y377560D01*
D01*
D02*
G37*
G36*
X493691Y377560D02*
X493003D01*
X491611Y373838D01*
X491552Y373683D01*
X491500Y373535D01*
X491456Y373394D01*
X491419Y373268D01*
X491382Y373157D01*
X491360Y373076D01*
X491352Y373046D01*
X491345Y373024D01*
X491337Y373009D01*
Y373002D01*
X491249Y373298D01*
X491204Y373439D01*
X491160Y373564D01*
X491123Y373675D01*
X491108Y373720D01*
X491101Y373764D01*
X491086Y373794D01*
X491079Y373816D01*
X491071Y373831D01*
Y373838D01*
X489739Y377560D01*
X488999D01*
X490982Y372440D01*
X488999D01*
Y373439D01*
Y372440D01*
X493691D01*
X491693D01*
X493691Y377560D01*
D01*
D02*
G37*
G36*
X513515Y377494D02*
X510363D01*
X510970D01*
X510474Y374859D01*
X511066Y374778D01*
X511118Y374859D01*
X511184Y374926D01*
X511243Y374993D01*
X511303Y375044D01*
X511362Y375081D01*
X511406Y375118D01*
X511436Y375133D01*
X511443Y375141D01*
X511540Y375185D01*
X511636Y375222D01*
X511725Y375244D01*
X511813Y375266D01*
X511887Y375274D01*
X511946Y375281D01*
X512087D01*
X512176Y375266D01*
X512331Y375229D01*
X512465Y375178D01*
X512583Y375126D01*
X512672Y375067D01*
X512738Y375015D01*
X512775Y374978D01*
X512790Y374970D01*
Y374963D01*
X512894Y374837D01*
X512968Y374704D01*
X513020Y374563D01*
X513057Y374423D01*
X513079Y374304D01*
X513086Y374253D01*
Y374208D01*
X513094Y374171D01*
Y374142D01*
Y374127D01*
Y374119D01*
Y374016D01*
X513079Y373920D01*
X513042Y373735D01*
X512990Y373579D01*
X512938Y373453D01*
X512879Y373350D01*
X512827Y373268D01*
X512805Y373246D01*
X512790Y373224D01*
X512783Y373217D01*
X512775Y373209D01*
X512716Y373150D01*
X512657Y373098D01*
X512524Y373009D01*
X512398Y372950D01*
X512272Y372913D01*
X512169Y372884D01*
X512080Y372876D01*
X512050Y372869D01*
X512006D01*
X511865Y372876D01*
X511739Y372906D01*
X511628Y372943D01*
X511540Y372987D01*
X511458Y373032D01*
X511399Y373069D01*
X511369Y373098D01*
X511354Y373106D01*
X511266Y373209D01*
X511192Y373320D01*
X511132Y373446D01*
X511088Y373557D01*
X511059Y373668D01*
X511036Y373749D01*
X511029Y373786D01*
X511022Y373809D01*
Y373823D01*
Y373831D01*
X510363Y373779D01*
X510378Y373661D01*
X510400Y373550D01*
X510466Y373342D01*
X510548Y373165D01*
X510592Y373083D01*
X510637Y373017D01*
X510674Y372950D01*
X510718Y372891D01*
X510755Y372847D01*
X510792Y372810D01*
X510822Y372780D01*
X510837Y372750D01*
X510851Y372743D01*
X510859Y372736D01*
X510948Y372669D01*
X511036Y372610D01*
X511132Y372558D01*
X511229Y372514D01*
X511414Y372447D01*
X511599Y372403D01*
X511680Y372380D01*
X511762Y372373D01*
X511828Y372366D01*
X511887Y372358D01*
X511939Y372351D01*
X510363D01*
X512006D01*
X512161Y372358D01*
X512309Y372380D01*
X512450Y372410D01*
X512575Y372447D01*
X512694Y372499D01*
X512805Y372551D01*
X512909Y372602D01*
X512997Y372662D01*
X513079Y372721D01*
X513153Y372773D01*
X513212Y372832D01*
X513264Y372876D01*
X513301Y372913D01*
X513330Y372943D01*
X513345Y372965D01*
X513352Y372972D01*
X513426Y373069D01*
X513486Y373172D01*
X513545Y373268D01*
X513589Y373372D01*
X513663Y373572D01*
X513708Y373764D01*
X513723Y373846D01*
X513737Y373927D01*
X513745Y373994D01*
X513752Y374053D01*
X513760Y374105D01*
Y372684D01*
Y374105D01*
Y374171D01*
X513752Y374304D01*
X513737Y374430D01*
X513715Y374556D01*
X513686Y374667D01*
X513649Y374771D01*
X513612Y374874D01*
X513567Y374963D01*
X513530Y375044D01*
X513486Y375118D01*
X513441Y375185D01*
X513404Y375237D01*
X513367Y375289D01*
X513338Y375326D01*
X513315Y375348D01*
X513301Y375363D01*
X513293Y375370D01*
X513204Y375451D01*
X513116Y375525D01*
X513020Y375585D01*
X512923Y375636D01*
X512827Y375688D01*
X512731Y375725D01*
X512553Y375777D01*
X512472Y375799D01*
X512398Y375814D01*
X512331Y375821D01*
X512272Y375829D01*
X512228Y375836D01*
X512065D01*
X511976Y375821D01*
X511798Y375784D01*
X511636Y375733D01*
X511488Y375673D01*
X511369Y375614D01*
X511317Y375585D01*
X511273Y375562D01*
X511236Y375540D01*
X511214Y375525D01*
X511199Y375518D01*
X511192Y375511D01*
X511466Y376894D01*
X513515D01*
Y377494D01*
D02*
G37*
G36*
X568416Y377560D02*
X564709D01*
Y372440D01*
X568534D01*
Y373046D01*
X565389D01*
Y374785D01*
X568223D01*
Y375392D01*
X565389D01*
Y376954D01*
X568416D01*
Y377560D01*
D02*
G37*
G36*
X561919Y377560D02*
X559543D01*
Y372440D01*
X564043D01*
D01*
X563162Y373831D01*
X563058Y373979D01*
X562962Y374112D01*
X562866Y374223D01*
X562784Y374327D01*
X562711Y374401D01*
X562651Y374460D01*
X562614Y374497D01*
X562600Y374512D01*
X562540Y374556D01*
X562474Y374608D01*
X562340Y374689D01*
X562281Y374719D01*
X562237Y374748D01*
X562207Y374763D01*
X562192Y374771D01*
X562326Y374793D01*
X562452Y374815D01*
X562563Y374852D01*
X562674Y374882D01*
X562770Y374919D01*
X562858Y374963D01*
X562940Y375000D01*
X563014Y375037D01*
X563073Y375081D01*
X563132Y375118D01*
X563177Y375148D01*
X563214Y375178D01*
X563243Y375200D01*
X563266Y375222D01*
X563273Y375229D01*
X563280Y375237D01*
X563340Y375311D01*
X563399Y375385D01*
X563487Y375540D01*
X563547Y375696D01*
X563591Y375844D01*
X563621Y375969D01*
X563628Y376021D01*
Y376073D01*
X563635Y376110D01*
Y376140D01*
Y376154D01*
Y376162D01*
X563628Y376317D01*
X563606Y376458D01*
X563569Y376591D01*
X563532Y376702D01*
X563487Y376798D01*
X563458Y376872D01*
X563428Y376917D01*
X563421Y376924D01*
Y376931D01*
X563332Y377050D01*
X563243Y377153D01*
X563147Y377242D01*
X563058Y377309D01*
X562977Y377361D01*
X562910Y377390D01*
X562866Y377412D01*
X562858Y377420D01*
X562851D01*
X562784Y377442D01*
X562703Y377464D01*
X562540Y377501D01*
X562363Y377523D01*
X562200Y377546D01*
X562044Y377553D01*
X561978D01*
X561919Y377560D01*
D02*
G37*
G36*
X538712D02*
X538031D01*
Y372440D01*
X541236D01*
Y373046D01*
X538712D01*
Y377560D01*
D02*
G37*
G36*
X527708D02*
X525740D01*
Y372440D01*
X527583D01*
X527753Y372447D01*
X527908Y372454D01*
X528049Y372469D01*
X528167Y372484D01*
X528271Y372499D01*
X528345Y372506D01*
X528367Y372514D01*
X528389Y372521D01*
X528404D01*
X528537Y372558D01*
X528656Y372602D01*
X528759Y372639D01*
X528848Y372684D01*
X528922Y372721D01*
X528974Y372750D01*
X529003Y372773D01*
X529018Y372780D01*
X529114Y372847D01*
X529196Y372928D01*
X529277Y373002D01*
X529344Y373076D01*
X529403Y373143D01*
X529448Y373194D01*
X529477Y373231D01*
X529485Y373246D01*
X529559Y373365D01*
X529633Y373490D01*
X529692Y373609D01*
X529736Y373727D01*
X529780Y373831D01*
X529810Y373912D01*
X529817Y373942D01*
X529825Y373964D01*
X529832Y373979D01*
Y373986D01*
X529877Y374164D01*
X529914Y374341D01*
X529936Y374512D01*
X529958Y374674D01*
X529965Y374815D01*
Y374874D01*
X529973Y374926D01*
Y375022D01*
X529965Y375274D01*
X529943Y375503D01*
X529906Y375710D01*
X529891Y375807D01*
X529869Y375888D01*
X529847Y375969D01*
X529832Y376036D01*
X529817Y376095D01*
X529795Y376147D01*
X529788Y376191D01*
X529773Y376221D01*
X529766Y376236D01*
Y376243D01*
X529684Y376436D01*
X529588Y376606D01*
X529485Y376754D01*
X529388Y376880D01*
X529299Y376983D01*
X529225Y377057D01*
X529196Y377079D01*
X529174Y377102D01*
X529166Y377109D01*
X529159Y377116D01*
X529040Y377213D01*
X528915Y377287D01*
X528789Y377353D01*
X528671Y377405D01*
X528567Y377442D01*
X528485Y377464D01*
X528456Y377479D01*
X528434D01*
X528419Y377486D01*
X528411D01*
X528286Y377509D01*
X528138Y377531D01*
X527990Y377546D01*
X527842Y377553D01*
X527708Y377560D01*
D02*
G37*
G36*
X524860D02*
X521396D01*
Y372440D01*
X524860D01*
X522077D01*
Y374763D01*
X524482D01*
Y375370D01*
X522077D01*
Y376954D01*
X524860D01*
Y377560D01*
D02*
G37*
G36*
X507751Y377494D02*
X504435Y377494D01*
Y372440D01*
D01*
Y376887D01*
X506944D01*
X506767Y376672D01*
X506596Y376443D01*
X506448Y376221D01*
X506308Y376006D01*
X506249Y375910D01*
X506197Y375821D01*
X506145Y375740D01*
X506108Y375673D01*
X506078Y375614D01*
X506056Y375577D01*
X506041Y375548D01*
X506034Y375540D01*
X505886Y375244D01*
X505753Y374948D01*
X505642Y374667D01*
X505597Y374541D01*
X505553Y374415D01*
X505509Y374304D01*
X505479Y374201D01*
X505449Y374112D01*
X505427Y374038D01*
X505405Y373971D01*
X505390Y373927D01*
X505383Y373897D01*
Y373890D01*
X505309Y373587D01*
X505279Y373439D01*
X505257Y373305D01*
X505235Y373180D01*
X505212Y373054D01*
X505198Y372950D01*
X505183Y372847D01*
X505175Y372758D01*
X505168Y372676D01*
X505161Y372602D01*
Y372543D01*
X505153Y372499D01*
Y372469D01*
Y372447D01*
Y372440D01*
X504435D01*
X507751Y372440D01*
D01*
X505797Y372440D01*
X505819Y372721D01*
X505856Y372980D01*
X505893Y373217D01*
X505915Y373328D01*
X505938Y373431D01*
X505953Y373520D01*
X505975Y373601D01*
X505990Y373675D01*
X506004Y373735D01*
X506019Y373779D01*
X506027Y373816D01*
X506034Y373838D01*
Y373846D01*
X506145Y374186D01*
X506263Y374504D01*
X506322Y374660D01*
X506382Y374808D01*
X506448Y374941D01*
X506507Y375074D01*
X506559Y375192D01*
X506611Y375296D01*
X506656Y375385D01*
X506693Y375466D01*
X506730Y375533D01*
X506752Y375577D01*
X506767Y375607D01*
X506774Y375614D01*
X506863Y375770D01*
X506952Y375925D01*
X507040Y376066D01*
X507129Y376199D01*
X507210Y376317D01*
X507292Y376436D01*
X507373Y376539D01*
X507440Y376628D01*
X507507Y376717D01*
X507566Y376791D01*
X507625Y376850D01*
X507669Y376902D01*
X507699Y376946D01*
X507728Y376976D01*
X507743Y376991D01*
X507751Y376998D01*
Y377494D01*
D02*
G37*
G36*
X499796Y377583D02*
X497938D01*
Y372440D01*
X501335D01*
Y373046D01*
X498811D01*
X498900Y373172D01*
X498945Y373224D01*
X498982Y373276D01*
X499019Y373320D01*
X499048Y373350D01*
X499071Y373372D01*
X499078Y373379D01*
X499115Y373416D01*
X499159Y373453D01*
X499263Y373550D01*
X499381Y373661D01*
X499507Y373772D01*
X499625Y373868D01*
X499677Y373912D01*
X499722Y373957D01*
X499759Y373986D01*
X499788Y374008D01*
X499803Y374023D01*
X499811Y374031D01*
X499929Y374134D01*
X500047Y374230D01*
X500151Y374327D01*
X500247Y374408D01*
X500336Y374489D01*
X500410Y374563D01*
X500484Y374630D01*
X500543Y374689D01*
X500602Y374748D01*
X500647Y374793D01*
X500684Y374830D01*
X500721Y374867D01*
X500758Y374911D01*
X500772Y374926D01*
X500876Y375052D01*
X500965Y375163D01*
X501039Y375274D01*
X501098Y375363D01*
X501143Y375444D01*
X501172Y375503D01*
X501187Y375540D01*
X501194Y375555D01*
X501239Y375666D01*
X501268Y375777D01*
X501298Y375881D01*
X501313Y375969D01*
X501320Y376051D01*
X501328Y376110D01*
Y376147D01*
Y376162D01*
X501320Y376273D01*
X501305Y376376D01*
X501291Y376480D01*
X501261Y376569D01*
X501187Y376746D01*
X501113Y376887D01*
X501068Y376954D01*
X501031Y377005D01*
X500994Y377057D01*
X500957Y377094D01*
X500928Y377124D01*
X500913Y377153D01*
X500898Y377161D01*
X500891Y377168D01*
X500809Y377242D01*
X500721Y377309D01*
X500625Y377361D01*
X500528Y377405D01*
X500336Y377479D01*
X500143Y377531D01*
X500062Y377546D01*
X499981Y377560D01*
X499907Y377568D01*
X499848Y377575D01*
X499796Y377583D01*
D02*
G37*
G36*
X494956Y377560D02*
X494275D01*
Y372440D01*
X497479D01*
Y373046D01*
X494956D01*
Y377560D01*
D02*
G37*
G36*
X488333D02*
X487652D01*
Y372440D01*
X488333D01*
Y377560D01*
D02*
G37*
G36*
X573995Y377583D02*
D01*
Y372351D01*
Y377583D01*
D01*
D02*
G37*
G36*
X510067Y377649D02*
X509564D01*
X508076Y372351D01*
X508579D01*
X510067Y377649D01*
D02*
G37*
%LPD*%
G36*
X532711Y374771D02*
X532740Y374512D01*
X532778Y374282D01*
X532807Y374171D01*
X532829Y374075D01*
X532852Y373986D01*
X532881Y373905D01*
X532903Y373831D01*
X532918Y373772D01*
X532940Y373727D01*
X532948Y373690D01*
X532963Y373668D01*
Y373661D01*
X533074Y373439D01*
X533199Y373239D01*
X533332Y373069D01*
X533399Y373002D01*
X533458Y372935D01*
X533518Y372876D01*
X533577Y372824D01*
X533629Y372780D01*
X533673Y372750D01*
X533703Y372721D01*
X533732Y372699D01*
X533747Y372691D01*
X533754Y372684D01*
X533858Y372625D01*
X533961Y372573D01*
X534184Y372491D01*
X534406Y372432D01*
X534620Y372395D01*
X534724Y372380D01*
X534812Y372366D01*
X534894Y372358D01*
X534961D01*
X535020Y372351D01*
X532696D01*
Y375037D01*
X532711Y374771D01*
D02*
G37*
G36*
X556080Y372440D02*
X553424D01*
Y374216D01*
X554260Y375022D01*
X556080Y372440D01*
D02*
G37*
G36*
X544469Y377057D02*
X544647Y377028D01*
X544803Y376983D01*
X544936Y376939D01*
X545047Y376887D01*
X545091Y376865D01*
X545128Y376850D01*
X545165Y376828D01*
X545187Y376820D01*
X545195Y376806D01*
X545202D01*
X545343Y376702D01*
X545469Y376584D01*
X545579Y376465D01*
X545668Y376347D01*
X545735Y376243D01*
X545787Y376154D01*
X545801Y376125D01*
X545816Y376103D01*
X545824Y376088D01*
Y376080D01*
X545898Y375903D01*
X545950Y375710D01*
X545987Y375533D01*
X546009Y375363D01*
X546024Y375281D01*
X546031Y375215D01*
Y375148D01*
X546038Y375096D01*
Y375052D01*
Y375022D01*
Y375000D01*
Y374993D01*
X546031Y374815D01*
X546016Y374645D01*
X545994Y374482D01*
X545964Y374334D01*
X545920Y374201D01*
X545883Y374075D01*
X545838Y373957D01*
X545794Y373853D01*
X545742Y373764D01*
X545698Y373683D01*
X545661Y373616D01*
X545624Y373564D01*
X545587Y373520D01*
X545565Y373483D01*
X545550Y373468D01*
X545542Y373461D01*
X545446Y373365D01*
X545343Y373283D01*
X545239Y373217D01*
X545135Y373150D01*
X545032Y373098D01*
X544921Y373061D01*
X544825Y373024D01*
X544721Y372995D01*
X544632Y372972D01*
X544544Y372958D01*
X544469Y372943D01*
X544403Y372935D01*
X544351D01*
X544314Y372928D01*
X544277D01*
X544136Y372935D01*
X544003Y372950D01*
X543885Y372980D01*
X543766Y373009D01*
X543655Y373054D01*
X543552Y373098D01*
X543456Y373143D01*
X543367Y373194D01*
X543293Y373246D01*
X543226Y373291D01*
X543167Y373335D01*
X543115Y373379D01*
X543078Y373409D01*
X543049Y373439D01*
X543034Y373453D01*
X543026Y373461D01*
X542938Y373564D01*
X542864Y373675D01*
X542797Y373794D01*
X542738Y373912D01*
X542694Y374038D01*
X542649Y374156D01*
X542590Y374393D01*
X542575Y374497D01*
X542560Y374600D01*
X542546Y374689D01*
X542538Y374763D01*
X542531Y374830D01*
Y374882D01*
Y374911D01*
Y374919D01*
X542538Y375126D01*
X542553Y375318D01*
X542575Y375503D01*
X542612Y375666D01*
X542649Y375814D01*
X542694Y375947D01*
X542745Y376073D01*
X542790Y376177D01*
X542841Y376273D01*
X542886Y376354D01*
X542930Y376421D01*
X542967Y376473D01*
X543004Y376517D01*
X543026Y376547D01*
X543041Y376561D01*
X543049Y376569D01*
X543145Y376658D01*
X543249Y376732D01*
X543352Y376798D01*
X543463Y376857D01*
X543567Y376902D01*
X543670Y376946D01*
X543863Y377005D01*
X543952Y377020D01*
X544033Y377035D01*
X544100Y377050D01*
X544166Y377057D01*
X544218Y377065D01*
X544284D01*
X544469Y377057D01*
D02*
G37*
G36*
X562037Y376983D02*
X562207Y376954D01*
X562355Y376917D01*
X562466Y376872D01*
X562563Y376828D01*
X562622Y376791D01*
X562659Y376761D01*
X562674Y376754D01*
X562762Y376658D01*
X562829Y376561D01*
X562873Y376458D01*
X562910Y376369D01*
X562925Y376280D01*
X562932Y376214D01*
X562940Y376169D01*
Y376162D01*
Y376154D01*
X562932Y376066D01*
X562918Y375977D01*
X562895Y375903D01*
X562873Y375836D01*
X562844Y375777D01*
X562821Y375733D01*
X562807Y375703D01*
X562799Y375696D01*
X562747Y375622D01*
X562681Y375555D01*
X562614Y375503D01*
X562548Y375459D01*
X562489Y375429D01*
X562444Y375407D01*
X562415Y375392D01*
X562400Y375385D01*
X562296Y375355D01*
X562178Y375333D01*
X562059Y375318D01*
X561941Y375311D01*
X561837Y375303D01*
X561749Y375296D01*
X560224D01*
Y376991D01*
X561837D01*
X562037Y376983D01*
D02*
G37*
G36*
X561179Y374704D02*
X561238D01*
X561290Y374697D01*
X561327Y374689D01*
X561356D01*
X561371Y374682D01*
X561378D01*
X561497Y374645D01*
X561549Y374623D01*
X561593Y374600D01*
X561637Y374578D01*
X561667Y374563D01*
X561682Y374556D01*
X561689Y374549D01*
X561749Y374504D01*
X561808Y374452D01*
X561919Y374341D01*
X561971Y374290D01*
X562008Y374245D01*
X562030Y374216D01*
X562037Y374208D01*
X562111Y374105D01*
X562192Y373994D01*
X562274Y373875D01*
X562355Y373764D01*
X562422Y373661D01*
X562474Y373579D01*
X562496Y373550D01*
X562511Y373527D01*
X562526Y373513D01*
Y373505D01*
X563199Y372440D01*
X560224D01*
Y374711D01*
X561097D01*
X561179Y374704D01*
D02*
G37*
G36*
X527701Y376946D02*
X527797D01*
X527886Y376939D01*
X528034Y376917D01*
X528153Y376902D01*
X528249Y376880D01*
X528315Y376857D01*
X528352Y376850D01*
X528367Y376843D01*
X528500Y376776D01*
X528626Y376695D01*
X528737Y376598D01*
X528833Y376502D01*
X528907Y376413D01*
X528967Y376339D01*
X528981Y376310D01*
X528996Y376288D01*
X529011Y376273D01*
Y376265D01*
X529055Y376184D01*
X529100Y376088D01*
X529166Y375895D01*
X529211Y375688D01*
X529248Y375488D01*
X529255Y375400D01*
X529262Y375311D01*
X529270Y375237D01*
Y375170D01*
X529277Y375111D01*
Y375074D01*
Y375044D01*
Y375037D01*
X529270Y374830D01*
X529255Y374637D01*
X529233Y374467D01*
X529211Y374319D01*
X529196Y374260D01*
X529181Y374208D01*
X529166Y374156D01*
X529159Y374119D01*
X529151Y374090D01*
X529144Y374068D01*
X529137Y374053D01*
Y374045D01*
X529085Y373905D01*
X529026Y373779D01*
X528959Y373668D01*
X528900Y373572D01*
X528848Y373498D01*
X528804Y373446D01*
X528774Y373416D01*
X528767Y373402D01*
X528693Y373342D01*
X528619Y373291D01*
X528545Y373246D01*
X528471Y373202D01*
X528404Y373172D01*
X528352Y373150D01*
X528315Y373143D01*
X528301Y373135D01*
X528190Y373106D01*
X528056Y373083D01*
X527923Y373069D01*
X527797Y373061D01*
X527686Y373054D01*
X527634Y373046D01*
X526421D01*
Y376954D01*
X527605D01*
X527701Y376946D01*
D02*
G37*
G36*
X499588Y377575D02*
X499463Y377568D01*
X499344Y377546D01*
X499233Y377523D01*
X499130Y377494D01*
X499033Y377464D01*
X498945Y377427D01*
X498863Y377390D01*
X498789Y377353D01*
X498730Y377316D01*
X498678Y377287D01*
X498634Y377257D01*
X498597Y377235D01*
X498575Y377213D01*
X498560Y377205D01*
X498553Y377198D01*
X498479Y377124D01*
X498412Y377042D01*
X498345Y376954D01*
X498293Y376865D01*
X498205Y376687D01*
X498145Y376510D01*
X498123Y376428D01*
X498101Y376347D01*
X498086Y376280D01*
X498071Y376221D01*
X498064Y376169D01*
Y376132D01*
X498057Y376110D01*
Y376103D01*
X498701Y376036D01*
X498715Y376206D01*
X498745Y376354D01*
X498789Y376487D01*
X498841Y376591D01*
X498885Y376680D01*
X498930Y376739D01*
X498959Y376776D01*
X498974Y376791D01*
X499085Y376880D01*
X499204Y376946D01*
X499330Y376998D01*
X499440Y377028D01*
X499544Y377050D01*
X499633Y377057D01*
X499662Y377065D01*
X499707D01*
X499862Y377057D01*
X500003Y377028D01*
X500121Y376983D01*
X500225Y376939D01*
X500306Y376887D01*
X500358Y376850D01*
X500395Y376820D01*
X500410Y376806D01*
X500499Y376702D01*
X500565Y376598D01*
X500617Y376495D01*
X500647Y376391D01*
X500669Y376310D01*
X500676Y376236D01*
X500684Y376191D01*
Y376184D01*
Y376177D01*
X500669Y376043D01*
X500639Y375903D01*
X500588Y375777D01*
X500536Y375659D01*
X500477Y375562D01*
X500425Y375481D01*
X500410Y375451D01*
X500395Y375429D01*
X500380Y375422D01*
Y375414D01*
X500321Y375333D01*
X500247Y375252D01*
X500166Y375163D01*
X500077Y375074D01*
X499892Y374896D01*
X499707Y374719D01*
X499611Y374637D01*
X499529Y374563D01*
X499448Y374497D01*
X499381Y374438D01*
X499330Y374393D01*
X499285Y374356D01*
X499256Y374334D01*
X499248Y374327D01*
X499063Y374171D01*
X498893Y374023D01*
X498752Y373890D01*
X498641Y373779D01*
X498545Y373683D01*
X498479Y373616D01*
X498442Y373572D01*
X498427Y373564D01*
Y373557D01*
X498323Y373431D01*
X498242Y373313D01*
X498168Y373194D01*
X498108Y373091D01*
X498064Y373002D01*
X498034Y372935D01*
X498020Y372891D01*
X498012Y372884D01*
Y372876D01*
X497983Y372795D01*
X497968Y372721D01*
X497953Y372647D01*
X497946Y372580D01*
X497938Y372521D01*
Y377583D01*
X499722D01*
X499588Y377575D01*
D02*
G37*
D85*
X494941Y181476D02*
G03*
X494941Y181476I-492J0D01*
G01*
X355866Y167933D02*
G03*
X355866Y167933I-492J0D01*
G01*
X377992Y325709D02*
G03*
X377992Y325709I-492J0D01*
G01*
X174213Y369488D02*
G03*
X174213Y369488I-492J0D01*
G01*
D86*
X532023Y214004D02*
G03*
X527791Y209772I0J-4232D01*
G01*
X555791D02*
G03*
X551559Y214004I-4232J0D01*
G01*
Y186004D02*
G03*
X555791Y190236I0J4232D01*
G01*
X527791D02*
G03*
X532023Y186004I4232J0D01*
G01*
X363619Y189205D02*
G03*
X367851Y184973I4232J0D01*
G01*
X387387D02*
G03*
X391619Y189205I0J4232D01*
G01*
Y208741D02*
G03*
X387387Y212973I-4232J0D01*
G01*
X367851D02*
G03*
X363619Y208741I0J-4232D01*
G01*
X662039Y218504D02*
G03*
X662039Y218504I-394J0D01*
G01*
X462039Y361004D02*
G03*
X462039Y361004I-394J0D01*
G01*
X662039D02*
G03*
X662039Y361004I-394J0D01*
G01*
X462039Y218504D02*
G03*
X462039Y218504I-394J0D01*
G01*
X312500Y410079D02*
G03*
X317500Y410079I2500J0D01*
G01*
X469311Y180866D02*
Y181260D01*
X464587Y180866D02*
Y181260D01*
X489134Y182854D02*
Y194665D01*
X490315Y182854D02*
Y194665D01*
X489134D02*
X490315D01*
X489134Y182854D02*
X490315D01*
X532023Y186004D02*
X551559D01*
X555791Y190236D02*
Y209772D01*
X532023Y214004D02*
X551559D01*
X527791Y190236D02*
Y209772D01*
X363619Y189205D02*
Y208741D01*
X367851Y212973D02*
X387387D01*
X391619Y189205D02*
Y208741D01*
X367851Y184973D02*
X387387D01*
X352008Y169350D02*
Y175650D01*
X345866Y169350D02*
X352008D01*
X345866Y175650D02*
X352008D01*
X345866Y169350D02*
Y175650D01*
X352383Y189784D02*
Y190571D01*
X347855Y189784D02*
Y190571D01*
X134941Y395256D02*
Y397618D01*
X140059Y395256D02*
Y397618D01*
X317500Y410079D02*
X335472D01*
Y269921D02*
Y410079D01*
X294528Y269921D02*
Y410000D01*
Y269921D02*
X335472D01*
X294528Y410079D02*
X312500D01*
X180020Y329331D02*
X194980D01*
X180020Y370669D02*
X194980D01*
Y329331D02*
Y370669D01*
X180020Y329331D02*
Y370669D01*
D87*
X282500Y250000D02*
G03*
X282500Y230000I-236J-10000D01*
G01*
X307000D02*
G03*
X307000Y250000I-51J10000D01*
G01*
X195500Y170630D02*
G03*
X195500Y249370I0J39370D01*
G01*
X192500D02*
G03*
X192500Y170630I0J-39370D01*
G01*
X169500Y383500D02*
G03*
X169500Y383500I-500J0D01*
G01*
X189500D02*
G03*
X189500Y383500I-500J0D01*
G01*
X282500Y250000D02*
X307000D01*
X282500Y230000D02*
X307000D01*
X162500Y235000D02*
X219000Y178500D01*
X160250Y232250D02*
X216000Y176500D01*
X158300Y229200D02*
X212750Y174750D01*
X156500Y226000D02*
X209250Y173250D01*
X155250Y222250D02*
X205500Y172000D01*
X154250Y218250D02*
X201500Y171000D01*
X153500Y214000D02*
X196500Y171000D01*
X153500Y209000D02*
X191750Y170750D01*
X153750Y203750D02*
X186250Y171250D01*
X155500Y197000D02*
X179750Y172750D01*
X161000Y186500D02*
X169000Y178500D01*
X211750Y245750D02*
X231250Y226250D01*
X204250Y248250D02*
X233750Y218750D01*
X198250Y249250D02*
X234500Y213000D01*
X193065Y249435D02*
X234750Y207750D01*
X188500Y249000D02*
X234250Y203250D01*
X184250Y248250D02*
X233000Y199500D01*
X180250Y247250D02*
X232000Y195500D01*
X176750Y245750D02*
X230500Y192000D01*
X173250Y244250D02*
X228500Y189000D01*
X170250Y242250D02*
X226500Y186000D01*
X167500Y240000D02*
X224250Y183250D01*
X165000Y237500D02*
X221800Y180700D01*
X192500Y249370D02*
X195500D01*
X192500Y170630D02*
X195500D01*
X158100Y168250D02*
X192500D01*
X158100D02*
Y210000D01*
X221600D02*
Y240720D01*
X210570Y251750D02*
X221600Y240720D01*
X192500Y251750D02*
X210570D01*
X158100Y210000D02*
Y251750D01*
X192500D01*
Y168250D02*
X210570D01*
X221600Y179280D01*
Y210000D01*
X208500Y269500D02*
Y310500D01*
Y269500D02*
X231500D01*
X208500Y310500D02*
X231500D01*
Y269500D02*
Y310500D01*
X388500Y413500D02*
Y419498D01*
X391499D01*
X392499Y418498D01*
Y416499D01*
X391499Y415499D01*
X388500D01*
X390499D02*
X392499Y413500D01*
X398497Y419498D02*
X394498D01*
Y413500D01*
X398497D01*
X394498Y416499D02*
X396497D01*
X404495Y418498D02*
X403495Y419498D01*
X401496D01*
X400496Y418498D01*
Y417499D01*
X401496Y416499D01*
X403495D01*
X404495Y415499D01*
Y414500D01*
X403495Y413500D01*
X401496D01*
X400496Y414500D01*
X410493Y419498D02*
X406494D01*
Y413500D01*
X410493D01*
X406494Y416499D02*
X408494D01*
X412492Y419498D02*
X416491D01*
X414492D01*
Y413500D01*
X237499Y389498D02*
X233500D01*
Y386499D01*
X235499Y387499D01*
X236499D01*
X237499Y386499D01*
Y384500D01*
X236499Y383500D01*
X234500D01*
X233500Y384500D01*
X239498Y389498D02*
Y385499D01*
X241497Y383500D01*
X243497Y385499D01*
Y389498D01*
X251494D02*
X255493D01*
X253493D01*
Y383500D01*
X261491Y389498D02*
X257492D01*
Y383500D01*
X261491D01*
X257492Y386499D02*
X259492D01*
X267489Y388498D02*
X266489Y389498D01*
X264490D01*
X263490Y388498D01*
Y387499D01*
X264490Y386499D01*
X266489D01*
X267489Y385499D01*
Y384500D01*
X266489Y383500D01*
X264490D01*
X263490Y384500D01*
X269488Y389498D02*
X273487D01*
X271488D01*
Y383500D01*
X139999Y275596D02*
X138999Y276596D01*
X137000D01*
X136000Y275596D01*
Y271597D01*
X137000Y270598D01*
X138999D01*
X139999Y271597D01*
Y273597D01*
X137999D01*
X141998Y270598D02*
Y276596D01*
X145997Y270598D01*
Y276596D01*
X147996D02*
Y270598D01*
X150995D01*
X151995Y271597D01*
Y275596D01*
X150995Y276596D01*
X147996D01*
X136000Y266998D02*
X139999D01*
X137999D01*
Y261000D01*
X145997Y266998D02*
X141998D01*
Y261000D01*
X145997D01*
X141998Y263999D02*
X143997D01*
X151995Y265998D02*
X150995Y266998D01*
X148996D01*
X147996Y265998D01*
Y264999D01*
X148996Y263999D01*
X150995D01*
X151995Y262999D01*
Y262000D01*
X150995Y261000D01*
X148996D01*
X147996Y262000D01*
X153994Y266998D02*
X157993D01*
X155993D01*
Y261000D01*
X383500Y259096D02*
Y253098D01*
X386499D01*
X387499Y254097D01*
Y255097D01*
X386499Y256097D01*
X383500D01*
X386499D01*
X387499Y257096D01*
Y258096D01*
X386499Y259096D01*
X383500D01*
X392497D02*
X390498D01*
X389498Y258096D01*
Y254097D01*
X390498Y253098D01*
X392497D01*
X393497Y254097D01*
Y258096D01*
X392497Y259096D01*
X398495D02*
X396496D01*
X395496Y258096D01*
Y254097D01*
X396496Y253098D01*
X398495D01*
X399495Y254097D01*
Y258096D01*
X398495Y259096D01*
X405493Y258096D02*
X404493Y259096D01*
X402494D01*
X401494Y258096D01*
Y257096D01*
X402494Y256097D01*
X404493D01*
X405493Y255097D01*
Y254097D01*
X404493Y253098D01*
X402494D01*
X401494Y254097D01*
X407492Y259096D02*
X411491D01*
X409492D01*
Y253098D01*
X383500Y249498D02*
X387499D01*
X385499D01*
Y243500D01*
X393497Y249498D02*
X389498D01*
Y243500D01*
X393497D01*
X389498Y246499D02*
X391497D01*
X399495Y248498D02*
X398495Y249498D01*
X396496D01*
X395496Y248498D01*
Y247499D01*
X396496Y246499D01*
X398495D01*
X399495Y245499D01*
Y244500D01*
X398495Y243500D01*
X396496D01*
X395496Y244500D01*
X401494Y249498D02*
X405493D01*
X403493D01*
Y243500D01*
X638500Y181596D02*
Y175598D01*
X641499D01*
X642499Y176597D01*
Y177597D01*
X641499Y178597D01*
X638500D01*
X641499D01*
X642499Y179596D01*
Y180596D01*
X641499Y181596D01*
X638500D01*
X644498D02*
Y176597D01*
X645498Y175598D01*
X647497D01*
X648497Y176597D01*
Y181596D01*
X654495Y180596D02*
X653495Y181596D01*
X651496D01*
X650496Y180596D01*
Y176597D01*
X651496Y175598D01*
X653495D01*
X654495Y176597D01*
X656494Y181596D02*
Y175598D01*
Y177597D01*
X660493Y181596D01*
X657494Y178597D01*
X660493Y175598D01*
X638500Y171998D02*
X642499D01*
X640499D01*
Y166000D01*
X648497Y171998D02*
X644498D01*
Y166000D01*
X648497D01*
X644498Y168999D02*
X646497D01*
X654495Y170998D02*
X653495Y171998D01*
X651496D01*
X650496Y170998D01*
Y169999D01*
X651496Y168999D01*
X653495D01*
X654495Y167999D01*
Y167000D01*
X653495Y166000D01*
X651496D01*
X650496Y167000D01*
X656494Y171998D02*
X660493D01*
X658494D01*
Y166000D01*
X641998Y335001D02*
Y337001D01*
Y336001D01*
X637000D01*
X636000Y337001D01*
Y338000D01*
X637000Y339000D01*
X641998Y333002D02*
X636000D01*
Y329003D01*
X640998Y323005D02*
X641998Y324005D01*
Y326004D01*
X640998Y327004D01*
X637000D01*
X636000Y326004D01*
Y324005D01*
X637000Y323005D01*
X641998Y317007D02*
Y319006D01*
Y318007D01*
X637000D01*
X636000Y319006D01*
Y320006D01*
X637000Y321006D01*
X641998Y315008D02*
X636000D01*
Y311009D01*
X640998Y305011D02*
X641998Y306011D01*
Y308010D01*
X640998Y309010D01*
X637000D01*
X636000Y308010D01*
Y306011D01*
X637000Y305011D01*
X641998Y299013D02*
Y301012D01*
Y300013D01*
X637000D01*
X636000Y301012D01*
Y302012D01*
X637000Y303012D01*
X641998Y297014D02*
X636000D01*
Y293015D01*
X640998Y287017D02*
X641998Y288017D01*
Y290016D01*
X640998Y291016D01*
X637000D01*
X636000Y290016D01*
Y288017D01*
X637000Y287017D01*
X641998Y281019D02*
Y283018D01*
Y282018D01*
X637000D01*
X636000Y283018D01*
Y284018D01*
X637000Y285017D01*
X641998Y279019D02*
X636000D01*
Y275021D01*
X640998Y269023D02*
X641998Y270022D01*
Y272022D01*
X640998Y273021D01*
X637000D01*
X636000Y272022D01*
Y270022D01*
X637000Y269023D01*
X518500Y224498D02*
Y218500D01*
X521499D01*
X522499Y219500D01*
Y220499D01*
X521499Y221499D01*
X518500D01*
X521499D01*
X522499Y222499D01*
Y223498D01*
X521499Y224498D01*
X518500D01*
X524498D02*
Y219500D01*
X525498Y218500D01*
X527497D01*
X528497Y219500D01*
Y224498D01*
X534495Y223498D02*
X533495Y224498D01*
X531496D01*
X530496Y223498D01*
Y219500D01*
X531496Y218500D01*
X533495D01*
X534495Y219500D01*
X536494Y224498D02*
Y218500D01*
Y220499D01*
X540493Y224498D01*
X537494Y221499D01*
X540493Y218500D01*
X548490Y224498D02*
Y220499D01*
X550490Y218500D01*
X552489Y220499D01*
Y224498D01*
X558487Y223498D02*
X557487Y224498D01*
X555488D01*
X554488Y223498D01*
Y219500D01*
X555488Y218500D01*
X557487D01*
X558487Y219500D01*
X564485Y223498D02*
X563485Y224498D01*
X561486D01*
X560486Y223498D01*
Y219500D01*
X561486Y218500D01*
X563485D01*
X564485Y219500D01*
X348500Y224498D02*
Y218500D01*
X351499D01*
X352499Y219500D01*
Y220499D01*
X351499Y221499D01*
X348500D01*
X351499D01*
X352499Y222499D01*
Y223498D01*
X351499Y224498D01*
X348500D01*
X357497D02*
X355498D01*
X354498Y223498D01*
Y219500D01*
X355498Y218500D01*
X357497D01*
X358497Y219500D01*
Y223498D01*
X357497Y224498D01*
X363495D02*
X361496D01*
X360496Y223498D01*
Y219500D01*
X361496Y218500D01*
X363495D01*
X364495Y219500D01*
Y223498D01*
X363495Y224498D01*
X370493Y223498D02*
X369493Y224498D01*
X367494D01*
X366494Y223498D01*
Y222499D01*
X367494Y221499D01*
X369493D01*
X370493Y220499D01*
Y219500D01*
X369493Y218500D01*
X367494D01*
X366494Y219500D01*
X372492Y224498D02*
X376491D01*
X374492D01*
Y218500D01*
X384488Y224498D02*
Y220499D01*
X386488Y218500D01*
X388487Y220499D01*
Y224498D01*
X394485Y223498D02*
X393485Y224498D01*
X391486D01*
X390486Y223498D01*
Y219500D01*
X391486Y218500D01*
X393485D01*
X394485Y219500D01*
X400483Y223498D02*
X399483Y224498D01*
X397484D01*
X396484Y223498D01*
Y219500D01*
X397484Y218500D01*
X399483D01*
X400483Y219500D01*
X519999Y419498D02*
X518999Y420498D01*
X517000D01*
X516000Y419498D01*
Y418498D01*
X517000Y417499D01*
X518999D01*
X519999Y416499D01*
Y415499D01*
X518999Y414500D01*
X517000D01*
X516000Y415499D01*
X525997Y420498D02*
X521998D01*
Y414500D01*
X525997D01*
X521998Y417499D02*
X523997D01*
X527996Y420498D02*
X531995D01*
X529995D01*
Y414500D01*
X533994Y413500D02*
X537993D01*
X539992Y414500D02*
Y420498D01*
X541992Y418498D01*
X543991Y420498D01*
Y414500D01*
X545990Y420498D02*
X547990D01*
X546990D01*
Y414500D01*
X545990D01*
X547990D01*
X550989D02*
Y420498D01*
X554987Y414500D01*
Y420498D01*
X579999Y419498D02*
X578999Y420498D01*
X577000D01*
X576000Y419498D01*
Y418498D01*
X577000Y417499D01*
X578999D01*
X579999Y416499D01*
Y415499D01*
X578999Y414500D01*
X577000D01*
X576000Y415499D01*
X585997Y420498D02*
X581998D01*
Y414500D01*
X585997D01*
X581998Y417499D02*
X583997D01*
X587996Y420498D02*
X591995D01*
X589995D01*
Y414500D01*
X593994Y413500D02*
X597993D01*
X599992Y420498D02*
Y414500D01*
Y417499D01*
X603991D01*
Y420498D01*
Y414500D01*
X608989Y420498D02*
X606990D01*
X605990Y419498D01*
Y415499D01*
X606990Y414500D01*
X608989D01*
X609989Y415499D01*
Y419498D01*
X608989Y420498D01*
X611988D02*
Y415499D01*
X612988Y414500D01*
X614987D01*
X615987Y415499D01*
Y420498D01*
X617986Y414500D02*
Y420498D01*
X620986D01*
X621985Y419498D01*
Y417499D01*
X620986Y416499D01*
X617986D01*
X619986D02*
X621985Y414500D01*
X451000Y420498D02*
X454999D01*
X452999D01*
Y414500D01*
X456998Y420498D02*
X458997D01*
X457998D01*
Y414500D01*
X456998D01*
X458997D01*
X461996D02*
Y420498D01*
X463996Y418498D01*
X465995Y420498D01*
Y414500D01*
X471993Y420498D02*
X467994D01*
Y414500D01*
X471993D01*
X467994Y417499D02*
X469994D01*
X473993Y413500D02*
X477991D01*
X483989Y419498D02*
X482990Y420498D01*
X480990D01*
X479991Y419498D01*
Y418498D01*
X480990Y417499D01*
X482990D01*
X483989Y416499D01*
Y415499D01*
X482990Y414500D01*
X480990D01*
X479991Y415499D01*
X489987Y420498D02*
X485989D01*
Y414500D01*
X489987D01*
X485989Y417499D02*
X487988D01*
X491987Y420498D02*
X495986D01*
X493986D01*
Y414500D01*
X204500Y311500D02*
Y312500D01*
X205500D01*
Y311500D01*
X204500D01*
X291001Y242999D02*
X295000Y237001D01*
Y242999D02*
X291001Y237001D01*
X296999D02*
X298999D01*
X297999D01*
Y242999D01*
X296999Y241999D01*
X109503Y377999D02*
Y373001D01*
X110502Y372001D01*
X112502D01*
X113501Y373001D01*
Y377999D01*
X119499Y376999D02*
X118500Y377999D01*
X116500D01*
X115501Y376999D01*
Y376000D01*
X116500Y375000D01*
X118500D01*
X119499Y374000D01*
Y373001D01*
X118500Y372001D01*
X116500D01*
X115501Y373001D01*
X121499Y377999D02*
Y372001D01*
X124498D01*
X125497Y373001D01*
Y374000D01*
X124498Y375000D01*
X121499D01*
X124498D01*
X125497Y376000D01*
Y376999D01*
X124498Y377999D01*
X121499D01*
X383821Y309220D02*
Y304221D01*
X384820Y303221D01*
X386820D01*
X387819Y304221D01*
Y309220D01*
X393817D02*
X389819D01*
Y306221D01*
X391818Y307220D01*
X392818D01*
X393817Y306221D01*
Y304221D01*
X392818Y303221D01*
X390818D01*
X389819Y304221D01*
X310002Y347999D02*
Y343001D01*
X311001Y342001D01*
X313001D01*
X314000Y343001D01*
Y347999D01*
X318999Y342001D02*
Y347999D01*
X316000Y345000D01*
X319998D01*
X484450Y177999D02*
Y173001D01*
X485450Y172001D01*
X487450D01*
X488449Y173001D01*
Y177999D01*
X490449Y176999D02*
X491448Y177999D01*
X493447D01*
X494447Y176999D01*
Y176000D01*
X493447Y175000D01*
X492448D01*
X493447D01*
X494447Y174000D01*
Y173001D01*
X493447Y172001D01*
X491448D01*
X490449Y173001D01*
X305002Y187999D02*
Y183001D01*
X306001Y182001D01*
X308001D01*
X309000Y183001D01*
Y187999D01*
X314998Y182001D02*
X311000D01*
X314998Y186000D01*
Y186999D01*
X313999Y187999D01*
X311999D01*
X311000Y186999D01*
X183501Y352999D02*
Y348001D01*
X184501Y347001D01*
X186500D01*
X187500Y348001D01*
Y352999D01*
X189499Y347001D02*
X191499D01*
X190499D01*
Y352999D01*
X189499Y351999D01*
X546001Y302999D02*
X550000D01*
X548001D01*
Y297001D01*
X551999D02*
X553999D01*
X552999D01*
Y302999D01*
X551999Y301999D01*
X612360Y431999D02*
X611360Y432999D01*
X609361D01*
X608361Y431999D01*
Y431000D01*
X609361Y430000D01*
X611360D01*
X612360Y429000D01*
Y428001D01*
X611360Y427001D01*
X609361D01*
X608361Y428001D01*
X614359Y432999D02*
Y427001D01*
X616358Y429000D01*
X618358Y427001D01*
Y432999D01*
X623356Y427001D02*
Y432999D01*
X620357Y430000D01*
X624356D01*
X542360Y431999D02*
X541360Y432999D01*
X539361D01*
X538361Y431999D01*
Y431000D01*
X539361Y430000D01*
X541360D01*
X542360Y429000D01*
Y428001D01*
X541360Y427001D01*
X539361D01*
X538361Y428001D01*
X544359Y432999D02*
Y427001D01*
X546358Y429000D01*
X548358Y427001D01*
Y432999D01*
X550357Y431999D02*
X551357Y432999D01*
X553356D01*
X554356Y431999D01*
Y431000D01*
X553356Y430000D01*
X552356D01*
X553356D01*
X554356Y429000D01*
Y428001D01*
X553356Y427001D01*
X551357D01*
X550357Y428001D01*
X472360Y431999D02*
X471360Y432999D01*
X469360D01*
X468361Y431999D01*
Y431000D01*
X469360Y430000D01*
X471360D01*
X472360Y429000D01*
Y428001D01*
X471360Y427001D01*
X469360D01*
X468361Y428001D01*
X474359Y432999D02*
Y427001D01*
X476358Y429000D01*
X478358Y427001D01*
Y432999D01*
X484356Y427001D02*
X480357D01*
X484356Y431000D01*
Y431999D01*
X483356Y432999D01*
X481357D01*
X480357Y431999D01*
X399501D02*
X398501Y432999D01*
X396502D01*
X395502Y431999D01*
Y431000D01*
X396502Y430000D01*
X398501D01*
X399501Y429000D01*
Y428001D01*
X398501Y427001D01*
X396502D01*
X395502Y428001D01*
X401500Y432999D02*
Y427001D01*
X403500Y429000D01*
X405499Y427001D01*
Y432999D01*
X407498Y427001D02*
X409498D01*
X408498D01*
Y432999D01*
X407498Y431999D01*
X212003Y287001D02*
Y292999D01*
X215002D01*
X216001Y291999D01*
Y290000D01*
X215002Y289000D01*
X212003D01*
X214002D02*
X216001Y287001D01*
X218001Y292999D02*
X221999D01*
X220000D01*
Y287001D01*
X227997Y291999D02*
X226998Y292999D01*
X224998D01*
X223999Y291999D01*
Y288001D01*
X224998Y287001D01*
X226998D01*
X227997Y288001D01*
X572001Y439998D02*
X577999D01*
Y436999D01*
X576999Y435999D01*
X575000D01*
X574000Y436999D01*
Y439998D01*
Y437998D02*
X572001Y435999D01*
Y433999D02*
Y432000D01*
Y433000D01*
X577999D01*
X576999Y433999D01*
X572001Y426002D02*
X577999D01*
X575000Y429001D01*
Y425002D01*
X502001Y439998D02*
X507999D01*
Y436999D01*
X506999Y435999D01*
X505000D01*
X504000Y436999D01*
Y439998D01*
Y437998D02*
X502001Y435999D01*
Y433999D02*
Y432000D01*
Y433000D01*
X507999D01*
X506999Y433999D01*
Y429001D02*
X507999Y428001D01*
Y426002D01*
X506999Y425002D01*
X506000D01*
X505000Y426002D01*
Y427002D01*
Y426002D01*
X504000Y425002D01*
X503001D01*
X502001Y426002D01*
Y428001D01*
X503001Y429001D01*
X432001Y439998D02*
X437999D01*
Y436999D01*
X436999Y435999D01*
X435000D01*
X434000Y436999D01*
Y439998D01*
Y437998D02*
X432001Y435999D01*
Y433999D02*
Y432000D01*
Y433000D01*
X437999D01*
X436999Y433999D01*
X432001Y425002D02*
Y429001D01*
X436000Y425002D01*
X436999D01*
X437999Y426002D01*
Y428001D01*
X436999Y429001D01*
X267001Y414943D02*
X272999D01*
Y411944D01*
X271999Y410944D01*
X270000D01*
X269000Y411944D01*
Y414943D01*
Y412943D02*
X267001Y410944D01*
Y408945D02*
Y406945D01*
Y407945D01*
X272999D01*
X271999Y408945D01*
X267001Y403946D02*
Y401947D01*
Y402947D01*
X272999D01*
X271999Y403946D01*
X272502Y289501D02*
Y295499D01*
X275501D01*
X276501Y294499D01*
Y292500D01*
X275501Y291500D01*
X272502D01*
X274502D02*
X276501Y289501D01*
X278501D02*
X280500D01*
X279500D01*
Y295499D01*
X278501Y294499D01*
X283499D02*
X284499Y295499D01*
X286498D01*
X287498Y294499D01*
Y290501D01*
X286498Y289501D01*
X284499D01*
X283499Y290501D01*
Y294499D01*
X272502Y304501D02*
Y310499D01*
X275501D01*
X276500Y309499D01*
Y307500D01*
X275501Y306500D01*
X272502D01*
X274501D02*
X276500Y304501D01*
X278500Y305501D02*
X279499Y304501D01*
X281499D01*
X282498Y305501D01*
Y309499D01*
X281499Y310499D01*
X279499D01*
X278500Y309499D01*
Y308500D01*
X279499Y307500D01*
X282498D01*
X167502Y419501D02*
Y425499D01*
X170501D01*
X171500Y424499D01*
Y422500D01*
X170501Y421500D01*
X167502D01*
X169501D02*
X171500Y419501D01*
X173500Y424499D02*
X174499Y425499D01*
X176499D01*
X177498Y424499D01*
Y423500D01*
X176499Y422500D01*
X177498Y421500D01*
Y420501D01*
X176499Y419501D01*
X174499D01*
X173500Y420501D01*
Y421500D01*
X174499Y422500D01*
X173500Y423500D01*
Y424499D01*
X174499Y422500D02*
X176499D01*
X187502Y419501D02*
Y425499D01*
X190501D01*
X191500Y424499D01*
Y422500D01*
X190501Y421500D01*
X187502D01*
X189501D02*
X191500Y419501D01*
X193500Y425499D02*
X197498D01*
Y424499D01*
X193500Y420501D01*
Y419501D01*
X375121Y196135D02*
Y202133D01*
X378120D01*
X379119Y201133D01*
Y199134D01*
X378120Y198134D01*
X375121D01*
X377120D02*
X379119Y196135D01*
X385117Y202133D02*
X383118Y201133D01*
X381119Y199134D01*
Y197135D01*
X382118Y196135D01*
X384118D01*
X385117Y197135D01*
Y198134D01*
X384118Y199134D01*
X381119D01*
X335002Y207001D02*
Y212999D01*
X338001D01*
X339000Y211999D01*
Y210000D01*
X338001Y209000D01*
X335002D01*
X337001D02*
X339000Y207001D01*
X344998Y212999D02*
X341000D01*
Y210000D01*
X342999Y211000D01*
X343999D01*
X344998Y210000D01*
Y208001D01*
X343999Y207001D01*
X341999D01*
X341000Y208001D01*
X337120Y196632D02*
X343118D01*
Y193633D01*
X342118Y192634D01*
X340119D01*
X339119Y193633D01*
Y196632D01*
Y194633D02*
X337120Y192634D01*
Y187635D02*
X343118D01*
X340119Y190634D01*
Y186636D01*
X541793Y196505D02*
Y202503D01*
X544792D01*
X545792Y201503D01*
Y199504D01*
X544792Y198504D01*
X541793D01*
X543792D02*
X545792Y196505D01*
X547791Y201503D02*
X548791Y202503D01*
X550790D01*
X551790Y201503D01*
Y200503D01*
X550790Y199504D01*
X549790D01*
X550790D01*
X551790Y198504D01*
Y197504D01*
X550790Y196505D01*
X548791D01*
X547791Y197504D01*
X443950Y202498D02*
X449948D01*
Y199499D01*
X448948Y198500D01*
X446949D01*
X445949Y199499D01*
Y202498D01*
Y200499D02*
X443950Y198500D01*
Y192502D02*
Y196500D01*
X447949Y192502D01*
X448948D01*
X449948Y193501D01*
Y195501D01*
X448948Y196500D01*
X463950Y201499D02*
X469948D01*
Y198500D01*
X468948Y197500D01*
X466949D01*
X465949Y198500D01*
Y201499D01*
Y199499D02*
X463950Y197500D01*
Y195501D02*
Y193501D01*
Y194501D01*
X469948D01*
X468948Y195501D01*
X302502Y175499D02*
Y169501D01*
X306500D01*
X312498D02*
X308500D01*
X312498Y173500D01*
Y174499D01*
X311499Y175499D01*
X309499D01*
X308500Y174499D01*
X480450Y212999D02*
Y207001D01*
X484449D01*
X486448D02*
X488448D01*
X487448D01*
Y212999D01*
X486448Y211999D01*
X232999Y242500D02*
Y244500D01*
Y243500D01*
X228001D01*
X227001Y244500D01*
Y245499D01*
X228001Y246499D01*
X227001Y240501D02*
Y238502D01*
Y239501D01*
X232999D01*
X231999Y240501D01*
X130499Y397999D02*
Y401998D01*
X127500D01*
Y399998D01*
Y401998D01*
X124501D01*
X130499Y396000D02*
X124501D01*
Y393001D01*
X125501Y392001D01*
X126500D01*
X127500Y393001D01*
Y396000D01*
Y393001D01*
X128500Y392001D01*
X129499D01*
X130499Y393001D01*
Y396000D01*
X124501Y390002D02*
Y388002D01*
Y389002D01*
X130499D01*
X129499Y390002D01*
X140499Y366900D02*
Y370899D01*
X137500D01*
Y368899D01*
Y370899D01*
X134501D01*
Y364901D02*
Y362901D01*
Y363901D01*
X140499D01*
X139499Y364901D01*
X444647Y374003D02*
Y368005D01*
X447646D01*
X448646Y369005D01*
Y373003D01*
X447646Y374003D01*
X444647D01*
X450645D02*
X454644D01*
Y373003D01*
X450645Y369005D01*
Y368005D01*
X644647Y374003D02*
Y368005D01*
X647646D01*
X648646Y369005D01*
Y373003D01*
X647646Y374003D01*
X644647D01*
X654644D02*
X652645Y373003D01*
X650645Y371004D01*
Y369005D01*
X651645Y368005D01*
X653644D01*
X654644Y369005D01*
Y370004D01*
X653644Y371004D01*
X650645D01*
X644647Y231503D02*
Y225505D01*
X647646D01*
X648646Y226505D01*
Y230503D01*
X647646Y231503D01*
X644647D01*
X654644D02*
X650645D01*
Y228504D01*
X652645Y229504D01*
X653644D01*
X654644Y228504D01*
Y226505D01*
X653644Y225505D01*
X651645D01*
X650645Y226505D01*
X444647Y231503D02*
Y225505D01*
X447646D01*
X448646Y226505D01*
Y230503D01*
X447646Y231503D01*
X444647D01*
X453644Y225505D02*
Y231503D01*
X450645Y228504D01*
X454644D01*
X167502Y400499D02*
Y394501D01*
X170501D01*
X171500Y395501D01*
Y399499D01*
X170501Y400499D01*
X167502D01*
X173500Y399499D02*
X174499Y400499D01*
X176499D01*
X177498Y399499D01*
Y398500D01*
X176499Y397500D01*
X175499D01*
X176499D01*
X177498Y396500D01*
Y395501D01*
X176499Y394501D01*
X174499D01*
X173500Y395501D01*
X187502Y400499D02*
Y394501D01*
X190501D01*
X191500Y395501D01*
Y399499D01*
X190501Y400499D01*
X187502D01*
X197498Y394501D02*
X193500D01*
X197498Y398500D01*
Y399499D01*
X196499Y400499D01*
X194499D01*
X193500Y399499D01*
X363501Y175499D02*
Y169501D01*
X366500D01*
X367500Y170501D01*
Y174499D01*
X366500Y175499D01*
X363501D01*
X369499Y169501D02*
X371499D01*
X370499D01*
Y175499D01*
X369499Y174499D01*
X604499Y192999D02*
X605499Y193999D01*
Y195998D01*
X604499Y196998D01*
X600501D01*
X599501Y195998D01*
Y193999D01*
X600501Y192999D01*
X599501Y187001D02*
Y191000D01*
X603500Y187001D01*
X604499D01*
X605499Y188001D01*
Y190000D01*
X604499Y191000D01*
X599501Y185002D02*
Y183002D01*
Y184002D01*
X605499D01*
X604499Y185002D01*
X618948Y181499D02*
X619948Y182498D01*
Y184498D01*
X618948Y185497D01*
X614950D01*
X613950Y184498D01*
Y182498D01*
X614950Y181499D01*
X613950Y175501D02*
Y179499D01*
X617948Y175501D01*
X618948D01*
X619948Y176500D01*
Y178500D01*
X618948Y179499D01*
Y173501D02*
X619948Y172502D01*
Y170502D01*
X618948Y169503D01*
X614950D01*
X613950Y170502D01*
Y172502D01*
X614950Y173501D01*
X618948D01*
X351999Y283499D02*
X352999Y284499D01*
Y286498D01*
X351999Y287498D01*
X348001D01*
X347001Y286498D01*
Y284499D01*
X348001Y283499D01*
X347001Y281500D02*
Y279500D01*
Y280500D01*
X352999D01*
X351999Y281500D01*
X348001Y276501D02*
X347001Y275501D01*
Y273502D01*
X348001Y272502D01*
X351999D01*
X352999Y273502D01*
Y275501D01*
X351999Y276501D01*
X351000D01*
X350000Y275501D01*
Y272502D01*
X351999Y305999D02*
X352999Y306998D01*
Y308998D01*
X351999Y309998D01*
X348001D01*
X347001Y308998D01*
Y306998D01*
X348001Y305999D01*
X347001Y303999D02*
Y302000D01*
Y303000D01*
X352999D01*
X351999Y303999D01*
Y299001D02*
X352999Y298001D01*
Y296002D01*
X351999Y295002D01*
X351000D01*
X350000Y296002D01*
X349000Y295002D01*
X348001D01*
X347001Y296002D01*
Y298001D01*
X348001Y299001D01*
X349000D01*
X350000Y298001D01*
X351000Y299001D01*
X351999D01*
X350000Y298001D02*
Y296002D01*
X414499Y375999D02*
X415499Y376998D01*
Y378998D01*
X414499Y379998D01*
X410501D01*
X409501Y378998D01*
Y376998D01*
X410501Y375999D01*
X409501Y374000D02*
Y372000D01*
Y373000D01*
X415499D01*
X414499Y374000D01*
X415499Y369001D02*
Y365002D01*
X414499D01*
X410501Y369001D01*
X409501D01*
X614499Y375999D02*
X615499Y376998D01*
Y378998D01*
X614499Y379998D01*
X610501D01*
X609501Y378998D01*
Y376998D01*
X610501Y375999D01*
X609501Y374000D02*
Y372000D01*
Y373000D01*
X615499D01*
X614499Y374000D01*
X615499Y365002D02*
X614499Y367002D01*
X612500Y369001D01*
X610501D01*
X609501Y368002D01*
Y366002D01*
X610501Y365002D01*
X611500D01*
X612500Y366002D01*
Y369001D01*
X614499Y233499D02*
X615499Y234499D01*
Y236498D01*
X614499Y237498D01*
X610501D01*
X609501Y236498D01*
Y234499D01*
X610501Y233499D01*
X609501Y231500D02*
Y229500D01*
Y230500D01*
X615499D01*
X614499Y231500D01*
X615499Y222502D02*
Y226501D01*
X612500D01*
X613500Y224502D01*
Y223502D01*
X612500Y222502D01*
X610501D01*
X609501Y223502D01*
Y225501D01*
X610501Y226501D01*
X414499Y233499D02*
X415499Y234499D01*
Y236498D01*
X414499Y237498D01*
X410501D01*
X409501Y236498D01*
Y234499D01*
X410501Y233499D01*
X409501Y231500D02*
Y229500D01*
Y230500D01*
X415499D01*
X414499Y231500D01*
X409501Y223502D02*
X415499D01*
X412500Y226501D01*
Y222502D01*
X351999Y360999D02*
X352999Y361999D01*
Y363998D01*
X351999Y364998D01*
X348001D01*
X347001Y363998D01*
Y361999D01*
X348001Y360999D01*
X347001Y358999D02*
Y357000D01*
Y358000D01*
X352999D01*
X351999Y358999D01*
Y354001D02*
X352999Y353001D01*
Y351002D01*
X351999Y350002D01*
X351000D01*
X350000Y351002D01*
Y352002D01*
Y351002D01*
X349000Y350002D01*
X348001D01*
X347001Y351002D01*
Y353001D01*
X348001Y354001D01*
X249499Y238499D02*
X250499Y239498D01*
Y241498D01*
X249499Y242498D01*
X245501D01*
X244501Y241498D01*
Y239498D01*
X245501Y238499D01*
X244501Y236500D02*
Y234500D01*
Y235500D01*
X250499D01*
X249499Y236500D01*
X244501Y227502D02*
Y231501D01*
X248500Y227502D01*
X249499D01*
X250499Y228502D01*
Y230502D01*
X249499Y231501D01*
X341999Y237499D02*
X342999Y238499D01*
Y240498D01*
X341999Y241498D01*
X338001D01*
X337001Y240498D01*
Y238499D01*
X338001Y237499D01*
X337001Y235500D02*
Y233501D01*
Y234500D01*
X342999D01*
X341999Y235500D01*
X337001Y230501D02*
Y228502D01*
Y229502D01*
X342999D01*
X341999Y230501D01*
X254001Y349499D02*
X253001Y350499D01*
X251002D01*
X250002Y349499D01*
Y345501D01*
X251002Y344501D01*
X253001D01*
X254001Y345501D01*
X256000Y344501D02*
X258000D01*
X257000D01*
Y350499D01*
X256000Y349499D01*
X260999D02*
X261999Y350499D01*
X263998D01*
X264998Y349499D01*
Y345501D01*
X263998Y344501D01*
X261999D01*
X260999Y345501D01*
Y349499D01*
X259000Y334499D02*
X258001Y335499D01*
X256001D01*
X255002Y334499D01*
Y330501D01*
X256001Y329501D01*
X258001D01*
X259000Y330501D01*
X261000D02*
X261999Y329501D01*
X263999D01*
X264998Y330501D01*
Y334499D01*
X263999Y335499D01*
X261999D01*
X261000Y334499D01*
Y333500D01*
X261999Y332500D01*
X264998D01*
X246999Y411374D02*
X247999Y412373D01*
Y414373D01*
X246999Y415372D01*
X243001D01*
X242001Y414373D01*
Y412373D01*
X243001Y411374D01*
X246999Y409374D02*
X247999Y408375D01*
Y406375D01*
X246999Y405376D01*
X246000D01*
X245000Y406375D01*
X244000Y405376D01*
X243001D01*
X242001Y406375D01*
Y408375D01*
X243001Y409374D01*
X244000D01*
X245000Y408375D01*
X246000Y409374D01*
X246999D01*
X245000Y408375D02*
Y406375D01*
X159000Y304499D02*
X158001Y305499D01*
X156001D01*
X155002Y304499D01*
Y300501D01*
X156001Y299501D01*
X158001D01*
X159000Y300501D01*
X161000Y305499D02*
X164998D01*
Y304499D01*
X161000Y300501D01*
Y299501D01*
X234499Y359937D02*
X235499Y360936D01*
Y362936D01*
X234499Y363935D01*
X230501D01*
X229501Y362936D01*
Y360936D01*
X230501Y359937D01*
X235499Y353939D02*
X234499Y355938D01*
X232500Y357937D01*
X230501D01*
X229501Y356938D01*
Y354938D01*
X230501Y353939D01*
X231500D01*
X232500Y354938D01*
Y357937D01*
X234499Y336000D02*
X235499Y336999D01*
Y338999D01*
X234499Y339998D01*
X230501D01*
X229501Y338999D01*
Y336999D01*
X230501Y336000D01*
X235499Y330002D02*
Y334000D01*
X232500D01*
X233500Y332001D01*
Y331001D01*
X232500Y330002D01*
X230501D01*
X229501Y331001D01*
Y333001D01*
X230501Y334000D01*
X404000Y174499D02*
X403001Y175499D01*
X401001D01*
X400002Y174499D01*
Y170501D01*
X401001Y169501D01*
X403001D01*
X404000Y170501D01*
X408999Y169501D02*
Y175499D01*
X406000Y172500D01*
X409998D01*
X291999Y201000D02*
X292999Y201999D01*
Y203999D01*
X291999Y204998D01*
X288001D01*
X287001Y203999D01*
Y201999D01*
X288001Y201000D01*
X291999Y199000D02*
X292999Y198001D01*
Y196001D01*
X291999Y195002D01*
X291000D01*
X290000Y196001D01*
Y197001D01*
Y196001D01*
X289000Y195002D01*
X288001D01*
X287001Y196001D01*
Y198001D01*
X288001Y199000D01*
X550949Y174499D02*
X549950Y175499D01*
X547950D01*
X546950Y174499D01*
Y170501D01*
X547950Y169501D01*
X549950D01*
X550949Y170501D01*
X556947Y169501D02*
X552949D01*
X556947Y173500D01*
Y174499D01*
X555947Y175499D01*
X553948D01*
X552949Y174499D01*
X512450Y197500D02*
X511450Y196500D01*
Y194501D01*
X512450Y193501D01*
X516448D01*
X517448Y194501D01*
Y196500D01*
X516448Y197500D01*
X517448Y199499D02*
Y201499D01*
Y200499D01*
X511450D01*
X512450Y199499D01*
D88*
X185138Y366732D02*
G03*
X185138Y366732I-1181J0D01*
G01*
D89*
X323151Y197166D02*
X327088D01*
Y185354D02*
Y197166D01*
X323151Y185354D02*
X327088D01*
X323151D02*
Y197166D01*
X639146Y238504D02*
Y239004D01*
Y218004D02*
Y218504D01*
X660146Y218004D02*
Y219004D01*
Y238504D02*
Y239004D01*
X639146Y225504D02*
Y231504D01*
Y218004D02*
X660146D01*
Y225004D02*
Y232004D01*
X639146Y239004D02*
X660146D01*
X439146Y381004D02*
Y381504D01*
Y360504D02*
Y361004D01*
X460146Y360504D02*
Y361504D01*
Y381004D02*
Y381504D01*
X439146Y368004D02*
Y374004D01*
Y360504D02*
X460146D01*
Y367504D02*
Y374504D01*
X439146Y381504D02*
X460146D01*
X639146Y381004D02*
Y381504D01*
Y360504D02*
Y361004D01*
X660146Y360504D02*
Y361504D01*
Y381004D02*
Y381504D01*
X639146Y368004D02*
Y374004D01*
Y360504D02*
X660146D01*
Y367504D02*
Y374504D01*
X639146Y381504D02*
X660146D01*
X439146Y238504D02*
Y239004D01*
Y218004D02*
Y218504D01*
X460146Y218004D02*
Y219004D01*
Y238504D02*
Y239004D01*
X439146Y225504D02*
Y231504D01*
Y218004D02*
X460146D01*
Y225004D02*
Y232004D01*
X439146Y239004D02*
X460146D01*
D90*
X590906Y200000D02*
X591890D01*
X595827Y188189D02*
Y196063D01*
X591890Y200000D02*
X595827Y196063D01*
X574173Y178346D02*
Y196063D01*
X578110Y200000D01*
X579094D01*
X574173Y178346D02*
X579094D01*
X590906D02*
X595827D01*
Y189173D01*
D91*
X494449Y206000D02*
X503949D01*
Y206500D01*
X494449Y206000D02*
Y206500D01*
Y213500D02*
Y214000D01*
X503949D01*
Y213500D02*
Y214000D01*
D92*
X319500Y207000D02*
Y213000D01*
Y207000D02*
X329500D01*
Y213000D01*
X319500D02*
X329500D01*
D93*
X659146Y225004D02*
X660146Y226004D01*
X652146Y218004D02*
X654646Y220504D01*
X459146Y367504D02*
X460146Y368504D01*
X452146Y360504D02*
X454646Y363004D01*
X659146Y367504D02*
X660146Y368504D01*
X652146Y360504D02*
X654646Y363004D01*
X459146Y225004D02*
X460146Y226004D01*
X452146Y218004D02*
X454646Y220504D01*
D94*
X142500Y362900D02*
Y370900D01*
X132500Y362900D02*
Y370900D01*
D95*
X637646Y230004D02*
X638245D01*
X637946D01*
Y231803D01*
X637646Y231504D01*
X437646Y372504D02*
X438245D01*
X437946D01*
Y374303D01*
X437646Y374004D01*
X637646Y372504D02*
X638245D01*
X637946D01*
Y374303D01*
X637646Y374004D01*
X437646Y230004D02*
X438245D01*
X437946D01*
Y231803D01*
X437646Y231504D01*
D96*
X173747Y387498D02*
D03*
X193749Y387497D02*
D03*
D97*
X174250Y387503D02*
D03*
X194250D02*
D03*
%TF.MD5,11511a1517b5f547a2766eec221bc367*%
M02*
