%TF.GenerationSoftware,Altium Limited,CircuitMaker,2.0.2 (2.0.2.40)*%
G04 Layer_Physical_Order=1*
G04 Layer_Color=25308*
%FSLAX25Y25*%
%MOIN*%
%TF.SameCoordinates,264C472C-E0F2-4512-9315-FB6CEB45B93E*%
%TF.FilePolarity,Positive*%
%TF.FileFunction,Copper,L1,Top,Signal*%
%TF.Part,Single*%
G01*
G75*
%TA.AperFunction,SMDPad,CuDef*%
%ADD10C,0.06000*%
%ADD11R,0.04724X0.02165*%
%ADD12R,0.05118X0.03543*%
%ADD13R,0.09842X0.15748*%
%ADD14R,0.04724X0.05512*%
%ADD15R,0.03543X0.05118*%
%ADD16R,0.05512X0.04528*%
G04:AMPARAMS|DCode=17|XSize=59.05mil|YSize=39.37mil|CornerRadius=4.92mil|HoleSize=0mil|Usage=FLASHONLY|Rotation=0.000|XOffset=0mil|YOffset=0mil|HoleType=Round|Shape=RoundedRectangle|*
%AMROUNDEDRECTD17*
21,1,0.05905,0.02953,0,0,0.0*
21,1,0.04921,0.03937,0,0,0.0*
1,1,0.00984,0.02461,-0.01476*
1,1,0.00984,-0.02461,-0.01476*
1,1,0.00984,-0.02461,0.01476*
1,1,0.00984,0.02461,0.01476*
%
%ADD17ROUNDEDRECTD17*%
%ADD18R,0.05118X0.02756*%
%ADD19R,0.03000X0.05000*%
%ADD20R,0.03583X0.04803*%
%ADD21R,0.05315X0.03937*%
%ADD22R,0.02756X0.05118*%
%ADD23O,0.06299X0.01378*%
%ADD24R,0.05709X0.04528*%
%ADD25R,0.05905X0.03543*%
G04:AMPARAMS|DCode=26|XSize=50mil|YSize=200mil|CornerRadius=12.5mil|HoleSize=0mil|Usage=FLASHONLY|Rotation=270.000|XOffset=0mil|YOffset=0mil|HoleType=Round|Shape=RoundedRectangle|*
%AMROUNDEDRECTD26*
21,1,0.05000,0.17500,0,0,270.0*
21,1,0.02500,0.20000,0,0,270.0*
1,1,0.02500,-0.08750,-0.01250*
1,1,0.02500,-0.08750,0.01250*
1,1,0.02500,0.08750,0.01250*
1,1,0.02500,0.08750,-0.01250*
%
%ADD26ROUNDEDRECTD26*%
G04:AMPARAMS|DCode=27|XSize=156mil|YSize=156mil|CornerRadius=39mil|HoleSize=0mil|Usage=FLASHONLY|Rotation=90.000|XOffset=0mil|YOffset=0mil|HoleType=Round|Shape=RoundedRectangle|*
%AMROUNDEDRECTD27*
21,1,0.15600,0.07800,0,0,90.0*
21,1,0.07800,0.15600,0,0,90.0*
1,1,0.07800,0.03900,0.03900*
1,1,0.07800,0.03900,-0.03900*
1,1,0.07800,-0.03900,-0.03900*
1,1,0.07800,-0.03900,0.03900*
%
%ADD27ROUNDEDRECTD27*%
%ADD28R,0.04528X0.05709*%
%ADD29R,0.10236X0.02756*%
%ADD30R,0.04800X0.04800*%
%ADD31R,0.05512X0.03937*%
%ADD32R,0.11400X0.06600*%
%ADD33O,0.09449X0.01378*%
%TA.AperFunction,ConnectorPad*%
%ADD34R,0.07480X0.07087*%
%TA.AperFunction,SMDPad,CuDef*%
%ADD35R,0.07480X0.07480*%
%TA.AperFunction,ConnectorPad*%
%ADD36R,0.05315X0.01575*%
%TA.AperFunction,Conductor*%
%ADD37C,0.01000*%
%TA.AperFunction,ComponentPad*%
%ADD38C,0.06000*%
%ADD39R,0.06000X0.06000*%
%ADD40C,0.06693*%
%ADD41O,0.07874X0.06299*%
%ADD42R,0.07874X0.06299*%
G04:AMPARAMS|DCode=43|XSize=49.21mil|YSize=37.4mil|CornerRadius=18.7mil|HoleSize=0mil|Usage=FLASHONLY|Rotation=270.000|XOffset=0mil|YOffset=0mil|HoleType=Round|Shape=RoundedRectangle|*
%AMROUNDEDRECTD43*
21,1,0.04921,0.00000,0,0,270.0*
21,1,0.01181,0.03740,0,0,270.0*
1,1,0.03740,0.00000,-0.00591*
1,1,0.03740,0.00000,0.00591*
1,1,0.03740,0.00000,0.00591*
1,1,0.03740,0.00000,-0.00591*
%
%ADD43ROUNDEDRECTD43*%
G04:AMPARAMS|DCode=44|XSize=61.02mil|YSize=37.4mil|CornerRadius=18.7mil|HoleSize=0mil|Usage=FLASHONLY|Rotation=0.000|XOffset=0mil|YOffset=0mil|HoleType=Round|Shape=RoundedRectangle|*
%AMROUNDEDRECTD44*
21,1,0.06102,0.00000,0,0,0.0*
21,1,0.02362,0.03740,0,0,0.0*
1,1,0.03740,0.01181,0.00000*
1,1,0.03740,-0.01181,0.00000*
1,1,0.03740,-0.01181,0.00000*
1,1,0.03740,0.01181,0.00000*
%
%ADD44ROUNDEDRECTD44*%
%TA.AperFunction,ViaPad*%
%ADD45C,0.03200*%
%ADD46C,0.05000*%
%ADD47C,0.15000*%
G36*
X700000Y150000D02*
X100000D01*
Y450000D01*
X700000D01*
Y150000D01*
D02*
G37*
%LPC*%
G36*
X608027Y441500D02*
X606973D01*
X605956Y441227D01*
X605044Y440701D01*
X604299Y439956D01*
X603773Y439044D01*
X603769Y439029D01*
X588854D01*
Y440764D01*
X581146D01*
Y434374D01*
X581146Y434236D01*
Y433874D01*
X581146Y433736D01*
Y431110D01*
X588854D01*
Y433736D01*
X588854Y433874D01*
Y434236D01*
X588854Y434374D01*
Y435971D01*
X603769D01*
X603773Y435956D01*
X604299Y435044D01*
X605044Y434299D01*
X605956Y433773D01*
X606973Y433500D01*
X608027D01*
X609044Y433773D01*
X609956Y434299D01*
X610701Y435044D01*
X611227Y435956D01*
X611500Y436973D01*
Y438027D01*
X611227Y439044D01*
X610701Y439956D01*
X609956Y440701D01*
X609044Y441227D01*
X608027Y441500D01*
D02*
G37*
G36*
X538027D02*
X536973D01*
X535956Y441227D01*
X535044Y440701D01*
X534299Y439956D01*
X533773Y439044D01*
X533769Y439029D01*
X518854D01*
Y440764D01*
X511146D01*
Y434374D01*
X511146Y434236D01*
Y433874D01*
X511146Y433736D01*
Y431110D01*
X518854D01*
Y433736D01*
X518854Y433874D01*
Y434236D01*
X518854Y434374D01*
Y435971D01*
X533769D01*
X533773Y435956D01*
X534299Y435044D01*
X535044Y434299D01*
X535956Y433773D01*
X536973Y433500D01*
X538027D01*
X539044Y433773D01*
X539956Y434299D01*
X540701Y435044D01*
X541227Y435956D01*
X541500Y436973D01*
Y438027D01*
X541227Y439044D01*
X540701Y439956D01*
X539956Y440701D01*
X539044Y441227D01*
X538027Y441500D01*
D02*
G37*
G36*
X468027D02*
X466973D01*
X465956Y441227D01*
X465044Y440701D01*
X464299Y439956D01*
X463773Y439044D01*
X463769Y439029D01*
X448854D01*
Y440764D01*
X441146D01*
Y434374D01*
X441146Y434236D01*
Y433874D01*
X441146Y433736D01*
Y431110D01*
X448854D01*
Y433736D01*
X448854Y433874D01*
Y434236D01*
X448854Y434374D01*
Y435971D01*
X463769D01*
X463773Y435956D01*
X464299Y435044D01*
X465044Y434299D01*
X465956Y433773D01*
X466973Y433500D01*
X468027D01*
X469044Y433773D01*
X469956Y434299D01*
X470701Y435044D01*
X471227Y435956D01*
X471500Y436973D01*
Y438027D01*
X471227Y439044D01*
X470701Y439956D01*
X469956Y440701D01*
X469044Y441227D01*
X468027Y441500D01*
D02*
G37*
G36*
X411885Y441500D02*
X411858D01*
Y438000D01*
X415358D01*
Y438027D01*
X415086Y439044D01*
X414559Y439956D01*
X413814Y440701D01*
X412902Y441227D01*
X411885Y441500D01*
D02*
G37*
G36*
X410858D02*
X410832D01*
X409814Y441227D01*
X408902Y440701D01*
X408157Y439956D01*
X407631Y439044D01*
X407358Y438027D01*
Y438000D01*
X410858D01*
Y441500D01*
D02*
G37*
G36*
X355500Y437558D02*
Y435500D01*
X357558D01*
X357423Y436004D01*
X357081Y436596D01*
X356596Y437080D01*
X356004Y437423D01*
X355500Y437558D01*
D02*
G37*
G36*
X354500D02*
X353996Y437423D01*
X353404Y437080D01*
X352920Y436596D01*
X352577Y436004D01*
X352442Y435500D01*
X354500D01*
Y437558D01*
D02*
G37*
G36*
X335500D02*
Y435500D01*
X337558D01*
X337423Y436004D01*
X337081Y436596D01*
X336596Y437080D01*
X336004Y437423D01*
X335500Y437558D01*
D02*
G37*
G36*
X334500D02*
X333996Y437423D01*
X333404Y437080D01*
X332920Y436596D01*
X332577Y436004D01*
X332442Y435500D01*
X334500D01*
Y437558D01*
D02*
G37*
G36*
X315500D02*
Y435500D01*
X317558D01*
X317423Y436004D01*
X317080Y436596D01*
X316596Y437080D01*
X316004Y437423D01*
X315500Y437558D01*
D02*
G37*
G36*
X314500D02*
X313996Y437423D01*
X313404Y437080D01*
X312919Y436596D01*
X312577Y436004D01*
X312442Y435500D01*
X314500D01*
Y437558D01*
D02*
G37*
G36*
X295500D02*
Y435500D01*
X297558D01*
X297423Y436004D01*
X297080Y436596D01*
X296596Y437080D01*
X296004Y437423D01*
X295500Y437558D01*
D02*
G37*
G36*
X294500D02*
X293996Y437423D01*
X293404Y437080D01*
X292919Y436596D01*
X292577Y436004D01*
X292442Y435500D01*
X294500D01*
Y437558D01*
D02*
G37*
G36*
X275500D02*
Y435500D01*
X277558D01*
X277423Y436004D01*
X277080Y436596D01*
X276596Y437080D01*
X276004Y437423D01*
X275500Y437558D01*
D02*
G37*
G36*
X274500D02*
X273996Y437423D01*
X273404Y437080D01*
X272920Y436596D01*
X272577Y436004D01*
X272442Y435500D01*
X274500D01*
Y437558D01*
D02*
G37*
G36*
X255500D02*
Y435500D01*
X257558D01*
X257423Y436004D01*
X257081Y436596D01*
X256596Y437080D01*
X256004Y437423D01*
X255500Y437558D01*
D02*
G37*
G36*
X254500D02*
X253996Y437423D01*
X253404Y437080D01*
X252920Y436596D01*
X252577Y436004D01*
X252442Y435500D01*
X254500D01*
Y437558D01*
D02*
G37*
G36*
X235500D02*
Y435500D01*
X237558D01*
X237423Y436004D01*
X237081Y436596D01*
X236596Y437080D01*
X236004Y437423D01*
X235500Y437558D01*
D02*
G37*
G36*
X234500D02*
X233996Y437423D01*
X233404Y437080D01*
X232920Y436596D01*
X232577Y436004D01*
X232442Y435500D01*
X234500D01*
Y437558D01*
D02*
G37*
G36*
X215500D02*
Y435500D01*
X217558D01*
X217423Y436004D01*
X217080Y436596D01*
X216596Y437080D01*
X216004Y437423D01*
X215500Y437558D01*
D02*
G37*
G36*
X214500D02*
X213996Y437423D01*
X213404Y437080D01*
X212919Y436596D01*
X212577Y436004D01*
X212442Y435500D01*
X214500D01*
Y437558D01*
D02*
G37*
G36*
X196058D02*
Y435500D01*
X198116D01*
X197981Y436004D01*
X197638Y436596D01*
X197154Y437080D01*
X196561Y437423D01*
X196058Y437558D01*
D02*
G37*
G36*
X195058D02*
X194554Y437423D01*
X193961Y437080D01*
X193477Y436596D01*
X193135Y436004D01*
X193000Y435500D01*
X195058D01*
Y437558D01*
D02*
G37*
G36*
X175500D02*
Y435500D01*
X177558D01*
X177423Y436004D01*
X177081Y436596D01*
X176596Y437080D01*
X176004Y437423D01*
X175500Y437558D01*
D02*
G37*
G36*
X174500D02*
X173996Y437423D01*
X173404Y437080D01*
X172919Y436596D01*
X172577Y436004D01*
X172442Y435500D01*
X174500D01*
Y437558D01*
D02*
G37*
G36*
X415358Y437000D02*
X411858D01*
Y433500D01*
X411885D01*
X412902Y433773D01*
X413814Y434299D01*
X414559Y435044D01*
X415086Y435956D01*
X415358Y436973D01*
Y437000D01*
D02*
G37*
G36*
X410858D02*
X407358D01*
Y436973D01*
X407631Y435956D01*
X408157Y435044D01*
X408902Y434299D01*
X409814Y433773D01*
X410832Y433500D01*
X410858D01*
Y437000D01*
D02*
G37*
G36*
X394168Y441500D02*
X393115D01*
X392098Y441227D01*
X391186Y440701D01*
X390441Y439956D01*
X389914Y439044D01*
X389910Y439030D01*
X382500D01*
X381915Y438913D01*
X381419Y438582D01*
X364367Y421529D01*
X307500D01*
X306915Y421413D01*
X306419Y421081D01*
X298919Y413581D01*
X298587Y413085D01*
X298471Y412500D01*
Y409150D01*
X295063D01*
Y406529D01*
X283854D01*
Y408126D01*
X283854Y408264D01*
Y408626D01*
X283854Y408764D01*
Y415154D01*
X281529D01*
Y417500D01*
X281413Y418085D01*
X281081Y418581D01*
X276081Y423581D01*
X275585Y423913D01*
X275000Y424029D01*
X152500D01*
X151915Y423913D01*
X151419Y423581D01*
X146152Y418315D01*
X145461Y418500D01*
X144539D01*
X143649Y418261D01*
X142851Y417801D01*
X142199Y417149D01*
X141738Y416351D01*
X141500Y415461D01*
Y414539D01*
X141685Y413848D01*
X136419Y408581D01*
X136087Y408085D01*
X135971Y407500D01*
Y403342D01*
X133744D01*
Y397406D01*
X141256D01*
Y398845D01*
X143992D01*
X150971Y391866D01*
Y370000D01*
X151087Y369415D01*
X151419Y368919D01*
X162462Y357875D01*
X162958Y357544D01*
X163543Y357427D01*
X164611D01*
X164802Y356965D01*
X157917Y350080D01*
X157842Y350100D01*
X157158D01*
X156496Y349923D01*
X155904Y349581D01*
X155420Y349096D01*
X155077Y348504D01*
X154900Y347842D01*
Y347158D01*
X155077Y346496D01*
X155420Y345904D01*
X155904Y345420D01*
X156496Y345077D01*
X157158Y344900D01*
X157842D01*
X158504Y345077D01*
X159096Y345420D01*
X159581Y345904D01*
X159923Y346496D01*
X160100Y347158D01*
Y347842D01*
X160080Y347917D01*
X167031Y354868D01*
X167786D01*
X168068Y354368D01*
X167963Y353839D01*
X168094Y353180D01*
X168467Y352621D01*
Y352497D01*
X168094Y351939D01*
X168062Y351780D01*
X173720D01*
X179378D01*
X179347Y351939D01*
X178973Y352497D01*
Y352621D01*
X179347Y353180D01*
X179478Y353839D01*
X179347Y354498D01*
X178973Y355056D01*
Y355180D01*
X179347Y355739D01*
X179478Y356398D01*
X179373Y356927D01*
X179655Y357427D01*
X180410D01*
X192757Y345080D01*
X193253Y344748D01*
X193839Y344632D01*
X195345D01*
X195627Y344132D01*
X195522Y343602D01*
X195653Y342943D01*
X196027Y342385D01*
Y342261D01*
X195653Y341702D01*
X195622Y341543D01*
X201280D01*
X206938D01*
X206906Y341702D01*
X206533Y342261D01*
Y342385D01*
X206906Y342943D01*
X207037Y343602D01*
X206932Y344132D01*
X207214Y344632D01*
X218661D01*
X219247Y344748D01*
X219743Y345080D01*
X223581Y348919D01*
X223913Y349415D01*
X224029Y350000D01*
Y352228D01*
X226059D01*
Y353471D01*
X276867D01*
X278471Y351867D01*
Y351059D01*
X277228D01*
Y343941D01*
X278471D01*
Y336059D01*
X277228D01*
Y328941D01*
X282772D01*
Y336059D01*
X281529D01*
Y343941D01*
X282772D01*
Y345971D01*
X284366D01*
X286419Y343919D01*
X286915Y343587D01*
X287500Y343471D01*
X295355D01*
X295588Y342907D01*
X296253Y342040D01*
X297120Y341375D01*
X298129Y340957D01*
X299213Y340815D01*
X300787D01*
X301871Y340957D01*
X302880Y341375D01*
X303747Y342040D01*
X304412Y342907D01*
X304645Y343471D01*
X311866D01*
X313471Y341866D01*
Y327500D01*
X313587Y326915D01*
X313919Y326419D01*
X316419Y323919D01*
X316915Y323587D01*
X317500Y323471D01*
X325355D01*
X325588Y322907D01*
X326253Y322041D01*
X327120Y321375D01*
X328129Y320957D01*
X329213Y320815D01*
X330787D01*
X331871Y320957D01*
X332880Y321375D01*
X333747Y322041D01*
X334412Y322907D01*
X334645Y323471D01*
X336866D01*
X353919Y306419D01*
X354415Y306087D01*
X355000Y305971D01*
X356441D01*
Y304728D01*
X363559D01*
Y305971D01*
X368154D01*
X368346Y305509D01*
X366419Y303581D01*
X366087Y303085D01*
X365971Y302500D01*
Y288134D01*
X364367Y286529D01*
X363559D01*
Y287772D01*
X356441D01*
Y286529D01*
X352954D01*
X347809Y291674D01*
X347994Y292365D01*
Y293287D01*
X347756Y294177D01*
X347295Y294975D01*
X346643Y295627D01*
X345845Y296088D01*
X344955Y296326D01*
X344033D01*
X343143Y296088D01*
X342345Y295627D01*
X341693Y294975D01*
X341233Y294177D01*
X340994Y293287D01*
Y292365D01*
X341233Y291475D01*
X341693Y290677D01*
X342345Y290025D01*
X343143Y289564D01*
X344033Y289326D01*
X344955D01*
X345646Y289511D01*
X351239Y283919D01*
X351735Y283587D01*
X352320Y283471D01*
X356441D01*
Y282228D01*
X363559D01*
Y283471D01*
X365000D01*
X365585Y283587D01*
X366081Y283919D01*
X368581Y286419D01*
X368913Y286915D01*
X369029Y287500D01*
Y301867D01*
X370574Y303412D01*
X373141D01*
X373423Y302912D01*
X373317Y302382D01*
X373448Y301723D01*
X373822Y301164D01*
Y301041D01*
X373448Y300482D01*
X373317Y299823D01*
X373448Y299164D01*
X373822Y298605D01*
Y298481D01*
X373448Y297923D01*
X373317Y297264D01*
X373448Y296605D01*
X373822Y296046D01*
Y295922D01*
X373448Y295364D01*
X373317Y294705D01*
X373448Y294046D01*
X373601Y293817D01*
X373792Y293425D01*
X373601Y293033D01*
X373448Y292805D01*
X373317Y292146D01*
X373448Y291487D01*
X373822Y290928D01*
Y290804D01*
X373448Y290246D01*
X373317Y289587D01*
X373448Y288928D01*
X373822Y288369D01*
X374380Y287996D01*
X375039Y287864D01*
X379961D01*
X380620Y287996D01*
X381178Y288369D01*
X381552Y288928D01*
X381683Y289587D01*
X381552Y290246D01*
X381178Y290804D01*
Y290928D01*
X381552Y291487D01*
X381683Y292146D01*
X381552Y292805D01*
X381399Y293033D01*
X381208Y293425D01*
X381399Y293817D01*
X381552Y294046D01*
X381683Y294705D01*
X381552Y295364D01*
X381178Y295922D01*
Y296046D01*
X381552Y296605D01*
X381683Y297264D01*
X381552Y297923D01*
X381178Y298481D01*
Y298605D01*
X381552Y299164D01*
X381683Y299823D01*
X381552Y300482D01*
X381178Y301041D01*
Y301164D01*
X381552Y301723D01*
X381683Y302382D01*
X381552Y303041D01*
X381399Y303269D01*
X381208Y303661D01*
X381399Y304053D01*
X381552Y304282D01*
X381683Y304941D01*
X381552Y305600D01*
X381178Y306159D01*
Y306282D01*
X381552Y306841D01*
X381683Y307500D01*
X381552Y308159D01*
X381178Y308718D01*
Y308841D01*
X381552Y309400D01*
X381683Y310059D01*
X381577Y310589D01*
X381859Y311089D01*
X385118D01*
X385703Y311205D01*
X386200Y311537D01*
X389583Y314920D01*
X389658Y314900D01*
X390342D01*
X391004Y315077D01*
X391596Y315420D01*
X392080Y315904D01*
X392423Y316496D01*
X392600Y317158D01*
Y317842D01*
X392423Y318504D01*
X392080Y319096D01*
X391596Y319581D01*
X391004Y319923D01*
X390342Y320100D01*
X389658D01*
X388996Y319923D01*
X388933Y319886D01*
X388626Y320286D01*
X401810Y333471D01*
X420381D01*
X420420Y333404D01*
X420904Y332920D01*
X421496Y332577D01*
X422158Y332400D01*
X422842D01*
X423504Y332577D01*
X424096Y332920D01*
X424580Y333404D01*
X424923Y333996D01*
X425100Y334658D01*
Y335342D01*
X424923Y336004D01*
X424580Y336596D01*
X424096Y337081D01*
X423504Y337423D01*
X422842Y337600D01*
X422158D01*
X421496Y337423D01*
X420904Y337081D01*
X420420Y336596D01*
X420381Y336529D01*
X401177D01*
X400592Y336413D01*
X400096Y336081D01*
X383280Y319266D01*
X381859D01*
X381577Y319766D01*
X381683Y320295D01*
X381552Y320954D01*
X381399Y321183D01*
X381208Y321575D01*
X381399Y321967D01*
X381552Y322195D01*
X381683Y322854D01*
X381552Y323513D01*
X381178Y324072D01*
X380620Y324445D01*
X379961Y324576D01*
X379029D01*
Y329366D01*
X393133Y343471D01*
X476890D01*
X477475Y343587D01*
X477971Y343919D01*
X484247Y350195D01*
X484473Y350134D01*
X485527D01*
X486544Y350406D01*
X487456Y350933D01*
X488201Y351678D01*
X488727Y352590D01*
X489000Y353607D01*
Y354661D01*
X488727Y355678D01*
X488201Y356590D01*
X487456Y357335D01*
X486544Y357861D01*
X485527Y358134D01*
X484473D01*
X483456Y357861D01*
X482544Y357335D01*
X481799Y356590D01*
X481273Y355678D01*
X481000Y354661D01*
Y353607D01*
X481273Y352590D01*
X481655Y351928D01*
X476256Y346529D01*
X392500D01*
X391915Y346413D01*
X391419Y346081D01*
X376419Y331081D01*
X376087Y330585D01*
X375971Y330000D01*
Y324576D01*
X375039D01*
X374380Y324445D01*
X373822Y324072D01*
X373448Y323513D01*
X373317Y322854D01*
X373394Y322467D01*
X373078Y322009D01*
X372693Y321970D01*
X371529Y323133D01*
Y331867D01*
X390634Y350971D01*
X462500D01*
X463085Y351087D01*
X463581Y351419D01*
X473134Y360971D01*
X516394D01*
X521424Y355941D01*
X521273Y355678D01*
X521000Y354661D01*
Y353607D01*
X521273Y352590D01*
X521799Y351678D01*
X522544Y350933D01*
X523456Y350406D01*
X524473Y350134D01*
X525527D01*
X526544Y350406D01*
X527456Y350933D01*
X528201Y351678D01*
X528727Y352590D01*
X529000Y353607D01*
Y354661D01*
X528727Y355678D01*
X528201Y356590D01*
X527456Y357335D01*
X526544Y357861D01*
X525527Y358134D01*
X524473D01*
X523750Y357940D01*
X518109Y363581D01*
X517613Y363913D01*
X517028Y364029D01*
X472500D01*
X471915Y363913D01*
X471419Y363581D01*
X461867Y354029D01*
X390000D01*
X389415Y353913D01*
X388919Y353581D01*
X368919Y333581D01*
X368587Y333085D01*
X368471Y332500D01*
Y322500D01*
X368532Y322193D01*
X368071Y321946D01*
X366529Y323488D01*
Y341866D01*
X383134Y358471D01*
X425000D01*
X425585Y358587D01*
X426081Y358919D01*
X435634Y368471D01*
X564366D01*
X573471Y359366D01*
Y357865D01*
X573456Y357861D01*
X572544Y357335D01*
X571799Y356590D01*
X571273Y355678D01*
X571000Y354661D01*
Y353607D01*
X571273Y352590D01*
X571799Y351678D01*
X572544Y350933D01*
X573456Y350406D01*
X574473Y350134D01*
X575527D01*
X576544Y350406D01*
X577456Y350933D01*
X578201Y351678D01*
X578727Y352590D01*
X579000Y353607D01*
Y354661D01*
X578727Y355678D01*
X578201Y356590D01*
X577456Y357335D01*
X576544Y357861D01*
X576529Y357865D01*
Y360000D01*
X576413Y360585D01*
X576082Y361081D01*
X566081Y371081D01*
X565585Y371413D01*
X565000Y371529D01*
X435000D01*
X434415Y371413D01*
X433919Y371081D01*
X424367Y361529D01*
X382500D01*
X381915Y361413D01*
X381419Y361081D01*
X363919Y343581D01*
X363587Y343085D01*
X363471Y342500D01*
Y322854D01*
X363587Y322269D01*
X363919Y321773D01*
X371596Y314096D01*
X372092Y313764D01*
X372677Y313648D01*
X373141D01*
X373423Y313148D01*
X373317Y312618D01*
X373423Y312088D01*
X373141Y311588D01*
X370574D01*
X361880Y320283D01*
Y352500D01*
X361763Y353085D01*
X361432Y353581D01*
X354282Y360731D01*
X353786Y361063D01*
X353201Y361179D01*
X333446D01*
X333276Y361679D01*
X333747Y362040D01*
X334412Y362907D01*
X334830Y363917D01*
X334973Y365000D01*
X334830Y366083D01*
X334412Y367093D01*
X333747Y367959D01*
X332880Y368625D01*
X331871Y369043D01*
X330787Y369185D01*
X329213D01*
X328129Y369043D01*
X327120Y368625D01*
X326253Y367959D01*
X325588Y367093D01*
X325170Y366083D01*
X325027Y365000D01*
X325170Y363917D01*
X325588Y362907D01*
X326253Y362040D01*
X326724Y361679D01*
X326554Y361179D01*
X315000D01*
X314415Y361063D01*
X313919Y360731D01*
X309717Y356529D01*
X304645D01*
X304412Y357093D01*
X303747Y357960D01*
X302880Y358625D01*
X301871Y359043D01*
X300787Y359185D01*
X299213D01*
X298129Y359043D01*
X297120Y358625D01*
X296253Y357960D01*
X295588Y357093D01*
X295170Y356083D01*
X295027Y355000D01*
X295170Y353917D01*
X295588Y352907D01*
X296253Y352041D01*
X297120Y351375D01*
X298129Y350957D01*
X299213Y350815D01*
X300787D01*
X301871Y350957D01*
X302880Y351375D01*
X303747Y352041D01*
X304412Y352907D01*
X304645Y353471D01*
X310350D01*
X310936Y353587D01*
X311432Y353919D01*
X315634Y358120D01*
X325746D01*
X325993Y357620D01*
X325588Y357093D01*
X325170Y356083D01*
X325027Y355000D01*
X325170Y353917D01*
X325588Y352907D01*
X326253Y352041D01*
X327120Y351375D01*
X328129Y350957D01*
X329213Y350815D01*
X330787D01*
X331871Y350957D01*
X332880Y351375D01*
X333747Y352041D01*
X334412Y352907D01*
X334830Y353917D01*
X334973Y355000D01*
X334830Y356083D01*
X334412Y357093D01*
X334007Y357620D01*
X334254Y358120D01*
X352567D01*
X358821Y351867D01*
Y319650D01*
X358937Y319064D01*
X359269Y318568D01*
X368346Y309491D01*
X368154Y309029D01*
X363559D01*
Y310272D01*
X356441D01*
Y309029D01*
X355633D01*
X338581Y326081D01*
X338085Y326413D01*
X337500Y326529D01*
X334645D01*
X334412Y327093D01*
X333747Y327959D01*
X332880Y328625D01*
X331871Y329043D01*
X330787Y329185D01*
X329213D01*
X328129Y329043D01*
X327120Y328625D01*
X326253Y327959D01*
X325588Y327093D01*
X325355Y326529D01*
X318133D01*
X316529Y328134D01*
Y342500D01*
X316413Y343085D01*
X316081Y343581D01*
X313581Y346081D01*
X313085Y346413D01*
X312500Y346529D01*
X304645D01*
X304412Y347093D01*
X303747Y347959D01*
X302880Y348625D01*
X301871Y349043D01*
X300787Y349185D01*
X299213D01*
X298129Y349043D01*
X297120Y348625D01*
X296253Y347959D01*
X295588Y347093D01*
X295355Y346529D01*
X288134D01*
X286081Y348581D01*
X285585Y348913D01*
X285000Y349029D01*
X282772D01*
Y351059D01*
X281529D01*
Y352500D01*
X281413Y353085D01*
X281081Y353581D01*
X278581Y356081D01*
X278085Y356413D01*
X277500Y356529D01*
X251846D01*
X251654Y356991D01*
X253581Y358919D01*
X253913Y359415D01*
X254029Y360000D01*
Y371269D01*
X254044Y371273D01*
X254956Y371799D01*
X255701Y372544D01*
X256227Y373456D01*
X256500Y374473D01*
Y375527D01*
X256227Y376544D01*
X255701Y377456D01*
X254956Y378201D01*
X254044Y378727D01*
X253027Y379000D01*
X251973D01*
X250956Y378727D01*
X250044Y378201D01*
X249299Y377456D01*
X248773Y376544D01*
X248500Y375527D01*
Y374473D01*
X248773Y373456D01*
X249299Y372544D01*
X250044Y371799D01*
X250956Y371273D01*
X250971Y371269D01*
Y360633D01*
X246866Y356529D01*
X226059D01*
Y357772D01*
X218941D01*
Y352228D01*
X220971D01*
Y350634D01*
X218028Y347691D01*
X207214D01*
X206932Y348191D01*
X206938Y348220D01*
X201280D01*
Y349220D01*
X206938D01*
X206906Y349379D01*
X206533Y349938D01*
Y350062D01*
X206906Y350621D01*
X207037Y351280D01*
X206932Y351809D01*
X207214Y352309D01*
X209071D01*
X209657Y352426D01*
X210153Y352757D01*
X213581Y356186D01*
X213913Y356682D01*
X214029Y357267D01*
Y382500D01*
X213913Y383085D01*
X213581Y383581D01*
X208581Y388581D01*
X208085Y388913D01*
X207500Y389029D01*
X201734D01*
Y390900D01*
X194934D01*
Y384100D01*
X201734D01*
Y385971D01*
X206867D01*
X210971Y381867D01*
Y357901D01*
X208438Y355368D01*
X207214D01*
X206932Y355868D01*
X207037Y356398D01*
X206906Y357057D01*
X206533Y357615D01*
Y357739D01*
X206906Y358298D01*
X206938Y358457D01*
X201280D01*
X195622D01*
X195653Y358298D01*
X196027Y357739D01*
Y357615D01*
X195653Y357057D01*
X195522Y356398D01*
X195653Y355739D01*
X196027Y355180D01*
Y355056D01*
X195653Y354498D01*
X195522Y353839D01*
X195627Y353309D01*
X195345Y352809D01*
X194354D01*
X191529Y355633D01*
Y375000D01*
X191413Y375585D01*
X191081Y376081D01*
X181734Y385429D01*
Y390900D01*
X174934D01*
Y384100D01*
X178737D01*
X188471Y374366D01*
Y355000D01*
X188587Y354415D01*
X188852Y354018D01*
X188464Y353699D01*
X182125Y360038D01*
X181629Y360370D01*
X181043Y360486D01*
X179655D01*
X179373Y360986D01*
X179478Y361516D01*
X179347Y362175D01*
X178973Y362734D01*
Y362857D01*
X179347Y363416D01*
X179478Y364075D01*
X179347Y364734D01*
X178973Y365293D01*
Y365416D01*
X179347Y365975D01*
X179478Y366634D01*
X179347Y367293D01*
X178973Y367851D01*
X178415Y368225D01*
X177756Y368356D01*
X175250D01*
Y371280D01*
X175133Y371865D01*
X174802Y372361D01*
X171081Y376081D01*
X170585Y376413D01*
X170000Y376529D01*
X167119D01*
X167080Y376596D01*
X166596Y377080D01*
X166004Y377423D01*
X165342Y377600D01*
X164658D01*
X163996Y377423D01*
X163404Y377080D01*
X162919Y376596D01*
X162577Y376004D01*
X162400Y375342D01*
Y374658D01*
X162577Y373996D01*
X162919Y373404D01*
X163404Y372920D01*
X163996Y372577D01*
X164658Y372400D01*
X165342D01*
X166004Y372577D01*
X166596Y372920D01*
X167080Y373404D01*
X167119Y373471D01*
X169367D01*
X172191Y370646D01*
Y368356D01*
X169685D01*
X169026Y368225D01*
X168467Y367851D01*
X168094Y367293D01*
X167963Y366634D01*
X168068Y366104D01*
X167786Y365604D01*
X166559D01*
X159029Y373133D01*
Y400381D01*
X159096Y400420D01*
X159581Y400904D01*
X159923Y401496D01*
X160100Y402158D01*
Y402842D01*
X159923Y403504D01*
X159581Y404096D01*
X159096Y404580D01*
X158504Y404923D01*
X157842Y405100D01*
X157158D01*
X156496Y404923D01*
X155904Y404580D01*
X155420Y404096D01*
X155077Y403504D01*
X154900Y402842D01*
Y402158D01*
X155077Y401496D01*
X155420Y400904D01*
X155904Y400420D01*
X155971Y400381D01*
Y372500D01*
X156087Y371915D01*
X156419Y371419D01*
X164844Y362993D01*
X165340Y362662D01*
X165925Y362545D01*
X167786D01*
X168068Y362045D01*
X167963Y361516D01*
X168068Y360986D01*
X167786Y360486D01*
X164177D01*
X154029Y370634D01*
Y392500D01*
X153913Y393085D01*
X153581Y393581D01*
X145707Y401455D01*
X145211Y401787D01*
X144626Y401903D01*
X141256D01*
Y403342D01*
X139029D01*
Y406867D01*
X143848Y411685D01*
X144539Y411500D01*
X145461D01*
X146351Y411738D01*
X147149Y412199D01*
X147801Y412851D01*
X148261Y413649D01*
X148500Y414539D01*
Y415461D01*
X148315Y416152D01*
X153133Y420971D01*
X164366D01*
X168471Y416866D01*
Y416354D01*
X166736D01*
Y408646D01*
X173126D01*
X173264Y408646D01*
X173626D01*
X173764Y408646D01*
X175360D01*
Y407523D01*
X168919Y401081D01*
X168587Y400585D01*
X168471Y400000D01*
Y390900D01*
X166600D01*
Y384100D01*
X173400D01*
Y390900D01*
X171529D01*
Y399366D01*
X177971Y405808D01*
X178303Y406305D01*
X178419Y406890D01*
Y408646D01*
X180154D01*
Y416354D01*
X173764D01*
X173626Y416354D01*
X173264D01*
X173126Y416354D01*
X171529D01*
Y417500D01*
X171413Y418085D01*
X171081Y418581D01*
X169154Y420509D01*
X169346Y420971D01*
X184367D01*
X188471Y416866D01*
Y416354D01*
X186736D01*
Y408646D01*
X193126D01*
X193264Y408646D01*
X193626D01*
X193764Y408646D01*
X195360D01*
Y407523D01*
X188919Y401081D01*
X188587Y400585D01*
X188471Y400000D01*
Y390900D01*
X186600D01*
Y384100D01*
X193400D01*
Y390900D01*
X191529D01*
Y399366D01*
X197971Y405808D01*
X198303Y406305D01*
X198419Y406890D01*
Y408646D01*
X200154D01*
Y416354D01*
X193764D01*
X193626Y416354D01*
X193264D01*
X193126Y416354D01*
X191529D01*
Y417500D01*
X191413Y418085D01*
X191081Y418581D01*
X189154Y420509D01*
X189346Y420971D01*
X274366D01*
X278471Y416866D01*
Y415154D01*
X276146D01*
Y408764D01*
X276146Y408626D01*
Y408264D01*
X276146Y408126D01*
Y406529D01*
X258559D01*
Y407772D01*
X251441D01*
Y402228D01*
X258559D01*
Y403471D01*
X276146D01*
Y401736D01*
X283854D01*
Y403471D01*
X295063D01*
Y400850D01*
X304937D01*
Y409150D01*
X301529D01*
Y411867D01*
X308134Y418471D01*
X365000D01*
X365585Y418587D01*
X366081Y418919D01*
X383134Y435971D01*
X389910D01*
X389914Y435956D01*
X390441Y435044D01*
X391186Y434299D01*
X392098Y433773D01*
X393115Y433500D01*
X394168D01*
X395186Y433773D01*
X396098Y434299D01*
X396843Y435044D01*
X397369Y435956D01*
X397642Y436973D01*
Y438027D01*
X397369Y439044D01*
X396843Y439956D01*
X396098Y440701D01*
X395186Y441227D01*
X394168Y441500D01*
D02*
G37*
G36*
X625743Y441500D02*
X624690D01*
X623673Y441227D01*
X622760Y440701D01*
X622016Y439956D01*
X621489Y439044D01*
X621217Y438027D01*
Y436973D01*
X621489Y435956D01*
X622016Y435044D01*
X622760Y434299D01*
X623673Y433773D01*
X624690Y433500D01*
X625743D01*
X626760Y433773D01*
X627673Y434299D01*
X628417Y435044D01*
X628944Y435956D01*
X629217Y436973D01*
Y438027D01*
X628944Y439044D01*
X628417Y439956D01*
X627673Y440701D01*
X626760Y441227D01*
X625743Y441500D01*
D02*
G37*
G36*
X555743D02*
X554690D01*
X553673Y441227D01*
X552761Y440701D01*
X552016Y439956D01*
X551489Y439044D01*
X551217Y438027D01*
Y436973D01*
X551489Y435956D01*
X552016Y435044D01*
X552761Y434299D01*
X553673Y433773D01*
X554690Y433500D01*
X555743D01*
X556761Y433773D01*
X557673Y434299D01*
X558417Y435044D01*
X558944Y435956D01*
X559217Y436973D01*
Y438027D01*
X558944Y439044D01*
X558417Y439956D01*
X557673Y440701D01*
X556761Y441227D01*
X555743Y441500D01*
D02*
G37*
G36*
X485743D02*
X484690D01*
X483673Y441227D01*
X482760Y440701D01*
X482016Y439956D01*
X481489Y439044D01*
X481217Y438027D01*
Y436973D01*
X481489Y435956D01*
X482016Y435044D01*
X482760Y434299D01*
X483673Y433773D01*
X484690Y433500D01*
X485743D01*
X486761Y433773D01*
X487673Y434299D01*
X488417Y435044D01*
X488944Y435956D01*
X489217Y436973D01*
Y438027D01*
X488944Y439044D01*
X488417Y439956D01*
X487673Y440701D01*
X486761Y441227D01*
X485743Y441500D01*
D02*
G37*
G36*
X357558Y434500D02*
X355500D01*
Y432442D01*
X356004Y432577D01*
X356596Y432920D01*
X357081Y433404D01*
X357423Y433996D01*
X357558Y434500D01*
D02*
G37*
G36*
X354500D02*
X352442D01*
X352577Y433996D01*
X352920Y433404D01*
X353404Y432920D01*
X353996Y432577D01*
X354500Y432442D01*
Y434500D01*
D02*
G37*
G36*
X337558D02*
X335500D01*
Y432442D01*
X336004Y432577D01*
X336596Y432920D01*
X337081Y433404D01*
X337423Y433996D01*
X337558Y434500D01*
D02*
G37*
G36*
X334500D02*
X332442D01*
X332577Y433996D01*
X332920Y433404D01*
X333404Y432920D01*
X333996Y432577D01*
X334500Y432442D01*
Y434500D01*
D02*
G37*
G36*
X317558D02*
X315500D01*
Y432442D01*
X316004Y432577D01*
X316596Y432920D01*
X317080Y433404D01*
X317423Y433996D01*
X317558Y434500D01*
D02*
G37*
G36*
X314500D02*
X312442D01*
X312577Y433996D01*
X312919Y433404D01*
X313404Y432920D01*
X313996Y432577D01*
X314500Y432442D01*
Y434500D01*
D02*
G37*
G36*
X297558D02*
X295500D01*
Y432442D01*
X296004Y432577D01*
X296596Y432920D01*
X297080Y433404D01*
X297423Y433996D01*
X297558Y434500D01*
D02*
G37*
G36*
X294500D02*
X292442D01*
X292577Y433996D01*
X292919Y433404D01*
X293404Y432920D01*
X293996Y432577D01*
X294500Y432442D01*
Y434500D01*
D02*
G37*
G36*
X277558D02*
X275500D01*
Y432442D01*
X276004Y432577D01*
X276596Y432920D01*
X277080Y433404D01*
X277423Y433996D01*
X277558Y434500D01*
D02*
G37*
G36*
X274500D02*
X272442D01*
X272577Y433996D01*
X272920Y433404D01*
X273404Y432920D01*
X273996Y432577D01*
X274500Y432442D01*
Y434500D01*
D02*
G37*
G36*
X257558D02*
X255500D01*
Y432442D01*
X256004Y432577D01*
X256596Y432920D01*
X257081Y433404D01*
X257423Y433996D01*
X257558Y434500D01*
D02*
G37*
G36*
X254500D02*
X252442D01*
X252577Y433996D01*
X252920Y433404D01*
X253404Y432920D01*
X253996Y432577D01*
X254500Y432442D01*
Y434500D01*
D02*
G37*
G36*
X237558D02*
X235500D01*
Y432442D01*
X236004Y432577D01*
X236596Y432920D01*
X237081Y433404D01*
X237423Y433996D01*
X237558Y434500D01*
D02*
G37*
G36*
X234500D02*
X232442D01*
X232577Y433996D01*
X232920Y433404D01*
X233404Y432920D01*
X233996Y432577D01*
X234500Y432442D01*
Y434500D01*
D02*
G37*
G36*
X217558D02*
X215500D01*
Y432442D01*
X216004Y432577D01*
X216596Y432920D01*
X217080Y433404D01*
X217423Y433996D01*
X217558Y434500D01*
D02*
G37*
G36*
X214500D02*
X212442D01*
X212577Y433996D01*
X212919Y433404D01*
X213404Y432920D01*
X213996Y432577D01*
X214500Y432442D01*
Y434500D01*
D02*
G37*
G36*
X198116D02*
X196058D01*
Y432442D01*
X196561Y432577D01*
X197154Y432920D01*
X197638Y433404D01*
X197981Y433996D01*
X198116Y434500D01*
D02*
G37*
G36*
X195058D02*
X193000D01*
X193135Y433996D01*
X193477Y433404D01*
X193961Y432920D01*
X194554Y432577D01*
X195058Y432442D01*
Y434500D01*
D02*
G37*
G36*
X177558D02*
X175500D01*
Y432442D01*
X176004Y432577D01*
X176596Y432920D01*
X177081Y433404D01*
X177423Y433996D01*
X177558Y434500D01*
D02*
G37*
G36*
X174500D02*
X172442D01*
X172577Y433996D01*
X172919Y433404D01*
X173404Y432920D01*
X173996Y432577D01*
X174500Y432442D01*
Y434500D01*
D02*
G37*
G36*
X680837Y438500D02*
X680500D01*
Y430500D01*
X688500D01*
Y430837D01*
X688173Y432479D01*
X687533Y434026D01*
X686602Y435418D01*
X685418Y436602D01*
X684026Y437533D01*
X682479Y438173D01*
X680837Y438500D01*
D02*
G37*
G36*
X679500D02*
X679163D01*
X677521Y438173D01*
X675974Y437533D01*
X674582Y436602D01*
X673398Y435418D01*
X672467Y434026D01*
X671827Y432479D01*
X671500Y430837D01*
Y430500D01*
X679500D01*
Y438500D01*
D02*
G37*
G36*
X120837D02*
X120500D01*
Y430500D01*
X128500D01*
Y430837D01*
X128173Y432479D01*
X127533Y434026D01*
X126602Y435418D01*
X125418Y436602D01*
X124026Y437533D01*
X122479Y438173D01*
X120837Y438500D01*
D02*
G37*
G36*
X119500D02*
X119163D01*
X117521Y438173D01*
X115974Y437533D01*
X114582Y436602D01*
X113398Y435418D01*
X112467Y434026D01*
X111827Y432479D01*
X111500Y430837D01*
Y430500D01*
X119500D01*
Y438500D01*
D02*
G37*
G36*
X588854Y430110D02*
X585500D01*
Y427346D01*
X588854D01*
Y430110D01*
D02*
G37*
G36*
X584500D02*
X581146D01*
Y427346D01*
X584500D01*
Y430110D01*
D02*
G37*
G36*
X518854D02*
X515500D01*
Y427346D01*
X518854D01*
Y430110D01*
D02*
G37*
G36*
X514500D02*
X511146D01*
Y427346D01*
X514500D01*
Y430110D01*
D02*
G37*
G36*
X448854D02*
X445500D01*
Y427346D01*
X448854D01*
Y430110D01*
D02*
G37*
G36*
X444500D02*
X441146D01*
Y427346D01*
X444500D01*
Y430110D01*
D02*
G37*
G36*
X416852Y432004D02*
X415707D01*
X414602Y431708D01*
X413611Y431136D01*
X412802Y430326D01*
X412229Y429335D01*
X411933Y428230D01*
Y427085D01*
X412229Y425980D01*
X412802Y424989D01*
X413611Y424179D01*
X414602Y423607D01*
X415707Y423311D01*
X416852D01*
X417957Y423607D01*
X418948Y424179D01*
X419758Y424989D01*
X420330Y425980D01*
X420626Y427085D01*
Y428230D01*
X420330Y429335D01*
X419758Y430326D01*
X418948Y431136D01*
X417957Y431708D01*
X416852Y432004D01*
D02*
G37*
G36*
X389293D02*
X388148D01*
X387043Y431708D01*
X386052Y431136D01*
X385243Y430326D01*
X384670Y429335D01*
X384374Y428230D01*
Y427085D01*
X384670Y425980D01*
X385243Y424989D01*
X386052Y424179D01*
X387043Y423607D01*
X388148Y423311D01*
X389293D01*
X390398Y423607D01*
X391389Y424179D01*
X392199Y424989D01*
X392771Y425980D01*
X393067Y427085D01*
Y428230D01*
X392771Y429335D01*
X392199Y430326D01*
X391389Y431136D01*
X390398Y431708D01*
X389293Y432004D01*
D02*
G37*
G36*
X630710Y432004D02*
X629566D01*
X628460Y431708D01*
X627469Y431135D01*
X626660Y430326D01*
X626088Y429335D01*
X625791Y428230D01*
Y427085D01*
X626088Y425980D01*
X626660Y424989D01*
X627469Y424179D01*
X628460Y423607D01*
X629566Y423311D01*
X630710D01*
X631815Y423607D01*
X632807Y424179D01*
X633616Y424989D01*
X634188Y425980D01*
X634484Y427085D01*
Y428230D01*
X634188Y429335D01*
X633616Y430326D01*
X632807Y431135D01*
X631815Y431708D01*
X630710Y432004D01*
D02*
G37*
G36*
X603151D02*
X602007D01*
X600901Y431708D01*
X599910Y431135D01*
X599101Y430326D01*
X598528Y429335D01*
X598232Y428230D01*
Y427085D01*
X598528Y425980D01*
X599101Y424989D01*
X599910Y424179D01*
X600901Y423607D01*
X602007Y423311D01*
X603151D01*
X604256Y423607D01*
X605248Y424179D01*
X606057Y424989D01*
X606629Y425980D01*
X606925Y427085D01*
Y428230D01*
X606629Y429335D01*
X606057Y430326D01*
X605248Y431135D01*
X604256Y431708D01*
X603151Y432004D01*
D02*
G37*
G36*
X560710D02*
X559566D01*
X558460Y431708D01*
X557469Y431135D01*
X556660Y430326D01*
X556088Y429335D01*
X555791Y428230D01*
Y427085D01*
X556088Y425980D01*
X556660Y424989D01*
X557469Y424179D01*
X558460Y423607D01*
X559566Y423311D01*
X560710D01*
X561816Y423607D01*
X562807Y424179D01*
X563616Y424989D01*
X564188Y425980D01*
X564484Y427085D01*
Y428230D01*
X564188Y429335D01*
X563616Y430326D01*
X562807Y431135D01*
X561816Y431708D01*
X560710Y432004D01*
D02*
G37*
G36*
X533151D02*
X532007D01*
X530901Y431708D01*
X529910Y431135D01*
X529101Y430326D01*
X528528Y429335D01*
X528232Y428230D01*
Y427085D01*
X528528Y425980D01*
X529101Y424989D01*
X529910Y424179D01*
X530901Y423607D01*
X532007Y423311D01*
X533151D01*
X534257Y423607D01*
X535248Y424179D01*
X536057Y424989D01*
X536629Y425980D01*
X536925Y427085D01*
Y428230D01*
X536629Y429335D01*
X536057Y430326D01*
X535248Y431135D01*
X534257Y431708D01*
X533151Y432004D01*
D02*
G37*
G36*
X490710D02*
X489566D01*
X488460Y431708D01*
X487469Y431135D01*
X486660Y430326D01*
X486088Y429335D01*
X485791Y428230D01*
Y427085D01*
X486088Y425980D01*
X486660Y424989D01*
X487469Y424179D01*
X488460Y423607D01*
X489566Y423311D01*
X490710D01*
X491816Y423607D01*
X492807Y424179D01*
X493616Y424989D01*
X494188Y425980D01*
X494484Y427085D01*
Y428230D01*
X494188Y429335D01*
X493616Y430326D01*
X492807Y431135D01*
X491816Y431708D01*
X490710Y432004D01*
D02*
G37*
G36*
X463151D02*
X462007D01*
X460901Y431708D01*
X459910Y431135D01*
X459101Y430326D01*
X458529Y429335D01*
X458232Y428230D01*
Y427085D01*
X458529Y425980D01*
X459101Y424989D01*
X459910Y424179D01*
X460901Y423607D01*
X462007Y423311D01*
X463151D01*
X464256Y423607D01*
X465248Y424179D01*
X466057Y424989D01*
X466629Y425980D01*
X466925Y427085D01*
Y428230D01*
X466629Y429335D01*
X466057Y430326D01*
X465248Y431135D01*
X464256Y431708D01*
X463151Y432004D01*
D02*
G37*
G36*
X688500Y429500D02*
X680500D01*
Y421500D01*
X680837D01*
X682479Y421827D01*
X684026Y422467D01*
X685418Y423398D01*
X686602Y424582D01*
X687533Y425974D01*
X688173Y427521D01*
X688500Y429163D01*
Y429500D01*
D02*
G37*
G36*
X679500D02*
X671500D01*
Y429163D01*
X671827Y427521D01*
X672467Y425974D01*
X673398Y424582D01*
X674582Y423398D01*
X675974Y422467D01*
X677521Y421827D01*
X679163Y421500D01*
X679500D01*
Y429500D01*
D02*
G37*
G36*
X128500D02*
X120500D01*
Y421500D01*
X120837D01*
X122479Y421827D01*
X124026Y422467D01*
X125418Y423398D01*
X126602Y424582D01*
X127533Y425974D01*
X128173Y427521D01*
X128500Y429163D01*
Y429500D01*
D02*
G37*
G36*
X119500D02*
X111500D01*
Y429163D01*
X111827Y427521D01*
X112467Y425974D01*
X113398Y424582D01*
X114582Y423398D01*
X115974Y422467D01*
X117521Y421827D01*
X119163Y421500D01*
X119500D01*
Y429500D01*
D02*
G37*
G36*
X508000Y422558D02*
Y420500D01*
X510058D01*
X509923Y421004D01*
X509581Y421596D01*
X509096Y422081D01*
X508504Y422423D01*
X508000Y422558D01*
D02*
G37*
G36*
X507000D02*
X506496Y422423D01*
X505904Y422081D01*
X505419Y421596D01*
X505077Y421004D01*
X504942Y420500D01*
X507000D01*
Y422558D01*
D02*
G37*
G36*
X510058Y419500D02*
X508000D01*
Y417442D01*
X508504Y417577D01*
X509096Y417919D01*
X509581Y418404D01*
X509923Y418996D01*
X510058Y419500D01*
D02*
G37*
G36*
X507000D02*
X504942D01*
X505077Y418996D01*
X505419Y418404D01*
X505904Y417919D01*
X506496Y417577D01*
X507000Y417442D01*
Y419500D01*
D02*
G37*
G36*
X568000Y417558D02*
Y415500D01*
X570058D01*
X569923Y416004D01*
X569581Y416596D01*
X569096Y417080D01*
X568504Y417423D01*
X568000Y417558D01*
D02*
G37*
G36*
X567000D02*
X566496Y417423D01*
X565904Y417080D01*
X565419Y416596D01*
X565077Y416004D01*
X564942Y415500D01*
X567000D01*
Y417558D01*
D02*
G37*
G36*
X618000Y415058D02*
Y413000D01*
X620058D01*
X619923Y413504D01*
X619581Y414096D01*
X619096Y414580D01*
X618504Y414923D01*
X618000Y415058D01*
D02*
G37*
G36*
X617000D02*
X616496Y414923D01*
X615904Y414580D01*
X615419Y414096D01*
X615077Y413504D01*
X614942Y413000D01*
X617000D01*
Y415058D01*
D02*
G37*
G36*
X158000D02*
Y413000D01*
X160058D01*
X159923Y413504D01*
X159581Y414096D01*
X159096Y414580D01*
X158504Y414923D01*
X158000Y415058D01*
D02*
G37*
G36*
X157000D02*
X156496Y414923D01*
X155904Y414580D01*
X155420Y414096D01*
X155077Y413504D01*
X154942Y413000D01*
X157000D01*
Y415058D01*
D02*
G37*
G36*
X258559Y415646D02*
X251441D01*
Y414403D01*
X240374D01*
X239789Y414287D01*
X239293Y413955D01*
X237917Y412580D01*
X237842Y412600D01*
X237158D01*
X236496Y412423D01*
X235904Y412080D01*
X235420Y411596D01*
X235077Y411004D01*
X234900Y410342D01*
Y409658D01*
X235077Y408996D01*
X235420Y408404D01*
X235904Y407920D01*
X236496Y407577D01*
X237158Y407400D01*
X237842D01*
X238504Y407577D01*
X239096Y407920D01*
X239580Y408404D01*
X239923Y408996D01*
X240100Y409658D01*
Y410342D01*
X240080Y410417D01*
X241007Y411345D01*
X251441D01*
Y410102D01*
X258559D01*
Y415646D01*
D02*
G37*
G36*
X570058Y414500D02*
X568000D01*
Y412442D01*
X568504Y412577D01*
X569096Y412920D01*
X569581Y413404D01*
X569923Y413996D01*
X570058Y414500D01*
D02*
G37*
G36*
X567000D02*
X564942D01*
X565077Y413996D01*
X565419Y413404D01*
X565904Y412920D01*
X566496Y412577D01*
X567000Y412442D01*
Y414500D01*
D02*
G37*
G36*
X620058Y412000D02*
X618000D01*
Y409942D01*
X618504Y410077D01*
X619096Y410420D01*
X619581Y410904D01*
X619923Y411496D01*
X620058Y412000D01*
D02*
G37*
G36*
X617000D02*
X614942D01*
X615077Y411496D01*
X615419Y410904D01*
X615904Y410420D01*
X616496Y410077D01*
X617000Y409942D01*
Y412000D01*
D02*
G37*
G36*
X160058D02*
X158000D01*
Y409942D01*
X158504Y410077D01*
X159096Y410420D01*
X159581Y410904D01*
X159923Y411496D01*
X160058Y412000D01*
D02*
G37*
G36*
X157000D02*
X154942D01*
X155077Y411496D01*
X155420Y410904D01*
X155904Y410420D01*
X156496Y410077D01*
X157000Y409942D01*
Y412000D01*
D02*
G37*
G36*
X453000Y410058D02*
Y408000D01*
X455058D01*
X454923Y408504D01*
X454580Y409096D01*
X454096Y409581D01*
X453504Y409923D01*
X453000Y410058D01*
D02*
G37*
G36*
X452000D02*
X451496Y409923D01*
X450904Y409581D01*
X450420Y409096D01*
X450077Y408504D01*
X449942Y408000D01*
X452000D01*
Y410058D01*
D02*
G37*
G36*
X218000D02*
Y408000D01*
X220058D01*
X219923Y408504D01*
X219581Y409096D01*
X219096Y409581D01*
X218504Y409923D01*
X218000Y410058D01*
D02*
G37*
G36*
X217000D02*
X216496Y409923D01*
X215904Y409581D01*
X215420Y409096D01*
X215077Y408504D01*
X214942Y408000D01*
X217000D01*
Y410058D01*
D02*
G37*
G36*
X125500D02*
Y408000D01*
X127558D01*
X127423Y408504D01*
X127081Y409096D01*
X126596Y409581D01*
X126004Y409923D01*
X125500Y410058D01*
D02*
G37*
G36*
X124500D02*
X123996Y409923D01*
X123404Y409581D01*
X122919Y409096D01*
X122577Y408504D01*
X122442Y408000D01*
X124500D01*
Y410058D01*
D02*
G37*
G36*
X455058Y407000D02*
X453000D01*
Y404942D01*
X453504Y405077D01*
X454096Y405419D01*
X454580Y405904D01*
X454923Y406496D01*
X455058Y407000D01*
D02*
G37*
G36*
X452000D02*
X449942D01*
X450077Y406496D01*
X450420Y405904D01*
X450904Y405419D01*
X451496Y405077D01*
X452000Y404942D01*
Y407000D01*
D02*
G37*
G36*
X220058D02*
X218000D01*
Y404942D01*
X218504Y405077D01*
X219096Y405419D01*
X219581Y405904D01*
X219923Y406496D01*
X220058Y407000D01*
D02*
G37*
G36*
X217000D02*
X214942D01*
X215077Y406496D01*
X215420Y405904D01*
X215904Y405419D01*
X216496Y405077D01*
X217000Y404942D01*
Y407000D01*
D02*
G37*
G36*
X127558D02*
X125500D01*
Y404942D01*
X126004Y405077D01*
X126596Y405419D01*
X127081Y405904D01*
X127423Y406496D01*
X127558Y407000D01*
D02*
G37*
G36*
X124500D02*
X122442D01*
X122577Y406496D01*
X122919Y405904D01*
X123404Y405419D01*
X123996Y405077D01*
X124500Y404942D01*
Y407000D01*
D02*
G37*
G36*
X245500Y405058D02*
Y403000D01*
X247558D01*
X247423Y403504D01*
X247080Y404096D01*
X246596Y404580D01*
X246004Y404923D01*
X245500Y405058D01*
D02*
G37*
G36*
X244500D02*
X243996Y404923D01*
X243404Y404580D01*
X242919Y404096D01*
X242577Y403504D01*
X242442Y403000D01*
X244500D01*
Y405058D01*
D02*
G37*
G36*
X330787Y409185D02*
X329213D01*
X328129Y409043D01*
X327120Y408625D01*
X326253Y407960D01*
X325588Y407093D01*
X325170Y406083D01*
X325027Y405000D01*
X325170Y403917D01*
X325588Y402907D01*
X326253Y402040D01*
X327120Y401375D01*
X328129Y400957D01*
X329213Y400815D01*
X330787D01*
X331871Y400957D01*
X332880Y401375D01*
X333747Y402040D01*
X334412Y402907D01*
X334830Y403917D01*
X334973Y405000D01*
X334830Y406083D01*
X334412Y407093D01*
X333747Y407960D01*
X332880Y408625D01*
X331871Y409043D01*
X330787Y409185D01*
D02*
G37*
G36*
X247558Y402000D02*
X245500D01*
Y399942D01*
X246004Y400077D01*
X246596Y400420D01*
X247080Y400904D01*
X247423Y401496D01*
X247558Y402000D01*
D02*
G37*
G36*
X244500D02*
X242442D01*
X242577Y401496D01*
X242919Y400904D01*
X243404Y400420D01*
X243996Y400077D01*
X244500Y399942D01*
Y402000D01*
D02*
G37*
G36*
X182768Y401570D02*
Y399513D01*
X184825D01*
X184690Y400016D01*
X184348Y400609D01*
X183864Y401093D01*
X183271Y401435D01*
X182768Y401570D01*
D02*
G37*
G36*
X181768D02*
X181264Y401435D01*
X180671Y401093D01*
X180187Y400609D01*
X179845Y400016D01*
X179710Y399513D01*
X181768D01*
Y401570D01*
D02*
G37*
G36*
X184825Y398513D02*
X182768D01*
Y396455D01*
X183271Y396590D01*
X183864Y396932D01*
X184348Y397416D01*
X184690Y398009D01*
X184825Y398513D01*
D02*
G37*
G36*
X181768D02*
X179710D01*
X179845Y398009D01*
X180187Y397416D01*
X180671Y396932D01*
X181264Y396590D01*
X181768Y396455D01*
Y398513D01*
D02*
G37*
G36*
X588000Y397558D02*
Y395500D01*
X590058D01*
X589923Y396004D01*
X589580Y396596D01*
X589096Y397080D01*
X588504Y397423D01*
X588000Y397558D01*
D02*
G37*
G36*
X587000D02*
X586496Y397423D01*
X585904Y397080D01*
X585420Y396596D01*
X585077Y396004D01*
X584942Y395500D01*
X587000D01*
Y397558D01*
D02*
G37*
G36*
X533000D02*
Y395500D01*
X535058D01*
X534923Y396004D01*
X534581Y396596D01*
X534096Y397080D01*
X533504Y397423D01*
X533000Y397558D01*
D02*
G37*
G36*
X532000D02*
X531496Y397423D01*
X530904Y397080D01*
X530419Y396596D01*
X530077Y396004D01*
X529942Y395500D01*
X532000D01*
Y397558D01*
D02*
G37*
G36*
X490500D02*
Y395500D01*
X492558D01*
X492423Y396004D01*
X492080Y396596D01*
X491596Y397080D01*
X491004Y397423D01*
X490500Y397558D01*
D02*
G37*
G36*
X489500D02*
X488996Y397423D01*
X488404Y397080D01*
X487920Y396596D01*
X487577Y396004D01*
X487442Y395500D01*
X489500D01*
Y397558D01*
D02*
G37*
G36*
X118000D02*
Y395500D01*
X120058D01*
X119923Y396004D01*
X119580Y396596D01*
X119096Y397080D01*
X118504Y397423D01*
X118000Y397558D01*
D02*
G37*
G36*
X117000D02*
X116496Y397423D01*
X115904Y397080D01*
X115419Y396596D01*
X115077Y396004D01*
X114942Y395500D01*
X117000D01*
Y397558D01*
D02*
G37*
G36*
X590058Y394500D02*
X588000D01*
Y392442D01*
X588504Y392577D01*
X589096Y392919D01*
X589580Y393404D01*
X589923Y393996D01*
X590058Y394500D01*
D02*
G37*
G36*
X587000D02*
X584942D01*
X585077Y393996D01*
X585420Y393404D01*
X585904Y392919D01*
X586496Y392577D01*
X587000Y392442D01*
Y394500D01*
D02*
G37*
G36*
X535058D02*
X533000D01*
Y392442D01*
X533504Y392577D01*
X534096Y392919D01*
X534581Y393404D01*
X534923Y393996D01*
X535058Y394500D01*
D02*
G37*
G36*
X532000D02*
X529942D01*
X530077Y393996D01*
X530419Y393404D01*
X530904Y392919D01*
X531496Y392577D01*
X532000Y392442D01*
Y394500D01*
D02*
G37*
G36*
X492558D02*
X490500D01*
Y392442D01*
X491004Y392577D01*
X491596Y392919D01*
X492080Y393404D01*
X492423Y393996D01*
X492558Y394500D01*
D02*
G37*
G36*
X489500D02*
X487442D01*
X487577Y393996D01*
X487920Y393404D01*
X488404Y392919D01*
X488996Y392577D01*
X489500Y392442D01*
Y394500D01*
D02*
G37*
G36*
X120058D02*
X118000D01*
Y392442D01*
X118504Y392577D01*
X119096Y392919D01*
X119580Y393404D01*
X119923Y393996D01*
X120058Y394500D01*
D02*
G37*
G36*
X117000D02*
X114942D01*
X115077Y393996D01*
X115419Y393404D01*
X115904Y392919D01*
X116496Y392577D01*
X117000Y392442D01*
Y394500D01*
D02*
G37*
G36*
X330787Y399185D02*
X329213D01*
X328129Y399043D01*
X327120Y398625D01*
X326253Y397959D01*
X325588Y397093D01*
X325170Y396083D01*
X325027Y395000D01*
X325170Y393917D01*
X325588Y392907D01*
X326253Y392040D01*
X327120Y391375D01*
X328129Y390957D01*
X329213Y390815D01*
X330787D01*
X331871Y390957D01*
X332880Y391375D01*
X333747Y392040D01*
X334412Y392907D01*
X334830Y393917D01*
X334973Y395000D01*
X334830Y396083D01*
X334412Y397093D01*
X333747Y397959D01*
X332880Y398625D01*
X331871Y399043D01*
X330787Y399185D01*
D02*
G37*
G36*
X300787D02*
X299213D01*
X298129Y399043D01*
X297120Y398625D01*
X296253Y397959D01*
X295588Y397093D01*
X295170Y396083D01*
X295027Y395000D01*
X295170Y393917D01*
X295588Y392907D01*
X296253Y392040D01*
X297120Y391375D01*
X298129Y390957D01*
X299213Y390815D01*
X300787D01*
X301871Y390957D01*
X302880Y391375D01*
X303747Y392040D01*
X304412Y392907D01*
X304830Y393917D01*
X304973Y395000D01*
X304830Y396083D01*
X304412Y397093D01*
X303747Y397959D01*
X302880Y398625D01*
X301871Y399043D01*
X300787Y399185D01*
D02*
G37*
G36*
X220500Y392558D02*
Y390500D01*
X222558D01*
X222423Y391004D01*
X222080Y391596D01*
X221596Y392080D01*
X221004Y392423D01*
X220500Y392558D01*
D02*
G37*
G36*
X219500D02*
X218996Y392423D01*
X218404Y392080D01*
X217919Y391596D01*
X217577Y391004D01*
X217442Y390500D01*
X219500D01*
Y392558D01*
D02*
G37*
G36*
X427961Y396000D02*
X427039D01*
X426149Y395761D01*
X425351Y395301D01*
X424699Y394649D01*
X424238Y393851D01*
X424000Y392961D01*
Y392039D01*
X424185Y391348D01*
X421419Y388581D01*
X421087Y388085D01*
X420971Y387500D01*
Y380272D01*
X418941D01*
Y374728D01*
X426059D01*
Y375971D01*
X436047D01*
Y374728D01*
X443953D01*
Y380272D01*
X441529D01*
Y381867D01*
X443133Y383471D01*
X619367D01*
X620971Y381867D01*
Y380272D01*
X618941D01*
Y374728D01*
X626059D01*
Y375971D01*
X636047D01*
Y374728D01*
X643953D01*
Y375971D01*
X646867D01*
X648471Y374366D01*
Y263134D01*
X638919Y253581D01*
X638587Y253085D01*
X638471Y252500D01*
Y237772D01*
X636047D01*
Y236529D01*
X626059D01*
Y237772D01*
X618941D01*
Y236529D01*
X475000D01*
X474415Y236413D01*
X473919Y236081D01*
X466866Y229029D01*
X443133D01*
X441529Y230633D01*
Y232228D01*
X443953D01*
Y237772D01*
X436047D01*
Y236529D01*
X426059D01*
Y237772D01*
X418941D01*
Y232228D01*
X426059D01*
Y233471D01*
X436047D01*
Y232228D01*
X438471D01*
Y230000D01*
X438587Y229415D01*
X438919Y228919D01*
X441419Y226419D01*
X441915Y226087D01*
X442500Y225971D01*
X467500D01*
X468085Y226087D01*
X468581Y226419D01*
X475633Y233471D01*
X618941D01*
Y232228D01*
X626059D01*
Y233471D01*
X636047D01*
Y232228D01*
X643953D01*
Y237772D01*
X641529D01*
Y251867D01*
X651082Y261419D01*
X651413Y261915D01*
X651529Y262500D01*
Y375000D01*
X651413Y375585D01*
X651081Y376081D01*
X648581Y378581D01*
X648085Y378913D01*
X647500Y379029D01*
X643953D01*
Y380272D01*
X636047D01*
Y379029D01*
X626059D01*
Y380272D01*
X624029D01*
Y382500D01*
X623913Y383085D01*
X623581Y383581D01*
X621081Y386081D01*
X620585Y386413D01*
X620000Y386529D01*
X442500D01*
X441915Y386413D01*
X441419Y386081D01*
X438919Y383581D01*
X438587Y383085D01*
X438471Y382500D01*
Y380272D01*
X436047D01*
Y379029D01*
X426059D01*
Y380272D01*
X424029D01*
Y386866D01*
X426348Y389185D01*
X427039Y389000D01*
X427961D01*
X428851Y389239D01*
X429649Y389699D01*
X430301Y390351D01*
X430761Y391149D01*
X431000Y392039D01*
Y392961D01*
X430761Y393851D01*
X430301Y394649D01*
X429649Y395301D01*
X428851Y395761D01*
X427961Y396000D01*
D02*
G37*
G36*
X222558Y389500D02*
X220500D01*
Y387442D01*
X221004Y387577D01*
X221596Y387919D01*
X222080Y388404D01*
X222423Y388996D01*
X222558Y389500D01*
D02*
G37*
G36*
X219500D02*
X217442D01*
X217577Y388996D01*
X217919Y388404D01*
X218404Y387919D01*
X218996Y387577D01*
X219500Y387442D01*
Y389500D01*
D02*
G37*
G36*
X403000Y385058D02*
Y383000D01*
X405058D01*
X404923Y383504D01*
X404580Y384096D01*
X404096Y384580D01*
X403504Y384923D01*
X403000Y385058D01*
D02*
G37*
G36*
X402000D02*
X401496Y384923D01*
X400904Y384580D01*
X400420Y384096D01*
X400077Y383504D01*
X399942Y383000D01*
X402000D01*
Y385058D01*
D02*
G37*
G36*
X383000D02*
Y383000D01*
X385058D01*
X384923Y383504D01*
X384580Y384096D01*
X384096Y384580D01*
X383504Y384923D01*
X383000Y385058D01*
D02*
G37*
G36*
X382000D02*
X381496Y384923D01*
X380904Y384580D01*
X380419Y384096D01*
X380077Y383504D01*
X379942Y383000D01*
X382000D01*
Y385058D01*
D02*
G37*
G36*
X330787Y389185D02*
X329213D01*
X328129Y389043D01*
X327120Y388625D01*
X326253Y387960D01*
X325588Y387093D01*
X325170Y386083D01*
X325027Y385000D01*
X325170Y383917D01*
X325588Y382907D01*
X326253Y382041D01*
X327120Y381375D01*
X328129Y380957D01*
X329213Y380815D01*
X330787D01*
X331871Y380957D01*
X332880Y381375D01*
X333747Y382041D01*
X334412Y382907D01*
X334830Y383917D01*
X334973Y385000D01*
X334830Y386083D01*
X334412Y387093D01*
X333747Y387960D01*
X332880Y388625D01*
X331871Y389043D01*
X330787Y389185D01*
D02*
G37*
G36*
X300787D02*
X299213D01*
X298129Y389043D01*
X297120Y388625D01*
X296253Y387960D01*
X295588Y387093D01*
X295170Y386083D01*
X295027Y385000D01*
X295170Y383917D01*
X295588Y382907D01*
X296253Y382041D01*
X297120Y381375D01*
X298129Y380957D01*
X299213Y380815D01*
X300787D01*
X301871Y380957D01*
X302880Y381375D01*
X303747Y382041D01*
X304412Y382907D01*
X304830Y383917D01*
X304973Y385000D01*
X304830Y386083D01*
X304412Y387093D01*
X303747Y387960D01*
X302880Y388625D01*
X301871Y389043D01*
X300787Y389185D01*
D02*
G37*
G36*
X405058Y382000D02*
X403000D01*
Y379942D01*
X403504Y380077D01*
X404096Y380419D01*
X404580Y380904D01*
X404923Y381496D01*
X405058Y382000D01*
D02*
G37*
G36*
X402000D02*
X399942D01*
X400077Y381496D01*
X400420Y380904D01*
X400904Y380419D01*
X401496Y380077D01*
X402000Y379942D01*
Y382000D01*
D02*
G37*
G36*
X385058D02*
X383000D01*
Y379942D01*
X383504Y380077D01*
X384096Y380419D01*
X384580Y380904D01*
X384923Y381496D01*
X385058Y382000D01*
D02*
G37*
G36*
X382000D02*
X379942D01*
X380077Y381496D01*
X380419Y380904D01*
X380904Y380419D01*
X381496Y380077D01*
X382000Y379942D01*
Y382000D01*
D02*
G37*
G36*
X605500Y377558D02*
Y375500D01*
X607558D01*
X607423Y376004D01*
X607081Y376596D01*
X606596Y377080D01*
X606004Y377423D01*
X605500Y377558D01*
D02*
G37*
G36*
X604500D02*
X603996Y377423D01*
X603404Y377080D01*
X602919Y376596D01*
X602577Y376004D01*
X602442Y375500D01*
X604500D01*
Y377558D01*
D02*
G37*
G36*
X265500D02*
Y375500D01*
X267558D01*
X267423Y376004D01*
X267080Y376596D01*
X266596Y377080D01*
X266004Y377423D01*
X265500Y377558D01*
D02*
G37*
G36*
X264500D02*
X263996Y377423D01*
X263404Y377080D01*
X262919Y376596D01*
X262577Y376004D01*
X262442Y375500D01*
X264500D01*
Y377558D01*
D02*
G37*
G36*
X240500D02*
Y375500D01*
X242558D01*
X242423Y376004D01*
X242080Y376596D01*
X241596Y377080D01*
X241004Y377423D01*
X240500Y377558D01*
D02*
G37*
G36*
X239500D02*
X238996Y377423D01*
X238404Y377080D01*
X237919Y376596D01*
X237577Y376004D01*
X237442Y375500D01*
X239500D01*
Y377558D01*
D02*
G37*
G36*
X200500D02*
Y375500D01*
X202558D01*
X202423Y376004D01*
X202080Y376596D01*
X201596Y377080D01*
X201004Y377423D01*
X200500Y377558D01*
D02*
G37*
G36*
X199500D02*
X198996Y377423D01*
X198404Y377080D01*
X197919Y376596D01*
X197577Y376004D01*
X197442Y375500D01*
X199500D01*
Y377558D01*
D02*
G37*
G36*
X607558Y374500D02*
X605500D01*
Y372442D01*
X606004Y372577D01*
X606596Y372920D01*
X607081Y373404D01*
X607423Y373996D01*
X607558Y374500D01*
D02*
G37*
G36*
X604500D02*
X602442D01*
X602577Y373996D01*
X602919Y373404D01*
X603404Y372920D01*
X603996Y372577D01*
X604500Y372442D01*
Y374500D01*
D02*
G37*
G36*
X267558D02*
X265500D01*
Y372442D01*
X266004Y372577D01*
X266596Y372920D01*
X267080Y373404D01*
X267423Y373996D01*
X267558Y374500D01*
D02*
G37*
G36*
X264500D02*
X262442D01*
X262577Y373996D01*
X262919Y373404D01*
X263404Y372920D01*
X263996Y372577D01*
X264500Y372442D01*
Y374500D01*
D02*
G37*
G36*
X242558D02*
X240500D01*
Y372442D01*
X241004Y372577D01*
X241596Y372920D01*
X242080Y373404D01*
X242423Y373996D01*
X242558Y374500D01*
D02*
G37*
G36*
X239500D02*
X237442D01*
X237577Y373996D01*
X237919Y373404D01*
X238404Y372920D01*
X238996Y372577D01*
X239500Y372442D01*
Y374500D01*
D02*
G37*
G36*
X202558D02*
X200500D01*
Y372442D01*
X201004Y372577D01*
X201596Y372920D01*
X202080Y373404D01*
X202423Y373996D01*
X202558Y374500D01*
D02*
G37*
G36*
X199500D02*
X197442D01*
X197577Y373996D01*
X197919Y373404D01*
X198404Y372920D01*
X198996Y372577D01*
X199500Y372442D01*
Y374500D01*
D02*
G37*
G36*
X141256Y395468D02*
X133744D01*
Y389531D01*
X135971D01*
Y380600D01*
X130800D01*
Y372000D01*
X144200D01*
Y380600D01*
X139029D01*
Y389531D01*
X141256D01*
Y395468D01*
D02*
G37*
G36*
X330787Y379185D02*
X329213D01*
X328129Y379043D01*
X327120Y378625D01*
X326253Y377959D01*
X325588Y377093D01*
X325170Y376083D01*
X325027Y375000D01*
X325170Y373917D01*
X325588Y372907D01*
X326253Y372041D01*
X327120Y371375D01*
X328129Y370957D01*
X329213Y370815D01*
X330787D01*
X331871Y370957D01*
X332880Y371375D01*
X333747Y372041D01*
X334412Y372907D01*
X334830Y373917D01*
X334973Y375000D01*
X334830Y376083D01*
X334412Y377093D01*
X333747Y377959D01*
X332880Y378625D01*
X331871Y379043D01*
X330787Y379185D01*
D02*
G37*
G36*
X300787D02*
X299213D01*
X298129Y379043D01*
X297120Y378625D01*
X296253Y377959D01*
X295588Y377093D01*
X295170Y376083D01*
X295027Y375000D01*
X295170Y373917D01*
X295588Y372907D01*
X296253Y372041D01*
X297120Y371375D01*
X298129Y370957D01*
X299213Y370815D01*
X300787D01*
X301871Y370957D01*
X302880Y371375D01*
X303747Y372041D01*
X304412Y372907D01*
X304830Y373917D01*
X304973Y375000D01*
X304830Y376083D01*
X304412Y377093D01*
X303747Y377959D01*
X302880Y378625D01*
X301871Y379043D01*
X300787Y379185D01*
D02*
G37*
G36*
X403000Y372558D02*
Y370500D01*
X405058D01*
X404923Y371004D01*
X404580Y371596D01*
X404096Y372080D01*
X403504Y372423D01*
X403000Y372558D01*
D02*
G37*
G36*
X402000D02*
X401496Y372423D01*
X400904Y372080D01*
X400420Y371596D01*
X400077Y371004D01*
X399942Y370500D01*
X402000D01*
Y372558D01*
D02*
G37*
G36*
X383000D02*
Y370500D01*
X385058D01*
X384923Y371004D01*
X384580Y371596D01*
X384096Y372080D01*
X383504Y372423D01*
X383000Y372558D01*
D02*
G37*
G36*
X382000D02*
X381496Y372423D01*
X380904Y372080D01*
X380419Y371596D01*
X380077Y371004D01*
X379942Y370500D01*
X382000D01*
Y372558D01*
D02*
G37*
G36*
X626059Y372398D02*
X623000D01*
Y370126D01*
X626059D01*
Y372398D01*
D02*
G37*
G36*
X426059D02*
X423000D01*
Y370126D01*
X426059D01*
Y372398D01*
D02*
G37*
G36*
X622000D02*
X618941D01*
Y370126D01*
X622000D01*
Y372398D01*
D02*
G37*
G36*
X422000D02*
X418941D01*
Y370126D01*
X422000D01*
Y372398D01*
D02*
G37*
G36*
X405058Y369500D02*
X403000D01*
Y367442D01*
X403504Y367577D01*
X404096Y367919D01*
X404580Y368404D01*
X404923Y368996D01*
X405058Y369500D01*
D02*
G37*
G36*
X402000D02*
X399942D01*
X400077Y368996D01*
X400420Y368404D01*
X400904Y367919D01*
X401496Y367577D01*
X402000Y367442D01*
Y369500D01*
D02*
G37*
G36*
X385058D02*
X383000D01*
Y367442D01*
X383504Y367577D01*
X384096Y367919D01*
X384580Y368404D01*
X384923Y368996D01*
X385058Y369500D01*
D02*
G37*
G36*
X382000D02*
X379942D01*
X380077Y368996D01*
X380419Y368404D01*
X380904Y367919D01*
X381496Y367577D01*
X382000Y367442D01*
Y369500D01*
D02*
G37*
G36*
X626059Y369126D02*
X623000D01*
Y366854D01*
X626059D01*
Y369126D01*
D02*
G37*
G36*
X622000D02*
X618941D01*
Y366854D01*
X622000D01*
Y369126D01*
D02*
G37*
G36*
X426059D02*
X423000D01*
Y366854D01*
X426059D01*
Y369126D01*
D02*
G37*
G36*
X422000D02*
X418941D01*
Y366854D01*
X422000D01*
Y369126D01*
D02*
G37*
G36*
X663244Y367279D02*
X659791D01*
Y365008D01*
X663244D01*
Y367279D01*
D02*
G37*
G36*
X658791D02*
X655339D01*
Y365008D01*
X658791D01*
Y367279D01*
D02*
G37*
G36*
X463244D02*
X459791D01*
Y365008D01*
X463244D01*
Y367279D01*
D02*
G37*
G36*
X458791D02*
X455339D01*
Y365008D01*
X458791D01*
Y367279D01*
D02*
G37*
G36*
X226059Y365646D02*
X223000D01*
Y363374D01*
X226059D01*
Y365646D01*
D02*
G37*
G36*
X222000D02*
X218941D01*
Y363374D01*
X222000D01*
Y365646D01*
D02*
G37*
G36*
X530500Y365058D02*
Y363000D01*
X532558D01*
X532423Y363504D01*
X532081Y364096D01*
X531596Y364580D01*
X531004Y364923D01*
X530500Y365058D01*
D02*
G37*
G36*
X529500D02*
X528996Y364923D01*
X528404Y364580D01*
X527919Y364096D01*
X527577Y363504D01*
X527442Y363000D01*
X529500D01*
Y365058D01*
D02*
G37*
G36*
X205315Y368356D02*
X197244D01*
X196585Y368225D01*
X196027Y367851D01*
X195653Y367293D01*
X195522Y366634D01*
X195653Y365975D01*
X196027Y365416D01*
Y365293D01*
X195653Y364734D01*
X195522Y364075D01*
X195653Y363416D01*
X196027Y362857D01*
Y362734D01*
X195653Y362175D01*
X195622Y362016D01*
X201280D01*
X206938D01*
X206906Y362175D01*
X206533Y362734D01*
Y362857D01*
X206906Y363416D01*
X207037Y364075D01*
X206906Y364734D01*
X206533Y365293D01*
Y365416D01*
X206906Y365975D01*
X207037Y366634D01*
X206906Y367293D01*
X206533Y367851D01*
X205974Y368225D01*
X205315Y368356D01*
D02*
G37*
G36*
X663244Y364008D02*
X659791D01*
Y361736D01*
X663244D01*
Y364008D01*
D02*
G37*
G36*
X658791D02*
X655339D01*
Y361736D01*
X658791D01*
Y364008D01*
D02*
G37*
G36*
X463244Y380272D02*
X455339D01*
Y374728D01*
X463244D01*
Y375971D01*
X591866D01*
X604411Y363426D01*
X604907Y363095D01*
X605492Y362978D01*
X636047D01*
Y361736D01*
X643953D01*
Y367279D01*
X636047D01*
Y366037D01*
X606126D01*
X593581Y378581D01*
X593085Y378913D01*
X592500Y379029D01*
X463244D01*
Y380272D01*
D02*
G37*
G36*
Y364008D02*
X459791D01*
Y361736D01*
X463244D01*
Y364008D01*
D02*
G37*
G36*
X458791D02*
X455339D01*
Y361736D01*
X458791D01*
Y364008D01*
D02*
G37*
G36*
X443953Y367279D02*
X436047D01*
Y361736D01*
X443953D01*
Y367279D01*
D02*
G37*
G36*
X300787Y369185D02*
X299213D01*
X298129Y369043D01*
X297120Y368625D01*
X296253Y367959D01*
X295588Y367093D01*
X295170Y366083D01*
X295027Y365000D01*
X295170Y363917D01*
X295588Y362907D01*
X296253Y362040D01*
X297120Y361375D01*
X298129Y360957D01*
X299213Y360815D01*
X300787D01*
X301871Y360957D01*
X302880Y361375D01*
X303747Y362040D01*
X304412Y362907D01*
X304830Y363917D01*
X304973Y365000D01*
X304830Y366083D01*
X304412Y367093D01*
X303747Y367959D01*
X302880Y368625D01*
X301871Y369043D01*
X300787Y369185D01*
D02*
G37*
G36*
X150500Y362558D02*
Y360500D01*
X152558D01*
X152423Y361004D01*
X152081Y361596D01*
X151596Y362081D01*
X151004Y362423D01*
X150500Y362558D01*
D02*
G37*
G36*
X149500D02*
X148996Y362423D01*
X148404Y362081D01*
X147919Y361596D01*
X147577Y361004D01*
X147442Y360500D01*
X149500D01*
Y362558D01*
D02*
G37*
G36*
X226059Y362374D02*
X223000D01*
Y360102D01*
X226059D01*
Y362374D01*
D02*
G37*
G36*
X222000D02*
X218941D01*
Y360102D01*
X222000D01*
Y362374D01*
D02*
G37*
G36*
X532558Y362000D02*
X530500D01*
Y359942D01*
X531004Y360077D01*
X531596Y360420D01*
X532081Y360904D01*
X532423Y361496D01*
X532558Y362000D01*
D02*
G37*
G36*
X529500D02*
X527442D01*
X527577Y361496D01*
X527919Y360904D01*
X528404Y360420D01*
X528996Y360077D01*
X529500Y359942D01*
Y362000D01*
D02*
G37*
G36*
X206938Y361016D02*
X201280D01*
X195622D01*
X195653Y360857D01*
X196027Y360298D01*
Y360174D01*
X195653Y359616D01*
X195622Y359457D01*
X201280D01*
X206938D01*
X206906Y359616D01*
X206533Y360174D01*
Y360298D01*
X206906Y360857D01*
X206938Y361016D01*
D02*
G37*
G36*
X112240Y367280D02*
X102760D01*
Y358193D01*
X112240D01*
Y367280D01*
D02*
G37*
G36*
X455500Y360058D02*
Y358000D01*
X457558D01*
X457423Y358504D01*
X457081Y359096D01*
X456596Y359580D01*
X456004Y359923D01*
X455500Y360058D01*
D02*
G37*
G36*
X454500D02*
X453996Y359923D01*
X453404Y359580D01*
X452919Y359096D01*
X452577Y358504D01*
X452442Y358000D01*
X454500D01*
Y360058D01*
D02*
G37*
G36*
X152558Y359500D02*
X150500D01*
Y357442D01*
X151004Y357577D01*
X151596Y357920D01*
X152081Y358404D01*
X152423Y358996D01*
X152558Y359500D01*
D02*
G37*
G36*
X149500D02*
X147442D01*
X147577Y358996D01*
X147919Y358404D01*
X148404Y357920D01*
X148996Y357577D01*
X149500Y357442D01*
Y359500D01*
D02*
G37*
G36*
X457558Y357000D02*
X455500D01*
Y354942D01*
X456004Y355077D01*
X456596Y355419D01*
X457081Y355904D01*
X457423Y356496D01*
X457558Y357000D01*
D02*
G37*
G36*
X454500D02*
X452442D01*
X452577Y356496D01*
X452919Y355904D01*
X453404Y355419D01*
X453996Y355077D01*
X454500Y354942D01*
Y357000D01*
D02*
G37*
G36*
X625527Y358134D02*
X625500D01*
Y354634D01*
X629000D01*
Y354661D01*
X628727Y355678D01*
X628201Y356590D01*
X627456Y357335D01*
X626544Y357861D01*
X625527Y358134D01*
D02*
G37*
G36*
X624500D02*
X624473D01*
X623456Y357861D01*
X622544Y357335D01*
X621799Y356590D01*
X621273Y355678D01*
X621000Y354661D01*
Y354634D01*
X624500D01*
Y358134D01*
D02*
G37*
G36*
X144200Y361800D02*
X130800D01*
Y359029D01*
X127500D01*
X126915Y358913D01*
X126419Y358581D01*
X122260Y354423D01*
X121689D01*
Y354681D01*
X120479D01*
X120232Y355181D01*
X120539Y355580D01*
X120828Y356278D01*
X120926Y357028D01*
Y358209D01*
X120828Y358958D01*
X120539Y359656D01*
X120079Y360256D01*
X119479Y360716D01*
X118781Y361005D01*
X118032Y361104D01*
X117282Y361005D01*
X116584Y360716D01*
X115985Y360256D01*
X115525Y359656D01*
X115235Y358958D01*
X115137Y358209D01*
Y357028D01*
X115235Y356278D01*
X115525Y355580D01*
X115831Y355181D01*
X115584Y354681D01*
X114374D01*
Y351106D01*
Y348547D01*
Y345988D01*
Y343429D01*
Y343157D01*
X118032D01*
X121689D01*
Y343429D01*
Y346246D01*
X131591D01*
X153919Y323919D01*
X154415Y323587D01*
X155000Y323471D01*
X182500D01*
X183085Y323587D01*
X183581Y323919D01*
X191500Y331837D01*
X196493D01*
X196585Y331775D01*
X197244Y331644D01*
X205315D01*
X205974Y331775D01*
X206533Y332149D01*
X206906Y332707D01*
X207037Y333366D01*
X206906Y334025D01*
X206533Y334584D01*
Y334707D01*
X206906Y335266D01*
X207037Y335925D01*
X206932Y336455D01*
X207214Y336955D01*
X211639D01*
X211830Y336493D01*
X211419Y336081D01*
X211087Y335585D01*
X210971Y335000D01*
Y328134D01*
X201867Y319029D01*
X190000D01*
X189415Y318913D01*
X188919Y318581D01*
X178919Y308581D01*
X178587Y308085D01*
X178471Y307500D01*
Y306059D01*
X177228D01*
Y298941D01*
X182772D01*
Y300971D01*
X195418D01*
X195772Y300617D01*
X195772Y300122D01*
X195772Y299622D01*
Y295378D01*
X195772Y295122D01*
X195772Y294622D01*
Y290378D01*
X195772Y290122D01*
X195772Y289622D01*
Y288000D01*
X201890D01*
X208008D01*
Y289622D01*
X208008Y289878D01*
X208008Y290378D01*
Y294622D01*
X208008Y294878D01*
X208008Y295378D01*
Y299622D01*
X208008Y299878D01*
X208008Y300378D01*
Y304622D01*
X208008Y304878D01*
X208008Y305378D01*
Y309878D01*
X195772D01*
Y305378D01*
X195772Y305122D01*
X195772Y304622D01*
Y304029D01*
X182772D01*
Y306059D01*
X181529D01*
Y306867D01*
X190633Y315971D01*
X202500D01*
X203085Y316087D01*
X203581Y316419D01*
X213581Y326419D01*
X213913Y326915D01*
X214029Y327500D01*
Y334366D01*
X215634Y335971D01*
X218941D01*
Y334728D01*
X226059D01*
Y335971D01*
X249366D01*
X262860Y322477D01*
Y311354D01*
X261264D01*
X261126Y311354D01*
X260764D01*
X260626Y311354D01*
X254236D01*
Y309029D01*
X244228D01*
Y309878D01*
X239640D01*
Y312477D01*
X244583Y317420D01*
X244658Y317400D01*
X245342D01*
X246004Y317577D01*
X246596Y317919D01*
X247080Y318404D01*
X247423Y318996D01*
X247600Y319658D01*
Y320342D01*
X247423Y321004D01*
X247080Y321596D01*
X246596Y322080D01*
X246004Y322423D01*
X245342Y322600D01*
X244658D01*
X243996Y322423D01*
X243404Y322080D01*
X242919Y321596D01*
X242577Y321004D01*
X242400Y320342D01*
Y319658D01*
X242420Y319583D01*
X237029Y314192D01*
X236697Y313696D01*
X236581Y313110D01*
Y309878D01*
X231992D01*
Y305378D01*
X231992Y305122D01*
X231992Y304622D01*
Y300378D01*
X231992Y300122D01*
X231992Y299622D01*
Y299029D01*
X230000D01*
X229415Y298913D01*
X228919Y298581D01*
X223919Y293581D01*
X223587Y293085D01*
X223471Y292500D01*
Y270634D01*
X207617Y254780D01*
X203488D01*
X203369Y255378D01*
X202872Y256123D01*
X202128Y256620D01*
X201250Y256795D01*
X183750D01*
X182872Y256620D01*
X182128Y256123D01*
X181631Y255378D01*
X181511Y254780D01*
X178250D01*
X177665Y254663D01*
X177169Y254332D01*
X163919Y241082D01*
X163587Y240586D01*
X163471Y240000D01*
Y180000D01*
X163587Y179415D01*
X163919Y178919D01*
X177169Y165669D01*
X177665Y165337D01*
X178250Y165221D01*
X181511D01*
X181631Y164622D01*
X182128Y163878D01*
X182872Y163381D01*
X183750Y163206D01*
X201250D01*
X202128Y163381D01*
X202872Y163878D01*
X203369Y164622D01*
X203544Y165500D01*
Y168000D01*
X203369Y168878D01*
X202872Y169623D01*
X202128Y170120D01*
X201250Y170294D01*
X183750D01*
X182872Y170120D01*
X182128Y169623D01*
X181631Y168878D01*
X181511Y168280D01*
X178884D01*
X166529Y180634D01*
Y239367D01*
X178884Y251721D01*
X181511D01*
X181631Y251122D01*
X182128Y250378D01*
X182872Y249881D01*
X183750Y249706D01*
X201250D01*
X202128Y249881D01*
X202872Y250378D01*
X203369Y251122D01*
X203488Y251721D01*
X208250D01*
X208836Y251837D01*
X209332Y252169D01*
X226081Y268919D01*
X226413Y269415D01*
X226529Y270000D01*
Y291866D01*
X230633Y295971D01*
X231639D01*
X231992Y295617D01*
X231992Y295122D01*
X231992Y294622D01*
Y293000D01*
X238110D01*
X244228D01*
Y294622D01*
X244228Y294878D01*
X244228Y295378D01*
Y299622D01*
X244228Y299878D01*
X244228Y300378D01*
Y300971D01*
X246866D01*
X248471Y299366D01*
Y295000D01*
X248587Y294415D01*
X248919Y293919D01*
X251419Y291419D01*
X251915Y291087D01*
X252500Y290971D01*
X254236D01*
Y288646D01*
X255971D01*
Y280000D01*
X256087Y279415D01*
X256419Y278919D01*
X257420Y277917D01*
X257400Y277842D01*
Y277158D01*
X257577Y276496D01*
X257920Y275904D01*
X258404Y275419D01*
X258996Y275077D01*
X259658Y274900D01*
X260342D01*
X261004Y275077D01*
X261596Y275419D01*
X262081Y275904D01*
X262423Y276496D01*
X262600Y277158D01*
Y277842D01*
X262423Y278504D01*
X262081Y279096D01*
X261596Y279580D01*
X261004Y279923D01*
X260342Y280100D01*
X259658D01*
X259583Y280080D01*
X259029Y280633D01*
Y288646D01*
X260626D01*
X260764Y288646D01*
X261126D01*
X261264Y288646D01*
X267654D01*
Y296354D01*
X265919D01*
Y303646D01*
X267654D01*
Y311354D01*
X265919D01*
Y323110D01*
X265803Y323695D01*
X265471Y324192D01*
X251081Y338581D01*
X250585Y338913D01*
X250000Y339029D01*
X226059D01*
Y340272D01*
X218941D01*
Y339029D01*
X215634D01*
X215097Y339566D01*
X214601Y339897D01*
X214016Y340014D01*
X207214D01*
X206932Y340514D01*
X206938Y340543D01*
X201280D01*
X195622D01*
X195653Y340384D01*
X196027Y339826D01*
Y339702D01*
X195653Y339143D01*
X195522Y338484D01*
X195627Y337955D01*
X195345Y337455D01*
X188425D01*
X187840Y337338D01*
X187344Y337007D01*
X179367Y329029D01*
X158133D01*
X135747Y351416D01*
X135251Y351748D01*
X134665Y351864D01*
X124680D01*
X124489Y352326D01*
X128133Y355971D01*
X130800D01*
Y353200D01*
X144200D01*
Y361800D01*
D02*
G37*
G36*
X683000Y352558D02*
Y350500D01*
X685058D01*
X684923Y351004D01*
X684581Y351596D01*
X684096Y352080D01*
X683504Y352423D01*
X683000Y352558D01*
D02*
G37*
G36*
X682000D02*
X681496Y352423D01*
X680904Y352080D01*
X680419Y351596D01*
X680077Y351004D01*
X679942Y350500D01*
X682000D01*
Y352558D01*
D02*
G37*
G36*
X660500D02*
Y350500D01*
X662558D01*
X662423Y351004D01*
X662080Y351596D01*
X661596Y352080D01*
X661004Y352423D01*
X660500Y352558D01*
D02*
G37*
G36*
X659500D02*
X658996Y352423D01*
X658404Y352080D01*
X657920Y351596D01*
X657577Y351004D01*
X657442Y350500D01*
X659500D01*
Y352558D01*
D02*
G37*
G36*
X343000D02*
Y350500D01*
X345058D01*
X344923Y351004D01*
X344581Y351596D01*
X344096Y352080D01*
X343504Y352423D01*
X343000Y352558D01*
D02*
G37*
G36*
X342000D02*
X341496Y352423D01*
X340904Y352080D01*
X340420Y351596D01*
X340077Y351004D01*
X339942Y350500D01*
X342000D01*
Y352558D01*
D02*
G37*
G36*
X318000D02*
Y350500D01*
X320058D01*
X319923Y351004D01*
X319581Y351596D01*
X319096Y352080D01*
X318504Y352423D01*
X318000Y352558D01*
D02*
G37*
G36*
X317000D02*
X316496Y352423D01*
X315904Y352080D01*
X315420Y351596D01*
X315077Y351004D01*
X314942Y350500D01*
X317000D01*
Y352558D01*
D02*
G37*
G36*
X629000Y353634D02*
X625500D01*
Y350134D01*
X625527D01*
X626544Y350406D01*
X627456Y350933D01*
X628201Y351678D01*
X628727Y352590D01*
X629000Y353607D01*
Y353634D01*
D02*
G37*
G36*
X624500D02*
X621000D01*
Y353607D01*
X621273Y352590D01*
X621799Y351678D01*
X622544Y350933D01*
X623456Y350406D01*
X624473Y350134D01*
X624500D01*
Y353634D01*
D02*
G37*
G36*
X615527Y358134D02*
X614473D01*
X613456Y357861D01*
X612544Y357335D01*
X611799Y356590D01*
X611273Y355678D01*
X611000Y354661D01*
Y353607D01*
X611273Y352590D01*
X611799Y351678D01*
X612544Y350933D01*
X613456Y350406D01*
X614473Y350134D01*
X615527D01*
X616544Y350406D01*
X617456Y350933D01*
X618201Y351678D01*
X618727Y352590D01*
X619000Y353607D01*
Y354661D01*
X618727Y355678D01*
X618201Y356590D01*
X617456Y357335D01*
X616544Y357861D01*
X615527Y358134D01*
D02*
G37*
G36*
X605527D02*
X604473D01*
X603456Y357861D01*
X602544Y357335D01*
X601799Y356590D01*
X601273Y355678D01*
X601000Y354661D01*
Y353607D01*
X601273Y352590D01*
X601799Y351678D01*
X602544Y350933D01*
X603456Y350406D01*
X604473Y350134D01*
X605527D01*
X606544Y350406D01*
X607456Y350933D01*
X608201Y351678D01*
X608727Y352590D01*
X609000Y353607D01*
Y354661D01*
X608727Y355678D01*
X608201Y356590D01*
X607456Y357335D01*
X606544Y357861D01*
X605527Y358134D01*
D02*
G37*
G36*
X595527D02*
X594473D01*
X593456Y357861D01*
X592544Y357335D01*
X591799Y356590D01*
X591273Y355678D01*
X591000Y354661D01*
Y353607D01*
X591273Y352590D01*
X591799Y351678D01*
X592544Y350933D01*
X593456Y350406D01*
X594473Y350134D01*
X595527D01*
X596544Y350406D01*
X597456Y350933D01*
X598201Y351678D01*
X598727Y352590D01*
X599000Y353607D01*
Y354661D01*
X598727Y355678D01*
X598201Y356590D01*
X597456Y357335D01*
X596544Y357861D01*
X595527Y358134D01*
D02*
G37*
G36*
X565527D02*
X564473D01*
X563456Y357861D01*
X562544Y357335D01*
X561799Y356590D01*
X561273Y355678D01*
X561000Y354661D01*
Y353607D01*
X561273Y352590D01*
X561799Y351678D01*
X562544Y350933D01*
X563456Y350406D01*
X564473Y350134D01*
X565527D01*
X566544Y350406D01*
X567456Y350933D01*
X568201Y351678D01*
X568727Y352590D01*
X569000Y353607D01*
Y354661D01*
X568727Y355678D01*
X568201Y356590D01*
X567456Y357335D01*
X566544Y357861D01*
X565527Y358134D01*
D02*
G37*
G36*
X555527D02*
X554473D01*
X553456Y357861D01*
X552544Y357335D01*
X551799Y356590D01*
X551273Y355678D01*
X551000Y354661D01*
Y353607D01*
X551273Y352590D01*
X551799Y351678D01*
X552544Y350933D01*
X553456Y350406D01*
X554473Y350134D01*
X555527D01*
X556544Y350406D01*
X557456Y350933D01*
X558201Y351678D01*
X558727Y352590D01*
X559000Y353607D01*
Y354661D01*
X558727Y355678D01*
X558201Y356590D01*
X557456Y357335D01*
X556544Y357861D01*
X555527Y358134D01*
D02*
G37*
G36*
X545527D02*
X544473D01*
X543456Y357861D01*
X542544Y357335D01*
X541799Y356590D01*
X541273Y355678D01*
X541000Y354661D01*
Y353607D01*
X541273Y352590D01*
X541799Y351678D01*
X542544Y350933D01*
X543456Y350406D01*
X544473Y350134D01*
X545527D01*
X546544Y350406D01*
X547456Y350933D01*
X548201Y351678D01*
X548727Y352590D01*
X549000Y353607D01*
Y354661D01*
X548727Y355678D01*
X548201Y356590D01*
X547456Y357335D01*
X546544Y357861D01*
X545527Y358134D01*
D02*
G37*
G36*
X535527D02*
X534473D01*
X533456Y357861D01*
X532544Y357335D01*
X531799Y356590D01*
X531273Y355678D01*
X531000Y354661D01*
Y353607D01*
X531273Y352590D01*
X531799Y351678D01*
X532544Y350933D01*
X533456Y350406D01*
X534473Y350134D01*
X535527D01*
X536544Y350406D01*
X537456Y350933D01*
X538201Y351678D01*
X538727Y352590D01*
X539000Y353607D01*
Y354661D01*
X538727Y355678D01*
X538201Y356590D01*
X537456Y357335D01*
X536544Y357861D01*
X535527Y358134D01*
D02*
G37*
G36*
X515527D02*
X514473D01*
X513456Y357861D01*
X512544Y357335D01*
X511799Y356590D01*
X511273Y355678D01*
X511000Y354661D01*
Y353607D01*
X511273Y352590D01*
X511482Y352227D01*
X473402Y314148D01*
X468539D01*
X468347Y314610D01*
X503999Y350261D01*
X504473Y350134D01*
X505527D01*
X506544Y350406D01*
X507456Y350933D01*
X508201Y351678D01*
X508727Y352590D01*
X509000Y353607D01*
Y354661D01*
X508727Y355678D01*
X508201Y356590D01*
X507456Y357335D01*
X506544Y357861D01*
X505527Y358134D01*
X504473D01*
X503456Y357861D01*
X502544Y357335D01*
X501799Y356590D01*
X501273Y355678D01*
X501000Y354661D01*
Y353607D01*
X501273Y352590D01*
X501540Y352128D01*
X466118Y316707D01*
X461255D01*
X461064Y317168D01*
X494123Y350228D01*
X494473Y350134D01*
X495527D01*
X496544Y350406D01*
X497456Y350933D01*
X498201Y351678D01*
X498727Y352590D01*
X499000Y353607D01*
Y354661D01*
X498727Y355678D01*
X498201Y356590D01*
X497456Y357335D01*
X496544Y357861D01*
X495527Y358134D01*
X494473D01*
X493456Y357861D01*
X492544Y357335D01*
X491799Y356590D01*
X491273Y355678D01*
X491000Y354661D01*
Y353607D01*
X491273Y352590D01*
X491597Y352028D01*
X458835Y319266D01*
X424582D01*
X424390Y319727D01*
X429583Y324920D01*
X429658Y324900D01*
X430342D01*
X431004Y325077D01*
X431596Y325419D01*
X432081Y325904D01*
X432423Y326496D01*
X432600Y327158D01*
Y327842D01*
X432423Y328504D01*
X432081Y329096D01*
X431596Y329580D01*
X431004Y329923D01*
X430342Y330100D01*
X429658D01*
X428996Y329923D01*
X428404Y329580D01*
X427919Y329096D01*
X427577Y328504D01*
X427400Y327842D01*
Y327158D01*
X427420Y327083D01*
X422162Y321825D01*
X412141D01*
X411949Y322287D01*
X414583Y324920D01*
X414658Y324900D01*
X415342D01*
X416004Y325077D01*
X416596Y325419D01*
X417080Y325904D01*
X417423Y326496D01*
X417600Y327158D01*
Y327842D01*
X417423Y328504D01*
X417080Y329096D01*
X416596Y329580D01*
X416004Y329923D01*
X415342Y330100D01*
X414658D01*
X413996Y329923D01*
X413404Y329580D01*
X412920Y329096D01*
X412577Y328504D01*
X412400Y327842D01*
Y327158D01*
X412420Y327083D01*
X409721Y324384D01*
X403350D01*
X403257Y324445D01*
X402598Y324576D01*
X397677D01*
X397018Y324445D01*
X396460Y324072D01*
X396086Y323513D01*
X395955Y322854D01*
X396086Y322195D01*
X396239Y321967D01*
X396429Y321575D01*
X396239Y321183D01*
X396086Y320954D01*
X395955Y320295D01*
X396086Y319636D01*
X396460Y319077D01*
Y318954D01*
X396086Y318395D01*
X395955Y317736D01*
X396086Y317077D01*
X396460Y316518D01*
Y316395D01*
X396086Y315836D01*
X395955Y315177D01*
X396086Y314518D01*
X396460Y313960D01*
Y313836D01*
X396086Y313277D01*
X395955Y312618D01*
X396060Y312088D01*
X395778Y311588D01*
X390059D01*
X389474Y311472D01*
X388978Y311140D01*
X383919Y306081D01*
X383587Y305585D01*
X383471Y305000D01*
Y285633D01*
X363767Y265929D01*
X323733D01*
X314029Y275634D01*
Y280000D01*
X313913Y280585D01*
X313581Y281081D01*
X308581Y286081D01*
X308085Y286413D01*
X307500Y286529D01*
X304645D01*
X304412Y287093D01*
X303747Y287960D01*
X302880Y288625D01*
X301871Y289043D01*
X300787Y289185D01*
X299213D01*
X298129Y289043D01*
X297120Y288625D01*
X296253Y287960D01*
X295588Y287093D01*
X295170Y286083D01*
X295027Y285000D01*
X295170Y283917D01*
X295588Y282907D01*
X296253Y282041D01*
X297120Y281375D01*
X298129Y280957D01*
X299213Y280815D01*
X300787D01*
X301871Y280957D01*
X302880Y281375D01*
X303747Y282041D01*
X304412Y282907D01*
X304645Y283471D01*
X306867D01*
X310971Y279366D01*
Y275000D01*
X311087Y274415D01*
X311419Y273919D01*
X322019Y263319D01*
X322515Y262987D01*
X323100Y262871D01*
X364400D01*
X364985Y262987D01*
X365481Y263319D01*
X385509Y283346D01*
X385971Y283154D01*
Y280633D01*
X364367Y259029D01*
X318133D01*
X304344Y272819D01*
X304412Y272907D01*
X304830Y273917D01*
X304973Y275000D01*
X304830Y276083D01*
X304412Y277093D01*
X303747Y277959D01*
X302880Y278625D01*
X301871Y279043D01*
X300787Y279185D01*
X299213D01*
X298129Y279043D01*
X297120Y278625D01*
X296253Y277959D01*
X295588Y277093D01*
X295170Y276083D01*
X295027Y275000D01*
X295170Y273917D01*
X295588Y272907D01*
X296253Y272041D01*
X297120Y271375D01*
X298129Y270957D01*
X299213Y270815D01*
X300787D01*
X301871Y270957D01*
X301877Y270960D01*
X316419Y256419D01*
X316915Y256087D01*
X317500Y255971D01*
X365000D01*
X365585Y256087D01*
X366081Y256419D01*
X388581Y278919D01*
X388913Y279415D01*
X389029Y280000D01*
Y301867D01*
X393133Y305971D01*
X395778D01*
X396060Y305471D01*
X396055Y305441D01*
X400138D01*
X404221D01*
X404189Y305600D01*
X403816Y306159D01*
Y306282D01*
X404189Y306841D01*
X404320Y307500D01*
X404189Y308159D01*
X403816Y308718D01*
Y308841D01*
X404189Y309400D01*
X404320Y310059D01*
X404215Y310589D01*
X404497Y311089D01*
X474036D01*
X474621Y311205D01*
X475117Y311537D01*
X513875Y350294D01*
X514473Y350134D01*
X515527D01*
X516544Y350406D01*
X517456Y350933D01*
X518201Y351678D01*
X518727Y352590D01*
X519000Y353607D01*
Y354661D01*
X518727Y355678D01*
X518201Y356590D01*
X517456Y357335D01*
X516544Y357861D01*
X515527Y358134D01*
D02*
G37*
G36*
X475527D02*
X474473D01*
X473456Y357861D01*
X472544Y357335D01*
X471799Y356590D01*
X471273Y355678D01*
X471000Y354661D01*
Y353607D01*
X471273Y352590D01*
X471799Y351678D01*
X472544Y350933D01*
X473456Y350406D01*
X474473Y350134D01*
X475527D01*
X476544Y350406D01*
X477456Y350933D01*
X478201Y351678D01*
X478727Y352590D01*
X479000Y353607D01*
Y354661D01*
X478727Y355678D01*
X478201Y356590D01*
X477456Y357335D01*
X476544Y357861D01*
X475527Y358134D01*
D02*
G37*
G36*
X274898Y351059D02*
X272626D01*
Y348000D01*
X274898D01*
Y351059D01*
D02*
G37*
G36*
X271626D02*
X269354D01*
Y348000D01*
X271626D01*
Y351059D01*
D02*
G37*
G36*
X685058Y349500D02*
X683000D01*
Y347442D01*
X683504Y347577D01*
X684096Y347920D01*
X684581Y348404D01*
X684923Y348996D01*
X685058Y349500D01*
D02*
G37*
G36*
X682000D02*
X679942D01*
X680077Y348996D01*
X680419Y348404D01*
X680904Y347920D01*
X681496Y347577D01*
X682000Y347442D01*
Y349500D01*
D02*
G37*
G36*
X662558D02*
X660500D01*
Y347442D01*
X661004Y347577D01*
X661596Y347920D01*
X662080Y348404D01*
X662423Y348996D01*
X662558Y349500D01*
D02*
G37*
G36*
X659500D02*
X657442D01*
X657577Y348996D01*
X657920Y348404D01*
X658404Y347920D01*
X658996Y347577D01*
X659500Y347442D01*
Y349500D01*
D02*
G37*
G36*
X345058D02*
X343000D01*
Y347442D01*
X343504Y347577D01*
X344096Y347920D01*
X344581Y348404D01*
X344923Y348996D01*
X345058Y349500D01*
D02*
G37*
G36*
X342000D02*
X339942D01*
X340077Y348996D01*
X340420Y348404D01*
X340904Y347920D01*
X341496Y347577D01*
X342000Y347442D01*
Y349500D01*
D02*
G37*
G36*
X320058D02*
X318000D01*
Y347442D01*
X318504Y347577D01*
X319096Y347920D01*
X319581Y348404D01*
X319923Y348996D01*
X320058Y349500D01*
D02*
G37*
G36*
X317000D02*
X314942D01*
X315077Y348996D01*
X315420Y348404D01*
X315904Y347920D01*
X316496Y347577D01*
X317000Y347442D01*
Y349500D01*
D02*
G37*
G36*
X375500Y347558D02*
Y345500D01*
X377558D01*
X377423Y346004D01*
X377080Y346596D01*
X376596Y347080D01*
X376004Y347423D01*
X375500Y347558D01*
D02*
G37*
G36*
X374500D02*
X373996Y347423D01*
X373404Y347080D01*
X372920Y346596D01*
X372577Y346004D01*
X372442Y345500D01*
X374500D01*
Y347558D01*
D02*
G37*
G36*
X330787Y349185D02*
X330500D01*
Y345500D01*
X334907D01*
X334830Y346083D01*
X334412Y347093D01*
X333747Y347959D01*
X332880Y348625D01*
X331871Y349043D01*
X330787Y349185D01*
D02*
G37*
G36*
X329500D02*
X329213D01*
X328129Y349043D01*
X327120Y348625D01*
X326253Y347959D01*
X325588Y347093D01*
X325170Y346083D01*
X325093Y345500D01*
X329500D01*
Y349185D01*
D02*
G37*
G36*
X235500Y347558D02*
Y345500D01*
X237558D01*
X237423Y346004D01*
X237081Y346596D01*
X236596Y347080D01*
X236004Y347423D01*
X235500Y347558D01*
D02*
G37*
G36*
X234500D02*
X233996Y347423D01*
X233404Y347080D01*
X232920Y346596D01*
X232577Y346004D01*
X232442Y345500D01*
X234500D01*
Y347558D01*
D02*
G37*
G36*
X274898Y347000D02*
X272626D01*
Y343941D01*
X274898D01*
Y347000D01*
D02*
G37*
G36*
X271626D02*
X269354D01*
Y343941D01*
X271626D01*
Y347000D01*
D02*
G37*
G36*
X353559Y345646D02*
X350500D01*
Y343374D01*
X353559D01*
Y345646D01*
D02*
G37*
G36*
X349500D02*
X346441D01*
Y343374D01*
X349500D01*
Y345646D01*
D02*
G37*
G36*
X188000Y345058D02*
Y343000D01*
X190058D01*
X189923Y343504D01*
X189581Y344096D01*
X189096Y344581D01*
X188504Y344923D01*
X188000Y345058D01*
D02*
G37*
G36*
X187000D02*
X186496Y344923D01*
X185904Y344581D01*
X185419Y344096D01*
X185077Y343504D01*
X184942Y343000D01*
X187000D01*
Y345058D01*
D02*
G37*
G36*
X377558Y344500D02*
X375500D01*
Y342442D01*
X376004Y342577D01*
X376596Y342919D01*
X377080Y343404D01*
X377423Y343996D01*
X377558Y344500D01*
D02*
G37*
G36*
X374500D02*
X372442D01*
X372577Y343996D01*
X372920Y343404D01*
X373404Y342919D01*
X373996Y342577D01*
X374500Y342442D01*
Y344500D01*
D02*
G37*
G36*
X237558D02*
X235500D01*
Y342442D01*
X236004Y342577D01*
X236596Y342919D01*
X237081Y343404D01*
X237423Y343996D01*
X237558Y344500D01*
D02*
G37*
G36*
X234500D02*
X232442D01*
X232577Y343996D01*
X232920Y343404D01*
X233404Y342919D01*
X233996Y342577D01*
X234500Y342442D01*
Y344500D01*
D02*
G37*
G36*
X334907D02*
X330500D01*
Y340815D01*
X330787D01*
X331871Y340957D01*
X332880Y341375D01*
X333747Y342040D01*
X334412Y342907D01*
X334830Y343917D01*
X334907Y344500D01*
D02*
G37*
G36*
X329500D02*
X325093D01*
X325170Y343917D01*
X325588Y342907D01*
X326253Y342040D01*
X327120Y341375D01*
X328129Y340957D01*
X329213Y340815D01*
X329500D01*
Y344500D01*
D02*
G37*
G36*
X258000Y342558D02*
Y340500D01*
X260058D01*
X259923Y341004D01*
X259580Y341596D01*
X259096Y342080D01*
X258504Y342423D01*
X258000Y342558D01*
D02*
G37*
G36*
X257000D02*
X256496Y342423D01*
X255904Y342080D01*
X255419Y341596D01*
X255077Y341004D01*
X254942Y340500D01*
X257000D01*
Y342558D01*
D02*
G37*
G36*
X353559Y342374D02*
X350500D01*
Y340102D01*
X353559D01*
Y342374D01*
D02*
G37*
G36*
X349500D02*
X346441D01*
Y340102D01*
X349500D01*
Y342374D01*
D02*
G37*
G36*
X190058Y342000D02*
X188000D01*
Y339942D01*
X188504Y340077D01*
X189096Y340420D01*
X189581Y340904D01*
X189923Y341496D01*
X190058Y342000D01*
D02*
G37*
G36*
X187000D02*
X184942D01*
X185077Y341496D01*
X185419Y340904D01*
X185904Y340420D01*
X186496Y340077D01*
X187000Y339942D01*
Y342000D01*
D02*
G37*
G36*
X112240Y357240D02*
X102760D01*
Y347760D01*
Y338311D01*
X112240D01*
Y347760D01*
Y357240D01*
D02*
G37*
G36*
X460500Y340058D02*
Y338000D01*
X462558D01*
X462423Y338504D01*
X462080Y339096D01*
X461596Y339580D01*
X461004Y339923D01*
X460500Y340058D01*
D02*
G37*
G36*
X459500D02*
X458996Y339923D01*
X458404Y339580D01*
X457920Y339096D01*
X457577Y338504D01*
X457442Y338000D01*
X459500D01*
Y340058D01*
D02*
G37*
G36*
X160500D02*
Y338000D01*
X162558D01*
X162423Y338504D01*
X162081Y339096D01*
X161596Y339580D01*
X161004Y339923D01*
X160500Y340058D01*
D02*
G37*
G36*
X159500D02*
X158996Y339923D01*
X158404Y339580D01*
X157920Y339096D01*
X157577Y338504D01*
X157442Y338000D01*
X159500D01*
Y340058D01*
D02*
G37*
G36*
X260058Y339500D02*
X258000D01*
Y337442D01*
X258504Y337577D01*
X259096Y337919D01*
X259580Y338404D01*
X259923Y338996D01*
X260058Y339500D01*
D02*
G37*
G36*
X257000D02*
X254942D01*
X255077Y338996D01*
X255419Y338404D01*
X255904Y337919D01*
X256496Y337577D01*
X257000Y337442D01*
Y339500D01*
D02*
G37*
G36*
X683000Y337558D02*
Y335500D01*
X685058D01*
X684923Y336004D01*
X684581Y336596D01*
X684096Y337081D01*
X683504Y337423D01*
X683000Y337558D01*
D02*
G37*
G36*
X682000D02*
X681496Y337423D01*
X680904Y337081D01*
X680419Y336596D01*
X680077Y336004D01*
X679942Y335500D01*
X682000D01*
Y337558D01*
D02*
G37*
G36*
X660500D02*
Y335500D01*
X662558D01*
X662423Y336004D01*
X662080Y336596D01*
X661596Y337081D01*
X661004Y337423D01*
X660500Y337558D01*
D02*
G37*
G36*
X659500D02*
X658996Y337423D01*
X658404Y337081D01*
X657920Y336596D01*
X657577Y336004D01*
X657442Y335500D01*
X659500D01*
Y337558D01*
D02*
G37*
G36*
X300787Y339185D02*
X300500D01*
Y335500D01*
X304907D01*
X304830Y336083D01*
X304412Y337093D01*
X303747Y337960D01*
X302880Y338625D01*
X301871Y339043D01*
X300787Y339185D01*
D02*
G37*
G36*
X299500D02*
X299213D01*
X298129Y339043D01*
X297120Y338625D01*
X296253Y337960D01*
X295588Y337093D01*
X295170Y336083D01*
X295093Y335500D01*
X299500D01*
Y339185D01*
D02*
G37*
G36*
X462558Y337000D02*
X460500D01*
Y334942D01*
X461004Y335077D01*
X461596Y335420D01*
X462080Y335904D01*
X462423Y336496D01*
X462558Y337000D01*
D02*
G37*
G36*
X459500D02*
X457442D01*
X457577Y336496D01*
X457920Y335904D01*
X458404Y335420D01*
X458996Y335077D01*
X459500Y334942D01*
Y337000D01*
D02*
G37*
G36*
X162558D02*
X160500D01*
Y334942D01*
X161004Y335077D01*
X161596Y335420D01*
X162081Y335904D01*
X162423Y336496D01*
X162558Y337000D01*
D02*
G37*
G36*
X159500D02*
X157442D01*
X157577Y336496D01*
X157920Y335904D01*
X158404Y335420D01*
X158996Y335077D01*
X159500Y334942D01*
Y337000D01*
D02*
G37*
G36*
X121689Y342157D02*
X118032D01*
X114374D01*
Y340870D01*
X115584D01*
X115831Y340370D01*
X115525Y339971D01*
X115235Y339273D01*
X115137Y338524D01*
Y337343D01*
X115235Y336593D01*
X115525Y335895D01*
X115985Y335296D01*
X116584Y334835D01*
X117282Y334546D01*
X118032Y334448D01*
X118781Y334546D01*
X119479Y334835D01*
X120079Y335296D01*
X120539Y335895D01*
X120828Y336593D01*
X120926Y337343D01*
Y338524D01*
X120828Y339273D01*
X120539Y339971D01*
X120232Y340370D01*
X120479Y340870D01*
X121689D01*
Y342157D01*
D02*
G37*
G36*
X390500Y335058D02*
Y333000D01*
X392558D01*
X392423Y333504D01*
X392080Y334096D01*
X391596Y334580D01*
X391004Y334923D01*
X390500Y335058D01*
D02*
G37*
G36*
X389500D02*
X388996Y334923D01*
X388404Y334580D01*
X387919Y334096D01*
X387577Y333504D01*
X387442Y333000D01*
X389500D01*
Y335058D01*
D02*
G37*
G36*
X274898Y336059D02*
X272626D01*
Y333000D01*
X274898D01*
Y336059D01*
D02*
G37*
G36*
X271626D02*
X269354D01*
Y333000D01*
X271626D01*
Y336059D01*
D02*
G37*
G36*
X685058Y334500D02*
X683000D01*
Y332442D01*
X683504Y332577D01*
X684096Y332920D01*
X684581Y333404D01*
X684923Y333996D01*
X685058Y334500D01*
D02*
G37*
G36*
X682000D02*
X679942D01*
X680077Y333996D01*
X680419Y333404D01*
X680904Y332920D01*
X681496Y332577D01*
X682000Y332442D01*
Y334500D01*
D02*
G37*
G36*
X662558D02*
X660500D01*
Y332442D01*
X661004Y332577D01*
X661596Y332920D01*
X662080Y333404D01*
X662423Y333996D01*
X662558Y334500D01*
D02*
G37*
G36*
X659500D02*
X657442D01*
X657577Y333996D01*
X657920Y333404D01*
X658404Y332920D01*
X658996Y332577D01*
X659500Y332442D01*
Y334500D01*
D02*
G37*
G36*
X330787Y339185D02*
X329213D01*
X328129Y339043D01*
X327120Y338625D01*
X326253Y337960D01*
X325588Y337093D01*
X325170Y336083D01*
X325027Y335000D01*
X325170Y333917D01*
X325588Y332907D01*
X326253Y332041D01*
X327120Y331375D01*
X328129Y330957D01*
X329213Y330815D01*
X330787D01*
X331871Y330957D01*
X332880Y331375D01*
X333747Y332041D01*
X334412Y332907D01*
X334645Y333471D01*
X346441D01*
Y332228D01*
X353559D01*
Y337772D01*
X346441D01*
Y336529D01*
X334645D01*
X334412Y337093D01*
X333747Y337960D01*
X332880Y338625D01*
X331871Y339043D01*
X330787Y339185D01*
D02*
G37*
G36*
X179378Y350780D02*
X173720D01*
X168062D01*
X168094Y350621D01*
X168467Y350062D01*
Y349938D01*
X168094Y349379D01*
X167963Y348720D01*
X168094Y348061D01*
X168467Y347503D01*
Y347379D01*
X168094Y346820D01*
X167963Y346161D01*
X168094Y345502D01*
X168467Y344944D01*
Y344820D01*
X168094Y344261D01*
X167963Y343602D01*
X168094Y342943D01*
X168467Y342385D01*
Y342261D01*
X168094Y341702D01*
X167963Y341043D01*
X168094Y340384D01*
X168467Y339826D01*
Y339702D01*
X168094Y339143D01*
X167963Y338484D01*
X168094Y337825D01*
X168467Y337266D01*
Y337143D01*
X168094Y336584D01*
X167963Y335925D01*
X168094Y335266D01*
X168467Y334707D01*
Y334584D01*
X168094Y334025D01*
X167963Y333366D01*
X168094Y332707D01*
X168467Y332149D01*
X169026Y331775D01*
X169685Y331644D01*
X177756D01*
X178415Y331775D01*
X178973Y332149D01*
X179347Y332707D01*
X179478Y333366D01*
X179347Y334025D01*
X178973Y334584D01*
Y334707D01*
X179347Y335266D01*
X179478Y335925D01*
X179347Y336584D01*
X178973Y337143D01*
Y337266D01*
X179347Y337825D01*
X179478Y338484D01*
X179347Y339143D01*
X178973Y339702D01*
Y339826D01*
X179347Y340384D01*
X179478Y341043D01*
X179347Y341702D01*
X178973Y342261D01*
Y342385D01*
X179347Y342943D01*
X179478Y343602D01*
X179347Y344261D01*
X178973Y344820D01*
Y344944D01*
X179347Y345502D01*
X179478Y346161D01*
X179347Y346820D01*
X178973Y347379D01*
Y347503D01*
X179347Y348061D01*
X179478Y348720D01*
X179347Y349379D01*
X178973Y349938D01*
Y350062D01*
X179347Y350621D01*
X179378Y350780D01*
D02*
G37*
G36*
X304907Y334500D02*
X300500D01*
Y330815D01*
X300787D01*
X301871Y330957D01*
X302880Y331375D01*
X303747Y332041D01*
X304412Y332907D01*
X304830Y333917D01*
X304907Y334500D01*
D02*
G37*
G36*
X299500D02*
X295093D01*
X295170Y333917D01*
X295588Y332907D01*
X296253Y332041D01*
X297120Y331375D01*
X298129Y330957D01*
X299213Y330815D01*
X299500D01*
Y334500D01*
D02*
G37*
G36*
X226059Y332398D02*
X223000D01*
Y330126D01*
X226059D01*
Y332398D01*
D02*
G37*
G36*
X222000D02*
X218941D01*
Y330126D01*
X222000D01*
Y332398D01*
D02*
G37*
G36*
X392558Y332000D02*
X390500D01*
Y329942D01*
X391004Y330077D01*
X391596Y330419D01*
X392080Y330904D01*
X392423Y331496D01*
X392558Y332000D01*
D02*
G37*
G36*
X389500D02*
X387442D01*
X387577Y331496D01*
X387919Y330904D01*
X388404Y330419D01*
X388996Y330077D01*
X389500Y329942D01*
Y332000D01*
D02*
G37*
G36*
X274898D02*
X272626D01*
Y328941D01*
X274898D01*
Y332000D01*
D02*
G37*
G36*
X271626D02*
X269354D01*
Y328941D01*
X271626D01*
Y332000D01*
D02*
G37*
G36*
X112240Y337358D02*
X102760D01*
Y328272D01*
X112240D01*
Y337358D01*
D02*
G37*
G36*
X505500Y330058D02*
Y328000D01*
X507558D01*
X507423Y328504D01*
X507081Y329096D01*
X506596Y329580D01*
X506004Y329923D01*
X505500Y330058D01*
D02*
G37*
G36*
X504500D02*
X503996Y329923D01*
X503404Y329580D01*
X502919Y329096D01*
X502577Y328504D01*
X502442Y328000D01*
X504500D01*
Y330058D01*
D02*
G37*
G36*
X450500D02*
Y328000D01*
X452558D01*
X452423Y328504D01*
X452080Y329096D01*
X451596Y329580D01*
X451004Y329923D01*
X450500Y330058D01*
D02*
G37*
G36*
X449500D02*
X448996Y329923D01*
X448404Y329580D01*
X447920Y329096D01*
X447577Y328504D01*
X447442Y328000D01*
X449500D01*
Y330058D01*
D02*
G37*
G36*
X226059Y329126D02*
X223000D01*
Y326854D01*
X226059D01*
Y329126D01*
D02*
G37*
G36*
X222000D02*
X218941D01*
Y326854D01*
X222000D01*
Y329126D01*
D02*
G37*
G36*
X350500Y327558D02*
Y325500D01*
X352558D01*
X352423Y326004D01*
X352080Y326596D01*
X351596Y327080D01*
X351004Y327423D01*
X350500Y327558D01*
D02*
G37*
G36*
X349500D02*
X348996Y327423D01*
X348404Y327080D01*
X347920Y326596D01*
X347577Y326004D01*
X347442Y325500D01*
X349500D01*
Y327558D01*
D02*
G37*
G36*
X198000D02*
Y325500D01*
X200058D01*
X199923Y326004D01*
X199581Y326596D01*
X199096Y327080D01*
X198504Y327423D01*
X198000Y327558D01*
D02*
G37*
G36*
X197000D02*
X196496Y327423D01*
X195904Y327080D01*
X195420Y326596D01*
X195077Y326004D01*
X194942Y325500D01*
X197000D01*
Y327558D01*
D02*
G37*
G36*
X507558Y327000D02*
X505500D01*
Y324942D01*
X506004Y325077D01*
X506596Y325419D01*
X507081Y325904D01*
X507423Y326496D01*
X507558Y327000D01*
D02*
G37*
G36*
X504500D02*
X502442D01*
X502577Y326496D01*
X502919Y325904D01*
X503404Y325419D01*
X503996Y325077D01*
X504500Y324942D01*
Y327000D01*
D02*
G37*
G36*
X452558D02*
X450500D01*
Y324942D01*
X451004Y325077D01*
X451596Y325419D01*
X452080Y325904D01*
X452423Y326496D01*
X452558Y327000D01*
D02*
G37*
G36*
X449500D02*
X447442D01*
X447577Y326496D01*
X447920Y325904D01*
X448404Y325419D01*
X448996Y325077D01*
X449500Y324942D01*
Y327000D01*
D02*
G37*
G36*
X545500Y325058D02*
Y323000D01*
X547558D01*
X547423Y323504D01*
X547081Y324096D01*
X546596Y324581D01*
X546004Y324923D01*
X545500Y325058D01*
D02*
G37*
G36*
X544500D02*
X543996Y324923D01*
X543404Y324581D01*
X542919Y324096D01*
X542577Y323504D01*
X542442Y323000D01*
X544500D01*
Y325058D01*
D02*
G37*
G36*
X233000D02*
Y323000D01*
X235058D01*
X234923Y323504D01*
X234580Y324096D01*
X234096Y324581D01*
X233504Y324923D01*
X233000Y325058D01*
D02*
G37*
G36*
X232000D02*
X231496Y324923D01*
X230904Y324581D01*
X230419Y324096D01*
X230077Y323504D01*
X229942Y323000D01*
X232000D01*
Y325058D01*
D02*
G37*
G36*
X352558Y324500D02*
X350500D01*
Y322442D01*
X351004Y322577D01*
X351596Y322920D01*
X352080Y323404D01*
X352423Y323996D01*
X352558Y324500D01*
D02*
G37*
G36*
X349500D02*
X347442D01*
X347577Y323996D01*
X347920Y323404D01*
X348404Y322920D01*
X348996Y322577D01*
X349500Y322442D01*
Y324500D01*
D02*
G37*
G36*
X200058D02*
X198000D01*
Y322442D01*
X198504Y322577D01*
X199096Y322920D01*
X199581Y323404D01*
X199923Y323996D01*
X200058Y324500D01*
D02*
G37*
G36*
X197000D02*
X194942D01*
X195077Y323996D01*
X195420Y323404D01*
X195904Y322920D01*
X196496Y322577D01*
X197000Y322442D01*
Y324500D01*
D02*
G37*
G36*
X300787Y329185D02*
X299213D01*
X298129Y329043D01*
X297120Y328625D01*
X296253Y327959D01*
X295588Y327093D01*
X295170Y326083D01*
X295027Y325000D01*
X295170Y323917D01*
X295588Y322907D01*
X296253Y322041D01*
X297120Y321375D01*
X298129Y320957D01*
X299213Y320815D01*
X300787D01*
X301871Y320957D01*
X302880Y321375D01*
X303747Y322041D01*
X304412Y322907D01*
X304830Y323917D01*
X304973Y325000D01*
X304830Y326083D01*
X304412Y327093D01*
X303747Y327959D01*
X302880Y328625D01*
X301871Y329043D01*
X300787Y329185D01*
D02*
G37*
G36*
X660500Y322558D02*
Y320500D01*
X662558D01*
X662423Y321004D01*
X662080Y321596D01*
X661596Y322080D01*
X661004Y322423D01*
X660500Y322558D01*
D02*
G37*
G36*
X659500D02*
X658996Y322423D01*
X658404Y322080D01*
X657920Y321596D01*
X657577Y321004D01*
X657442Y320500D01*
X659500D01*
Y322558D01*
D02*
G37*
G36*
X280500D02*
Y320500D01*
X282558D01*
X282423Y321004D01*
X282081Y321596D01*
X281596Y322080D01*
X281004Y322423D01*
X280500Y322558D01*
D02*
G37*
G36*
X279500D02*
X278996Y322423D01*
X278404Y322080D01*
X277920Y321596D01*
X277577Y321004D01*
X277442Y320500D01*
X279500D01*
Y322558D01*
D02*
G37*
G36*
X547558Y322000D02*
X545500D01*
Y319942D01*
X546004Y320077D01*
X546596Y320420D01*
X547081Y320904D01*
X547423Y321496D01*
X547558Y322000D01*
D02*
G37*
G36*
X544500D02*
X542442D01*
X542577Y321496D01*
X542919Y320904D01*
X543404Y320420D01*
X543996Y320077D01*
X544500Y319942D01*
Y322000D01*
D02*
G37*
G36*
X235058D02*
X233000D01*
Y319942D01*
X233504Y320077D01*
X234096Y320420D01*
X234580Y320904D01*
X234923Y321496D01*
X235058Y322000D01*
D02*
G37*
G36*
X232000D02*
X229942D01*
X230077Y321496D01*
X230419Y320904D01*
X230904Y320420D01*
X231496Y320077D01*
X232000Y319942D01*
Y322000D01*
D02*
G37*
G36*
X683000Y320058D02*
Y318000D01*
X685058D01*
X684923Y318504D01*
X684581Y319096D01*
X684096Y319581D01*
X683504Y319923D01*
X683000Y320058D01*
D02*
G37*
G36*
X682000D02*
X681496Y319923D01*
X680904Y319581D01*
X680419Y319096D01*
X680077Y318504D01*
X679942Y318000D01*
X682000D01*
Y320058D01*
D02*
G37*
G36*
X220500D02*
Y318000D01*
X222558D01*
X222423Y318504D01*
X222080Y319096D01*
X221596Y319581D01*
X221004Y319923D01*
X220500Y320058D01*
D02*
G37*
G36*
X219500D02*
X218996Y319923D01*
X218404Y319581D01*
X217919Y319096D01*
X217577Y318504D01*
X217442Y318000D01*
X219500D01*
Y320058D01*
D02*
G37*
G36*
X662558Y319500D02*
X660500D01*
Y317442D01*
X661004Y317577D01*
X661596Y317919D01*
X662080Y318404D01*
X662423Y318996D01*
X662558Y319500D01*
D02*
G37*
G36*
X659500D02*
X657442D01*
X657577Y318996D01*
X657920Y318404D01*
X658404Y317919D01*
X658996Y317577D01*
X659500Y317442D01*
Y319500D01*
D02*
G37*
G36*
X282558D02*
X280500D01*
Y317442D01*
X281004Y317577D01*
X281596Y317919D01*
X282081Y318404D01*
X282423Y318996D01*
X282558Y319500D01*
D02*
G37*
G36*
X279500D02*
X277442D01*
X277577Y318996D01*
X277920Y318404D01*
X278404Y317919D01*
X278996Y317577D01*
X279500Y317442D01*
Y319500D01*
D02*
G37*
G36*
X315500Y317558D02*
Y315500D01*
X317558D01*
X317423Y316004D01*
X317080Y316596D01*
X316596Y317080D01*
X316004Y317423D01*
X315500Y317558D01*
D02*
G37*
G36*
X314500D02*
X313996Y317423D01*
X313404Y317080D01*
X312919Y316596D01*
X312577Y316004D01*
X312442Y315500D01*
X314500D01*
Y317558D01*
D02*
G37*
G36*
X173000D02*
Y315500D01*
X175058D01*
X174923Y316004D01*
X174581Y316596D01*
X174096Y317080D01*
X173504Y317423D01*
X173000Y317558D01*
D02*
G37*
G36*
X172000D02*
X171496Y317423D01*
X170904Y317080D01*
X170420Y316596D01*
X170077Y316004D01*
X169942Y315500D01*
X172000D01*
Y317558D01*
D02*
G37*
G36*
X222558Y317000D02*
X220500D01*
Y314942D01*
X221004Y315077D01*
X221596Y315420D01*
X222080Y315904D01*
X222423Y316496D01*
X222558Y317000D01*
D02*
G37*
G36*
X219500D02*
X217442D01*
X217577Y316496D01*
X217919Y315904D01*
X218404Y315420D01*
X218996Y315077D01*
X219500Y314942D01*
Y317000D01*
D02*
G37*
G36*
X685058D02*
X683000D01*
Y314942D01*
X683504Y315077D01*
X684096Y315420D01*
X684581Y315904D01*
X684923Y316496D01*
X685058Y317000D01*
D02*
G37*
G36*
X682000D02*
X679942D01*
X680077Y316496D01*
X680419Y315904D01*
X680904Y315420D01*
X681496Y315077D01*
X682000Y314942D01*
Y317000D01*
D02*
G37*
G36*
X585527Y358134D02*
X584473D01*
X583456Y357861D01*
X582544Y357335D01*
X581799Y356590D01*
X581273Y355678D01*
X581000Y354661D01*
Y353607D01*
X581273Y352590D01*
X581799Y351678D01*
X582544Y350933D01*
X583456Y350406D01*
X583471Y350403D01*
Y303134D01*
X579130Y298793D01*
X564109D01*
X563918Y299255D01*
X579583Y314920D01*
X579658Y314900D01*
X580342D01*
X581004Y315077D01*
X581596Y315420D01*
X582081Y315904D01*
X582423Y316496D01*
X582600Y317158D01*
Y317842D01*
X582423Y318504D01*
X582081Y319096D01*
X581596Y319581D01*
X581004Y319923D01*
X580342Y320100D01*
X579658D01*
X578996Y319923D01*
X578404Y319581D01*
X577919Y319096D01*
X577577Y318504D01*
X577400Y317842D01*
Y317158D01*
X577420Y317083D01*
X561689Y301352D01*
X404497D01*
X404215Y301852D01*
X404320Y302382D01*
X404189Y303041D01*
X404037Y303269D01*
X403846Y303661D01*
X404037Y304053D01*
X404189Y304282D01*
X404221Y304441D01*
X400138D01*
X396055D01*
X396060Y304411D01*
X395778Y303911D01*
X394882D01*
X394297Y303795D01*
X393800Y303463D01*
X391419Y301081D01*
X391087Y300585D01*
X390971Y300000D01*
Y278134D01*
X366866Y254029D01*
X308134D01*
X291529Y270634D01*
Y299366D01*
X295101Y302939D01*
X295670Y302800D01*
X296253Y302041D01*
X297120Y301375D01*
X298129Y300957D01*
X299213Y300815D01*
X300787D01*
X301871Y300957D01*
X302880Y301375D01*
X303747Y302041D01*
X304412Y302907D01*
X304830Y303917D01*
X304973Y305000D01*
X304830Y306083D01*
X304412Y307093D01*
X303747Y307960D01*
X302880Y308625D01*
X301871Y309043D01*
X300787Y309185D01*
X299213D01*
X298129Y309043D01*
X297120Y308625D01*
X296253Y307960D01*
X295588Y307093D01*
X295355Y306529D01*
X295000D01*
X294415Y306413D01*
X293919Y306081D01*
X288919Y301081D01*
X288587Y300585D01*
X288471Y300000D01*
Y270000D01*
X288587Y269415D01*
X288919Y268919D01*
X306419Y251419D01*
X306915Y251087D01*
X307500Y250971D01*
X367500D01*
X368085Y251087D01*
X368581Y251419D01*
X393581Y276419D01*
X393913Y276915D01*
X394029Y277500D01*
Y299366D01*
X395335Y300672D01*
X395693Y300634D01*
X396022Y300160D01*
X395955Y299823D01*
X396086Y299164D01*
X396460Y298605D01*
Y298481D01*
X396086Y297923D01*
X395955Y297264D01*
X396086Y296605D01*
X396460Y296046D01*
Y295922D01*
X396086Y295364D01*
X395955Y294705D01*
X396086Y294046D01*
X396239Y293817D01*
X396429Y293425D01*
X396239Y293033D01*
X396086Y292805D01*
X395955Y292146D01*
X396086Y291487D01*
X396460Y290928D01*
Y290804D01*
X396086Y290246D01*
X395955Y289587D01*
X396086Y288928D01*
X396460Y288369D01*
X397018Y287996D01*
X397677Y287864D01*
X402598D01*
X403257Y287996D01*
X403816Y288369D01*
X404189Y288928D01*
X404320Y289587D01*
X404215Y290116D01*
X404497Y290616D01*
X429721D01*
X436418Y283919D01*
X436915Y283587D01*
X437500Y283471D01*
X535381D01*
X535420Y283404D01*
X535904Y282920D01*
X536496Y282577D01*
X537158Y282400D01*
X537842D01*
X538504Y282577D01*
X539096Y282920D01*
X539580Y283404D01*
X539923Y283996D01*
X540100Y284658D01*
Y285342D01*
X539923Y286004D01*
X539580Y286596D01*
X539096Y287081D01*
X538504Y287423D01*
X537842Y287600D01*
X537158D01*
X536496Y287423D01*
X535904Y287081D01*
X535420Y286596D01*
X535381Y286529D01*
X438133D01*
X431949Y292713D01*
X432141Y293175D01*
X552162D01*
X557420Y287917D01*
X557400Y287842D01*
Y287158D01*
X557577Y286496D01*
X557920Y285904D01*
X558404Y285420D01*
X558996Y285077D01*
X559658Y284900D01*
X560342D01*
X561004Y285077D01*
X561596Y285420D01*
X562080Y285904D01*
X562423Y286496D01*
X562600Y287158D01*
Y287842D01*
X562423Y288504D01*
X562080Y289096D01*
X561596Y289580D01*
X561004Y289923D01*
X560342Y290100D01*
X559658D01*
X559583Y290080D01*
X554390Y295272D01*
X554582Y295734D01*
X579764D01*
X580349Y295851D01*
X580845Y296182D01*
X586082Y301419D01*
X586413Y301915D01*
X586529Y302500D01*
Y350403D01*
X586544Y350406D01*
X587456Y350933D01*
X588201Y351678D01*
X588727Y352590D01*
X589000Y353607D01*
Y354661D01*
X588727Y355678D01*
X588201Y356590D01*
X587456Y357335D01*
X586544Y357861D01*
X585527Y358134D01*
D02*
G37*
G36*
X317558Y314500D02*
X315500D01*
Y312442D01*
X316004Y312577D01*
X316596Y312919D01*
X317080Y313404D01*
X317423Y313996D01*
X317558Y314500D01*
D02*
G37*
G36*
X314500D02*
X312442D01*
X312577Y313996D01*
X312919Y313404D01*
X313404Y312919D01*
X313996Y312577D01*
X314500Y312442D01*
Y314500D01*
D02*
G37*
G36*
X175058D02*
X173000D01*
Y312442D01*
X173504Y312577D01*
X174096Y312919D01*
X174581Y313404D01*
X174923Y313996D01*
X175058Y314500D01*
D02*
G37*
G36*
X172000D02*
X169942D01*
X170077Y313996D01*
X170420Y313404D01*
X170904Y312919D01*
X171496Y312577D01*
X172000Y312442D01*
Y314500D01*
D02*
G37*
G36*
X330787Y319185D02*
X329213D01*
X328129Y319043D01*
X327120Y318625D01*
X326253Y317959D01*
X325588Y317093D01*
X325170Y316083D01*
X325027Y315000D01*
X325170Y313917D01*
X325588Y312907D01*
X326253Y312040D01*
X327120Y311375D01*
X328129Y310957D01*
X329213Y310815D01*
X330787D01*
X331871Y310957D01*
X332880Y311375D01*
X333747Y312040D01*
X334412Y312907D01*
X334830Y313917D01*
X334973Y315000D01*
X334830Y316083D01*
X334412Y317093D01*
X333747Y317959D01*
X332880Y318625D01*
X331871Y319043D01*
X330787Y319185D01*
D02*
G37*
G36*
X300787D02*
X299213D01*
X298129Y319043D01*
X297120Y318625D01*
X296253Y317959D01*
X295588Y317093D01*
X295170Y316083D01*
X295027Y315000D01*
X295170Y313917D01*
X295588Y312907D01*
X296253Y312040D01*
X297120Y311375D01*
X298129Y310957D01*
X299213Y310815D01*
X300787D01*
X301871Y310957D01*
X302880Y311375D01*
X303747Y312040D01*
X304412Y312907D01*
X304830Y313917D01*
X304973Y315000D01*
X304830Y316083D01*
X304412Y317093D01*
X303747Y317959D01*
X302880Y318625D01*
X301871Y319043D01*
X300787Y319185D01*
D02*
G37*
G36*
X505500Y310058D02*
Y308000D01*
X507558D01*
X507423Y308504D01*
X507081Y309096D01*
X506596Y309580D01*
X506004Y309923D01*
X505500Y310058D01*
D02*
G37*
G36*
X504500D02*
X503996Y309923D01*
X503404Y309580D01*
X502919Y309096D01*
X502577Y308504D01*
X502442Y308000D01*
X504500D01*
Y310058D01*
D02*
G37*
G36*
X445500Y307558D02*
Y305500D01*
X447558D01*
X447423Y306004D01*
X447081Y306596D01*
X446596Y307081D01*
X446004Y307423D01*
X445500Y307558D01*
D02*
G37*
G36*
X444500D02*
X443996Y307423D01*
X443404Y307081D01*
X442919Y306596D01*
X442577Y306004D01*
X442442Y305500D01*
X444500D01*
Y307558D01*
D02*
G37*
G36*
X418000D02*
Y305500D01*
X420058D01*
X419923Y306004D01*
X419581Y306596D01*
X419096Y307081D01*
X418504Y307423D01*
X418000Y307558D01*
D02*
G37*
G36*
X417000D02*
X416496Y307423D01*
X415904Y307081D01*
X415419Y306596D01*
X415077Y306004D01*
X414942Y305500D01*
X417000D01*
Y307558D01*
D02*
G37*
G36*
X343000D02*
Y305500D01*
X345058D01*
X344923Y306004D01*
X344581Y306596D01*
X344096Y307081D01*
X343504Y307423D01*
X343000Y307558D01*
D02*
G37*
G36*
X342000D02*
X341496Y307423D01*
X340904Y307081D01*
X340420Y306596D01*
X340077Y306004D01*
X339942Y305500D01*
X342000D01*
Y307558D01*
D02*
G37*
G36*
X507558Y307000D02*
X505500D01*
Y304942D01*
X506004Y305077D01*
X506596Y305419D01*
X507081Y305904D01*
X507423Y306496D01*
X507558Y307000D01*
D02*
G37*
G36*
X504500D02*
X502442D01*
X502577Y306496D01*
X502919Y305904D01*
X503404Y305419D01*
X503996Y305077D01*
X504500Y304942D01*
Y307000D01*
D02*
G37*
G36*
X595500Y305058D02*
Y303000D01*
X597558D01*
X597423Y303504D01*
X597081Y304096D01*
X596596Y304580D01*
X596004Y304923D01*
X595500Y305058D01*
D02*
G37*
G36*
X594500D02*
X593996Y304923D01*
X593404Y304580D01*
X592919Y304096D01*
X592577Y303504D01*
X592442Y303000D01*
X594500D01*
Y305058D01*
D02*
G37*
G36*
X174898Y306059D02*
X172626D01*
Y303000D01*
X174898D01*
Y306059D01*
D02*
G37*
G36*
X171626D02*
X169354D01*
Y303000D01*
X171626D01*
Y306059D01*
D02*
G37*
G36*
X447558Y304500D02*
X445500D01*
Y302442D01*
X446004Y302577D01*
X446596Y302920D01*
X447081Y303404D01*
X447423Y303996D01*
X447558Y304500D01*
D02*
G37*
G36*
X444500D02*
X442442D01*
X442577Y303996D01*
X442919Y303404D01*
X443404Y302920D01*
X443996Y302577D01*
X444500Y302442D01*
Y304500D01*
D02*
G37*
G36*
X420058D02*
X418000D01*
Y302442D01*
X418504Y302577D01*
X419096Y302920D01*
X419581Y303404D01*
X419923Y303996D01*
X420058Y304500D01*
D02*
G37*
G36*
X417000D02*
X414942D01*
X415077Y303996D01*
X415419Y303404D01*
X415904Y302920D01*
X416496Y302577D01*
X417000Y302442D01*
Y304500D01*
D02*
G37*
G36*
X345058D02*
X343000D01*
Y302442D01*
X343504Y302577D01*
X344096Y302920D01*
X344581Y303404D01*
X344923Y303996D01*
X345058Y304500D01*
D02*
G37*
G36*
X342000D02*
X339942D01*
X340077Y303996D01*
X340420Y303404D01*
X340904Y302920D01*
X341496Y302577D01*
X342000Y302442D01*
Y304500D01*
D02*
G37*
G36*
X330787Y309185D02*
X329213D01*
X328129Y309043D01*
X327120Y308625D01*
X326253Y307960D01*
X325588Y307093D01*
X325170Y306083D01*
X325027Y305000D01*
X325170Y303917D01*
X325588Y302907D01*
X326253Y302041D01*
X327120Y301375D01*
X328129Y300957D01*
X329213Y300815D01*
X330787D01*
X331871Y300957D01*
X332880Y301375D01*
X333747Y302041D01*
X334412Y302907D01*
X334830Y303917D01*
X334973Y305000D01*
X334830Y306083D01*
X334412Y307093D01*
X333747Y307960D01*
X332880Y308625D01*
X331871Y309043D01*
X330787Y309185D01*
D02*
G37*
G36*
X315500Y302558D02*
Y300500D01*
X317558D01*
X317423Y301004D01*
X317080Y301596D01*
X316596Y302080D01*
X316004Y302423D01*
X315500Y302558D01*
D02*
G37*
G36*
X314500D02*
X313996Y302423D01*
X313404Y302080D01*
X312919Y301596D01*
X312577Y301004D01*
X312442Y300500D01*
X314500D01*
Y302558D01*
D02*
G37*
G36*
X148000D02*
Y300500D01*
X150058D01*
X149923Y301004D01*
X149581Y301596D01*
X149096Y302080D01*
X148504Y302423D01*
X148000Y302558D01*
D02*
G37*
G36*
X147000D02*
X146496Y302423D01*
X145904Y302080D01*
X145420Y301596D01*
X145077Y301004D01*
X144942Y300500D01*
X147000D01*
Y302558D01*
D02*
G37*
G36*
X363559Y302398D02*
X360500D01*
Y300126D01*
X363559D01*
Y302398D01*
D02*
G37*
G36*
X359500D02*
X356441D01*
Y300126D01*
X359500D01*
Y302398D01*
D02*
G37*
G36*
X597558Y302000D02*
X595500D01*
Y299942D01*
X596004Y300077D01*
X596596Y300419D01*
X597081Y300904D01*
X597423Y301496D01*
X597558Y302000D01*
D02*
G37*
G36*
X594500D02*
X592442D01*
X592577Y301496D01*
X592919Y300904D01*
X593404Y300419D01*
X593996Y300077D01*
X594500Y299942D01*
Y302000D01*
D02*
G37*
G36*
X174898D02*
X172626D01*
Y298941D01*
X174898D01*
Y302000D01*
D02*
G37*
G36*
X171626D02*
X169354D01*
Y298941D01*
X171626D01*
Y302000D01*
D02*
G37*
G36*
X317558Y299500D02*
X315500D01*
Y297442D01*
X316004Y297577D01*
X316596Y297920D01*
X317080Y298404D01*
X317423Y298996D01*
X317558Y299500D01*
D02*
G37*
G36*
X314500D02*
X312442D01*
X312577Y298996D01*
X312919Y298404D01*
X313404Y297920D01*
X313996Y297577D01*
X314500Y297442D01*
Y299500D01*
D02*
G37*
G36*
X150058D02*
X148000D01*
Y297442D01*
X148504Y297577D01*
X149096Y297920D01*
X149581Y298404D01*
X149923Y298996D01*
X150058Y299500D01*
D02*
G37*
G36*
X147000D02*
X144942D01*
X145077Y298996D01*
X145420Y298404D01*
X145904Y297920D01*
X146496Y297577D01*
X147000Y297442D01*
Y299500D01*
D02*
G37*
G36*
X363559Y299126D02*
X360500D01*
Y296854D01*
X363559D01*
Y299126D01*
D02*
G37*
G36*
X359500D02*
X356441D01*
Y296854D01*
X359500D01*
Y299126D01*
D02*
G37*
G36*
X330787Y299185D02*
X329213D01*
X328129Y299043D01*
X327120Y298625D01*
X326253Y297959D01*
X325588Y297093D01*
X325170Y296083D01*
X325027Y295000D01*
X325170Y293917D01*
X325588Y292907D01*
X326253Y292040D01*
X327120Y291375D01*
X328129Y290957D01*
X329213Y290815D01*
X330787D01*
X331871Y290957D01*
X332880Y291375D01*
X333747Y292040D01*
X334412Y292907D01*
X334830Y293917D01*
X334973Y295000D01*
X334830Y296083D01*
X334412Y297093D01*
X333747Y297959D01*
X332880Y298625D01*
X331871Y299043D01*
X330787Y299185D01*
D02*
G37*
G36*
X300787D02*
X299213D01*
X298129Y299043D01*
X297120Y298625D01*
X296253Y297959D01*
X295588Y297093D01*
X295170Y296083D01*
X295027Y295000D01*
X295170Y293917D01*
X295588Y292907D01*
X296253Y292040D01*
X297120Y291375D01*
X298129Y290957D01*
X299213Y290815D01*
X300787D01*
X301871Y290957D01*
X302880Y291375D01*
X303747Y292040D01*
X304412Y292907D01*
X304830Y293917D01*
X304973Y295000D01*
X304830Y296083D01*
X304412Y297093D01*
X303747Y297959D01*
X302880Y298625D01*
X301871Y299043D01*
X300787Y299185D01*
D02*
G37*
G36*
X505500Y292558D02*
Y290500D01*
X507558D01*
X507423Y291004D01*
X507081Y291596D01*
X506596Y292080D01*
X506004Y292423D01*
X505500Y292558D01*
D02*
G37*
G36*
X504500D02*
X503996Y292423D01*
X503404Y292080D01*
X502919Y291596D01*
X502577Y291004D01*
X502442Y290500D01*
X504500D01*
Y292558D01*
D02*
G37*
G36*
X660500Y290058D02*
Y288000D01*
X662558D01*
X662423Y288504D01*
X662080Y289096D01*
X661596Y289580D01*
X661004Y289923D01*
X660500Y290058D01*
D02*
G37*
G36*
X659500D02*
X658996Y289923D01*
X658404Y289580D01*
X657920Y289096D01*
X657577Y288504D01*
X657442Y288000D01*
X659500D01*
Y290058D01*
D02*
G37*
G36*
X244228Y292000D02*
X238110D01*
X231992D01*
Y290378D01*
X231992Y290122D01*
X231992Y289622D01*
Y288000D01*
X238110D01*
X244228D01*
Y289622D01*
X244228Y289878D01*
X244228Y290378D01*
Y292000D01*
D02*
G37*
G36*
X507558Y289500D02*
X505500D01*
Y287442D01*
X506004Y287577D01*
X506596Y287919D01*
X507081Y288404D01*
X507423Y288996D01*
X507558Y289500D01*
D02*
G37*
G36*
X504500D02*
X502442D01*
X502577Y288996D01*
X502919Y288404D01*
X503404Y287919D01*
X503996Y287577D01*
X504500Y287442D01*
Y289500D01*
D02*
G37*
G36*
X163000Y287558D02*
Y285500D01*
X165058D01*
X164923Y286004D01*
X164581Y286596D01*
X164096Y287081D01*
X163504Y287423D01*
X163000Y287558D01*
D02*
G37*
G36*
X162000D02*
X161496Y287423D01*
X160904Y287081D01*
X160419Y286596D01*
X160077Y286004D01*
X159942Y285500D01*
X162000D01*
Y287558D01*
D02*
G37*
G36*
X662558Y287000D02*
X660500D01*
Y284942D01*
X661004Y285077D01*
X661596Y285420D01*
X662080Y285904D01*
X662423Y286496D01*
X662558Y287000D01*
D02*
G37*
G36*
X659500D02*
X657442D01*
X657577Y286496D01*
X657920Y285904D01*
X658404Y285420D01*
X658996Y285077D01*
X659500Y284942D01*
Y287000D01*
D02*
G37*
G36*
X140527Y286500D02*
X140500D01*
Y283000D01*
X144000D01*
Y283027D01*
X143727Y284044D01*
X143201Y284956D01*
X142456Y285701D01*
X141544Y286227D01*
X140527Y286500D01*
D02*
G37*
G36*
X139500D02*
X139473D01*
X138456Y286227D01*
X137544Y285701D01*
X136799Y284956D01*
X136273Y284044D01*
X136000Y283027D01*
Y283000D01*
X139500D01*
Y286500D01*
D02*
G37*
G36*
X244228Y287000D02*
X238110D01*
X231992D01*
Y285378D01*
X231992Y285122D01*
X231992Y284622D01*
Y283000D01*
X238110D01*
X244228D01*
Y284622D01*
X244228Y284878D01*
X244228Y285378D01*
Y287000D01*
D02*
G37*
G36*
X208008D02*
X201890D01*
X195772D01*
Y285378D01*
X195772Y285122D01*
X195772Y284622D01*
Y283000D01*
X201890D01*
X208008D01*
Y284622D01*
X208008Y284878D01*
X208008Y285378D01*
Y287000D01*
D02*
G37*
G36*
X165058Y284500D02*
X163000D01*
Y282442D01*
X163504Y282577D01*
X164096Y282920D01*
X164581Y283404D01*
X164923Y283996D01*
X165058Y284500D01*
D02*
G37*
G36*
X162000D02*
X159942D01*
X160077Y283996D01*
X160419Y283404D01*
X160904Y282920D01*
X161496Y282577D01*
X162000Y282442D01*
Y284500D01*
D02*
G37*
G36*
X330787Y289185D02*
X329213D01*
X328129Y289043D01*
X327120Y288625D01*
X326253Y287960D01*
X325588Y287093D01*
X325170Y286083D01*
X325027Y285000D01*
X325170Y283917D01*
X325588Y282907D01*
X326253Y282041D01*
X327120Y281375D01*
X328129Y280957D01*
X329213Y280815D01*
X330787D01*
X331871Y280957D01*
X332880Y281375D01*
X333747Y282041D01*
X334412Y282907D01*
X334830Y283917D01*
X334973Y285000D01*
X334830Y286083D01*
X334412Y287093D01*
X333747Y287960D01*
X332880Y288625D01*
X331871Y289043D01*
X330787Y289185D01*
D02*
G37*
G36*
X595500Y282558D02*
Y280500D01*
X597558D01*
X597423Y281004D01*
X597081Y281596D01*
X596596Y282081D01*
X596004Y282423D01*
X595500Y282558D01*
D02*
G37*
G36*
X594500D02*
X593996Y282423D01*
X593404Y282081D01*
X592919Y281596D01*
X592577Y281004D01*
X592442Y280500D01*
X594500D01*
Y282558D01*
D02*
G37*
G36*
X144000Y282000D02*
X140500D01*
Y278500D01*
X140527D01*
X141544Y278773D01*
X142456Y279299D01*
X143201Y280044D01*
X143727Y280956D01*
X144000Y281973D01*
Y282000D01*
D02*
G37*
G36*
X139500D02*
X136000D01*
Y281973D01*
X136273Y280956D01*
X136799Y280044D01*
X137544Y279299D01*
X138456Y278773D01*
X139473Y278500D01*
X139500D01*
Y282000D01*
D02*
G37*
G36*
X244228D02*
X238110D01*
X231992D01*
Y280378D01*
X231992Y280122D01*
X231992Y279622D01*
Y278000D01*
X238110D01*
X244228D01*
Y279622D01*
X244228Y279878D01*
X244228Y280378D01*
Y282000D01*
D02*
G37*
G36*
X208008D02*
X201890D01*
X195772D01*
Y280378D01*
X195772Y280122D01*
X195772Y279622D01*
Y278000D01*
X201890D01*
X208008D01*
Y279622D01*
X208008Y279878D01*
X208008Y280378D01*
Y282000D01*
D02*
G37*
G36*
X363559Y279898D02*
X360500D01*
Y277626D01*
X363559D01*
Y279898D01*
D02*
G37*
G36*
X359500D02*
X356441D01*
Y277626D01*
X359500D01*
Y279898D01*
D02*
G37*
G36*
X597558Y279500D02*
X595500D01*
Y277442D01*
X596004Y277577D01*
X596596Y277920D01*
X597081Y278404D01*
X597423Y278996D01*
X597558Y279500D01*
D02*
G37*
G36*
X594500D02*
X592442D01*
X592577Y278996D01*
X592919Y278404D01*
X593404Y277920D01*
X593996Y277577D01*
X594500Y277442D01*
Y279500D01*
D02*
G37*
G36*
X363559Y276626D02*
X360500D01*
Y274354D01*
X363559D01*
Y276626D01*
D02*
G37*
G36*
X359500D02*
X356441D01*
Y274354D01*
X359500D01*
Y276626D01*
D02*
G37*
G36*
X348000Y275058D02*
Y273000D01*
X350058D01*
X349923Y273504D01*
X349581Y274096D01*
X349096Y274581D01*
X348504Y274923D01*
X348000Y275058D01*
D02*
G37*
G36*
X347000D02*
X346496Y274923D01*
X345904Y274581D01*
X345420Y274096D01*
X345077Y273504D01*
X344942Y273000D01*
X347000D01*
Y275058D01*
D02*
G37*
G36*
X244228Y277000D02*
X238110D01*
X231992D01*
Y275378D01*
X231992Y275122D01*
X231992Y274622D01*
Y273000D01*
X238110D01*
X244228D01*
Y274622D01*
X244228Y274878D01*
X244228Y275378D01*
Y277000D01*
D02*
G37*
G36*
X208008D02*
X201890D01*
X195772D01*
Y275378D01*
X195772Y275122D01*
X195772Y274622D01*
Y273000D01*
X201890D01*
X208008D01*
Y274622D01*
X208008Y274878D01*
X208008Y275378D01*
Y277000D01*
D02*
G37*
G36*
X177580Y273461D02*
Y271404D01*
X179638D01*
X179503Y271907D01*
X179161Y272500D01*
X178677Y272984D01*
X178084Y273326D01*
X177580Y273461D01*
D02*
G37*
G36*
X176581D02*
X176077Y273326D01*
X175484Y272984D01*
X175000Y272500D01*
X174658Y271907D01*
X174523Y271404D01*
X176581D01*
Y273461D01*
D02*
G37*
G36*
X330787Y279185D02*
X329213D01*
X328129Y279043D01*
X327120Y278625D01*
X326253Y277959D01*
X325588Y277093D01*
X325170Y276083D01*
X325027Y275000D01*
X325170Y273917D01*
X325588Y272907D01*
X326253Y272041D01*
X327120Y271375D01*
X328129Y270957D01*
X329213Y270815D01*
X330787D01*
X331871Y270957D01*
X332880Y271375D01*
X333747Y272041D01*
X334412Y272907D01*
X334830Y273917D01*
X334973Y275000D01*
X334830Y276083D01*
X334412Y277093D01*
X333747Y277959D01*
X332880Y278625D01*
X331871Y279043D01*
X330787Y279185D01*
D02*
G37*
G36*
X685500Y272558D02*
Y270500D01*
X687558D01*
X687423Y271004D01*
X687080Y271596D01*
X686596Y272080D01*
X686004Y272423D01*
X685500Y272558D01*
D02*
G37*
G36*
X684500D02*
X683996Y272423D01*
X683404Y272080D01*
X682920Y271596D01*
X682577Y271004D01*
X682442Y270500D01*
X684500D01*
Y272558D01*
D02*
G37*
G36*
X540500D02*
Y270500D01*
X542558D01*
X542423Y271004D01*
X542080Y271596D01*
X541596Y272080D01*
X541004Y272423D01*
X540500Y272558D01*
D02*
G37*
G36*
X539500D02*
X538996Y272423D01*
X538404Y272080D01*
X537920Y271596D01*
X537577Y271004D01*
X537442Y270500D01*
X539500D01*
Y272558D01*
D02*
G37*
G36*
X244228Y272000D02*
X238610D01*
Y270122D01*
X244228D01*
Y272000D01*
D02*
G37*
G36*
X237610D02*
X231992D01*
Y270122D01*
X237610D01*
Y272000D01*
D02*
G37*
G36*
X208008D02*
X202390D01*
Y270122D01*
X208008D01*
Y272000D01*
D02*
G37*
G36*
X201390D02*
X195772D01*
Y270122D01*
X201390D01*
Y272000D01*
D02*
G37*
G36*
X350058D02*
X348000D01*
Y269942D01*
X348504Y270077D01*
X349096Y270420D01*
X349581Y270904D01*
X349923Y271496D01*
X350058Y272000D01*
D02*
G37*
G36*
X347000D02*
X344942D01*
X345077Y271496D01*
X345420Y270904D01*
X345904Y270420D01*
X346496Y270077D01*
X347000Y269942D01*
Y272000D01*
D02*
G37*
G36*
X179638Y270404D02*
X177580D01*
Y268346D01*
X178084Y268481D01*
X178677Y268823D01*
X179161Y269307D01*
X179503Y269900D01*
X179638Y270404D01*
D02*
G37*
G36*
X176581D02*
X174523D01*
X174658Y269900D01*
X175000Y269307D01*
X175484Y268823D01*
X176077Y268481D01*
X176581Y268346D01*
Y270404D01*
D02*
G37*
G36*
X687558Y269500D02*
X685500D01*
Y267442D01*
X686004Y267577D01*
X686596Y267919D01*
X687080Y268404D01*
X687423Y268996D01*
X687558Y269500D01*
D02*
G37*
G36*
X684500D02*
X682442D01*
X682577Y268996D01*
X682920Y268404D01*
X683404Y267919D01*
X683996Y267577D01*
X684500Y267442D01*
Y269500D01*
D02*
G37*
G36*
X542558D02*
X540500D01*
Y267442D01*
X541004Y267577D01*
X541596Y267919D01*
X542080Y268404D01*
X542423Y268996D01*
X542558Y269500D01*
D02*
G37*
G36*
X539500D02*
X537442D01*
X537577Y268996D01*
X537920Y268404D01*
X538404Y267919D01*
X538996Y267577D01*
X539500Y267442D01*
Y269500D01*
D02*
G37*
G36*
X658000Y267558D02*
Y265500D01*
X660058D01*
X659923Y266004D01*
X659581Y266596D01*
X659096Y267080D01*
X658504Y267423D01*
X658000Y267558D01*
D02*
G37*
G36*
X657000D02*
X656496Y267423D01*
X655904Y267080D01*
X655419Y266596D01*
X655077Y266004D01*
X654942Y265500D01*
X657000D01*
Y267558D01*
D02*
G37*
G36*
X660058Y264500D02*
X658000D01*
Y262442D01*
X658504Y262577D01*
X659096Y262919D01*
X659581Y263404D01*
X659923Y263996D01*
X660058Y264500D01*
D02*
G37*
G36*
X657000D02*
X654942D01*
X655077Y263996D01*
X655419Y263404D01*
X655904Y262919D01*
X656496Y262577D01*
X657000Y262442D01*
Y264500D01*
D02*
G37*
G36*
X420500Y260058D02*
Y258000D01*
X422558D01*
X422423Y258504D01*
X422081Y259096D01*
X421596Y259580D01*
X421004Y259923D01*
X420500Y260058D01*
D02*
G37*
G36*
X419500D02*
X418996Y259923D01*
X418404Y259580D01*
X417919Y259096D01*
X417577Y258504D01*
X417442Y258000D01*
X419500D01*
Y260058D01*
D02*
G37*
G36*
X263000D02*
Y258000D01*
X265058D01*
X264923Y258504D01*
X264580Y259096D01*
X264096Y259580D01*
X263504Y259923D01*
X263000Y260058D01*
D02*
G37*
G36*
X262000D02*
X261496Y259923D01*
X260904Y259580D01*
X260420Y259096D01*
X260077Y258504D01*
X259942Y258000D01*
X262000D01*
Y260058D01*
D02*
G37*
G36*
X243000D02*
Y258000D01*
X245058D01*
X244923Y258504D01*
X244581Y259096D01*
X244096Y259580D01*
X243504Y259923D01*
X243000Y260058D01*
D02*
G37*
G36*
X242000D02*
X241496Y259923D01*
X240904Y259580D01*
X240420Y259096D01*
X240077Y258504D01*
X239942Y258000D01*
X242000D01*
Y260058D01*
D02*
G37*
G36*
X295500Y257558D02*
Y255500D01*
X297558D01*
X297423Y256004D01*
X297080Y256596D01*
X296596Y257081D01*
X296004Y257423D01*
X295500Y257558D01*
D02*
G37*
G36*
X294500D02*
X293996Y257423D01*
X293404Y257081D01*
X292919Y256596D01*
X292577Y256004D01*
X292442Y255500D01*
X294500D01*
Y257558D01*
D02*
G37*
G36*
X422558Y257000D02*
X420500D01*
Y254942D01*
X421004Y255077D01*
X421596Y255419D01*
X422081Y255904D01*
X422423Y256496D01*
X422558Y257000D01*
D02*
G37*
G36*
X419500D02*
X417442D01*
X417577Y256496D01*
X417919Y255904D01*
X418404Y255419D01*
X418996Y255077D01*
X419500Y254942D01*
Y257000D01*
D02*
G37*
G36*
X265058D02*
X263000D01*
Y254942D01*
X263504Y255077D01*
X264096Y255419D01*
X264580Y255904D01*
X264923Y256496D01*
X265058Y257000D01*
D02*
G37*
G36*
X262000D02*
X259942D01*
X260077Y256496D01*
X260420Y255904D01*
X260904Y255419D01*
X261496Y255077D01*
X262000Y254942D01*
Y257000D01*
D02*
G37*
G36*
X245058D02*
X243000D01*
Y254942D01*
X243504Y255077D01*
X244096Y255419D01*
X244581Y255904D01*
X244923Y256496D01*
X245058Y257000D01*
D02*
G37*
G36*
X242000D02*
X239942D01*
X240077Y256496D01*
X240420Y255904D01*
X240904Y255419D01*
X241496Y255077D01*
X242000Y254942D01*
Y257000D01*
D02*
G37*
G36*
X297558Y254500D02*
X295500D01*
Y252442D01*
X296004Y252577D01*
X296596Y252920D01*
X297080Y253404D01*
X297423Y253996D01*
X297558Y254500D01*
D02*
G37*
G36*
X294500D02*
X292442D01*
X292577Y253996D01*
X292919Y253404D01*
X293404Y252920D01*
X293996Y252577D01*
X294500Y252442D01*
Y254500D01*
D02*
G37*
G36*
X671504Y252635D02*
Y250577D01*
X673561D01*
X673426Y251081D01*
X673084Y251674D01*
X672600Y252158D01*
X672007Y252500D01*
X671504Y252635D01*
D02*
G37*
G36*
X670504D02*
X670000Y252500D01*
X669407Y252158D01*
X668923Y251674D01*
X668581Y251081D01*
X668446Y250577D01*
X670504D01*
Y252635D01*
D02*
G37*
G36*
X673561Y249577D02*
X671504D01*
Y247519D01*
X672007Y247654D01*
X672600Y247997D01*
X673084Y248481D01*
X673426Y249074D01*
X673561Y249577D01*
D02*
G37*
G36*
X670504D02*
X668446D01*
X668581Y249074D01*
X668923Y248481D01*
X669407Y247997D01*
X670000Y247654D01*
X670504Y247519D01*
Y249577D01*
D02*
G37*
G36*
X625527Y249866D02*
X625500D01*
Y246366D01*
X629000D01*
Y246393D01*
X628727Y247410D01*
X628201Y248322D01*
X627456Y249067D01*
X626544Y249594D01*
X625527Y249866D01*
D02*
G37*
G36*
X624500D02*
X624473D01*
X623456Y249594D01*
X622544Y249067D01*
X621799Y248322D01*
X621273Y247410D01*
X621000Y246393D01*
Y246366D01*
X624500D01*
Y249866D01*
D02*
G37*
G36*
X629000Y245366D02*
X625500D01*
Y241866D01*
X625527D01*
X626544Y242139D01*
X627456Y242665D01*
X628201Y243410D01*
X628727Y244322D01*
X629000Y245339D01*
Y245366D01*
D02*
G37*
G36*
X624500D02*
X621000D01*
Y245339D01*
X621273Y244322D01*
X621799Y243410D01*
X622544Y242665D01*
X623456Y242139D01*
X624473Y241866D01*
X624500D01*
Y245366D01*
D02*
G37*
G36*
X605527Y249866D02*
X604473D01*
X603456Y249594D01*
X602544Y249067D01*
X601799Y248322D01*
X601273Y247410D01*
X601000Y246393D01*
Y245339D01*
X601273Y244322D01*
X601799Y243410D01*
X602544Y242665D01*
X603456Y242139D01*
X604473Y241866D01*
X605527D01*
X606544Y242139D01*
X607456Y242665D01*
X608201Y243410D01*
X608727Y244322D01*
X609000Y245339D01*
Y246393D01*
X608727Y247410D01*
X608201Y248322D01*
X607456Y249067D01*
X606544Y249594D01*
X605527Y249866D01*
D02*
G37*
G36*
X575527D02*
X574473D01*
X573456Y249594D01*
X572544Y249067D01*
X571799Y248322D01*
X571273Y247410D01*
X571000Y246393D01*
Y245339D01*
X571273Y244322D01*
X571799Y243410D01*
X572544Y242665D01*
X573456Y242139D01*
X574473Y241866D01*
X575527D01*
X576544Y242139D01*
X577456Y242665D01*
X578201Y243410D01*
X578727Y244322D01*
X579000Y245339D01*
Y246393D01*
X578727Y247410D01*
X578201Y248322D01*
X577456Y249067D01*
X576544Y249594D01*
X575527Y249866D01*
D02*
G37*
G36*
X545527D02*
X544473D01*
X543456Y249594D01*
X542544Y249067D01*
X541799Y248322D01*
X541273Y247410D01*
X541000Y246393D01*
Y245339D01*
X541273Y244322D01*
X541799Y243410D01*
X542544Y242665D01*
X543456Y242139D01*
X544473Y241866D01*
X545527D01*
X546544Y242139D01*
X547456Y242665D01*
X548201Y243410D01*
X548727Y244322D01*
X549000Y245339D01*
Y246393D01*
X548727Y247410D01*
X548201Y248322D01*
X547456Y249067D01*
X546544Y249594D01*
X545527Y249866D01*
D02*
G37*
G36*
X525527D02*
X524473D01*
X523456Y249594D01*
X522544Y249067D01*
X521799Y248322D01*
X521273Y247410D01*
X521000Y246393D01*
Y245339D01*
X521273Y244322D01*
X521799Y243410D01*
X522544Y242665D01*
X523456Y242139D01*
X524473Y241866D01*
X525527D01*
X526544Y242139D01*
X527456Y242665D01*
X528201Y243410D01*
X528727Y244322D01*
X529000Y245339D01*
Y246393D01*
X528727Y247410D01*
X528201Y248322D01*
X527456Y249067D01*
X526544Y249594D01*
X525527Y249866D01*
D02*
G37*
G36*
X495527D02*
X494473D01*
X493456Y249594D01*
X492544Y249067D01*
X491799Y248322D01*
X491273Y247410D01*
X491000Y246393D01*
Y245339D01*
X491273Y244322D01*
X491799Y243410D01*
X492544Y242665D01*
X493456Y242139D01*
X494473Y241866D01*
X495527D01*
X496544Y242139D01*
X497456Y242665D01*
X498201Y243410D01*
X498727Y244322D01*
X499000Y245339D01*
Y246393D01*
X498727Y247410D01*
X498201Y248322D01*
X497456Y249067D01*
X496544Y249594D01*
X495527Y249866D01*
D02*
G37*
G36*
X479000D02*
X471000D01*
Y241866D01*
X479000D01*
Y249866D01*
D02*
G37*
G36*
X285527Y244000D02*
X284473D01*
X283456Y243727D01*
X282544Y243201D01*
X281799Y242456D01*
X281273Y241544D01*
X281269Y241529D01*
X261059D01*
Y242772D01*
X253941D01*
Y237228D01*
X261059D01*
Y238471D01*
X281269D01*
X281273Y238456D01*
X281799Y237544D01*
X282544Y236799D01*
X283456Y236273D01*
X284473Y236000D01*
X285527D01*
X286544Y236273D01*
X287456Y236799D01*
X288201Y237544D01*
X288727Y238456D01*
X289000Y239473D01*
Y240527D01*
X288727Y241544D01*
X288201Y242456D01*
X287456Y243201D01*
X286544Y243727D01*
X285527Y244000D01*
D02*
G37*
G36*
X350500Y240058D02*
Y238000D01*
X352558D01*
X352423Y238504D01*
X352080Y239096D01*
X351596Y239580D01*
X351004Y239923D01*
X350500Y240058D01*
D02*
G37*
G36*
X349500D02*
X348996Y239923D01*
X348404Y239580D01*
X347920Y239096D01*
X347577Y238504D01*
X347442Y238000D01*
X349500D01*
Y240058D01*
D02*
G37*
G36*
X304739Y244000D02*
X303686D01*
X302669Y243727D01*
X301757Y243201D01*
X301012Y242456D01*
X300485Y241544D01*
X300213Y240527D01*
Y239473D01*
X300485Y238456D01*
X301012Y237544D01*
X301757Y236799D01*
X302669Y236273D01*
X303686Y236000D01*
X304739D01*
X305756Y236273D01*
X306669Y236799D01*
X307413Y237544D01*
X307940Y238456D01*
X307944Y238471D01*
X326441D01*
Y237228D01*
X333559D01*
Y242772D01*
X326441D01*
Y241529D01*
X307944D01*
X307940Y241544D01*
X307413Y242456D01*
X306669Y243201D01*
X305756Y243727D01*
X304739Y244000D01*
D02*
G37*
G36*
X352558Y237000D02*
X350500D01*
Y234942D01*
X351004Y235077D01*
X351596Y235420D01*
X352080Y235904D01*
X352423Y236496D01*
X352558Y237000D01*
D02*
G37*
G36*
X349500D02*
X347442D01*
X347577Y236496D01*
X347920Y235904D01*
X348404Y235420D01*
X348996Y235077D01*
X349500Y234942D01*
Y237000D01*
D02*
G37*
G36*
X148000Y235058D02*
Y233000D01*
X150058D01*
X149923Y233504D01*
X149581Y234096D01*
X149096Y234580D01*
X148504Y234923D01*
X148000Y235058D01*
D02*
G37*
G36*
X147000D02*
X146496Y234923D01*
X145904Y234580D01*
X145420Y234096D01*
X145077Y233504D01*
X144942Y233000D01*
X147000D01*
Y235058D01*
D02*
G37*
G36*
X333559Y234898D02*
X330500D01*
Y232626D01*
X333559D01*
Y234898D01*
D02*
G37*
G36*
X261059D02*
X258000D01*
Y232626D01*
X261059D01*
Y234898D01*
D02*
G37*
G36*
X329500D02*
X326441D01*
Y232626D01*
X329500D01*
Y234898D01*
D02*
G37*
G36*
X257000D02*
X253941D01*
Y232626D01*
X257000D01*
Y234898D01*
D02*
G37*
G36*
X447842Y247600D02*
X447158D01*
X446496Y247423D01*
X445904Y247080D01*
X445420Y246596D01*
X445077Y246004D01*
X444900Y245342D01*
Y244658D01*
X445077Y243996D01*
X445420Y243404D01*
X445904Y242919D01*
X446496Y242577D01*
X447158Y242400D01*
X447842D01*
X448504Y242577D01*
X449096Y242919D01*
X449580Y243404D01*
X449619Y243471D01*
X451866D01*
X457103Y238234D01*
X456912Y237772D01*
X455339D01*
Y232228D01*
X463244D01*
Y237772D01*
X460821D01*
Y238209D01*
X460704Y238794D01*
X460373Y239290D01*
X453581Y246081D01*
X453085Y246413D01*
X452500Y246529D01*
X449619D01*
X449580Y246596D01*
X449096Y247080D01*
X448504Y247423D01*
X447842Y247600D01*
D02*
G37*
G36*
X150058Y232000D02*
X148000D01*
Y229942D01*
X148504Y230077D01*
X149096Y230419D01*
X149581Y230904D01*
X149923Y231496D01*
X150058Y232000D01*
D02*
G37*
G36*
X147000D02*
X144942D01*
X145077Y231496D01*
X145420Y230904D01*
X145904Y230419D01*
X146496Y230077D01*
X147000Y229942D01*
Y232000D01*
D02*
G37*
G36*
X333559Y231626D02*
X330500D01*
Y229354D01*
X333559D01*
Y231626D01*
D02*
G37*
G36*
X329500D02*
X326441D01*
Y229354D01*
X329500D01*
Y231626D01*
D02*
G37*
G36*
X261059D02*
X258000D01*
Y229354D01*
X261059D01*
Y231626D01*
D02*
G37*
G36*
X257000D02*
X253941D01*
Y229354D01*
X257000D01*
Y231626D01*
D02*
G37*
G36*
X626059Y229898D02*
X623000D01*
Y227626D01*
X626059D01*
Y229898D01*
D02*
G37*
G36*
X426059D02*
X423000D01*
Y227626D01*
X426059D01*
Y229898D01*
D02*
G37*
G36*
X622000D02*
X618941D01*
Y227626D01*
X622000D01*
Y229898D01*
D02*
G37*
G36*
X422000D02*
X418941D01*
Y227626D01*
X422000D01*
Y229898D01*
D02*
G37*
G36*
X626059Y226626D02*
X623000D01*
Y224354D01*
X626059D01*
Y226626D01*
D02*
G37*
G36*
X622000D02*
X618941D01*
Y224354D01*
X622000D01*
Y226626D01*
D02*
G37*
G36*
X426059D02*
X423000D01*
Y224354D01*
X426059D01*
Y226626D01*
D02*
G37*
G36*
X422000D02*
X418941D01*
Y224354D01*
X422000D01*
Y226626D01*
D02*
G37*
G36*
X663244Y380272D02*
X655339D01*
Y374728D01*
X663244D01*
Y375971D01*
X664366D01*
X668471Y371866D01*
Y265634D01*
X648919Y246081D01*
X648587Y245585D01*
X648471Y245000D01*
Y228134D01*
X644415Y224078D01*
X643953Y224269D01*
Y224779D01*
X636047D01*
Y219236D01*
X643461D01*
X643614Y219236D01*
X644013Y218797D01*
X644009Y218672D01*
X641866Y216529D01*
X615633D01*
X603581Y228581D01*
X603085Y228913D01*
X602500Y229029D01*
X480000D01*
X479415Y228913D01*
X478919Y228581D01*
X464366Y214029D01*
X445634D01*
X441529Y218133D01*
Y219236D01*
X443953D01*
Y224779D01*
X436047D01*
Y219236D01*
X438471D01*
Y217500D01*
X438587Y216915D01*
X438919Y216419D01*
X443919Y211419D01*
X444415Y211087D01*
X445000Y210971D01*
X465000D01*
X465585Y211087D01*
X466081Y211419D01*
X480633Y225971D01*
X601866D01*
X613919Y213919D01*
X614415Y213587D01*
X615000Y213471D01*
X642500D01*
X643085Y213587D01*
X643581Y213919D01*
X660373Y230710D01*
X660704Y231206D01*
X660821Y231791D01*
Y232228D01*
X663244D01*
Y237772D01*
X655339D01*
Y232228D01*
X656912D01*
X657103Y231766D01*
X651536Y226199D01*
X651148Y226518D01*
X651413Y226915D01*
X651529Y227500D01*
Y244367D01*
X671081Y263919D01*
X671413Y264415D01*
X671529Y265000D01*
Y372500D01*
X671413Y373085D01*
X671081Y373581D01*
X666081Y378581D01*
X665585Y378913D01*
X665000Y379029D01*
X663244D01*
Y380272D01*
D02*
G37*
G36*
X678000Y225058D02*
Y223000D01*
X680058D01*
X679923Y223504D01*
X679580Y224096D01*
X679096Y224581D01*
X678504Y224923D01*
X678000Y225058D01*
D02*
G37*
G36*
X677000D02*
X676496Y224923D01*
X675904Y224581D01*
X675420Y224096D01*
X675077Y223504D01*
X674942Y223000D01*
X677000D01*
Y225058D01*
D02*
G37*
G36*
X323000D02*
Y223000D01*
X325058D01*
X324923Y223504D01*
X324581Y224096D01*
X324096Y224581D01*
X323504Y224923D01*
X323000Y225058D01*
D02*
G37*
G36*
X322000D02*
X321496Y224923D01*
X320904Y224581D01*
X320420Y224096D01*
X320077Y223504D01*
X319942Y223000D01*
X322000D01*
Y225058D01*
D02*
G37*
G36*
X295500D02*
Y223000D01*
X297558D01*
X297423Y223504D01*
X297080Y224096D01*
X296596Y224581D01*
X296004Y224923D01*
X295500Y225058D01*
D02*
G37*
G36*
X294500D02*
X293996Y224923D01*
X293404Y224581D01*
X292919Y224096D01*
X292577Y223504D01*
X292442Y223000D01*
X294500D01*
Y225058D01*
D02*
G37*
G36*
X663244Y224779D02*
X659791D01*
Y222508D01*
X663244D01*
Y224779D01*
D02*
G37*
G36*
X658791D02*
X655339D01*
Y222508D01*
X658791D01*
Y224779D01*
D02*
G37*
G36*
X463244D02*
X459791D01*
Y222508D01*
X463244D01*
Y224779D01*
D02*
G37*
G36*
X458791D02*
X455339D01*
Y222508D01*
X458791D01*
Y224779D01*
D02*
G37*
G36*
X630500Y222558D02*
Y220500D01*
X632558D01*
X632423Y221004D01*
X632081Y221596D01*
X631596Y222080D01*
X631004Y222423D01*
X630500Y222558D01*
D02*
G37*
G36*
X629500D02*
X628996Y222423D01*
X628404Y222080D01*
X627919Y221596D01*
X627577Y221004D01*
X627442Y220500D01*
X629500D01*
Y222558D01*
D02*
G37*
G36*
X450500D02*
Y220500D01*
X452558D01*
X452423Y221004D01*
X452080Y221596D01*
X451596Y222080D01*
X451004Y222423D01*
X450500Y222558D01*
D02*
G37*
G36*
X449500D02*
X448996Y222423D01*
X448404Y222080D01*
X447920Y221596D01*
X447577Y221004D01*
X447442Y220500D01*
X449500D01*
Y222558D01*
D02*
G37*
G36*
X273000D02*
Y220500D01*
X275058D01*
X274923Y221004D01*
X274581Y221596D01*
X274096Y222080D01*
X273504Y222423D01*
X273000Y222558D01*
D02*
G37*
G36*
X272000D02*
X271496Y222423D01*
X270904Y222080D01*
X270420Y221596D01*
X270077Y221004D01*
X269942Y220500D01*
X272000D01*
Y222558D01*
D02*
G37*
G36*
X680058Y222000D02*
X678000D01*
Y219942D01*
X678504Y220077D01*
X679096Y220420D01*
X679580Y220904D01*
X679923Y221496D01*
X680058Y222000D01*
D02*
G37*
G36*
X677000D02*
X674942D01*
X675077Y221496D01*
X675420Y220904D01*
X675904Y220420D01*
X676496Y220077D01*
X677000Y219942D01*
Y222000D01*
D02*
G37*
G36*
X325058D02*
X323000D01*
Y219942D01*
X323504Y220077D01*
X324096Y220420D01*
X324581Y220904D01*
X324923Y221496D01*
X325058Y222000D01*
D02*
G37*
G36*
X322000D02*
X319942D01*
X320077Y221496D01*
X320420Y220904D01*
X320904Y220420D01*
X321496Y220077D01*
X322000Y219942D01*
Y222000D01*
D02*
G37*
G36*
X297558D02*
X295500D01*
Y219942D01*
X296004Y220077D01*
X296596Y220420D01*
X297080Y220904D01*
X297423Y221496D01*
X297558Y222000D01*
D02*
G37*
G36*
X294500D02*
X292442D01*
X292577Y221496D01*
X292919Y220904D01*
X293404Y220420D01*
X293996Y220077D01*
X294500Y219942D01*
Y222000D01*
D02*
G37*
G36*
X663244Y221508D02*
X659791D01*
Y219236D01*
X663244D01*
Y221508D01*
D02*
G37*
G36*
X658791D02*
X655339D01*
Y219236D01*
X658791D01*
Y221508D01*
D02*
G37*
G36*
X463244D02*
X459791D01*
Y219236D01*
X463244D01*
Y221508D01*
D02*
G37*
G36*
X458791D02*
X455339D01*
Y219236D01*
X458791D01*
Y221508D01*
D02*
G37*
G36*
X632558Y219500D02*
X630500D01*
Y217442D01*
X631004Y217577D01*
X631596Y217919D01*
X632081Y218404D01*
X632423Y218996D01*
X632558Y219500D01*
D02*
G37*
G36*
X629500D02*
X627442D01*
X627577Y218996D01*
X627919Y218404D01*
X628404Y217919D01*
X628996Y217577D01*
X629500Y217442D01*
Y219500D01*
D02*
G37*
G36*
X452558D02*
X450500D01*
Y217442D01*
X451004Y217577D01*
X451596Y217919D01*
X452080Y218404D01*
X452423Y218996D01*
X452558Y219500D01*
D02*
G37*
G36*
X449500D02*
X447442D01*
X447577Y218996D01*
X447920Y218404D01*
X448404Y217919D01*
X448996Y217577D01*
X449500Y217442D01*
Y219500D01*
D02*
G37*
G36*
X275058D02*
X273000D01*
Y217442D01*
X273504Y217577D01*
X274096Y217919D01*
X274581Y218404D01*
X274923Y218996D01*
X275058Y219500D01*
D02*
G37*
G36*
X272000D02*
X269942D01*
X270077Y218996D01*
X270420Y218404D01*
X270904Y217919D01*
X271496Y217577D01*
X272000Y217442D01*
Y219500D01*
D02*
G37*
G36*
X420500Y215058D02*
Y213000D01*
X422558D01*
X422423Y213504D01*
X422081Y214096D01*
X421596Y214580D01*
X421004Y214923D01*
X420500Y215058D01*
D02*
G37*
G36*
X419500D02*
X418996Y214923D01*
X418404Y214580D01*
X417919Y214096D01*
X417577Y213504D01*
X417442Y213000D01*
X419500D01*
Y215058D01*
D02*
G37*
G36*
X324000Y213500D02*
X322000D01*
Y210500D01*
X324000D01*
Y213500D01*
D02*
G37*
G36*
X196400Y218842D02*
X193000D01*
Y210500D01*
X201342D01*
Y213900D01*
X201174Y215179D01*
X200680Y216371D01*
X199895Y217395D01*
X198871Y218180D01*
X197679Y218674D01*
X196400Y218842D01*
D02*
G37*
G36*
X135500Y212558D02*
Y210500D01*
X137558D01*
X137423Y211004D01*
X137081Y211596D01*
X136596Y212081D01*
X136004Y212423D01*
X135500Y212558D01*
D02*
G37*
G36*
X134500D02*
X133996Y212423D01*
X133404Y212081D01*
X132920Y211596D01*
X132577Y211004D01*
X132442Y210500D01*
X134500D01*
Y212558D01*
D02*
G37*
G36*
X321000Y213500D02*
X319000D01*
Y210500D01*
X321000D01*
Y213500D01*
D02*
G37*
G36*
X192000Y218842D02*
X188600D01*
X187321Y218674D01*
X186129Y218180D01*
X185105Y217395D01*
X184320Y216371D01*
X183826Y215179D01*
X183658Y213900D01*
Y210500D01*
X192000D01*
Y218842D01*
D02*
G37*
G36*
X422558Y212000D02*
X420500D01*
Y209942D01*
X421004Y210077D01*
X421596Y210420D01*
X422081Y210904D01*
X422423Y211496D01*
X422558Y212000D01*
D02*
G37*
G36*
X419500D02*
X417442D01*
X417577Y211496D01*
X417919Y210904D01*
X418404Y210420D01*
X418996Y210077D01*
X419500Y209942D01*
Y212000D01*
D02*
G37*
G36*
X565500Y210058D02*
Y208000D01*
X567558D01*
X567423Y208504D01*
X567080Y209096D01*
X566596Y209580D01*
X566004Y209923D01*
X565500Y210058D01*
D02*
G37*
G36*
X564500D02*
X563996Y209923D01*
X563404Y209580D01*
X562920Y209096D01*
X562577Y208504D01*
X562442Y208000D01*
X564500D01*
Y210058D01*
D02*
G37*
G36*
X137558Y209500D02*
X135500D01*
Y207442D01*
X136004Y207577D01*
X136596Y207920D01*
X137081Y208404D01*
X137423Y208996D01*
X137558Y209500D01*
D02*
G37*
G36*
X134500D02*
X132442D01*
X132577Y208996D01*
X132920Y208404D01*
X133404Y207920D01*
X133996Y207577D01*
X134500Y207442D01*
Y209500D01*
D02*
G37*
G36*
X324000D02*
X322000D01*
Y206500D01*
X324000D01*
Y209500D01*
D02*
G37*
G36*
X321000D02*
X319000D01*
Y206500D01*
X321000D01*
Y209500D01*
D02*
G37*
G36*
X542318Y213850D02*
X541265D01*
X540247Y213577D01*
X539335Y213050D01*
X538591Y212306D01*
X538064Y211393D01*
X537791Y210376D01*
Y209323D01*
X538064Y208306D01*
X538591Y207394D01*
X539335Y206649D01*
X540247Y206122D01*
X541265Y205850D01*
X542318D01*
X543335Y206122D01*
X544247Y206649D01*
X544992Y207394D01*
X545519Y208306D01*
X545791Y209323D01*
Y210376D01*
X545519Y211393D01*
X544992Y212306D01*
X544247Y213050D01*
X543335Y213577D01*
X542318Y213850D01*
D02*
G37*
G36*
X567558Y207000D02*
X565500D01*
Y204942D01*
X566004Y205077D01*
X566596Y205419D01*
X567080Y205904D01*
X567423Y206496D01*
X567558Y207000D01*
D02*
G37*
G36*
X564500D02*
X562442D01*
X562577Y206496D01*
X562920Y205904D01*
X563404Y205419D01*
X563996Y205077D01*
X564500Y204942D01*
Y207000D01*
D02*
G37*
G36*
X378146Y212819D02*
X377092D01*
X376075Y212547D01*
X375163Y212020D01*
X374418Y211275D01*
X373892Y210363D01*
X373619Y209346D01*
Y208293D01*
X373892Y207275D01*
X374418Y206363D01*
X375163Y205618D01*
X376075Y205092D01*
X377092Y204819D01*
X378146D01*
X379163Y205092D01*
X380075Y205618D01*
X380820Y206363D01*
X381346Y207275D01*
X381619Y208293D01*
Y209346D01*
X381346Y210363D01*
X380820Y211275D01*
X380075Y212020D01*
X379163Y212547D01*
X378146Y212819D01*
D02*
G37*
G36*
X303559Y205646D02*
X300500D01*
Y203374D01*
X303559D01*
Y205646D01*
D02*
G37*
G36*
X299500D02*
X296441D01*
Y203374D01*
X299500D01*
Y205646D01*
D02*
G37*
G36*
X670500Y205058D02*
Y203000D01*
X672558D01*
X672423Y203504D01*
X672081Y204096D01*
X671596Y204580D01*
X671004Y204923D01*
X670500Y205058D01*
D02*
G37*
G36*
X669500D02*
X668996Y204923D01*
X668404Y204580D01*
X667919Y204096D01*
X667577Y203504D01*
X667442Y203000D01*
X669500D01*
Y205058D01*
D02*
G37*
G36*
X480500D02*
Y203000D01*
X482558D01*
X482423Y203504D01*
X482081Y204096D01*
X481596Y204580D01*
X481004Y204923D01*
X480500Y205058D01*
D02*
G37*
G36*
X479500D02*
X478996Y204923D01*
X478404Y204580D01*
X477919Y204096D01*
X477577Y203504D01*
X477442Y203000D01*
X479500D01*
Y205058D01*
D02*
G37*
G36*
X458000D02*
Y203000D01*
X460058D01*
X459923Y203504D01*
X459581Y204096D01*
X459096Y204580D01*
X458504Y204923D01*
X458000Y205058D01*
D02*
G37*
G36*
X457000D02*
X456496Y204923D01*
X455904Y204580D01*
X455419Y204096D01*
X455077Y203504D01*
X454942Y203000D01*
X457000D01*
Y205058D01*
D02*
G37*
G36*
X345500D02*
Y203000D01*
X347558D01*
X347423Y203504D01*
X347080Y204096D01*
X346596Y204580D01*
X346004Y204923D01*
X345500Y205058D01*
D02*
G37*
G36*
X344500D02*
X343996Y204923D01*
X343404Y204580D01*
X342919Y204096D01*
X342577Y203504D01*
X342442Y203000D01*
X344500D01*
Y205058D01*
D02*
G37*
G36*
X201342Y209500D02*
X193000D01*
Y201158D01*
X196400D01*
X197679Y201326D01*
X198871Y201820D01*
X199895Y202605D01*
X200680Y203629D01*
X201174Y204821D01*
X201342Y206100D01*
Y209500D01*
D02*
G37*
G36*
X192000D02*
X183658D01*
Y206100D01*
X183826Y204821D01*
X184320Y203629D01*
X185105Y202605D01*
X186129Y201820D01*
X187321Y201326D01*
X188600Y201158D01*
X192000D01*
Y209500D01*
D02*
G37*
G36*
X303559Y202374D02*
X300500D01*
Y200102D01*
X303559D01*
Y202374D01*
D02*
G37*
G36*
X299500D02*
X296441D01*
Y200102D01*
X299500D01*
Y202374D01*
D02*
G37*
G36*
X672558Y202000D02*
X670500D01*
Y199942D01*
X671004Y200077D01*
X671596Y200419D01*
X672081Y200904D01*
X672423Y201496D01*
X672558Y202000D01*
D02*
G37*
G36*
X669500D02*
X667442D01*
X667577Y201496D01*
X667919Y200904D01*
X668404Y200419D01*
X668996Y200077D01*
X669500Y199942D01*
Y202000D01*
D02*
G37*
G36*
X482558D02*
X480500D01*
Y199942D01*
X481004Y200077D01*
X481596Y200419D01*
X482081Y200904D01*
X482423Y201496D01*
X482558Y202000D01*
D02*
G37*
G36*
X479500D02*
X477442D01*
X477577Y201496D01*
X477919Y200904D01*
X478404Y200419D01*
X478996Y200077D01*
X479500Y199942D01*
Y202000D01*
D02*
G37*
G36*
X460058D02*
X458000D01*
Y199942D01*
X458504Y200077D01*
X459096Y200419D01*
X459581Y200904D01*
X459923Y201496D01*
X460058Y202000D01*
D02*
G37*
G36*
X457000D02*
X454942D01*
X455077Y201496D01*
X455419Y200904D01*
X455904Y200419D01*
X456496Y200077D01*
X457000Y199942D01*
Y202000D01*
D02*
G37*
G36*
X347558D02*
X345500D01*
Y199942D01*
X346004Y200077D01*
X346596Y200419D01*
X347080Y200904D01*
X347423Y201496D01*
X347558Y202000D01*
D02*
G37*
G36*
X344500D02*
X342442D01*
X342577Y201496D01*
X342919Y200904D01*
X343404Y200419D01*
X343996Y200077D01*
X344500Y199942D01*
Y202000D01*
D02*
G37*
G36*
X505500Y200058D02*
Y198000D01*
X507558D01*
X507423Y198504D01*
X507081Y199096D01*
X506596Y199581D01*
X506004Y199923D01*
X505500Y200058D01*
D02*
G37*
G36*
X504500D02*
X503996Y199923D01*
X503404Y199581D01*
X502919Y199096D01*
X502577Y198504D01*
X502442Y198000D01*
X504500D01*
Y200058D01*
D02*
G37*
G36*
X428000D02*
Y198000D01*
X430058D01*
X429923Y198504D01*
X429580Y199096D01*
X429096Y199581D01*
X428504Y199923D01*
X428000Y200058D01*
D02*
G37*
G36*
X427000D02*
X426496Y199923D01*
X425904Y199581D01*
X425420Y199096D01*
X425077Y198504D01*
X424942Y198000D01*
X427000D01*
Y200058D01*
D02*
G37*
G36*
X330000Y213500D02*
X325000D01*
Y206500D01*
X325971D01*
Y202500D01*
X326087Y201915D01*
X326419Y201419D01*
X328709Y199128D01*
Y197082D01*
X326876D01*
Y192918D01*
Y191760D01*
X330238D01*
X333600D01*
Y192918D01*
Y197082D01*
X331767D01*
Y199762D01*
X331651Y200347D01*
X331319Y200843D01*
X329029Y203134D01*
Y206500D01*
X330000D01*
Y208471D01*
X356113D01*
X364056Y200527D01*
X364049Y200514D01*
X363776Y199496D01*
Y198443D01*
X364049Y197426D01*
X364576Y196513D01*
X365320Y195769D01*
X366232Y195242D01*
X367250Y194970D01*
X368303D01*
X369320Y195242D01*
X370233Y195769D01*
X370977Y196513D01*
X371504Y197426D01*
X371776Y198443D01*
Y199496D01*
X371504Y200514D01*
X370977Y201426D01*
X370233Y202170D01*
X369320Y202697D01*
X368303Y202970D01*
X367250D01*
X366232Y202697D01*
X366219Y202690D01*
X357827Y211081D01*
X357331Y211413D01*
X356746Y211529D01*
X330000D01*
Y213500D01*
D02*
G37*
G36*
X507558Y197000D02*
X505500D01*
Y194942D01*
X506004Y195077D01*
X506596Y195420D01*
X507081Y195904D01*
X507423Y196496D01*
X507558Y197000D01*
D02*
G37*
G36*
X504500D02*
X502442D01*
X502577Y196496D01*
X502919Y195904D01*
X503404Y195420D01*
X503996Y195077D01*
X504500Y194942D01*
Y197000D01*
D02*
G37*
G36*
X430058D02*
X428000D01*
Y194942D01*
X428504Y195077D01*
X429096Y195420D01*
X429580Y195904D01*
X429923Y196496D01*
X430058Y197000D01*
D02*
G37*
G36*
X427000D02*
X424942D01*
X425077Y196496D01*
X425420Y195904D01*
X425904Y195420D01*
X426496Y195077D01*
X427000Y194942D01*
Y197000D01*
D02*
G37*
G36*
X620508Y194898D02*
X617449D01*
Y192626D01*
X620508D01*
Y194898D01*
D02*
G37*
G36*
X616449D02*
X613390D01*
Y192626D01*
X616449D01*
Y194898D01*
D02*
G37*
G36*
X390527Y241500D02*
X389473D01*
X388456Y241227D01*
X387544Y240701D01*
X386799Y239956D01*
X386273Y239044D01*
X386000Y238027D01*
Y236973D01*
X386273Y235956D01*
X386799Y235044D01*
X387544Y234299D01*
X388456Y233773D01*
X389473Y233500D01*
X390527D01*
X391544Y233773D01*
X391557Y233780D01*
X398471Y226867D01*
Y198159D01*
X397851Y197801D01*
X397199Y197149D01*
X396739Y196351D01*
X396500Y195461D01*
Y194539D01*
X396685Y193848D01*
X383919Y181081D01*
X383587Y180585D01*
X383471Y180000D01*
Y176059D01*
X382228D01*
Y174029D01*
X358165D01*
Y175902D01*
X356903D01*
Y184626D01*
X356787Y185211D01*
X356455Y185707D01*
X354447Y187715D01*
X353951Y188047D01*
X353777Y188082D01*
Y189602D01*
X346462D01*
Y183666D01*
X353777D01*
X353845Y183194D01*
Y175902D01*
X352583D01*
Y169098D01*
X358165D01*
Y170971D01*
X382228D01*
Y168941D01*
X387772D01*
Y176059D01*
X386529D01*
Y179367D01*
X398848Y191685D01*
X399539Y191500D01*
X400461D01*
X401351Y191738D01*
X402149Y192199D01*
X402801Y192851D01*
X403262Y193649D01*
X403500Y194539D01*
Y195461D01*
X403262Y196351D01*
X402801Y197149D01*
X402149Y197801D01*
X401529Y198159D01*
Y227500D01*
X401413Y228085D01*
X401081Y228581D01*
X393720Y235943D01*
X393727Y235956D01*
X394000Y236973D01*
Y238027D01*
X393727Y239044D01*
X393201Y239956D01*
X392456Y240701D01*
X391544Y241227D01*
X390527Y241500D01*
D02*
G37*
G36*
X243000Y192558D02*
Y190500D01*
X245058D01*
X244923Y191004D01*
X244581Y191596D01*
X244096Y192080D01*
X243504Y192423D01*
X243000Y192558D01*
D02*
G37*
G36*
X242000D02*
X241496Y192423D01*
X240904Y192080D01*
X240420Y191596D01*
X240077Y191004D01*
X239942Y190500D01*
X242000D01*
Y192558D01*
D02*
G37*
G36*
X303559Y197772D02*
X296441D01*
Y196529D01*
X287500D01*
X286915Y196413D01*
X286419Y196081D01*
X278652Y188315D01*
X277961Y188500D01*
X277039D01*
X276149Y188261D01*
X275351Y187801D01*
X274699Y187149D01*
X274238Y186351D01*
X274000Y185461D01*
Y184539D01*
X274238Y183649D01*
X274699Y182851D01*
X275351Y182199D01*
X276149Y181738D01*
X277039Y181500D01*
X277961D01*
X278851Y181738D01*
X279649Y182199D01*
X280301Y182851D01*
X280762Y183649D01*
X281000Y184539D01*
Y185461D01*
X280815Y186152D01*
X288134Y193471D01*
X296441D01*
Y192228D01*
X303559D01*
Y193471D01*
X316638D01*
Y192918D01*
X318471D01*
Y189602D01*
X316638D01*
Y185438D01*
X318471D01*
Y176059D01*
X317622D01*
Y168941D01*
X318471D01*
Y167500D01*
X318587Y166915D01*
X318919Y166419D01*
X321419Y163919D01*
X321915Y163587D01*
X322500Y163471D01*
X485748D01*
X486333Y163587D01*
X486829Y163919D01*
X498507Y175597D01*
X510890D01*
Y174354D01*
X518008D01*
Y179898D01*
X510890D01*
Y178655D01*
X498507D01*
X496529Y180633D01*
Y182642D01*
X498008D01*
Y186382D01*
Y188260D01*
X494449D01*
X490890D01*
Y186382D01*
Y182642D01*
X493471D01*
Y180000D01*
X493587Y179415D01*
X493919Y178919D01*
X495711Y177126D01*
X485114Y166529D01*
X411846D01*
X411654Y166991D01*
X435634Y190971D01*
X481441D01*
Y190122D01*
X488559D01*
Y194878D01*
X481441D01*
Y194029D01*
X435000D01*
X434415Y193913D01*
X433919Y193581D01*
X406867Y166529D01*
X323133D01*
X321529Y168133D01*
Y168941D01*
X322378D01*
Y176059D01*
X321529D01*
Y185438D01*
X323362D01*
Y189602D01*
X321529D01*
Y192918D01*
X323362D01*
Y197082D01*
X316638D01*
Y196529D01*
X303559D01*
Y197772D01*
D02*
G37*
G36*
X620508Y191626D02*
X617449D01*
Y189354D01*
X620508D01*
Y191626D01*
D02*
G37*
G36*
X616449D02*
X613390D01*
Y189354D01*
X616449D01*
Y191626D01*
D02*
G37*
G36*
X497811Y213756D02*
X491087D01*
Y206244D01*
X492919D01*
Y194878D01*
X490890D01*
Y190122D01*
Y189260D01*
X494449D01*
X498008D01*
Y190122D01*
Y194878D01*
X495978D01*
Y206244D01*
X497811D01*
Y213756D01*
D02*
G37*
G36*
X148000Y190058D02*
Y188000D01*
X150058D01*
X149923Y188504D01*
X149581Y189096D01*
X149096Y189581D01*
X148504Y189923D01*
X148000Y190058D01*
D02*
G37*
G36*
X147000D02*
X146496Y189923D01*
X145904Y189581D01*
X145420Y189096D01*
X145077Y188504D01*
X144942Y188000D01*
X147000D01*
Y190058D01*
D02*
G37*
G36*
X245058Y189500D02*
X243000D01*
Y187442D01*
X243504Y187577D01*
X244096Y187919D01*
X244581Y188404D01*
X244923Y188996D01*
X245058Y189500D01*
D02*
G37*
G36*
X242000D02*
X239942D01*
X240077Y188996D01*
X240420Y188404D01*
X240904Y187919D01*
X241496Y187577D01*
X242000Y187442D01*
Y189500D01*
D02*
G37*
G36*
X542318Y194164D02*
X541265D01*
X540247Y193892D01*
X539335Y193365D01*
X538591Y192621D01*
X538064Y191708D01*
X537791Y190691D01*
Y189638D01*
X538064Y188620D01*
X538591Y187708D01*
X539335Y186964D01*
X540247Y186437D01*
X541265Y186164D01*
X542318D01*
X543335Y186437D01*
X544247Y186964D01*
X544992Y187708D01*
X545519Y188620D01*
X545791Y189638D01*
Y190691D01*
X545519Y191708D01*
X544992Y192621D01*
X544247Y193365D01*
X543335Y193892D01*
X542318Y194164D01*
D02*
G37*
G36*
X507311Y213756D02*
X500587D01*
Y206244D01*
X507311D01*
Y208471D01*
X521315D01*
X528229Y201557D01*
X528221Y201544D01*
X527949Y200527D01*
Y199473D01*
X528221Y198456D01*
X528748Y197544D01*
X529493Y196799D01*
X530405Y196273D01*
X530419Y196269D01*
Y176059D01*
X529177D01*
Y168941D01*
X534720D01*
Y176059D01*
X533478D01*
Y196269D01*
X533493Y196273D01*
X534405Y196799D01*
X535150Y197544D01*
X535676Y198456D01*
X535680Y198471D01*
X579079D01*
Y191126D01*
X590921D01*
Y198471D01*
X613390D01*
Y197228D01*
X620508D01*
Y198471D01*
X631867D01*
X638780Y191557D01*
X638773Y191544D01*
X638500Y190527D01*
Y189473D01*
X638773Y188456D01*
X639299Y187544D01*
X640044Y186799D01*
X640956Y186273D01*
X641973Y186000D01*
X643027D01*
X644044Y186273D01*
X644956Y186799D01*
X645701Y187544D01*
X646227Y188456D01*
X646500Y189473D01*
Y190527D01*
X646227Y191544D01*
X645701Y192456D01*
X644956Y193201D01*
X644044Y193727D01*
X643027Y194000D01*
X641973D01*
X640956Y193727D01*
X640943Y193720D01*
X633581Y201081D01*
X633085Y201413D01*
X632500Y201529D01*
X620508D01*
Y202772D01*
X613390D01*
Y201529D01*
X590921D01*
Y208874D01*
X579079D01*
Y201529D01*
X535680D01*
X535676Y201544D01*
X535150Y202456D01*
X534405Y203201D01*
X533493Y203727D01*
X532475Y204000D01*
X531422D01*
X530405Y203727D01*
X530392Y203720D01*
X523030Y211081D01*
X522534Y211413D01*
X521949Y211529D01*
X507311D01*
Y213756D01*
D02*
G37*
G36*
X518008Y187772D02*
X514949D01*
Y185500D01*
X518008D01*
Y187772D01*
D02*
G37*
G36*
X563000Y187558D02*
Y185500D01*
X565058D01*
X564923Y186004D01*
X564580Y186596D01*
X564096Y187081D01*
X563504Y187423D01*
X563000Y187558D01*
D02*
G37*
G36*
X562000D02*
X561496Y187423D01*
X560904Y187081D01*
X560420Y186596D01*
X560077Y186004D01*
X559942Y185500D01*
X562000D01*
Y187558D01*
D02*
G37*
G36*
X413000D02*
Y185500D01*
X415058D01*
X414923Y186004D01*
X414580Y186596D01*
X414096Y187081D01*
X413504Y187423D01*
X413000Y187558D01*
D02*
G37*
G36*
X412000D02*
X411496Y187423D01*
X410904Y187081D01*
X410420Y186596D01*
X410077Y186004D01*
X409942Y185500D01*
X412000D01*
Y187558D01*
D02*
G37*
G36*
X513949Y187772D02*
X510890D01*
Y185500D01*
X513949D01*
Y187772D01*
D02*
G37*
G36*
X353777Y196689D02*
X346462D01*
Y190752D01*
X353777D01*
Y192191D01*
X355646D01*
X358919Y188919D01*
X359415Y188587D01*
X360000Y188471D01*
X373656D01*
X373892Y187590D01*
X374418Y186678D01*
X375163Y185933D01*
X376075Y185407D01*
X377092Y185134D01*
X378146D01*
X379163Y185407D01*
X380075Y185933D01*
X380820Y186678D01*
X381346Y187590D01*
X381619Y188607D01*
Y189661D01*
X381346Y190678D01*
X380820Y191590D01*
X380075Y192335D01*
X379163Y192861D01*
X378146Y193134D01*
X377092D01*
X376075Y192861D01*
X375163Y192335D01*
X374418Y191590D01*
X374383Y191529D01*
X360633D01*
X357361Y194802D01*
X356865Y195134D01*
X356279Y195250D01*
X353777D01*
Y196689D01*
D02*
G37*
G36*
X150058Y187000D02*
X148000D01*
Y184942D01*
X148504Y185077D01*
X149096Y185419D01*
X149581Y185904D01*
X149923Y186496D01*
X150058Y187000D01*
D02*
G37*
G36*
X147000D02*
X144942D01*
X145077Y186496D01*
X145420Y185904D01*
X145904Y185419D01*
X146496Y185077D01*
X147000Y184942D01*
Y187000D01*
D02*
G37*
G36*
X450705Y188264D02*
X443193D01*
Y181736D01*
X450705D01*
Y183471D01*
X462977D01*
X463083Y182941D01*
X463412Y182448D01*
X463906Y182118D01*
X464488Y182002D01*
X469409D01*
X469992Y182118D01*
X470485Y182448D01*
X470815Y182941D01*
X470920Y183471D01*
X481441D01*
Y182642D01*
X488559D01*
Y187398D01*
X481441D01*
Y186529D01*
X470920D01*
X470815Y187059D01*
X470485Y187552D01*
X469992Y187882D01*
X469409Y187998D01*
X464488D01*
X463906Y187882D01*
X463412Y187552D01*
X463083Y187059D01*
X462977Y186529D01*
X450705D01*
Y188264D01*
D02*
G37*
G36*
X565058Y184500D02*
X563000D01*
Y182442D01*
X563504Y182577D01*
X564096Y182920D01*
X564580Y183404D01*
X564923Y183996D01*
X565058Y184500D01*
D02*
G37*
G36*
X562000D02*
X559942D01*
X560077Y183996D01*
X560420Y183404D01*
X560904Y182920D01*
X561496Y182577D01*
X562000Y182442D01*
Y184500D01*
D02*
G37*
G36*
X415058D02*
X413000D01*
Y182442D01*
X413504Y182577D01*
X414096Y182920D01*
X414580Y183404D01*
X414923Y183996D01*
X415058Y184500D01*
D02*
G37*
G36*
X412000D02*
X409942D01*
X410077Y183996D01*
X410420Y183404D01*
X410904Y182920D01*
X411496Y182577D01*
X412000Y182442D01*
Y184500D01*
D02*
G37*
G36*
X518008D02*
X514949D01*
Y182228D01*
X518008D01*
Y184500D01*
D02*
G37*
G36*
X513949D02*
X510890D01*
Y182228D01*
X513949D01*
Y184500D01*
D02*
G37*
G36*
X368000Y182558D02*
Y180500D01*
X370058D01*
X369923Y181004D01*
X369581Y181596D01*
X369096Y182080D01*
X368504Y182423D01*
X368000Y182558D01*
D02*
G37*
G36*
X367000D02*
X366496Y182423D01*
X365904Y182080D01*
X365420Y181596D01*
X365077Y181004D01*
X364942Y180500D01*
X367000D01*
Y182558D01*
D02*
G37*
G36*
X340500D02*
Y180500D01*
X342558D01*
X342423Y181004D01*
X342080Y181596D01*
X341596Y182080D01*
X341004Y182423D01*
X340500Y182558D01*
D02*
G37*
G36*
X339500D02*
X338996Y182423D01*
X338404Y182080D01*
X337919Y181596D01*
X337577Y181004D01*
X337442Y180500D01*
X339500D01*
Y182558D01*
D02*
G37*
G36*
X590921Y187220D02*
X585500D01*
Y178846D01*
X590921D01*
Y187220D01*
D02*
G37*
G36*
X584500D02*
X579079D01*
Y178846D01*
X584500D01*
Y187220D01*
D02*
G37*
G36*
X450705Y180980D02*
X447449D01*
Y178217D01*
X450705D01*
Y180980D01*
D02*
G37*
G36*
X446449D02*
X443193D01*
Y178217D01*
X446449D01*
Y180980D01*
D02*
G37*
G36*
X370058Y179500D02*
X368000D01*
Y177442D01*
X368504Y177577D01*
X369096Y177919D01*
X369581Y178404D01*
X369923Y178996D01*
X370058Y179500D01*
D02*
G37*
G36*
X367000D02*
X364942D01*
X365077Y178996D01*
X365420Y178404D01*
X365904Y177919D01*
X366496Y177577D01*
X367000Y177442D01*
Y179500D01*
D02*
G37*
G36*
X342558D02*
X340500D01*
Y177442D01*
X341004Y177577D01*
X341596Y177919D01*
X342080Y178404D01*
X342423Y178996D01*
X342558Y179500D01*
D02*
G37*
G36*
X339500D02*
X337442D01*
X337577Y178996D01*
X337919Y178404D01*
X338404Y177919D01*
X338996Y177577D01*
X339500Y177442D01*
Y179500D01*
D02*
G37*
G36*
X263000Y177558D02*
Y175500D01*
X265058D01*
X264923Y176004D01*
X264580Y176596D01*
X264096Y177081D01*
X263504Y177423D01*
X263000Y177558D01*
D02*
G37*
G36*
X262000D02*
X261496Y177423D01*
X260904Y177081D01*
X260420Y176596D01*
X260077Y176004D01*
X259942Y175500D01*
X262000D01*
Y177558D01*
D02*
G37*
G36*
X450705Y177217D02*
X447449D01*
Y174453D01*
X450705D01*
Y177217D01*
D02*
G37*
G36*
X446449D02*
X443193D01*
Y174453D01*
X446449D01*
Y177217D01*
D02*
G37*
G36*
X542594Y176059D02*
X540323D01*
Y173000D01*
X542594D01*
Y176059D01*
D02*
G37*
G36*
X395646D02*
X393374D01*
Y173000D01*
X395646D01*
Y176059D01*
D02*
G37*
G36*
X458000Y175058D02*
Y173000D01*
X460058D01*
X459923Y173504D01*
X459581Y174096D01*
X459096Y174581D01*
X458504Y174923D01*
X458000Y175058D01*
D02*
G37*
G36*
X457000D02*
X456496Y174923D01*
X455904Y174581D01*
X455419Y174096D01*
X455077Y173504D01*
X454942Y173000D01*
X457000D01*
Y175058D01*
D02*
G37*
G36*
X433000D02*
Y173000D01*
X435058D01*
X434923Y173504D01*
X434581Y174096D01*
X434096Y174581D01*
X433504Y174923D01*
X433000Y175058D01*
D02*
G37*
G36*
X432000D02*
X431496Y174923D01*
X430904Y174581D01*
X430419Y174096D01*
X430077Y173504D01*
X429942Y173000D01*
X432000D01*
Y175058D01*
D02*
G37*
G36*
X539323Y176059D02*
X537051D01*
Y173000D01*
X539323D01*
Y176059D01*
D02*
G37*
G36*
X392374D02*
X390102D01*
Y173000D01*
X392374D01*
Y176059D01*
D02*
G37*
G36*
X265058Y174500D02*
X263000D01*
Y172442D01*
X263504Y172577D01*
X264096Y172919D01*
X264580Y173404D01*
X264923Y173996D01*
X265058Y174500D01*
D02*
G37*
G36*
X262000D02*
X259942D01*
X260077Y173996D01*
X260420Y173404D01*
X260904Y172919D01*
X261496Y172577D01*
X262000Y172442D01*
Y174500D01*
D02*
G37*
G36*
X680837Y178500D02*
X680500D01*
Y170500D01*
X688500D01*
Y170837D01*
X688173Y172479D01*
X687533Y174026D01*
X686602Y175418D01*
X685418Y176602D01*
X684026Y177533D01*
X682479Y178173D01*
X680837Y178500D01*
D02*
G37*
G36*
X679500D02*
X679163D01*
X677521Y178173D01*
X675974Y177533D01*
X674582Y176602D01*
X673398Y175418D01*
X672467Y174026D01*
X671827Y172479D01*
X671500Y170837D01*
Y170500D01*
X679500D01*
Y178500D01*
D02*
G37*
G36*
X120837D02*
X120500D01*
Y170500D01*
X128500D01*
Y170837D01*
X128173Y172479D01*
X127533Y174026D01*
X126602Y175418D01*
X125418Y176602D01*
X124026Y177533D01*
X122479Y178173D01*
X120837Y178500D01*
D02*
G37*
G36*
X119500D02*
X119163D01*
X117521Y178173D01*
X115974Y177533D01*
X114582Y176602D01*
X113398Y175418D01*
X112467Y174026D01*
X111827Y172479D01*
X111500Y170837D01*
Y170500D01*
X119500D01*
Y178500D01*
D02*
G37*
G36*
X460058Y172000D02*
X458000D01*
Y169942D01*
X458504Y170077D01*
X459096Y170420D01*
X459581Y170904D01*
X459923Y171496D01*
X460058Y172000D01*
D02*
G37*
G36*
X457000D02*
X454942D01*
X455077Y171496D01*
X455419Y170904D01*
X455904Y170420D01*
X456496Y170077D01*
X457000Y169942D01*
Y172000D01*
D02*
G37*
G36*
X435058D02*
X433000D01*
Y169942D01*
X433504Y170077D01*
X434096Y170420D01*
X434581Y170904D01*
X434923Y171496D01*
X435058Y172000D01*
D02*
G37*
G36*
X432000D02*
X429942D01*
X430077Y171496D01*
X430419Y170904D01*
X430904Y170420D01*
X431496Y170077D01*
X432000Y169942D01*
Y172000D01*
D02*
G37*
G36*
X590921Y177846D02*
X585500D01*
Y169472D01*
X590921D01*
Y177846D01*
D02*
G37*
G36*
X584500D02*
X579079D01*
Y169472D01*
X584500D01*
Y177846D01*
D02*
G37*
G36*
X333600Y190760D02*
X330238D01*
X326876D01*
Y189178D01*
Y185438D01*
X328709D01*
Y183371D01*
X326419Y181081D01*
X326087Y180585D01*
X325971Y180000D01*
Y176059D01*
X325102D01*
Y168941D01*
X329858D01*
Y170971D01*
X339709D01*
Y169098D01*
X345291D01*
Y175902D01*
X339709D01*
Y174029D01*
X329858D01*
Y176059D01*
X329029D01*
Y179367D01*
X331319Y181657D01*
X331651Y182153D01*
X331767Y182738D01*
Y185438D01*
X333600D01*
Y189178D01*
Y190760D01*
D02*
G37*
G36*
X469409Y180124D02*
X464488D01*
X463906Y180008D01*
X463412Y179678D01*
X463083Y179185D01*
X462967Y178602D01*
Y175650D01*
X463083Y175067D01*
X463412Y174574D01*
X463906Y174244D01*
X464488Y174128D01*
X469409D01*
X469992Y174244D01*
X470485Y174574D01*
X470815Y175067D01*
X470920Y175597D01*
X474692D01*
X478320Y171969D01*
X478300Y171895D01*
Y171210D01*
X478477Y170549D01*
X478819Y169956D01*
X479303Y169472D01*
X479896Y169129D01*
X480557Y168952D01*
X481242D01*
X481903Y169129D01*
X482496Y169472D01*
X482980Y169956D01*
X483323Y170549D01*
X483500Y171210D01*
Y171895D01*
X483323Y172556D01*
X482980Y173149D01*
X482496Y173633D01*
X481903Y173975D01*
X481242Y174152D01*
X480557D01*
X480483Y174132D01*
X476407Y178207D01*
X475911Y178539D01*
X475326Y178655D01*
X470920D01*
X470815Y179185D01*
X470485Y179678D01*
X469992Y180008D01*
X469409Y180124D01*
D02*
G37*
G36*
X542594Y172000D02*
X540323D01*
Y168941D01*
X542594D01*
Y172000D01*
D02*
G37*
G36*
X539323D02*
X537051D01*
Y168941D01*
X539323D01*
Y172000D01*
D02*
G37*
G36*
X395646D02*
X393374D01*
Y168941D01*
X395646D01*
Y172000D01*
D02*
G37*
G36*
X392374D02*
X390102D01*
Y168941D01*
X392374D01*
Y172000D01*
D02*
G37*
G36*
X550500Y165058D02*
Y163000D01*
X552558D01*
X552423Y163504D01*
X552080Y164096D01*
X551596Y164581D01*
X551004Y164923D01*
X550500Y165058D01*
D02*
G37*
G36*
X549500D02*
X548996Y164923D01*
X548404Y164581D01*
X547920Y164096D01*
X547577Y163504D01*
X547442Y163000D01*
X549500D01*
Y165058D01*
D02*
G37*
G36*
X688500Y169500D02*
X680500D01*
Y161500D01*
X680837D01*
X682479Y161827D01*
X684026Y162467D01*
X685418Y163398D01*
X686602Y164582D01*
X687533Y165974D01*
X688173Y167521D01*
X688500Y169163D01*
Y169500D01*
D02*
G37*
G36*
X679500D02*
X671500D01*
Y169163D01*
X671827Y167521D01*
X672467Y165974D01*
X673398Y164582D01*
X674582Y163398D01*
X675974Y162467D01*
X677521Y161827D01*
X679163Y161500D01*
X679500D01*
Y169500D01*
D02*
G37*
G36*
X128500D02*
X120500D01*
Y161500D01*
X120837D01*
X122479Y161827D01*
X124026Y162467D01*
X125418Y163398D01*
X126602Y164582D01*
X127533Y165974D01*
X128173Y167521D01*
X128500Y169163D01*
Y169500D01*
D02*
G37*
G36*
X119500D02*
X111500D01*
Y169163D01*
X111827Y167521D01*
X112467Y165974D01*
X113398Y164582D01*
X114582Y163398D01*
X115974Y162467D01*
X117521Y161827D01*
X119163Y161500D01*
X119500D01*
Y169500D01*
D02*
G37*
G36*
X552558Y162000D02*
X550500D01*
Y159942D01*
X551004Y160077D01*
X551596Y160419D01*
X552080Y160904D01*
X552423Y161496D01*
X552558Y162000D01*
D02*
G37*
G36*
X549500D02*
X547442D01*
X547577Y161496D01*
X547920Y160904D01*
X548404Y160419D01*
X548996Y160077D01*
X549500Y159942D01*
Y162000D01*
D02*
G37*
%LPD*%
G36*
X254236Y303646D02*
X260626D01*
X260764Y303646D01*
X261126D01*
X261264Y303646D01*
X262860D01*
Y296354D01*
X261264D01*
X261126Y296354D01*
X260764D01*
X260626Y296354D01*
X254236D01*
Y294029D01*
X253134D01*
X251529Y295634D01*
Y300000D01*
X251413Y300585D01*
X251081Y301081D01*
X248581Y303581D01*
X248085Y303913D01*
X247500Y304029D01*
X244582D01*
X244228Y304383D01*
X244228Y304878D01*
X244228Y305378D01*
Y305971D01*
X254236D01*
Y303646D01*
D02*
G37*
D10*
X252500Y375000D02*
D03*
X140000Y282500D02*
D03*
X390000Y237500D02*
D03*
X642500Y190000D02*
D03*
D11*
X330238Y187520D02*
D03*
Y191260D02*
D03*
Y195000D02*
D03*
X320000D02*
D03*
Y187520D02*
D03*
D12*
X616949Y200000D02*
D03*
Y192126D02*
D03*
X514449Y177126D02*
D03*
Y185000D02*
D03*
X300000Y202874D02*
D03*
Y195000D02*
D03*
X360000Y277126D02*
D03*
Y285000D02*
D03*
X350000Y335000D02*
D03*
Y342874D02*
D03*
X360000Y299626D02*
D03*
Y307500D02*
D03*
X622500Y377500D02*
D03*
Y369626D02*
D03*
X422500Y377500D02*
D03*
Y369626D02*
D03*
X622500Y235000D02*
D03*
Y227126D02*
D03*
X422500Y235000D02*
D03*
Y227126D02*
D03*
X255000Y405000D02*
D03*
Y412874D02*
D03*
X330000Y240000D02*
D03*
Y232126D02*
D03*
X257500Y240000D02*
D03*
Y232126D02*
D03*
X222500Y329626D02*
D03*
Y337500D02*
D03*
Y362874D02*
D03*
Y355000D02*
D03*
D13*
X585000Y178346D02*
D03*
Y200000D02*
D03*
D14*
X494449Y210000D02*
D03*
X503949D02*
D03*
D15*
X531949Y172500D02*
D03*
X539823D02*
D03*
X392874D02*
D03*
X385000D02*
D03*
X272126Y347500D02*
D03*
X280000D02*
D03*
X272126Y332500D02*
D03*
X280000D02*
D03*
X172126Y302500D02*
D03*
X180000D02*
D03*
D16*
X446949Y185000D02*
D03*
Y177717D02*
D03*
D17*
X466949Y185000D02*
D03*
Y177126D02*
D03*
D18*
X485000Y185020D02*
D03*
Y192500D02*
D03*
X494449D02*
D03*
Y188760D02*
D03*
Y185020D02*
D03*
D19*
X327500Y210000D02*
D03*
X321500D02*
D03*
D20*
X355374Y172500D02*
D03*
X342500D02*
D03*
D21*
X350119Y193721D02*
D03*
Y186634D02*
D03*
D22*
X327480Y172500D02*
D03*
X320000D02*
D03*
D23*
X400138Y322854D02*
D03*
Y320295D02*
D03*
Y317736D02*
D03*
Y315177D02*
D03*
Y312618D02*
D03*
Y310059D02*
D03*
Y307500D02*
D03*
Y304941D02*
D03*
Y302382D02*
D03*
Y299823D02*
D03*
Y297264D02*
D03*
Y294705D02*
D03*
Y292146D02*
D03*
Y289587D02*
D03*
X377500D02*
D03*
Y292146D02*
D03*
Y294705D02*
D03*
Y297264D02*
D03*
Y299823D02*
D03*
Y302382D02*
D03*
Y304941D02*
D03*
Y307500D02*
D03*
Y310059D02*
D03*
Y312618D02*
D03*
Y315177D02*
D03*
Y317736D02*
D03*
Y320295D02*
D03*
Y322854D02*
D03*
D24*
X280000Y405000D02*
D03*
Y411890D02*
D03*
X585000Y430610D02*
D03*
Y437500D02*
D03*
X515000Y430610D02*
D03*
Y437500D02*
D03*
X445000Y430610D02*
D03*
Y437500D02*
D03*
D25*
X659291Y222008D02*
D03*
Y235000D02*
D03*
X640000Y222008D02*
D03*
Y235000D02*
D03*
X459291Y364508D02*
D03*
Y377500D02*
D03*
X440000Y364508D02*
D03*
Y377500D02*
D03*
X659291Y364508D02*
D03*
Y377500D02*
D03*
X640000Y364508D02*
D03*
Y377500D02*
D03*
X459291Y222008D02*
D03*
Y235000D02*
D03*
X440000Y222008D02*
D03*
Y235000D02*
D03*
D26*
X192500Y166750D02*
D03*
Y253250D02*
D03*
D27*
Y210000D02*
D03*
D28*
X264390Y307500D02*
D03*
X257500D02*
D03*
X264390Y292500D02*
D03*
X257500D02*
D03*
X170000Y412500D02*
D03*
X176890D02*
D03*
X190000D02*
D03*
X196890D02*
D03*
D29*
X238110Y272500D02*
D03*
Y277500D02*
D03*
Y282500D02*
D03*
Y287500D02*
D03*
Y292500D02*
D03*
Y297500D02*
D03*
Y302500D02*
D03*
Y307500D02*
D03*
X201890Y272500D02*
D03*
Y277500D02*
D03*
Y282500D02*
D03*
Y287500D02*
D03*
Y292500D02*
D03*
Y297500D02*
D03*
Y302500D02*
D03*
Y307500D02*
D03*
D30*
X178334Y387500D02*
D03*
X170000D02*
D03*
X198334D02*
D03*
X190000D02*
D03*
D31*
X137500Y400374D02*
D03*
Y392500D02*
D03*
D32*
Y376300D02*
D03*
Y357500D02*
D03*
D33*
X201280Y333366D02*
D03*
Y335925D02*
D03*
Y338484D02*
D03*
Y341043D02*
D03*
Y343602D02*
D03*
Y346161D02*
D03*
Y348720D02*
D03*
Y351280D02*
D03*
Y353839D02*
D03*
Y356398D02*
D03*
Y358957D02*
D03*
Y361516D02*
D03*
Y364075D02*
D03*
Y366634D02*
D03*
X173720Y333366D02*
D03*
Y335925D02*
D03*
Y338484D02*
D03*
Y341043D02*
D03*
Y343602D02*
D03*
Y346161D02*
D03*
Y348720D02*
D03*
Y351280D02*
D03*
Y353839D02*
D03*
Y356398D02*
D03*
Y358957D02*
D03*
Y361516D02*
D03*
Y364075D02*
D03*
Y366634D02*
D03*
D34*
X107500Y332815D02*
D03*
Y362736D02*
D03*
D35*
Y343051D02*
D03*
Y352500D02*
D03*
D36*
X118032Y342657D02*
D03*
Y345217D02*
D03*
Y347776D02*
D03*
Y350335D02*
D03*
Y352894D02*
D03*
D37*
X574606Y354134D02*
Y354134D01*
X565000Y370000D02*
X575000Y360000D01*
Y354134D02*
Y360000D01*
X515000Y353583D02*
X515551Y354134D01*
X515000Y353583D02*
Y354134D01*
X474036Y312618D02*
X515000Y353583D01*
X585000Y302500D02*
Y354134D01*
X579764Y297264D02*
X585000Y302500D01*
X476890Y345000D02*
X486024Y354134D01*
X517028Y362500D02*
X525394Y354134D01*
X387500Y302500D02*
X392500Y307500D01*
X387500Y280000D02*
Y302500D01*
X365000Y257500D02*
X387500Y280000D01*
X317500Y257500D02*
X365000D01*
X300000Y275000D02*
X317500Y257500D01*
X300000Y285000D02*
X307500D01*
X312500Y280000D01*
Y275000D02*
Y280000D01*
Y275000D02*
X323100Y264400D01*
X364400D01*
X385000Y285000D01*
Y305000D01*
X390059Y310059D01*
X400138D01*
X392500Y307500D02*
X400138D01*
X392500Y277500D02*
Y300000D01*
X367500Y252500D02*
X392500Y277500D01*
X585000Y437500D02*
X607500D01*
X515000D02*
X537500D01*
X445000D02*
X467500D01*
X382500Y437500D02*
X393642D01*
X365000Y420000D02*
X382500Y437500D01*
X307500Y420000D02*
X365000D01*
X222500Y355000D02*
X247500D01*
X252500Y360000D02*
Y375000D01*
X247500Y355000D02*
X252500Y360000D01*
X247500Y355000D02*
X277500D01*
X616949Y200000D02*
X632500D01*
X642500Y190000D01*
X400000Y195000D02*
Y227500D01*
X390000Y237500D02*
X400000Y227500D01*
X422500Y377500D02*
Y387500D01*
X430354Y292146D02*
X437500Y285000D01*
X400138Y292146D02*
X430354D01*
X437500Y285000D02*
X537500D01*
X552795Y294705D02*
X560000Y287500D01*
X400138Y294705D02*
X552795D01*
X562323Y299823D02*
X580000Y317500D01*
X400138Y299823D02*
X562323D01*
X400138Y297264D02*
X579764D01*
X383913Y317736D02*
X401177Y335000D01*
X422500D01*
X410354Y322854D02*
X415000Y327500D01*
X400138Y322854D02*
X410354D01*
X422795Y320295D02*
X430000Y327500D01*
X400138Y320295D02*
X422795D01*
X355000Y307500D02*
X360000D01*
X337500Y325000D02*
X355000Y307500D01*
X330000Y325000D02*
X337500D01*
X472500Y362500D02*
X517028D01*
X462500Y352500D02*
X472500Y362500D01*
X390000Y352500D02*
X462500D01*
X370000Y332500D02*
X390000Y352500D01*
X435000Y370000D02*
X565000D01*
X425000Y360000D02*
X435000Y370000D01*
X382500Y360000D02*
X425000D01*
X365000Y342500D02*
X382500Y360000D01*
X365000Y322854D02*
X372677Y315177D01*
X365000Y322854D02*
Y342500D01*
X372677Y315177D02*
X377500D01*
X370000Y322500D02*
Y332500D01*
Y322500D02*
X372205Y320295D01*
X377500D01*
Y317736D02*
X383913D01*
X385118Y312618D02*
X390000Y317500D01*
X377500Y312618D02*
X385118D01*
X392500Y345000D02*
X476890D01*
X377500Y330000D02*
X392500Y345000D01*
X377500Y322854D02*
Y330000D01*
X400138Y312618D02*
X474036D01*
X400138Y315177D02*
X466752D01*
X505709Y354134D01*
X400138Y317736D02*
X459469D01*
X495866Y354134D01*
X360350Y319650D02*
Y352500D01*
X315000Y359650D02*
X353201D01*
X360350Y352500D01*
Y319650D02*
X369941Y310059D01*
X310350Y355000D02*
X315000Y359650D01*
X300000Y355000D02*
X310350D01*
X369941Y310059D02*
X377500D01*
X322500Y165000D02*
X485748D01*
X442500Y385000D02*
X620000D01*
X422500Y235000D02*
X440000D01*
X442500Y227500D02*
X467500D01*
X322500Y165000D02*
X407500D01*
X352320Y285000D02*
X360000D01*
X344494Y292826D02*
X352320Y285000D01*
X385000Y180000D02*
X400000Y195000D01*
X385000Y172500D02*
Y180000D01*
X459291Y235000D02*
Y238209D01*
X452500Y245000D02*
X459291Y238209D01*
X447500Y245000D02*
X452500D01*
X360000Y285000D02*
X365000D01*
X367500Y287500D01*
Y302500D01*
X307500Y252500D02*
X367500D01*
X440000Y230000D02*
Y235000D01*
Y230000D02*
X442500Y227500D01*
X467500D02*
X475000Y235000D01*
X622500D01*
X290000Y270000D02*
X307500Y252500D01*
X367500Y302500D02*
X370000Y305000D01*
X370059Y304941D01*
X377500D01*
X225000Y270000D02*
Y292500D01*
X208250Y253250D02*
X225000Y270000D01*
X192500Y253250D02*
X208250D01*
X155000Y325000D02*
X182500D01*
X132224Y347776D02*
X155000Y325000D01*
X118032Y347776D02*
X132224D01*
X295000Y305000D02*
X300000D01*
X290000Y300000D02*
X295000Y305000D01*
X290000Y270000D02*
Y300000D01*
X475326Y177126D02*
X480900Y171552D01*
X466949Y177126D02*
X475326D01*
X257500Y280000D02*
X260000Y277500D01*
X257500Y280000D02*
Y292500D01*
X238110Y313110D02*
X245000Y320000D01*
X238110Y307500D02*
Y313110D01*
X394882Y302382D02*
X400138D01*
X392500Y300000D02*
X394882Y302382D01*
X230000Y297500D02*
X238110D01*
X225000Y292500D02*
X230000Y297500D01*
X422500Y387500D02*
X427500Y392500D01*
X435000Y192500D02*
X485000D01*
X407500Y165000D02*
X435000Y192500D01*
X485748Y165000D02*
X497874Y177126D01*
X320000Y167500D02*
X322500Y165000D01*
X320000Y167500D02*
Y172500D01*
X531949Y200000D02*
X585000D01*
X360000Y307500D02*
X377500D01*
X480000Y227500D02*
X602500D01*
X465000Y212500D02*
X480000Y227500D01*
X445000Y212500D02*
X465000D01*
X440000Y217500D02*
X445000Y212500D01*
X440000Y217500D02*
Y222008D01*
X640000Y235000D02*
Y252500D01*
X650000Y262500D01*
Y375000D01*
X647500Y377500D02*
X650000Y375000D01*
X640000Y377500D02*
X647500D01*
X670000Y265000D02*
Y372500D01*
X644508Y222008D02*
X650000Y227500D01*
Y245000D01*
X670000Y265000D01*
X665000Y377500D02*
X670000Y372500D01*
X659291Y377500D02*
X665000D01*
X622500D02*
Y382500D01*
X620000Y385000D02*
X622500Y382500D01*
X440000Y377500D02*
Y382500D01*
X442500Y385000D01*
X521949Y210000D02*
X531949Y200000D01*
X503949Y210000D02*
X521949D01*
X531949Y172500D02*
Y200000D01*
X497874Y177126D02*
X514449D01*
X495000Y180000D02*
X497874Y177126D01*
X495000Y180000D02*
Y184469D01*
X494449Y185020D02*
X495000Y184469D01*
X327480Y172500D02*
X327500Y172520D01*
Y180000D01*
X330238Y182738D01*
Y187520D01*
X376753Y190000D02*
X377619Y189134D01*
X360000Y190000D02*
X376753D01*
X356279Y193721D02*
X360000Y190000D01*
X350119Y193721D02*
X356279D01*
X327500Y210000D02*
X356746D01*
X367776Y198970D01*
X330238Y195000D02*
Y199762D01*
X327500Y202500D02*
X330238Y199762D01*
X327500Y202500D02*
Y210000D01*
X355374Y172500D02*
Y184626D01*
X353366Y186634D02*
X355374Y184626D01*
X350119Y186634D02*
X353366D01*
X327480Y172500D02*
X342500D01*
X355374D02*
X385000D01*
X615000Y215000D02*
X642500D01*
X602500Y227500D02*
X615000Y215000D01*
X585000Y200000D02*
X616949D01*
X494449Y192500D02*
Y210000D01*
X484980Y185000D02*
X485000Y185020D01*
X466949Y185000D02*
X484980D01*
X446949D02*
X466949D01*
X304213Y240000D02*
X330000D01*
X257500D02*
X285000D01*
X330000Y335000D02*
X350000D01*
X642500Y215000D02*
X659291Y231791D01*
Y235000D01*
X640000Y222008D02*
X644508D01*
X605492Y364508D02*
X640000D01*
X592500Y377500D02*
X605492Y364508D01*
X459291Y377500D02*
X592500D01*
X240374Y412874D02*
X255000D01*
X237500Y410000D02*
X240374Y412874D01*
X157500Y372500D02*
Y402500D01*
Y372500D02*
X165925Y364075D01*
X173720D01*
X157500Y347500D02*
X166398Y356398D01*
X173720D01*
Y366634D02*
Y371280D01*
X170000Y375000D02*
X173720Y371280D01*
X165000Y375000D02*
X170000D01*
X144626Y400374D02*
X152500Y392500D01*
Y370000D02*
Y392500D01*
Y370000D02*
X163543Y358957D01*
X178250Y166750D02*
X192500D01*
X165000Y180000D02*
X178250Y166750D01*
X165000Y180000D02*
Y240000D01*
X178250Y253250D01*
X192500D01*
X300000Y412500D02*
X307500Y420000D01*
X300000Y405000D02*
Y412500D01*
X252500Y292500D02*
X257500D01*
X250000Y295000D02*
X252500Y292500D01*
X250000Y295000D02*
Y300000D01*
X247500Y302500D02*
X250000Y300000D01*
X238110Y302500D02*
X247500D01*
X238110Y307500D02*
X257500D01*
X190866Y333366D02*
X201280D01*
X182500Y325000D02*
X190866Y333366D01*
X188425Y335925D02*
X201280D01*
X180000Y327500D02*
X188425Y335925D01*
X157500Y327500D02*
X180000D01*
X134665Y350335D02*
X157500Y327500D01*
X118032Y350335D02*
X134665D01*
X201280Y338484D02*
X214016D01*
X215000Y337500D01*
X202500Y317500D02*
X212500Y327500D01*
X190000Y317500D02*
X202500D01*
X212500Y327500D02*
Y335000D01*
X180000Y307500D02*
X190000Y317500D01*
X180000Y302500D02*
Y307500D01*
X212500Y335000D02*
X215000Y337500D01*
X180000Y302500D02*
X201890D01*
X264390Y292500D02*
Y307500D01*
Y323110D01*
X250000Y337500D02*
X264390Y323110D01*
X222500Y337500D02*
X250000D01*
X215000D02*
X222500D01*
X201280Y353839D02*
X209071D01*
X212500Y357267D01*
X193720Y351280D02*
X201280D01*
X190000Y355000D02*
X193720Y351280D01*
X190000Y355000D02*
Y375000D01*
X178334Y386666D02*
X190000Y375000D01*
X178334Y386666D02*
Y387500D01*
X212500Y357267D02*
Y382500D01*
X207500Y387500D02*
X212500Y382500D01*
X198334Y387500D02*
X207500D01*
X255000Y405000D02*
X280000D01*
X300000D01*
X622500Y235000D02*
X640000D01*
X622500Y377500D02*
X640000D01*
X422500D02*
X440000D01*
X320000Y172500D02*
Y187520D01*
Y195000D01*
X300000D02*
X320000D01*
X287500D02*
X300000D01*
X277500Y185000D02*
X287500Y195000D01*
X145000Y415000D02*
X152500Y422500D01*
X137500Y407500D02*
X145000Y415000D01*
X317500Y325000D02*
X330000D01*
X315000Y327500D02*
X317500Y325000D01*
X315000Y327500D02*
Y342500D01*
X312500Y345000D02*
X315000Y342500D01*
X300000Y345000D02*
X312500D01*
X287500D02*
X300000D01*
X285000Y347500D02*
X287500Y345000D01*
X280000Y347500D02*
X285000D01*
X280000Y332500D02*
Y347500D01*
Y352500D01*
X277500Y355000D02*
X280000Y352500D01*
Y411890D02*
Y417500D01*
X275000Y422500D02*
X280000Y417500D01*
X185000Y422500D02*
X275000D01*
X222500Y350000D02*
Y355000D01*
X218661Y346161D02*
X222500Y350000D01*
X201280Y346161D02*
X218661D01*
X173720Y358957D02*
X181043D01*
X193839Y346161D01*
X201280D01*
X163543Y358957D02*
X173720D01*
X137500Y400374D02*
X144626D01*
X196890Y406890D02*
Y412500D01*
X190000Y400000D02*
X196890Y406890D01*
X190000Y387500D02*
Y400000D01*
X170000Y387500D02*
Y400000D01*
X176890Y406890D01*
Y412500D01*
X137500Y400374D02*
Y407500D01*
X165000Y422500D02*
X185000D01*
X152500D02*
X165000D01*
X170000Y417500D01*
Y412500D02*
Y417500D01*
X190000Y412500D02*
Y417500D01*
X185000Y422500D02*
X190000Y417500D01*
X137500Y376300D02*
Y392500D01*
X127500Y357500D02*
X137500D01*
X122894Y352894D02*
X127500Y357500D01*
X118032Y352894D02*
X122894D01*
D38*
X475000Y354134D02*
D03*
X485000D02*
D03*
X495000D02*
D03*
X505000D02*
D03*
X515000D02*
D03*
X525000D02*
D03*
X535000D02*
D03*
X545000D02*
D03*
X555000D02*
D03*
X565000D02*
D03*
X575000D02*
D03*
X585000D02*
D03*
X595000D02*
D03*
X605000D02*
D03*
X615000D02*
D03*
X625000D02*
D03*
X545000Y245866D02*
D03*
X495000D02*
D03*
X525000D02*
D03*
X575000D02*
D03*
X605000D02*
D03*
X625000D02*
D03*
X411358Y437500D02*
D03*
X393642D02*
D03*
X541791Y209850D02*
D03*
X531949Y200000D02*
D03*
X541791Y190164D02*
D03*
X377619Y189134D02*
D03*
X367776Y198970D02*
D03*
X377619Y208819D02*
D03*
X607500Y437500D02*
D03*
X625217D02*
D03*
X537500D02*
D03*
X555217D02*
D03*
X467500D02*
D03*
X485217D02*
D03*
X285000Y240000D02*
D03*
X304213D02*
D03*
D39*
X475000Y245866D02*
D03*
D40*
X416280Y427658D02*
D03*
X388720D02*
D03*
X602579Y427657D02*
D03*
X630138D02*
D03*
X532579D02*
D03*
X560138D02*
D03*
X462579D02*
D03*
X490138D02*
D03*
D41*
X330000Y275000D02*
D03*
Y285000D02*
D03*
Y295000D02*
D03*
Y305000D02*
D03*
Y315000D02*
D03*
Y325000D02*
D03*
Y335000D02*
D03*
Y345000D02*
D03*
Y355000D02*
D03*
Y365000D02*
D03*
Y375000D02*
D03*
Y385000D02*
D03*
Y395000D02*
D03*
Y405000D02*
D03*
X300000Y275000D02*
D03*
Y285000D02*
D03*
Y295000D02*
D03*
Y305000D02*
D03*
Y315000D02*
D03*
Y325000D02*
D03*
Y335000D02*
D03*
Y345000D02*
D03*
Y355000D02*
D03*
Y365000D02*
D03*
Y375000D02*
D03*
Y385000D02*
D03*
Y395000D02*
D03*
D42*
Y405000D02*
D03*
D43*
X118032Y357618D02*
D03*
Y337933D02*
D03*
D44*
X107500Y333996D02*
D03*
Y361555D02*
D03*
D45*
X450000Y220000D02*
D03*
X490000Y395000D02*
D03*
X617500Y412500D02*
D03*
X587500Y395000D02*
D03*
X532500D02*
D03*
X452500Y407500D02*
D03*
X505000Y290000D02*
D03*
Y307500D02*
D03*
Y327500D02*
D03*
X540000Y270000D02*
D03*
X545000Y322500D02*
D03*
X595000Y280000D02*
D03*
Y302500D02*
D03*
X420000Y212500D02*
D03*
Y257500D02*
D03*
X660000Y287500D02*
D03*
X685000Y270000D02*
D03*
X671004Y250077D02*
D03*
X657500Y265000D02*
D03*
X677500Y222500D02*
D03*
X670000Y202500D02*
D03*
X630000Y220000D02*
D03*
X565000Y207500D02*
D03*
X562500Y185000D02*
D03*
X550000Y162500D02*
D03*
X457500Y202500D02*
D03*
X480000D02*
D03*
X505000Y197500D02*
D03*
X427500D02*
D03*
X412500Y185000D02*
D03*
X457500Y172500D02*
D03*
X432500D02*
D03*
X367500Y180000D02*
D03*
X345000Y202500D02*
D03*
X340000Y180000D02*
D03*
X350000Y237500D02*
D03*
X390000Y332500D02*
D03*
X375000Y345000D02*
D03*
X402500Y382500D02*
D03*
X382500D02*
D03*
Y370000D02*
D03*
X402500D02*
D03*
X530000Y362500D02*
D03*
X455000Y357500D02*
D03*
X445000Y305000D02*
D03*
X417500D02*
D03*
X450000Y327500D02*
D03*
X460000Y337500D02*
D03*
X605000Y375000D02*
D03*
X682500Y317500D02*
D03*
X660000Y320000D02*
D03*
X682500Y335000D02*
D03*
Y350000D02*
D03*
X660000Y335000D02*
D03*
Y350000D02*
D03*
X567500Y415000D02*
D03*
X507500Y420000D02*
D03*
X342500Y305000D02*
D03*
X347500Y272500D02*
D03*
X350000Y325000D02*
D03*
X342500Y350000D02*
D03*
X317500D02*
D03*
X315000Y300000D02*
D03*
Y315000D02*
D03*
X322500Y222500D02*
D03*
X262500Y175000D02*
D03*
X242500Y190000D02*
D03*
X272500Y220000D02*
D03*
X295000Y222500D02*
D03*
Y255000D02*
D03*
X262500Y257500D02*
D03*
X242500D02*
D03*
X147500Y187500D02*
D03*
Y232500D02*
D03*
X135000Y210000D02*
D03*
X182268Y399013D02*
D03*
X200000Y375000D02*
D03*
X187500Y342500D02*
D03*
X160000Y337500D02*
D03*
X150000Y360000D02*
D03*
X157500Y412500D02*
D03*
X117500Y395000D02*
D03*
X125000Y407500D02*
D03*
X177081Y270904D02*
D03*
X162500Y285000D02*
D03*
X147500Y300000D02*
D03*
X172500Y315000D02*
D03*
X197500Y325000D02*
D03*
X232500Y322500D02*
D03*
X220000Y317500D02*
D03*
X280000Y320000D02*
D03*
X257500Y340000D02*
D03*
X235000Y345000D02*
D03*
X240000Y375000D02*
D03*
X265000D02*
D03*
X245000Y402500D02*
D03*
X220000Y390000D02*
D03*
X217500Y407500D02*
D03*
X355000Y435000D02*
D03*
X335000D02*
D03*
X315000D02*
D03*
X295000D02*
D03*
X275000D02*
D03*
X255000D02*
D03*
X235000D02*
D03*
X215000D02*
D03*
X195558D02*
D03*
X175000D02*
D03*
X537500Y285000D02*
D03*
X560000Y287500D02*
D03*
X580000Y317500D02*
D03*
X422500Y335000D02*
D03*
X415000Y327500D02*
D03*
X430000D02*
D03*
X390000Y317500D02*
D03*
X447500Y245000D02*
D03*
X480900Y171552D02*
D03*
X260000Y277500D02*
D03*
X245000Y320000D02*
D03*
X237500Y410000D02*
D03*
X157500Y402500D02*
D03*
Y347500D02*
D03*
X165000Y375000D02*
D03*
D46*
X344494Y292826D02*
D03*
X400000Y195000D02*
D03*
X427500Y392500D02*
D03*
X277500Y185000D02*
D03*
X145000Y415000D02*
D03*
D47*
X120000Y430000D02*
D03*
X680000Y170000D02*
D03*
Y430000D02*
D03*
X120000Y170000D02*
D03*
%TF.MD5,15580f2f1bd7e0bc09a2aacd1d300b80*%
M02*
