M48
;Layer_Color=6321
;FILE_FORMAT=2:5
INCH
;TYPE=PLATED
T1F00S00C0.01968
T2F00S00C0.02000
T4F00S00C0.02756
T5F00S00C0.02800
T6F00S00C0.03000
T7F00S00C0.03937
T8F00S00C0.04331
T9F00S00C0.05118
T10F00S00C0.12500
%
T01
X0285000Y0240000
X0304213
T02
X0630000Y0220000
X0677500Y0222500
X0670000Y0202500
X0671004Y0250077
X0657500Y0265000
X0660000Y0287500
X0685000Y0270000
X0595000Y0280000
Y0302500
X0560000Y0287500
X0537500Y0285000
X0540000Y0270000
X0505000Y0290000
Y0307500
Y0197500
X0480000Y0202500
X0480900Y0171552
X0550000Y0162500
X0562500Y0185000
X0565000Y0207500
X0457500Y0202500
X0450000Y0220000
X0447500Y0245000
X0420000Y0257500
Y0212500
X0427500Y0197500
X0412500Y0185000
X0432500Y0172500
X0457500
X0367500Y0180000
X0340000
X0345000Y0202500
X0350000Y0237500
X0347500Y0272500
X0342500Y0305000
X0315000Y0300000
X0322500Y0222500
X0417500Y0305000
X0445000
X0295000Y0255000
Y0222500
X0272500Y0220000
X0262500Y0257500
X0242500
X0260000Y0277500
X0177081Y0270904
X0162500Y0285000
X0242500Y0190000
X0262500Y0175000
X0147500Y0187500
X0135000Y0210000
X0147500Y0232500
Y0300000
X0150000Y0360000
X0117500Y0395000
X0125000Y0407500
X0157500Y0412500
Y0402500
X0182268Y0399013
X0165000Y0375000
X0200000
X0220000Y0390000
X0217500Y0407500
X0237500Y0410000
X0245000Y0402500
X0240000Y0375000
X0265000
X0257500Y0340000
X0235000Y0345000
X0232500Y0322500
X0245000Y0320000
X0220000Y0317500
X0197500Y0325000
X0187500Y0342500
X0160000Y0337500
X0157500Y0347500
X0172500Y0315000
X0280000Y0320000
X0275000Y0435000
X0295000
X0255000
X0235000
X0215000
X0195558
X0175000
X0315000
X0335000
X0355000
X0382500Y0382500
Y0370000
X0402500
Y0382500
X0390000Y0332500
Y0317500
X0415000Y0327500
X0422500Y0335000
X0430000Y0327500
X0450000
X0460000Y0337500
X0455000Y0357500
X0452500Y0407500
X0375000Y0345000
X0342500Y0350000
X0317500
X0315000Y0315000
X0350000Y0325000
X0505000Y0327500
X0545000Y0322500
X0580000Y0317500
X0605000Y0375000
X0587500Y0395000
X0567500Y0415000
X0617500Y0412500
X0532500Y0395000
X0530000Y0362500
X0490000Y0395000
X0507500Y0420000
X0660000Y0350000
Y0335000
Y0320000
X0682500Y0317500
Y0335000
Y0350000
T04
X0531949Y0200000
X0541791Y0190164
Y0209850
X0377619Y0208819
Y0189134
X0367776Y0198970
T05
X0400000Y0195000
X0344494Y0292826
X0277500Y0185000
X0145000Y0415000
X0427500Y0392500
T06
X0625000Y0245866
X0605000
X0575000
X0545000
X0525000
X0495000
X0475000
Y0354134
X0485000
X0495000
X0505000
X0515000
X0525000
X0535000
X0545000
X0555000
X0565000
X0575000
X0585000
X0595000
X0605000
X0615000
X0625000
T07
X0393642Y0437500
X0411358
X0467500Y0437500
X0485217
X0537500
X0555217
X0607500
X0625217
T08
X0330000Y0275000
Y0285000
Y0295000
Y0305000
X0300000
Y0295000
Y0285000
Y0275000
Y0315000
Y0325000
Y0335000
Y0345000
Y0355000
Y0365000
Y0375000
Y0385000
Y0395000
Y0405000
X0330000
Y0395000
Y0385000
Y0375000
Y0365000
Y0355000
Y0345000
Y0335000
Y0325000
Y0315000
T09
X0388720Y0427658
X0416280
X0462579Y0427657
X0490138
X0532579
X0560138
X0602579
X0630138
T10
X0680000Y0170000
X0120000
Y0430000
X0680000
M30
